g crate-box
v 0.39266783 0.89531386 0.50022286
v 0.39266783 0.89531386 0.4791339
v -0.39266777 0.89531386 0.47913396
v -0.39266777 0.89531386 0.5002229
v 0.5002229 0.8953137 -0.39266798
v 0.47913393 0.8953137 -0.39266798
v 0.47913402 0.89531386 0.39266765
v 0.500223 0.89531386 0.39266765
v 0.39266783 1.0028689 0.39266768
v 0.39266783 0.9817802 0.39266777
v 0.39266777 0.98178 -0.39266798
v 0.39266777 1.0028689 -0.39266798
v -0.39266777 0.0024230857 0.3926679
v -0.39266777 0.023512052 0.3926679
v -0.39266783 0.02351196 -0.39266783
v -0.39266783 0.0024229935 -0.39266783
v -0.39266777 1.0028689 0.3926677
v -0.39266777 0.9817802 0.39266783
v 0.39266783 0.9817802 0.39266777
v 0.39266783 1.0028689 0.39266768
v 0.39266777 0.10997811 -0.50022304
v 0.39266777 0.10997811 -0.47913405
v -0.39266783 0.10997811 -0.47913402
v -0.39266783 0.10997811 -0.500223
v 0.5002229 1.0028688 -0.50022316
v 0.5002229 0.8953137 -0.39266798
v 0.500223 0.89531386 0.39266765
v 0.500223 1.002869 0.50022286
v 0.500223 1.002869 0.50022286
v 0.500223 0.89531386 0.39266765
v 0.500223 0.109978214 0.39266777
v 0.500223 0.0024231032 0.500223
v 0.500223 0.0024231032 0.500223
v 0.500223 0.109978214 0.39266777
v 0.5002229 0.10997812 -0.39266792
v 0.5002229 0.0024229763 -0.50022304
v 0.5002229 0.0024229763 -0.50022304
v 0.5002229 0.8953137 -0.39266798
v 0.5002229 1.0028688 -0.50022316
v 0.500223 1.002869 0.50022286
v 0.39266783 0.89531386 0.50022286
v -0.39266777 0.89531386 0.5002229
v -0.5002229 1.002869 0.500223
v -0.5002229 1.002869 0.500223
v -0.39266777 0.89531386 0.5002229
v -0.39266777 0.109978236 0.50022304
v -0.5002229 0.0024231032 0.50022304
v -0.5002229 0.0024231032 0.50022304
v -0.39266777 0.109978236 0.50022304
v 0.39266783 0.109978236 0.500223
v 0.500223 0.0024231032 0.500223
v 0.500223 0.0024231032 0.500223
v 0.39266783 0.109978236 0.500223
v 0.39266783 0.89531386 0.50022286
v 0.500223 1.002869 0.50022286
v -0.5002229 1.002869 0.500223
v -0.5002229 0.89531386 0.39266768
v -0.500223 0.8953137 -0.39266792
v -0.500223 1.0028688 -0.50022304
v -0.500223 1.0028688 -0.50022304
v -0.500223 0.10997812 -0.39266783
v -0.500223 0.0024229763 -0.500223
v -0.500223 0.0024229763 -0.500223
v -0.500223 0.10997812 -0.39266783
v -0.5002229 0.109978214 0.3926679
v -0.5002229 0.0024231032 0.50022304
v -0.5002229 0.0024231032 0.50022304
v -0.5002229 0.109978214 0.3926679
v -0.5002229 0.89531386 0.39266768
v -0.5002229 1.002869 0.500223
v -0.500223 1.0028688 -0.50022304
v 0.39266777 0.8953137 -0.50022316
v 0.5002229 1.0028688 -0.50022316
v -0.39266783 0.8953137 -0.50022304
v -0.500223 0.0024229763 -0.500223
v -0.39266783 0.10997811 -0.500223
v -0.500223 1.0028688 -0.50022304
v 0.5002229 1.0028688 -0.50022316
v 0.39266777 0.8953137 -0.50022316
v 0.39266777 0.10997811 -0.50022304
v 0.5002229 0.0024229763 -0.50022304
v -0.39266783 0.10997811 -0.500223
v -0.500223 0.0024229763 -0.500223
v 0.5002229 0.0024229763 -0.50022304
v 0.39266777 0.0024229935 -0.3926679
v 0.39266783 0.0024230857 0.39266783
v 0.500223 0.0024231032 0.500223
v 0.500223 0.0024231032 0.500223
v 0.39266783 0.0024230857 0.39266783
v -0.39266777 0.0024230857 0.3926679
v -0.5002229 0.0024231032 0.50022304
v -0.5002229 0.0024231032 0.50022304
v -0.39266777 0.0024230857 0.3926679
v -0.39266783 0.0024229935 -0.39266783
v -0.500223 0.0024229763 -0.500223
v -0.500223 0.0024229763 -0.500223
v 0.39266777 0.0024229935 -0.3926679
v 0.5002229 0.0024229763 -0.50022304
v -0.500223 1.0028688 -0.50022304
v -0.39266783 1.0028689 -0.39266795
v -0.39266777 1.0028689 0.3926677
v -0.5002229 1.002869 0.500223
v -0.5002229 1.002869 0.500223
v -0.39266777 1.0028689 0.3926677
v 0.39266783 1.0028689 0.39266768
v 0.500223 1.002869 0.50022286
v 0.500223 1.002869 0.50022286
v 0.39266783 1.0028689 0.39266768
v 0.39266777 1.0028689 -0.39266798
v 0.5002229 1.0028688 -0.50022316
v 0.5002229 1.0028688 -0.50022316
v -0.39266783 1.0028689 -0.39266795
v -0.500223 1.0028688 -0.50022304
v 0.5002229 0.10997812 -0.39266792
v 0.47913393 0.10997812 -0.39266792
v 0.47913393 0.8953137 -0.39266798
v 0.5002229 0.8953137 -0.39266798
v -0.5002229 0.89531386 0.39266768
v -0.47913393 0.89531386 0.39266768
v -0.47913402 0.8953137 -0.39266792
v -0.500223 0.8953137 -0.39266792
v 0.39266783 0.109978236 0.500223
v 0.39266783 0.109978236 0.47913396
v 0.39266783 0.89531386 0.4791339
v 0.39266783 0.89531386 0.50022286
v -0.39266783 0.8953137 -0.50022304
v -0.39266783 0.8953136 -0.47913408
v 0.39266777 0.8953136 -0.47913417
v 0.39266777 0.8953137 -0.50022316
v 0.500223 0.89531386 0.39266765
v 0.47913402 0.89531386 0.39266765
v 0.47913402 0.109978214 0.39266777
v 0.500223 0.109978214 0.39266777
v -0.5002229 0.109978214 0.3926679
v -0.47913393 0.109978214 0.3926679
v -0.47913393 0.89531386 0.39266768
v -0.5002229 0.89531386 0.39266768
v 0.39266777 0.0024229935 -0.3926679
v 0.39266777 0.02351196 -0.3926679
v 0.39266783 0.023512052 0.39266783
v 0.39266783 0.0024230857 0.39266783
v -0.39266777 0.89531386 0.5002229
v -0.39266777 0.89531386 0.47913396
v -0.39266777 0.109978236 0.47913402
v -0.39266777 0.109978236 0.50022304
v -0.39266783 0.10997811 -0.500223
v -0.39266783 0.10997811 -0.47913402
v -0.39266783 0.8953136 -0.47913408
v -0.39266783 0.8953137 -0.50022304
v -0.39266783 1.0028689 -0.39266795
v -0.39266783 0.98178 -0.39266792
v -0.39266777 0.9817802 0.39266783
v -0.39266777 1.0028689 0.3926677
v 0.500223 0.109978214 0.39266777
v 0.47913402 0.109978214 0.39266777
v 0.47913393 0.10997812 -0.39266792
v 0.5002229 0.10997812 -0.39266792
v -0.500223 0.8953137 -0.39266792
v -0.47913402 0.8953137 -0.39266792
v -0.47913402 0.10997812 -0.39266783
v -0.500223 0.10997812 -0.39266783
v -0.39266783 0.0024229935 -0.39266783
v -0.39266783 0.02351196 -0.39266783
v 0.39266777 0.02351196 -0.3926679
v 0.39266777 0.0024229935 -0.3926679
v -0.39266777 0.109978236 0.50022304
v -0.39266777 0.109978236 0.47913402
v 0.39266783 0.109978236 0.47913396
v 0.39266783 0.109978236 0.500223
v 0.39266777 0.8953137 -0.50022316
v 0.39266777 0.8953136 -0.47913417
v 0.39266777 0.10997811 -0.47913405
v 0.39266777 0.10997811 -0.50022304
v 0.39266777 1.0028689 -0.39266798
v 0.39266777 0.98178 -0.39266798
v -0.39266783 0.98178 -0.39266792
v -0.39266783 1.0028689 -0.39266795
v -0.500223 0.10997812 -0.39266783
v -0.47913402 0.10997812 -0.39266783
v -0.47913393 0.109978214 0.3926679
v -0.5002229 0.109978214 0.3926679
v 0.39266783 0.0024230857 0.39266783
v 0.39266783 0.023512052 0.39266783
v -0.39266777 0.023512052 0.3926679
v -0.39266777 0.0024230857 0.3926679
v 0.47913393 0.8953137 -0.39266798
v 0.47913393 0.10997812 -0.39266792
v 0.47913402 0.109978214 0.39266777
v 0.47913402 0.89531386 0.39266765
v 0.39266783 0.89531386 0.4791339
v 0.39266783 0.109978236 0.47913396
v -0.39266777 0.109978236 0.47913402
v -0.39266777 0.89531386 0.47913396
v -0.47913393 0.89531386 0.39266768
v -0.47913393 0.109978214 0.3926679
v -0.47913402 0.10997812 -0.39266783
v -0.47913402 0.8953137 -0.39266792
v -0.39266783 0.8953136 -0.47913408
v -0.39266783 0.10997811 -0.47913402
v 0.39266777 0.10997811 -0.47913405
v 0.39266777 0.8953136 -0.47913417
v 0.39266777 0.02351196 -0.3926679
v -0.39266783 0.02351196 -0.39266783
v -0.39266777 0.023512052 0.3926679
v 0.39266783 0.023512052 0.39266783
v -0.39266783 0.98178 -0.39266792
v 0.39266777 0.98178 -0.39266798
v 0.39266783 0.9817802 0.39266777
v -0.39266777 0.9817802 0.39266783
vt 0.4638069 0.064789675
vt 0.470956 0.07030335
vt 0.67729026 0.08098987
vt 0.6825636 0.07419472
vt 0.3042645 0.54826754
vt 0.30019695 0.55428267
vt 0.34697667 0.7646093
vt 0.3565434 0.7713356
vt 0.42848998 0.7563541
vt 0.43347928 0.75488037
vt 0.36558548 0.52329594
vt 0.35997948 0.52416825
vt 0.0071451003 0.05404635
vt 0.0021574418 0.055521183
vt 0.07005045 0.28710672
vt 0.075656444 0.28623328
vt 0.68290335 0.01840024
vt 0.6831852 0.01264458
vt 0.46886337 0.0021563494
vt 0.468581 0.007911739
vt 0.1285119 0.49444115
vt 0.13297081 0.48894003
vt 0.14061671 0.31796673
vt 0.13499707 0.31368428
vt 0.32398406 0.5253831
vt 0.3042645 0.54826754
vt 0.3565434 0.7713356
vt 0.397766 0.8082452
vt 0.397766 0.8082452
vt 0.3565434 0.7713356
vt 0.07615706 0.7572827
vt 0.027586797 0.7895613
vt 0.027586797 0.7895613
vt 0.07615706 0.7572827
vt 0.12005731 0.5460384
vt 0.10028693 0.5173906
vt 0.10028693 0.5173906
vt 0.3042645 0.54826754
vt 0.32398406 0.5253831
vt 0.43779197 0.035827007
vt 0.4638069 0.064789675
vt 0.6825636 0.07419472
vt 0.7108192 0.049188152
vt 0.7108192 0.049188152
vt 0.6825636 0.07419472
vt 0.68480426 0.29460216
vt 0.7108192 0.3235651
vt 0.7108192 0.3235651
vt 0.68480426 0.29460216
vt 0.46604863 0.28519872
vt 0.43779197 0.31020314
vt 0.43779197 0.31020314
vt 0.46604863 0.28519872
vt 0.4638069 0.064789675
vt 0.43779197 0.035827007
vt 0.4080491 0.020842997
vt 0.3594794 0.05311994
vt 0.3155786 0.26436538
vt 0.3353498 0.2930137
vt 0.3353498 0.2930137
vt 0.13137226 0.26213565
vt 0.11165187 0.28501847
vt 0.11165187 0.28501847
vt 0.13137226 0.26213565
vt 0.0790928 0.039064806
vt 0.03786992 0.0021563494
vt 0.03786992 0.0021563494
vt 0.0790928 0.039064806
vt 0.3594794 0.05311994
vt 0.4080491 0.020842997
vt 0.3353498 0.2930137
vt 0.30063885 0.49672002
vt 0.32398406 0.5253831
vt 0.30712402 0.3159615
vt 0.11165187 0.28501847
vt 0.13499707 0.31368428
vt 0.3353498 0.2930137
vt 0.32398406 0.5253831
vt 0.30063885 0.49672002
vt 0.1285119 0.49444115
vt 0.10028693 0.5173906
vt 0.13499707 0.31368428
vt 0.11165187 0.28501847
vt 0.10028693 0.5173906
vt 0.07396804 0.51159394
vt 0.008660899 0.7546493
vt 0.027586797 0.7895613
vt 0.43779197 0.31020314
vt 0.46570778 0.34099266
vt 0.68003017 0.35148036
vt 0.7108192 0.3235651
vt 0.03786992 0.0021563494
vt 0.0071451003 0.05404635
vt 0.075656444 0.28623328
vt 0.11165187 0.28501847
vt 0.11165187 0.28501847
vt 0.07396804 0.51159394
vt 0.10028693 0.5173906
vt 0.3353498 0.2930137
vt 0.36166787 0.29880923
vt 0.42697474 0.05575497
vt 0.4080491 0.020842997
vt 0.7108192 0.049188152
vt 0.68290335 0.01840024
vt 0.468581 0.007911739
vt 0.43779197 0.035827007
vt 0.397766 0.8082452
vt 0.42848998 0.7563541
vt 0.35997948 0.52416825
vt 0.32398406 0.5253831
vt 0.32398406 0.5253831
vt 0.36166787 0.29880923
vt 0.3353498 0.2930137
vt 0.12005731 0.5460384
vt 0.12562889 0.55077857
vt 0.30019695 0.55428267
vt 0.3042645 0.54826754
vt 0.3594794 0.05311994
vt 0.3522817 0.061627526
vt 0.31000704 0.2596246
vt 0.3155786 0.26436538
vt 0.46604863 0.28519872
vt 0.47132143 0.278403
vt 0.470956 0.07030335
vt 0.4638069 0.064789675
vt 0.30712402 0.3159615
vt 0.30266455 0.32146263
vt 0.2950192 0.49243593
vt 0.30063885 0.49672002
vt 0.3565434 0.7713356
vt 0.34697667 0.7646093
vt 0.08335451 0.7487762
vt 0.07615706 0.7572827
vt 0.0790928 0.039064806
vt 0.08865899 0.04579167
vt 0.3522817 0.061627526
vt 0.3594794 0.05311994
vt 0.07396804 0.51159394
vt 0.067632 0.5106648
vt 0.0021563494 0.7528899
vt 0.008660899 0.7546493
vt 0.6825636 0.07419472
vt 0.67729026 0.08098987
vt 0.67765516 0.28908902
vt 0.68480426 0.29460216
vt 0.13499707 0.31368428
vt 0.14061671 0.31796673
vt 0.30266455 0.32146263
vt 0.30712402 0.3159615
vt 0.36166787 0.29880923
vt 0.3680039 0.29973784
vt 0.43347928 0.05751384
vt 0.42697474 0.05575497
vt 0.07615706 0.7572827
vt 0.08335451 0.7487762
vt 0.12562889 0.55077857
vt 0.12005731 0.5460384
vt 0.3155786 0.26436538
vt 0.31000704 0.2596246
vt 0.13543898 0.25611997
vt 0.13137226 0.26213565
vt 0.075656444 0.28623328
vt 0.07005045 0.28710672
vt 0.067632 0.5106648
vt 0.07396804 0.51159394
vt 0.68480426 0.29460216
vt 0.67765516 0.28908902
vt 0.47132143 0.278403
vt 0.46604863 0.28519872
vt 0.30063885 0.49672002
vt 0.2950192 0.49243593
vt 0.13297081 0.48894003
vt 0.1285119 0.49444115
vt 0.35997948 0.52416825
vt 0.36558548 0.52329594
vt 0.3680039 0.29973784
vt 0.36166787 0.29880923
vt 0.13137226 0.26213565
vt 0.13543898 0.25611997
vt 0.08865899 0.04579167
vt 0.0790928 0.039064806
vt 0.46570778 0.34099266
vt 0.46542647 0.34674832
vt 0.6797483 0.3572363
vt 0.68003017 0.35148036
vt 0.8605512 0.7886209
vt 0.6513279 0.7886209
vt 0.6513279 0.9978436
vt 0.8605512 0.9978436
vt 0.9243551 0.35723627
vt 0.9243551 0.14801352
vt 0.7151318 0.14801352
vt 0.7151318 0.35723627
vt 0.6513279 0.7843082
vt 0.8605512 0.7843082
vt 0.8605512 0.57508546
vt 0.6513279 0.57508546
vt 0.43779197 0.36154896
vt 0.43779197 0.5707728
vt 0.6470153 0.5707728
vt 0.6470153 0.36154896
vt 0.8605512 0.36154896
vt 0.6513279 0.36154896
vt 0.6513279 0.5707717
vt 0.8605512 0.5707717
vt 0.6470153 0.57508546
vt 0.43779197 0.57508546
vt 0.43779197 0.78430927
vt 0.6470153 0.78430927
vn -0 -1 0
vn -0 -1 0
vn -0 -1 0
vn -0 -1 0
vn -0 -1 1.5179386E-07
vn -0 -1 1.5179386E-07
vn -0 -1 1.5179386E-07
vn -0 -1 1.5179386E-07
vn -1 0 0
vn -1 0 0
vn -1 0 0
vn -1 0 0
vn 1 0 0
vn 1 0 0
vn 1 0 0
vn 1 0 0
vn -0 -5.39841E-06 -1
vn -0 -5.39841E-06 -1
vn -0 -5.39841E-06 -1
vn -0 -5.39841E-06 -1
vn -0 1 0
vn -0 1 0
vn -0 1 0
vn -0 1 0
vn 1 0 0
vn 1 0 0
vn 1 0 0
vn 1 0 0
vn 1 0 -3.1032755E-07
vn 1 0 -3.1032755E-07
vn 1 0 -3.1032755E-07
vn 1 0 -3.1032755E-07
vn 1 0 0
vn 1 0 0
vn 1 0 0
vn 1 0 0
vn 1 0 9.309834E-07
vn 1 0 9.309834E-07
vn 1 0 9.309834E-07
vn 1.00132034E-07 0 1
vn 1.00132034E-07 0 1
vn 1.00132034E-07 0 1
vn 1.00132034E-07 0 1
vn 2.7708865E-07 1.551638E-07 1
vn 2.7708865E-07 1.551638E-07 1
vn 2.7708865E-07 1.551638E-07 1
vn 2.7708865E-07 1.551638E-07 1
vn -0 0 1
vn -0 0 1
vn -0 0 1
vn -0 0 1
vn -0 1.551638E-07 1
vn -0 1.551638E-07 1
vn -0 1.551638E-07 1
vn -0 1.551638E-07 1
vn -1 0 0
vn -1 0 0
vn -1 0 0
vn -1 0 0
vn -1 0 3.1032778E-07
vn -1 0 3.1032778E-07
vn -1 0 3.1032778E-07
vn -1 0 0
vn -1 0 0
vn -1 0 0
vn -1 0 0
vn -1 0 -6.206551E-07
vn -1 0 -6.206551E-07
vn -1 0 -6.206551E-07
vn -1 0 -6.206551E-07
vn -1.3350937E-07 0 -1
vn -1.3350937E-07 0 -1
vn -1.3350937E-07 0 -1
vn -1.3350937E-07 0 -1
vn -0 0 -1
vn -0 0 -1
vn -0 0 -1
vn -0 -1.16372895E-07 -1
vn -0 -1.16372895E-07 -1
vn -0 -1.16372895E-07 -1
vn -0 -1.16372895E-07 -1
vn -0 0 -1
vn -0 0 -1
vn -0 -1 1.2268777E-07
vn -0 -1 1.2268777E-07
vn -0 -1 1.2268777E-07
vn -0 -1 1.2268777E-07
vn -0 -1 1.623567E-07
vn -0 -1 1.623567E-07
vn -0 -1 1.623567E-07
vn -0 -1 1.623567E-07
vn -0 -1 1.2268777E-07
vn -0 -1 1.2268777E-07
vn -0 -1 1.2268777E-07
vn -0 -1 1.2268777E-07
vn -0 -1 1.6019193E-07
vn -0 -1 1.6019193E-07
vn -0 -1 1.6019193E-07
vn 1.2413109E-06 1 -1.3350932E-07
vn 1.2413109E-06 1 -1.3350932E-07
vn 1.2413109E-06 1 -1.3350932E-07
vn 1.2413109E-06 1 -1.3350932E-07
vn -0 1 -1.1083546E-06
vn -0 1 -1.1083546E-06
vn -0 1 -1.1083546E-06
vn -0 1 -1.1083546E-06
vn -6.2065544E-07 1 -1.3350932E-07
vn -6.2065544E-07 1 -1.3350932E-07
vn -6.2065544E-07 1 -1.3350932E-07
vn -6.2065544E-07 1 -1.3350932E-07
vn -0 1 -1.1083556E-06
vn -0 1 -1.1083556E-06
vn -0 1 -1.1083556E-06
vn -0 1.124657E-07 1
vn -0 1.124657E-07 1
vn -0 1.124657E-07 1
vn -0 1.124657E-07 1
vn -0 -1 1.5179386E-07
vn -0 -1 1.5179386E-07
vn -0 -1 1.5179386E-07
vn -0 -1 1.5179386E-07
vn -1 0 0
vn -1 0 0
vn -1 0 0
vn -1 0 0
vn -0 -1 -2.8263464E-06
vn -0 -1 -2.8263464E-06
vn -0 -1 -2.8263464E-06
vn -0 -1 -2.8263464E-06
vn -0 -1.6869825E-07 -1
vn -0 -1.6869825E-07 -1
vn -0 -1.6869825E-07 -1
vn -0 -1.6869825E-07 -1
vn -0 -2.249314E-07 -1
vn -0 -2.249314E-07 -1
vn -0 -2.249314E-07 -1
vn -0 -2.249314E-07 -1
vn -1 0 1.4162508E-07
vn -1 0 1.4162508E-07
vn -1 0 1.4162508E-07
vn -1 0 1.4162508E-07
vn 1 0 0
vn 1 0 0
vn 1 0 0
vn 1 0 0
vn 1 0 -1.7994507E-06
vn 1 0 -1.7994507E-06
vn 1 0 -1.7994507E-06
vn 1 0 -1.7994507E-06
vn 1 0 -1.4664329E-07
vn 1 0 -1.4664329E-07
vn 1 0 -1.4664329E-07
vn 1 0 -1.4664329E-07
vn -0 1 -1.1384534E-07
vn -0 1 -1.1384534E-07
vn -0 1 -1.1384534E-07
vn -0 1 -1.1384534E-07
vn -0 1.1246549E-07 1
vn -0 1.1246549E-07 1
vn -0 1.1246549E-07 1
vn -0 1.1246549E-07 1
vn -0 0 1
vn -0 0 1
vn -0 0 1
vn -0 0 1
vn -0 1 0
vn -0 1 0
vn -0 1 0
vn -0 1 0
vn -1 0 -1.7994471E-06
vn -1 0 -1.7994471E-06
vn -1 0 -1.7994471E-06
vn -1 0 -1.7994471E-06
vn -0 1.7994546E-06 1
vn -0 1.7994546E-06 1
vn -0 1.7994546E-06 1
vn -0 1.7994546E-06 1
vn -0 1 -1.1384534E-07
vn -0 1 -1.1384534E-07
vn -0 1 -1.1384534E-07
vn -0 1 -1.1384534E-07
vn -0 0 -1
vn -0 0 -1
vn -0 0 -1
vn -0 0 -1
vn 1 0 0
vn 1 0 0
vn 1 0 0
vn 1 0 0
vn -0 0 1
vn -0 0 1
vn -0 0 1
vn -0 0 1
vn -1 0 0
vn -1 0 0
vn -1 0 0
vn -1 0 0
vn -0 -1.9328563E-07 -1
vn -0 -1.9328563E-07 -1
vn -0 -1.9328563E-07 -1
vn -0 -1.9328563E-07 -1
vn -0 -1 1.1621732E-07
vn -0 -1 1.1621732E-07
vn -0 -1 1.1621732E-07
vn -0 -1 1.1621732E-07
vn -0 1 -2.2769109E-07
vn -0 1 -2.2769109E-07
vn -0 1 -2.2769109E-07
vn -0 1 -2.2769109E-07
g crate-box_0
f 3/3/3 2/2/2 1/1/1
f 4/4/4 3/3/3 1/1/1
f 7/7/7 6/6/6 5/5/5
f 8/8/8 7/7/7 5/5/5
f 11/11/11 10/10/10 9/9/9
f 12/12/12 11/11/11 9/9/9
f 15/15/15 14/14/14 13/13/13
f 16/16/16 15/15/15 13/13/13
f 19/19/19 18/18/18 17/17/17
f 20/20/20 19/19/19 17/17/17
f 23/23/23 22/22/22 21/21/21
f 24/24/24 23/23/23 21/21/21
f 27/27/27 26/26/26 25/25/25
f 28/28/28 27/27/27 25/25/25
f 31/31/31 30/30/30 29/29/29
f 32/32/32 31/31/31 29/29/29
f 35/35/35 34/34/34 33/33/33
f 36/36/36 35/35/35 33/33/33
f 38/38/38 35/35/35 37/37/37
f 39/39/39 38/38/38 37/37/37
f 42/42/42 41/41/41 40/40/40
f 43/43/43 42/42/42 40/40/40
f 46/46/46 45/45/45 44/44/44
f 47/47/47 46/46/46 44/44/44
f 50/50/50 49/49/49 48/48/48
f 51/51/51 50/50/50 48/48/48
f 54/54/54 53/53/53 52/52/52
f 55/55/55 54/54/54 52/52/52
f 58/58/58 57/57/57 56/56/56
f 59/59/59 58/58/58 56/56/56
f 61/61/61 58/58/58 60/60/60
f 62/62/62 61/61/61 60/60/60
f 65/65/65 64/64/64 63/63/63
f 66/66/66 65/65/65 63/63/63
f 69/69/69 68/68/68 67/67/67
f 70/70/70 69/69/69 67/67/67
f 73/73/73 72/72/72 71/71/71
f 72/72/72 74/74/74 71/71/71
f 74/74/74 76/76/76 75/75/75
f 77/77/77 74/74/74 75/75/75
f 80/80/80 79/79/79 78/78/78
f 81/81/81 80/80/80 78/78/78
f 82/82/82 80/80/80 81/81/81
f 83/83/83 82/82/82 81/81/81
f 86/86/86 85/85/85 84/84/84
f 87/87/87 86/86/86 84/84/84
f 90/90/90 89/89/89 88/88/88
f 91/91/91 90/90/90 88/88/88
f 94/94/94 93/93/93 92/92/92
f 95/95/95 94/94/94 92/92/92
f 97/97/97 94/94/94 96/96/96
f 98/98/98 97/97/97 96/96/96
f 101/101/101 100/100/100 99/99/99
f 102/102/102 101/101/101 99/99/99
f 105/105/105 104/104/104 103/103/103
f 106/106/106 105/105/105 103/103/103
f 109/109/109 108/108/108 107/107/107
f 110/110/110 109/109/109 107/107/107
f 112/112/112 109/109/109 111/111/111
f 113/113/113 112/112/112 111/111/111
f 116/116/116 115/115/115 114/114/114
f 117/117/117 116/116/116 114/114/114
f 120/120/120 119/119/119 118/118/118
f 121/121/121 120/120/120 118/118/118
f 124/124/124 123/123/123 122/122/122
f 125/125/125 124/124/124 122/122/122
f 128/128/128 127/127/127 126/126/126
f 129/129/129 128/128/128 126/126/126
f 132/132/132 131/131/131 130/130/130
f 133/133/133 132/132/132 130/130/130
f 136/136/136 135/135/135 134/134/134
f 137/137/137 136/136/136 134/134/134
f 140/140/140 139/139/139 138/138/138
f 141/141/141 140/140/140 138/138/138
f 144/144/144 143/143/143 142/142/142
f 145/145/145 144/144/144 142/142/142
f 148/148/148 147/147/147 146/146/146
f 149/149/149 148/148/148 146/146/146
f 152/152/152 151/151/151 150/150/150
f 153/153/153 152/152/152 150/150/150
f 156/156/156 155/155/155 154/154/154
f 157/157/157 156/156/156 154/154/154
f 160/160/160 159/159/159 158/158/158
f 161/161/161 160/160/160 158/158/158
f 164/164/164 163/163/163 162/162/162
f 165/165/165 164/164/164 162/162/162
f 168/168/168 167/167/167 166/166/166
f 169/169/169 168/168/168 166/166/166
f 172/172/172 171/171/171 170/170/170
f 173/173/173 172/172/172 170/170/170
f 176/176/176 175/175/175 174/174/174
f 177/177/177 176/176/176 174/174/174
f 180/180/180 179/179/179 178/178/178
f 181/181/181 180/180/180 178/178/178
f 184/184/184 183/183/183 182/182/182
f 185/185/185 184/184/184 182/182/182
g crate-box_1
f 188/188/188 187/187/187 186/186/186
f 189/189/189 188/188/188 186/186/186
f 192/192/192 191/191/191 190/190/190
f 193/193/193 192/192/192 190/190/190
f 196/196/196 195/195/195 194/194/194
f 197/197/197 196/196/196 194/194/194
f 200/200/200 199/199/199 198/198/198
f 201/201/201 200/200/200 198/198/198
f 204/204/204 203/203/203 202/202/202
f 205/205/205 204/204/204 202/202/202
f 208/208/208 207/207/207 206/206/206
f 209/209/209 208/208/208 206/206/206
