g lunar-rover-base_BL
v 0.927413 0.41159493 -1.3495426
v 0.927413 0.19023602 -1.3105111
v 0.927413 0.2800937 -1.1637254
v 0.927413 0.38727352 -1.1826241
v 0.927413 0.04575422 -0.9135507
v 0.927413 0.19023599 -0.7413641
v 0.927413 0.2800937 -0.8881499
v 0.927413 0.21013705 -0.97152096
v 0.927413 0.04575422 -1.1383246
v 0.927413 0.21013705 -1.0803543
v 0.927413 0.60625476 -0.8147193
v 0.927413 0.68313175 -1.0259377
v 0.927413 0.518749 -1.0259377
v 0.927413 0.48152587 -0.9236677
v 0.927413 0.6062547 -1.2371559
v 0.927413 0.41159493 -1.3495426
v 0.927413 0.38727352 -1.1826241
v 0.927413 0.48152584 -1.1282074
v 0.927413 0.41159493 -0.7023326
v 0.927413 0.60625476 -0.8147193
v 0.927413 0.48152587 -0.9236677
v 0.927413 0.38727352 -0.86925125
v 0.927413 0.68313175 -1.0259377
v 0.927413 0.6062547 -1.2371559
v 0.927413 0.48152584 -1.1282074
v 0.927413 0.518749 -1.0259377
v 0.927413 0.19023602 -1.3105111
v 0.927413 0.04575422 -1.1383246
v 0.927413 0.21013705 -1.0803543
v 0.927413 0.2800937 -1.1637254
v 0.927413 0.19023599 -0.7413641
v 0.927413 0.41159493 -0.7023326
v 0.927413 0.38727352 -0.86925125
v 0.927413 0.2800937 -0.8881499
v 0.927413 0.48152584 -1.1282074
v 0.927413 0.38727352 -1.1826241
v 0.90649116 0.3793079 -1.1279559
v 0.90649116 0.44067538 -1.0925254
v 0.927413 0.21013705 -1.0803543
v 0.927413 0.21013705 -0.97152096
v 0.90649116 0.26397473 -0.9905071
v 0.90649116 0.26397473 -1.0613682
v 0.927413 0.38727352 -0.86925125
v 0.927413 0.48152587 -0.9236677
v 0.90649116 0.4406754 -0.95934993
v 0.90649116 0.3793079 -0.92391944
v 0.927413 0.518749 -1.0259377
v 0.927413 0.48152584 -1.1282074
v 0.90649116 0.44067538 -1.0925254
v 0.90649116 0.4649113 -1.0259377
v 0.927413 0.2800937 -1.1637254
v 0.927413 0.21013705 -1.0803543
v 0.90649116 0.26397473 -1.0613682
v 0.90649116 0.30952334 -1.115651
v 0.927413 0.2800937 -0.8881499
v 0.927413 0.38727352 -0.86925125
v 0.90649116 0.3793079 -0.92391944
v 0.90649116 0.30952334 -0.9362244
v 0.927413 0.38727352 -1.1826241
v 0.927413 0.2800937 -1.1637254
v 0.90649116 0.30952334 -1.115651
v 0.90649116 0.3793079 -1.1279559
v 0.927413 0.21013705 -0.97152096
v 0.927413 0.2800937 -0.8881499
v 0.90649116 0.30952334 -0.9362244
v 0.90649116 0.26397473 -0.9905071
v 0.927413 0.48152587 -0.9236677
v 0.927413 0.518749 -1.0259377
v 0.90649116 0.4649113 -1.0259377
v 0.90649116 0.4406754 -0.95934993
v 0.90649116 0.4649113 -1.0259377
v 0.90649116 0.44067538 -1.0925254
v 0.90649116 0.3793079 -1.1279559
v 0.90649116 0.30952334 -1.115651
v 0.90649116 0.26397473 -1.0613682
v 0.90649116 0.26397473 -0.9905071
v 0.90649116 0.30952334 -0.9362244
v 0.90649116 0.4406754 -0.95934993
v 0.90649116 0.3793079 -0.92391944
v 0.8237331 0.626694 -0.7968659
v 0.72005326 0.60625476 -0.8147193
v 0.72005326 0.68313175 -1.0259377
v 0.8237331 0.7100692 -1.0259377
v 0.82373303 0.62669396 -1.2550093
v 0.72005314 0.6062547 -1.2371559
v 0.72005314 0.411595 -1.3495426
v 0.82373303 0.4155805 -1.3768955
v 0.82373303 0.018816888 -1.1478242
v 0.7200531 0.04575422 -1.1383246
v 0.72005314 0.04575422 -0.9135507
v 0.82373303 0.018816888 -0.90405124
v 0.8237331 0.4155805 -0.6749797
v 0.72005326 0.411595 -0.7023326
v 0.72005326 0.60625476 -0.8147193
v 0.8237331 0.626694 -0.7968659
v 0.8237331 0.7100692 -1.0259377
v 0.72005326 0.68313175 -1.0259377
v 0.72005314 0.6062547 -1.2371559
v 0.82373303 0.62669396 -1.2550093
v 0.82373303 0.17551105 -1.3345649
v 0.7200531 0.19023599 -1.3105111
v 0.7200531 0.04575422 -1.1383246
v 0.82373303 0.018816888 -1.1478242
v 0.82373303 0.17551102 -0.7173103
v 0.72005314 0.19023597 -0.7413641
v 0.72005326 0.411595 -0.7023326
v 0.8237331 0.4155805 -0.6749797
v 0.82373303 0.4155805 -1.3768955
v 0.72005314 0.411595 -1.3495426
v 0.7200531 0.19023599 -1.3105111
v 0.82373303 0.17551105 -1.3345649
v 0.82373303 0.018816888 -0.90405124
v 0.72005314 0.04575422 -0.9135507
v 0.72005314 0.19023597 -0.7413641
v 0.82373303 0.17551102 -0.7173103
v 0.927413 0.04575422 -0.9135507
v 0.82373303 0.018816888 -0.90405124
v 0.82373303 0.17551102 -0.7173103
v 0.927413 0.19023599 -0.7413641
v 0.927413 0.41159493 -1.3495426
v 0.82373303 0.4155805 -1.3768955
v 0.82373303 0.17551105 -1.3345649
v 0.927413 0.19023602 -1.3105111
v 0.927413 0.19023599 -0.7413641
v 0.82373303 0.17551102 -0.7173103
v 0.8237331 0.4155805 -0.6749797
v 0.927413 0.41159493 -0.7023326
v 0.927413 0.19023602 -1.3105111
v 0.82373303 0.17551105 -1.3345649
v 0.82373303 0.018816888 -1.1478242
v 0.927413 0.04575422 -1.1383246
v 0.927413 0.68313175 -1.0259377
v 0.8237331 0.7100692 -1.0259377
v 0.82373303 0.62669396 -1.2550093
v 0.927413 0.6062547 -1.2371559
v 0.927413 0.41159493 -0.7023326
v 0.8237331 0.4155805 -0.6749797
v 0.8237331 0.626694 -0.7968659
v 0.927413 0.60625476 -0.8147193
v 0.927413 0.04575422 -1.1383246
v 0.82373303 0.018816888 -1.1478242
v 0.82373303 0.018816888 -0.90405124
v 0.927413 0.04575422 -0.9135507
v 0.927413 0.6062547 -1.2371559
v 0.82373303 0.62669396 -1.2550093
v 0.82373303 0.4155805 -1.3768955
v 0.927413 0.41159493 -1.3495426
v 0.927413 0.60625476 -0.8147193
v 0.8237331 0.626694 -0.7968659
v 0.8237331 0.7100692 -1.0259377
v 0.927413 0.68313175 -1.0259377
v 0.72005314 0.19023597 -0.7413641
v 0.72005314 0.04575422 -0.9135507
v 0.7200531 0.04575422 -1.1383246
v 0.7200531 0.19023599 -1.3105111
v 0.72005326 0.411595 -0.7023326
v 0.72005314 0.411595 -1.3495426
v 0.72005326 0.60625476 -0.8147193
v 0.72005314 0.6062547 -1.2371559
v 0.72005326 0.68313175 -1.0259377
vt 0.039662316 0.6459172
vt 0.04223807 0.6431155
vt 0.03898868 0.6412642
vt 0.03745312 0.6433465
vt 0.02205783 0.64097273
vt 0.024250295 0.6444093
vt 0.02706543 0.642071
vt 0.025846956 0.6396293
vt 0.020898776 0.63596904
vt 0.025621288 0.6367689
vt 0.030261293 0.6480865
vt 0.033488818 0.64834523
vt 0.03330005 0.6455081
vt 0.031051647 0.6450688
vt 0.036656994 0.6476598
vt 0.039662316 0.6459172
vt 0.03745312 0.6433465
vt 0.035469424 0.644776
vt 0.027072994 0.6467693
vt 0.030261293 0.6480865
vt 0.031051647 0.6450688
vt 0.028890634 0.6439162
vt 0.033488818 0.64834523
vt 0.036656994 0.6476598
vt 0.035469424 0.644776
vt 0.03330005 0.6455081
vt 0.04223807 0.6431155
vt 0.044310976 0.6386873
vt 0.039729446 0.6386286
vt 0.03898868 0.6412642
vt 0.024250295 0.6444093
vt 0.027072994 0.6467693
vt 0.028890634 0.6439162
vt 0.02706543 0.642071
vt 0.3909732 0.64618593
vt 0.39282328 0.6446234
vt 0.39167553 0.64401764
vt 0.39050445 0.6449942
vt 0.39202014 0.6401578
vt 0.38975528 0.6393322
vt 0.38973293 0.6406669
vt 0.3911761 0.64118505
vt 0.38626266 0.64224166
vt 0.38667914 0.6446266
vt 0.38780332 0.6440139
vt 0.38753238 0.6425141
vt 0.38854244 0.64618593
vt 0.3909732 0.64618593
vt 0.39050445 0.6449942
vt 0.38897938 0.6449829
vt 0.3932306 0.64224184
vt 0.39202014 0.6401578
vt 0.3911761 0.64118505
vt 0.3919397 0.64251393
vt 0.38748005 0.6401507
vt 0.38626266 0.64224166
vt 0.38753238 0.6425141
vt 0.38829464 0.6411912
vt 0.39282328 0.6446234
vt 0.3932306 0.64224184
vt 0.3919397 0.64251393
vt 0.39167553 0.64401764
vt 0.38975528 0.6393322
vt 0.38748005 0.6401507
vt 0.38829464 0.6411912
vt 0.38973293 0.6406669
vt 0.38667914 0.6446266
vt 0.38854244 0.64618593
vt 0.38897938 0.6449829
vt 0.38780332 0.6440139
vt 0.38897938 0.6449829
vt 0.39050445 0.6449942
vt 0.39167553 0.64401764
vt 0.3919397 0.64251393
vt 0.3911761 0.64118505
vt 0.38973293 0.6406669
vt 0.38829464 0.6411912
vt 0.38780332 0.6440139
vt 0.38753238 0.6425141
vt 0.029791739 0.64976156
vt 0.029396422 0.6516962
vt 0.0337244 0.6519075
vt 0.033604298 0.65008414
vt 0.037345015 0.64926153
vt 0.03798929 0.65113074
vt 0.042086758 0.649044
vt 0.04086642 0.64732295
vt 0.018130874 0.6365429
vt 0.015600586 0.63785243
vt 0.017973924 0.64310706
vt 0.02011613 0.6418931
vt 0.026069125 0.6483057
vt 0.02507098 0.65015405
vt 0.029396422 0.6516962
vt 0.029791739 0.64976156
vt 0.033604298 0.65008414
vt 0.0337244 0.6519075
vt 0.03798929 0.65113074
vt 0.037345015 0.64926153
vt 0.043921683 0.64422554
vt 0.04566682 0.64570886
vt 0.048720986 0.6413911
vt 0.046682343 0.6397592
vt 0.022738868 0.64566386
vt 0.02114909 0.6472515
vt 0.02507098 0.65015405
vt 0.026069125 0.6483057
vt 0.04086642 0.64732295
vt 0.042086758 0.649044
vt 0.04566682 0.64570886
vt 0.043921683 0.64422554
vt 0.02011613 0.6418931
vt 0.017973924 0.64310706
vt 0.02114909 0.6472515
vt 0.022738868 0.64566386
vt 0.02205783 0.64097273
vt 0.02011613 0.6418931
vt 0.022738868 0.64566386
vt 0.024250295 0.6444093
vt 0.039662316 0.6459172
vt 0.04086642 0.64732295
vt 0.043921683 0.64422554
vt 0.04223807 0.6431155
vt 0.024250295 0.6444093
vt 0.022738868 0.64566386
vt 0.026069125 0.6483057
vt 0.027072994 0.6467693
vt 0.04223807 0.6431155
vt 0.043921683 0.64422554
vt 0.046682343 0.6397592
vt 0.044310976 0.6386873
vt 0.033488818 0.64834523
vt 0.033604298 0.65008414
vt 0.037345015 0.64926153
vt 0.036656994 0.6476598
vt 0.027072994 0.6467693
vt 0.026069125 0.6483057
vt 0.029791739 0.64976156
vt 0.030261293 0.6480865
vt 0.020898776 0.63596904
vt 0.018130874 0.6365429
vt 0.02011613 0.6418931
vt 0.02205783 0.64097273
vt 0.036656994 0.6476598
vt 0.037345015 0.64926153
vt 0.04086642 0.64732295
vt 0.039662316 0.6459172
vt 0.030261293 0.6480865
vt 0.029791739 0.64976156
vt 0.033604298 0.65008414
vt 0.033488818 0.64834523
vt 0.01641441 0.64865786
vt 0.017973924 0.64310706
vt 0.015600586 0.63785243
vt 0.010404883 0.63535273
vt 0.01165176 0.6519076
vt 0.0048179757 0.6367776
vt 0.0059144516 0.65133566
vt 0.001454005 0.64146024
vt 0.001887029 0.6472097
vn 1 0 -2.788898E-07
vn 1 0 -2.788898E-07
vn 1 0 -2.788898E-07
vn 1 0 -2.788898E-07
vn 1 0 0
vn 1 0 0
vn 1 0 0
vn 1 0 0
vn 1 0 0
vn 1 0 0
vn 1 -3.6259678E-07 -5.7832597E-07
vn 1 -3.6259678E-07 -5.7832597E-07
vn 1 -3.6259678E-07 -5.7832597E-07
vn 1 -3.6259678E-07 -5.7832597E-07
vn 1 0 -1.4250828E-07
vn 1 0 -1.4250828E-07
vn 1 0 -1.4250828E-07
vn 1 0 -1.4250828E-07
vn 1 -1.9016679E-07 -8.5504996E-07
vn 1 -1.9016679E-07 -8.5504996E-07
vn 1 -1.9016679E-07 -8.5504996E-07
vn 1 -1.9016679E-07 -8.5504996E-07
vn 1 -2.4430588E-07 0
vn 1 -2.4430588E-07 0
vn 1 -2.4430588E-07 0
vn 1 -2.4430588E-07 0
vn 1 0 0
vn 1 0 0
vn 1 0 0
vn 1 0 0
vn 1 -1.4266566E-07 -1.394449E-07
vn 1 -1.4266566E-07 -1.394449E-07
vn 1 -1.4266566E-07 -1.394449E-07
vn 1 -1.4266566E-07 -1.394449E-07
vn 0.9260239 -0.18873298 0.32689393
vn 0.9260239 -0.18873298 0.32689393
vn 0.9260239 -0.18873298 0.32689393
vn 0.9260239 -0.18873298 0.32689393
vn 0.9320926 0.36222014 0
vn 0.9320926 0.36222014 0
vn 0.9320926 0.36222014 0
vn 0.9320926 0.36222014 0
vn 0.9260238 -0.1887322 -0.32689443
vn 0.9260238 -0.1887322 -0.32689443
vn 0.9260238 -0.1887322 -0.32689443
vn 0.9260238 -0.1887322 -0.32689443
vn 0.9240965 -0.35911238 0.1307055
vn 0.9240965 -0.35911238 0.1307055
vn 0.9240965 -0.35911238 0.1307055
vn 0.9240965 -0.35911238 0.1307055
vn 0.9311946 0.2792406 0.2343099
vn 0.9311946 0.2792406 0.2343099
vn 0.9311946 0.2792406 0.2343099
vn 0.9311946 0.2792406 0.2343099
vn 0.9288425 0.06433255 -0.36484644
vn 0.9288425 0.06433255 -0.36484644
vn 0.9288425 0.06433255 -0.36484644
vn 0.9288425 0.06433255 -0.36484644
vn 0.9288424 0.06433227 0.3648468
vn 0.9288424 0.06433227 0.3648468
vn 0.9288424 0.06433227 0.3648468
vn 0.9288424 0.06433227 0.3648468
vn 0.9311947 0.2792403 -0.23431031
vn 0.9311947 0.2792403 -0.23431031
vn 0.9311947 0.2792403 -0.23431031
vn 0.9311947 0.2792403 -0.23431031
vn 0.9240964 -0.35911214 -0.13070679
vn 0.9240964 -0.35911214 -0.13070679
vn 0.9240964 -0.35911214 -0.13070679
vn 0.9240964 -0.35911214 -0.13070679
vn 1 0 6.535445E-07
vn 1 0 6.535445E-07
vn 1 0 6.535445E-07
vn 1 0 6.535445E-07
vn 1 0 0
vn 1 0 0
vn 1 0 0
vn 1 0 0
vn 1 0 0
vn -0.23717837 0.91287977 0.33226055
vn -0.23717837 0.91287977 0.33226055
vn -0.23717837 0.91287977 0.33226055
vn -0.23717837 0.91287977 0.33226055
vn -0.24043041 0.48533353 -0.8406216
vn -0.24043041 0.48533353 -0.8406216
vn -0.24043041 0.48533353 -0.8406216
vn -0.24043041 0.48533353 -0.8406216
vn -0.25146374 -0.96786666 0
vn -0.25146374 -0.96786666 0
vn -0.25146374 -0.96786666 0
vn -0.25146374 -0.96786666 0
vn -0.24043033 0.48533246 0.84062225
vn -0.24043033 0.48533246 0.84062225
vn -0.24043033 0.48533246 0.84062225
vn -0.24043033 0.48533246 0.84062225
vn -0.2371779 0.91287965 -0.332261
vn -0.2371779 0.91287965 -0.332261
vn -0.2371779 0.91287965 -0.332261
vn -0.2371779 0.91287965 -0.332261
vn -0.24974968 -0.7417686 -0.6224181
vn -0.24974968 -0.7417686 -0.6224181
vn -0.24974968 -0.7417686 -0.6224181
vn -0.24974968 -0.7417686 -0.6224181
vn -0.2453978 -0.16833806 0.95469487
vn -0.2453978 -0.16833806 0.95469487
vn -0.2453978 -0.16833806 0.95469487
vn -0.2453978 -0.16833806 0.95469487
vn -0.24539775 -0.16833878 -0.95469475
vn -0.24539775 -0.16833878 -0.95469475
vn -0.24539775 -0.16833878 -0.95469475
vn -0.24539775 -0.16833878 -0.95469475
vn -0.24974911 -0.7417691 0.6224179
vn -0.24974911 -0.7417691 0.6224179
vn -0.24974911 -0.7417691 0.6224179
vn -0.24974911 -0.7417691 0.6224179
vn 0.24974918 -0.741769 0.62241787
vn 0.24974918 -0.741769 0.62241787
vn 0.24974918 -0.741769 0.62241787
vn 0.24974918 -0.741769 0.62241787
vn 0.24539763 -0.16833858 -0.95469475
vn 0.24539763 -0.16833858 -0.95469475
vn 0.24539763 -0.16833858 -0.95469475
vn 0.24539763 -0.16833858 -0.95469475
vn 0.24539769 -0.16833812 0.95469487
vn 0.24539769 -0.16833812 0.95469487
vn 0.24539769 -0.16833812 0.95469487
vn 0.24539769 -0.16833812 0.95469487
vn 0.24974993 -0.7417686 -0.6224181
vn 0.24974993 -0.7417686 -0.6224181
vn 0.24974993 -0.7417686 -0.6224181
vn 0.24974993 -0.7417686 -0.6224181
vn 0.23717794 0.91287977 -0.3322609
vn 0.23717794 0.91287977 -0.3322609
vn 0.23717794 0.91287977 -0.3322609
vn 0.23717794 0.91287977 -0.3322609
vn 0.24043018 0.48533246 0.84062225
vn 0.24043018 0.48533246 0.84062225
vn 0.24043018 0.48533246 0.84062225
vn 0.24043018 0.48533246 0.84062225
vn 0.25146383 -0.96786666 0
vn 0.25146383 -0.96786666 0
vn 0.25146383 -0.96786666 0
vn 0.25146383 -0.96786666 0
vn 0.24043041 0.48533383 -0.8406214
vn 0.24043041 0.48533383 -0.8406214
vn 0.24043041 0.48533383 -0.8406214
vn 0.24043041 0.48533383 -0.8406214
vn 0.23717834 0.91287965 0.33226067
vn 0.23717834 0.91287965 0.33226067
vn 0.23717834 0.91287965 0.33226067
vn 0.23717834 0.91287965 0.33226067
vn -1 1.3622012E-07 1.9084126E-07
vn -1 1.3622012E-07 1.9084126E-07
vn -1 1.3622012E-07 1.9084126E-07
vn -1 1.3622012E-07 1.9084126E-07
vn -1 1.3622012E-07 1.9084126E-07
vn -1 1.3622012E-07 1.9084126E-07
vn -1 1.3622012E-07 1.9084126E-07
vn -1 1.3622012E-07 1.9084126E-07
vn -1 1.3622012E-07 1.9084126E-07
g lunar-rover-base_BL_0
f 3/3/3 2/2/2 1/1/1
f 4/4/4 3/3/3 1/1/1
f 7/7/7 6/6/6 5/5/5
f 8/8/8 7/7/7 5/5/5
f 8/8/8 5/5/5 9/9/9
f 10/10/10 8/8/8 9/9/9
f 13/13/13 12/12/12 11/11/11
f 14/14/14 13/13/13 11/11/11
f 17/17/17 16/16/16 15/15/15
f 18/18/18 17/17/17 15/15/15
f 21/21/21 20/20/20 19/19/19
f 22/22/22 21/21/21 19/19/19
f 25/25/25 24/24/24 23/23/23
f 26/26/26 25/25/25 23/23/23
f 29/29/29 28/28/28 27/27/27
f 30/30/30 29/29/29 27/27/27
f 33/33/33 32/32/32 31/31/31
f 34/34/34 33/33/33 31/31/31
f 37/37/37 36/36/36 35/35/35
f 38/38/38 37/37/37 35/35/35
f 41/41/41 40/40/40 39/39/39
f 42/42/42 41/41/41 39/39/39
f 45/45/45 44/44/44 43/43/43
f 46/46/46 45/45/45 43/43/43
f 49/49/49 48/48/48 47/47/47
f 50/50/50 49/49/49 47/47/47
f 53/53/53 52/52/52 51/51/51
f 54/54/54 53/53/53 51/51/51
f 57/57/57 56/56/56 55/55/55
f 58/58/58 57/57/57 55/55/55
f 61/61/61 60/60/60 59/59/59
f 62/62/62 61/61/61 59/59/59
f 65/65/65 64/64/64 63/63/63
f 66/66/66 65/65/65 63/63/63
f 69/69/69 68/68/68 67/67/67
f 70/70/70 69/69/69 67/67/67
f 73/73/73 72/72/72 71/71/71
f 74/74/74 73/73/73 71/71/71
f 74/74/74 71/71/71 75/75/75
f 75/75/75 71/71/71 76/76/76
f 77/77/77 76/76/76 71/71/71
f 77/77/77 71/71/71 78/78/78
f 79/79/79 77/77/77 78/78/78
f 82/82/82 81/81/81 80/80/80
f 83/83/83 82/82/82 80/80/80
f 86/86/86 85/85/85 84/84/84
f 87/87/87 86/86/86 84/84/84
f 90/90/90 89/89/89 88/88/88
f 91/91/91 90/90/90 88/88/88
f 94/94/94 93/93/93 92/92/92
f 95/95/95 94/94/94 92/92/92
f 98/98/98 97/97/97 96/96/96
f 99/99/99 98/98/98 96/96/96
f 102/102/102 101/101/101 100/100/100
f 103/103/103 102/102/102 100/100/100
f 106/106/106 105/105/105 104/104/104
f 107/107/107 106/106/106 104/104/104
f 110/110/110 109/109/109 108/108/108
f 111/111/111 110/110/110 108/108/108
f 114/114/114 113/113/113 112/112/112
f 115/115/115 114/114/114 112/112/112
f 118/118/118 117/117/117 116/116/116
f 119/119/119 118/118/118 116/116/116
f 122/122/122 121/121/121 120/120/120
f 123/123/123 122/122/122 120/120/120
f 126/126/126 125/125/125 124/124/124
f 127/127/127 126/126/126 124/124/124
f 130/130/130 129/129/129 128/128/128
f 131/131/131 130/130/130 128/128/128
f 134/134/134 133/133/133 132/132/132
f 135/135/135 134/134/134 132/132/132
f 138/138/138 137/137/137 136/136/136
f 139/139/139 138/138/138 136/136/136
f 142/142/142 141/141/141 140/140/140
f 143/143/143 142/142/142 140/140/140
f 146/146/146 145/145/145 144/144/144
f 147/147/147 146/146/146 144/144/144
f 150/150/150 149/149/149 148/148/148
f 151/151/151 150/150/150 148/148/148
f 154/154/154 153/153/153 152/152/152
f 152/152/152 155/155/155 154/154/154
f 152/152/152 156/156/156 155/155/155
f 156/156/156 157/157/157 155/155/155
f 156/156/156 158/158/158 157/157/157
f 158/158/158 159/159/159 157/157/157
f 158/158/158 160/160/160 159/159/159
