g lunar-rover-base_FL
v 0.927413 0.41159493 0.69836533
v 0.927413 0.19023602 0.73739684
v 0.927413 0.2800937 0.88418263
v 0.927413 0.38727352 0.865284
v 0.927413 0.04575422 1.1343573
v 0.927413 0.19023599 1.3065438
v 0.927413 0.2800937 1.1597581
v 0.927413 0.21013705 1.076387
v 0.927413 0.04575422 0.9095834
v 0.927413 0.21013705 0.9675537
v 0.927413 0.60625476 1.2331887
v 0.927413 0.68313175 1.0219704
v 0.927413 0.518749 1.0219704
v 0.927413 0.48152587 1.1242403
v 0.927413 0.6062547 0.81075215
v 0.927413 0.41159493 0.69836533
v 0.927413 0.38727352 0.865284
v 0.927413 0.48152584 0.9197005
v 0.927413 0.41159493 1.3455753
v 0.927413 0.60625476 1.2331887
v 0.927413 0.48152587 1.1242403
v 0.927413 0.38727352 1.1786568
v 0.927413 0.68313175 1.0219704
v 0.927413 0.6062547 0.81075215
v 0.927413 0.48152584 0.9197005
v 0.927413 0.518749 1.0219704
v 0.927413 0.19023602 0.73739684
v 0.927413 0.04575422 0.9095834
v 0.927413 0.21013705 0.9675537
v 0.927413 0.2800937 0.88418263
v 0.927413 0.19023599 1.3065438
v 0.927413 0.41159493 1.3455753
v 0.927413 0.38727352 1.1786568
v 0.927413 0.2800937 1.1597581
v 0.927413 0.48152584 0.9197005
v 0.927413 0.38727352 0.865284
v 0.90649116 0.3793079 0.9199522
v 0.90649116 0.44067538 0.95538265
v 0.927413 0.21013705 0.9675537
v 0.927413 0.21013705 1.076387
v 0.90649116 0.26397473 1.057401
v 0.90649116 0.26397473 0.98653984
v 0.927413 0.38727352 1.1786568
v 0.927413 0.48152587 1.1242403
v 0.90649116 0.4406754 1.0885581
v 0.90649116 0.3793079 1.1239886
v 0.927413 0.518749 1.0219704
v 0.927413 0.48152584 0.9197005
v 0.90649116 0.44067538 0.95538265
v 0.90649116 0.4649113 1.0219704
v 0.927413 0.2800937 0.88418263
v 0.927413 0.21013705 0.9675537
v 0.90649116 0.26397473 0.98653984
v 0.90649116 0.30952334 0.93225706
v 0.927413 0.2800937 1.1597581
v 0.927413 0.38727352 1.1786568
v 0.90649116 0.3793079 1.1239886
v 0.90649116 0.30952334 1.1116836
v 0.927413 0.38727352 0.865284
v 0.927413 0.2800937 0.88418263
v 0.90649116 0.30952334 0.93225706
v 0.90649116 0.3793079 0.9199522
v 0.927413 0.21013705 1.076387
v 0.927413 0.2800937 1.1597581
v 0.90649116 0.30952334 1.1116836
v 0.90649116 0.26397473 1.057401
v 0.927413 0.48152587 1.1242403
v 0.927413 0.518749 1.0219704
v 0.90649116 0.4649113 1.0219704
v 0.90649116 0.4406754 1.0885581
v 0.90649116 0.4649113 1.0219704
v 0.90649116 0.44067538 0.95538265
v 0.90649116 0.3793079 0.9199522
v 0.90649116 0.30952334 0.93225706
v 0.90649116 0.26397473 0.98653984
v 0.90649116 0.26397473 1.057401
v 0.90649116 0.30952334 1.1116836
v 0.90649116 0.4406754 1.0885581
v 0.90649116 0.3793079 1.1239886
v 0.8237331 0.626694 1.2510421
v 0.72005326 0.60625476 1.2331887
v 0.72005326 0.68313175 1.0219704
v 0.8237331 0.7100692 1.0219704
v 0.82373303 0.62669396 0.7928988
v 0.72005314 0.6062547 0.81075215
v 0.72005314 0.411595 0.69836533
v 0.82373303 0.4155805 0.6710124
v 0.82373303 0.018816888 0.90008384
v 0.7200531 0.04575422 0.9095834
v 0.72005314 0.04575422 1.1343573
v 0.82373303 0.018816888 1.1438568
v 0.8237331 0.4155805 1.3729283
v 0.72005326 0.411595 1.3455753
v 0.72005326 0.60625476 1.2331887
v 0.8237331 0.626694 1.2510421
v 0.8237331 0.7100692 1.0219704
v 0.72005326 0.68313175 1.0219704
v 0.72005314 0.6062547 0.81075215
v 0.82373303 0.62669396 0.7928988
v 0.82373303 0.17551105 0.713343
v 0.7200531 0.19023599 0.73739684
v 0.7200531 0.04575422 0.9095834
v 0.82373303 0.018816888 0.90008384
v 0.82373303 0.17551102 1.3305976
v 0.72005314 0.19023597 1.3065438
v 0.72005326 0.411595 1.3455753
v 0.8237331 0.4155805 1.3729283
v 0.82373303 0.4155805 0.6710124
v 0.72005314 0.411595 0.69836533
v 0.7200531 0.19023599 0.73739684
v 0.82373303 0.17551105 0.713343
v 0.82373303 0.018816888 1.1438568
v 0.72005314 0.04575422 1.1343573
v 0.72005314 0.19023597 1.3065438
v 0.82373303 0.17551102 1.3305976
v 0.927413 0.04575422 1.1343573
v 0.82373303 0.018816888 1.1438568
v 0.82373303 0.17551102 1.3305976
v 0.927413 0.19023599 1.3065438
v 0.927413 0.41159493 0.69836533
v 0.82373303 0.4155805 0.6710124
v 0.82373303 0.17551105 0.713343
v 0.927413 0.19023602 0.73739684
v 0.927413 0.19023599 1.3065438
v 0.82373303 0.17551102 1.3305976
v 0.8237331 0.4155805 1.3729283
v 0.927413 0.41159493 1.3455753
v 0.927413 0.19023602 0.73739684
v 0.82373303 0.17551105 0.713343
v 0.82373303 0.018816888 0.90008384
v 0.927413 0.04575422 0.9095834
v 0.927413 0.68313175 1.0219704
v 0.8237331 0.7100692 1.0219704
v 0.82373303 0.62669396 0.7928988
v 0.927413 0.6062547 0.81075215
v 0.927413 0.41159493 1.3455753
v 0.8237331 0.4155805 1.3729283
v 0.8237331 0.626694 1.2510421
v 0.927413 0.60625476 1.2331887
v 0.927413 0.04575422 0.9095834
v 0.82373303 0.018816888 0.90008384
v 0.82373303 0.018816888 1.1438568
v 0.927413 0.04575422 1.1343573
v 0.927413 0.6062547 0.81075215
v 0.82373303 0.62669396 0.7928988
v 0.82373303 0.4155805 0.6710124
v 0.927413 0.41159493 0.69836533
v 0.927413 0.60625476 1.2331887
v 0.8237331 0.626694 1.2510421
v 0.8237331 0.7100692 1.0219704
v 0.927413 0.68313175 1.0219704
v 0.72005314 0.19023597 1.3065438
v 0.72005314 0.04575422 1.1343573
v 0.7200531 0.04575422 0.9095834
v 0.7200531 0.19023599 0.73739684
v 0.72005326 0.411595 1.3455753
v 0.72005314 0.411595 0.69836533
v 0.72005326 0.60625476 1.2331887
v 0.72005314 0.6062547 0.81075215
v 0.72005326 0.68313175 1.0219704
vt 0.03743334 0.7306428
vt 0.039573446 0.7283151
vt 0.03687367 0.72677684
vt 0.03559783 0.72850704
vt 0.02280651 0.7265346
vt 0.024628147 0.72939
vt 0.026967108 0.72744715
vt 0.025954738 0.72541845
vt 0.021843523 0.7223773
vt 0.025767252 0.7230419
vt 0.029622406 0.73244524
vt 0.032304034 0.7326602
vt 0.032147214 0.73030293
vt 0.0302791 0.7299379
vt 0.03493634 0.7320907
vt 0.03743334 0.7306428
vt 0.03559783 0.72850704
vt 0.03394966 0.7296947
vt 0.026973411 0.7313508
vt 0.029622406 0.73244524
vt 0.0302791 0.7299379
vt 0.0284836 0.7289803
vt 0.032304034 0.7326602
vt 0.03493634 0.7320907
vt 0.03394966 0.7296947
vt 0.032147214 0.73030293
vt 0.039573446 0.7283151
vt 0.041295737 0.72463584
vt 0.03748913 0.7245871
vt 0.03687367 0.72677684
vt 0.024628147 0.72939
vt 0.026973411 0.7313508
vt 0.0284836 0.7289803
vt 0.026967108 0.72744715
vt 0.38626438 0.73776037
vt 0.38780153 0.73646206
vt 0.3868479 0.7359589
vt 0.38587493 0.7367702
vt 0.38713425 0.7327519
vt 0.38525248 0.732066
vt 0.38523388 0.73317474
vt 0.38643295 0.7336053
vt 0.38235056 0.7344832
vt 0.38269663 0.7364648
vt 0.38363063 0.73595566
vt 0.38340554 0.7347097
vt 0.38424474 0.73776037
vt 0.38626438 0.73776037
vt 0.38587493 0.7367702
vt 0.38460776 0.7367608
vt 0.38813993 0.7344834
vt 0.38713425 0.7327519
vt 0.38643295 0.7336053
vt 0.38706738 0.73470944
vt 0.38336205 0.73274595
vt 0.38235056 0.7344832
vt 0.38340554 0.7347097
vt 0.38403887 0.73361045
vt 0.38780153 0.73646206
vt 0.38813993 0.7344834
vt 0.38706738 0.73470944
vt 0.3868479 0.7359589
vt 0.38525248 0.732066
vt 0.38336205 0.73274595
vt 0.38403887 0.73361045
vt 0.38523388 0.73317474
vt 0.38269663 0.7364648
vt 0.38424474 0.73776037
vt 0.38460776 0.7367608
vt 0.38363063 0.73595566
vt 0.38460776 0.7367608
vt 0.38587493 0.7367702
vt 0.3868479 0.7359589
vt 0.38706738 0.73470944
vt 0.38643295 0.7336053
vt 0.38523388 0.73317474
vt 0.38403887 0.73361045
vt 0.38363063 0.73595566
vt 0.38340554 0.7347097
vt 0.029232278 0.7338369
vt 0.028903827 0.7354443
vt 0.03249976 0.73562
vt 0.032399997 0.734105
vt 0.035507992 0.73342156
vt 0.036043286 0.7349746
vt 0.03944771 0.7332407
vt 0.03843379 0.7318108
vt 0.019543767 0.72285414
vt 0.017441452 0.72394216
vt 0.019413352 0.72830796
vt 0.021193221 0.72729933
vt 0.026139334 0.7326274
vt 0.02531001 0.73416317
vt 0.028903827 0.7354443
vt 0.029232278 0.7338369
vt 0.032399997 0.734105
vt 0.03249976 0.73562
vt 0.036043286 0.7349746
vt 0.035507992 0.73342156
vt 0.040972278 0.7292373
vt 0.04242225 0.7304698
vt 0.04495983 0.72688234
vt 0.043266 0.72552645
vt 0.023372352 0.7304324
vt 0.022051468 0.73175144
vt 0.02531001 0.73416317
vt 0.026139334 0.7326274
vt 0.03843379 0.7318108
vt 0.03944771 0.7332407
vt 0.04242225 0.7304698
vt 0.040972278 0.7292373
vt 0.021193221 0.72729933
vt 0.019413352 0.72830796
vt 0.022051468 0.73175144
vt 0.023372352 0.7304324
vt 0.02280651 0.7265346
vt 0.021193221 0.72729933
vt 0.023372352 0.7304324
vt 0.024628147 0.72939
vt 0.03743334 0.7306428
vt 0.03843379 0.7318108
vt 0.040972278 0.7292373
vt 0.039573446 0.7283151
vt 0.024628147 0.72939
vt 0.023372352 0.7304324
vt 0.026139334 0.7326274
vt 0.026973411 0.7313508
vt 0.039573446 0.7283151
vt 0.040972278 0.7292373
vt 0.043266 0.72552645
vt 0.041295737 0.72463584
vt 0.032304034 0.7326602
vt 0.032399997 0.734105
vt 0.035507992 0.73342156
vt 0.03493634 0.7320907
vt 0.026973411 0.7313508
vt 0.026139334 0.7326274
vt 0.029232278 0.7338369
vt 0.029622406 0.73244524
vt 0.021843523 0.7223773
vt 0.019543767 0.72285414
vt 0.021193221 0.72729933
vt 0.02280651 0.7265346
vt 0.03493634 0.7320907
vt 0.035507992 0.73342156
vt 0.03843379 0.7318108
vt 0.03743334 0.7306428
vt 0.029622406 0.73244524
vt 0.029232278 0.7338369
vt 0.032399997 0.734105
vt 0.032304034 0.7326602
vt 0.018117592 0.73291993
vt 0.019413352 0.72830796
vt 0.017441452 0.72394216
vt 0.013124555 0.7218652
vt 0.014160506 0.73562
vt 0.008482628 0.72304904
vt 0.009393632 0.73514473
vt 0.005687639 0.7269397
vt 0.00604742 0.73171663
vn 1 0 -2.7888967E-07
vn 1 0 -2.7888967E-07
vn 1 0 -2.7888967E-07
vn 1 0 -2.7888967E-07
vn 1 0 0
vn 1 0 0
vn 1 0 0
vn 1 0 0
vn 1 0 0
vn 1 0 0
vn 1 -3.6259678E-07 -5.7832597E-07
vn 1 -3.6259678E-07 -5.7832597E-07
vn 1 -3.6259678E-07 -5.7832597E-07
vn 1 -3.6259678E-07 -5.7832597E-07
vn 1 0 -1.4250833E-07
vn 1 0 -1.4250833E-07
vn 1 0 -1.4250833E-07
vn 1 0 -1.4250833E-07
vn 1 -1.9016694E-07 -8.5504996E-07
vn 1 -1.9016694E-07 -8.5504996E-07
vn 1 -1.9016694E-07 -8.5504996E-07
vn 1 -1.9016694E-07 -8.5504996E-07
vn 1 -2.4430597E-07 0
vn 1 -2.4430597E-07 0
vn 1 -2.4430597E-07 0
vn 1 -2.4430597E-07 0
vn 1 0 0
vn 1 0 0
vn 1 0 0
vn 1 0 0
vn 1 -1.4266553E-07 -1.394449E-07
vn 1 -1.4266553E-07 -1.394449E-07
vn 1 -1.4266553E-07 -1.394449E-07
vn 1 -1.4266553E-07 -1.394449E-07
vn 0.9260238 -0.18873243 0.32689428
vn 0.9260238 -0.18873243 0.32689428
vn 0.9260238 -0.18873243 0.32689428
vn 0.9260238 -0.18873243 0.32689428
vn 0.9320926 0.36222014 0
vn 0.9320926 0.36222014 0
vn 0.9320926 0.36222014 0
vn 0.9320926 0.36222014 0
vn 0.9260238 -0.1887322 -0.32689443
vn 0.9260238 -0.1887322 -0.32689443
vn 0.9260238 -0.1887322 -0.32689443
vn 0.9260238 -0.1887322 -0.32689443
vn 0.9240965 -0.3591125 0.13070542
vn 0.9240965 -0.3591125 0.13070542
vn 0.9240965 -0.3591125 0.13070542
vn 0.9240965 -0.3591125 0.13070542
vn 0.9311946 0.2792406 0.2343099
vn 0.9311946 0.2792406 0.2343099
vn 0.9311946 0.2792406 0.2343099
vn 0.9311946 0.2792406 0.2343099
vn 0.9288425 0.06433255 -0.36484644
vn 0.9288425 0.06433255 -0.36484644
vn 0.9288425 0.06433255 -0.36484644
vn 0.9288425 0.06433255 -0.36484644
vn 0.9288424 0.06433227 0.3648468
vn 0.9288424 0.06433227 0.3648468
vn 0.9288424 0.06433227 0.3648468
vn 0.9288424 0.06433227 0.3648468
vn 0.9311947 0.2792403 -0.23431031
vn 0.9311947 0.2792403 -0.23431031
vn 0.9311947 0.2792403 -0.23431031
vn 0.9311947 0.2792403 -0.23431031
vn 0.9240963 -0.35911247 -0.13070677
vn 0.9240963 -0.35911247 -0.13070677
vn 0.9240963 -0.35911247 -0.13070677
vn 0.9240963 -0.35911247 -0.13070677
vn 1 0 6.5354504E-07
vn 1 0 6.5354504E-07
vn 1 0 6.5354504E-07
vn 1 0 6.5354504E-07
vn 1 0 0
vn 1 0 0
vn 1 0 0
vn 1 0 0
vn 1 0 0
vn -0.23717831 0.91287977 0.33226046
vn -0.23717831 0.91287977 0.33226046
vn -0.23717831 0.91287977 0.33226046
vn -0.23717831 0.91287977 0.33226046
vn -0.2404305 0.48533314 -0.8406218
vn -0.2404305 0.48533314 -0.8406218
vn -0.2404305 0.48533314 -0.8406218
vn -0.2404305 0.48533314 -0.8406218
vn -0.25146392 -0.96786666 0
vn -0.25146392 -0.96786666 0
vn -0.25146392 -0.96786666 0
vn -0.25146392 -0.96786666 0
vn -0.24043028 0.48533267 0.84062207
vn -0.24043028 0.48533267 0.84062207
vn -0.24043028 0.48533267 0.84062207
vn -0.24043028 0.48533267 0.84062207
vn -0.2371779 0.91287965 -0.33226097
vn -0.2371779 0.91287965 -0.33226097
vn -0.2371779 0.91287965 -0.33226097
vn -0.2371779 0.91287965 -0.33226097
vn -0.2497495 -0.74176884 -0.622418
vn -0.2497495 -0.74176884 -0.622418
vn -0.2497495 -0.74176884 -0.622418
vn -0.2497495 -0.74176884 -0.622418
vn -0.2453978 -0.16833878 0.95469475
vn -0.2453978 -0.16833878 0.95469475
vn -0.2453978 -0.16833878 0.95469475
vn -0.2453978 -0.16833878 0.95469475
vn -0.24539775 -0.16833836 -0.95469475
vn -0.24539775 -0.16833836 -0.95469475
vn -0.24539775 -0.16833836 -0.95469475
vn -0.24539775 -0.16833836 -0.95469475
vn -0.24974906 -0.74176913 0.62241775
vn -0.24974906 -0.74176913 0.62241775
vn -0.24974906 -0.74176913 0.62241775
vn -0.24974906 -0.74176913 0.62241775
vn 0.24974912 -0.74176913 0.62241775
vn 0.24974912 -0.74176913 0.62241775
vn 0.24974912 -0.74176913 0.62241775
vn 0.24974912 -0.74176913 0.62241775
vn 0.24539767 -0.16833828 -0.95469487
vn 0.24539767 -0.16833828 -0.95469487
vn 0.24539767 -0.16833828 -0.95469487
vn 0.24539767 -0.16833828 -0.95469487
vn 0.24539769 -0.1683388 0.95469475
vn 0.24539769 -0.1683388 0.95469475
vn 0.24539769 -0.1683388 0.95469475
vn 0.24539769 -0.1683388 0.95469475
vn 0.24974973 -0.74176884 -0.6224179
vn 0.24974973 -0.74176884 -0.6224179
vn 0.24974973 -0.74176884 -0.6224179
vn 0.24974973 -0.74176884 -0.6224179
vn 0.23717794 0.91287977 -0.3322609
vn 0.23717794 0.91287977 -0.3322609
vn 0.23717794 0.91287977 -0.3322609
vn 0.23717794 0.91287977 -0.3322609
vn 0.24043012 0.48533267 0.84062207
vn 0.24043012 0.48533267 0.84062207
vn 0.24043012 0.48533267 0.84062207
vn 0.24043012 0.48533267 0.84062207
vn 0.25146404 -0.96786666 0
vn 0.25146404 -0.96786666 0
vn 0.25146404 -0.96786666 0
vn 0.25146404 -0.96786666 0
vn 0.24043047 0.48533338 -0.84062165
vn 0.24043047 0.48533338 -0.84062165
vn 0.24043047 0.48533338 -0.84062165
vn 0.24043047 0.48533338 -0.84062165
vn 0.23717831 0.91287977 0.3322606
vn 0.23717831 0.91287977 0.3322606
vn 0.23717831 0.91287977 0.3322606
vn 0.23717831 0.91287977 0.3322606
vn -1 1.3622017E-07 1.9084126E-07
vn -1 1.3622017E-07 1.9084126E-07
vn -1 1.3622017E-07 1.9084126E-07
vn -1 1.3622017E-07 1.9084126E-07
vn -1 1.3622017E-07 1.9084126E-07
vn -1 1.3622017E-07 1.9084126E-07
vn -1 1.3622017E-07 1.9084126E-07
vn -1 1.3622017E-07 1.9084126E-07
vn -1 1.3622017E-07 1.9084126E-07
g lunar-rover-base_FL_0
f 3/3/3 2/2/2 1/1/1
f 4/4/4 3/3/3 1/1/1
f 7/7/7 6/6/6 5/5/5
f 8/8/8 7/7/7 5/5/5
f 8/8/8 5/5/5 9/9/9
f 10/10/10 8/8/8 9/9/9
f 13/13/13 12/12/12 11/11/11
f 14/14/14 13/13/13 11/11/11
f 17/17/17 16/16/16 15/15/15
f 18/18/18 17/17/17 15/15/15
f 21/21/21 20/20/20 19/19/19
f 22/22/22 21/21/21 19/19/19
f 25/25/25 24/24/24 23/23/23
f 26/26/26 25/25/25 23/23/23
f 29/29/29 28/28/28 27/27/27
f 30/30/30 29/29/29 27/27/27
f 33/33/33 32/32/32 31/31/31
f 34/34/34 33/33/33 31/31/31
f 37/37/37 36/36/36 35/35/35
f 38/38/38 37/37/37 35/35/35
f 41/41/41 40/40/40 39/39/39
f 42/42/42 41/41/41 39/39/39
f 45/45/45 44/44/44 43/43/43
f 46/46/46 45/45/45 43/43/43
f 49/49/49 48/48/48 47/47/47
f 50/50/50 49/49/49 47/47/47
f 53/53/53 52/52/52 51/51/51
f 54/54/54 53/53/53 51/51/51
f 57/57/57 56/56/56 55/55/55
f 58/58/58 57/57/57 55/55/55
f 61/61/61 60/60/60 59/59/59
f 62/62/62 61/61/61 59/59/59
f 65/65/65 64/64/64 63/63/63
f 66/66/66 65/65/65 63/63/63
f 69/69/69 68/68/68 67/67/67
f 70/70/70 69/69/69 67/67/67
f 73/73/73 72/72/72 71/71/71
f 74/74/74 73/73/73 71/71/71
f 74/74/74 71/71/71 75/75/75
f 75/75/75 71/71/71 76/76/76
f 77/77/77 76/76/76 71/71/71
f 77/77/77 71/71/71 78/78/78
f 79/79/79 77/77/77 78/78/78
f 82/82/82 81/81/81 80/80/80
f 83/83/83 82/82/82 80/80/80
f 86/86/86 85/85/85 84/84/84
f 87/87/87 86/86/86 84/84/84
f 90/90/90 89/89/89 88/88/88
f 91/91/91 90/90/90 88/88/88
f 94/94/94 93/93/93 92/92/92
f 95/95/95 94/94/94 92/92/92
f 98/98/98 97/97/97 96/96/96
f 99/99/99 98/98/98 96/96/96
f 102/102/102 101/101/101 100/100/100
f 103/103/103 102/102/102 100/100/100
f 106/106/106 105/105/105 104/104/104
f 107/107/107 106/106/106 104/104/104
f 110/110/110 109/109/109 108/108/108
f 111/111/111 110/110/110 108/108/108
f 114/114/114 113/113/113 112/112/112
f 115/115/115 114/114/114 112/112/112
f 118/118/118 117/117/117 116/116/116
f 119/119/119 118/118/118 116/116/116
f 122/122/122 121/121/121 120/120/120
f 123/123/123 122/122/122 120/120/120
f 126/126/126 125/125/125 124/124/124
f 127/127/127 126/126/126 124/124/124
f 130/130/130 129/129/129 128/128/128
f 131/131/131 130/130/130 128/128/128
f 134/134/134 133/133/133 132/132/132
f 135/135/135 134/134/134 132/132/132
f 138/138/138 137/137/137 136/136/136
f 139/139/139 138/138/138 136/136/136
f 142/142/142 141/141/141 140/140/140
f 143/143/143 142/142/142 140/140/140
f 146/146/146 145/145/145 144/144/144
f 147/147/147 146/146/146 144/144/144
f 150/150/150 149/149/149 148/148/148
f 151/151/151 150/150/150 148/148/148
f 154/154/154 153/153/153 152/152/152
f 152/152/152 155/155/155 154/154/154
f 152/152/152 156/156/156 155/155/155
f 156/156/156 157/157/157 155/155/155
f 156/156/156 158/158/158 157/157/157
f 158/158/158 159/159/159 157/157/157
f 158/158/158 160/160/160 159/159/159
