g stone-flat
v -0.5705671 0.084166296 0.6703051
v -0.22222161 -0.09490621 0.11976523
v -1.162265 0.08416642 -0.15888317
v 0.2658545 0.5938421 0.19178748
v 0.92671204 0.58999556 -0.17311236
v 0.66052115 0.59193075 0.28648418
v 0.92671204 0.58999556 -0.17311236
v 0.2658545 0.5938421 0.19178748
v 0.4427023 0.78739864 -0.862089
v -1.162265 0.08416642 -0.15888317
v -0.22222161 -0.09490621 0.11976523
v -0.8120628 -0.06573122 -1.1303816
v -0.6811241 0.69014204 -0.95377433
v -0.43206722 0.6807456 -0.4294614
v -0.9723547 0.5844468 -0.1529505
v -0.22222161 -0.09490621 0.11976523
v 0.55444705 -0.06573121 -1.1166545
v -0.8120628 -0.06573122 -1.1303816
v -0.5705671 0.084166296 0.6703051
v 0.005241618 0.08416636 0.60186553
v -0.22222161 -0.09490621 0.11976523
v -0.43206722 0.6807456 -0.4294614
v -0.6811241 0.69014204 -0.95377433
v 0.4427023 0.78739864 -0.862089
v -0.6811241 0.69014204 -0.95377433
v -0.9723547 0.5844468 -0.1529505
v -0.8120628 -0.06573122 -1.1303816
v -0.8120628 -0.06573122 -1.1303816
v -0.9723547 0.5844468 -0.1529505
v -1.162265 0.08416642 -0.15888317
v 0.35752696 0.027064634 0.2617699
v 0.79158944 0.08408315 0.9999034
v 0.84624183 0.08408326 0.47356135
v 0.21688601 0.094906025 1.1303817
v 0.35752696 0.027064634 0.2617699
v 0.011201852 0.08408326 0.66062
v 0.84624183 0.08408326 0.47356135
v 0.77002555 0.42794177 0.4492842
v 0.35752696 0.027064634 0.2617699
v 0.011201852 0.08408326 0.66062
v 0.038944237 0.35676485 0.69595504
v 0.21688601 0.094906025 1.1303817
v 0.35752696 0.027064634 0.2617699
v 0.31340382 0.42317873 0.31057808
v 0.011201852 0.08408326 0.66062
v 0.21688601 0.094906025 1.1303817
v 0.3239032 0.3189434 1.0816008
v 0.79158944 0.08408315 0.9999034
v 0.77002555 0.42794177 0.4492842
v 0.038944237 0.35676485 0.69595504
v 0.31340382 0.42317873 0.31057808
v 0.79158944 0.08408315 0.9999034
v 0.7810944 0.3641745 0.92872864
v 0.84624183 0.08408326 0.47356135
v 0.79158944 0.08408315 0.9999034
v 0.35752696 0.027064634 0.2617699
v 0.21688601 0.094906025 1.1303817
v 0.35752696 0.027064634 0.2617699
v 0.77002555 0.42794177 0.4492842
v 0.31340382 0.42317873 0.31057808
v 0.21688601 0.094906025 1.1303817
v 0.038944237 0.35676485 0.69595504
v 0.3239032 0.3189434 1.0816008
v 0.84624183 0.08408326 0.47356135
v 0.7810944 0.3641745 0.92872864
v 0.77002555 0.42794177 0.4492842
v 0.011201852 0.08408326 0.66062
v 0.31340382 0.42317873 0.31057808
v 0.038944237 0.35676485 0.69595504
v 0.79158944 0.08408315 0.9999034
v 0.3239032 0.3189434 1.0816008
v 0.7810944 0.3641745 0.92872864
v 0.005241618 0.08416636 0.60186553
v 0.0031355827 0.61322415 0.46062177
v 0.2658545 0.5938421 0.19178748
v 0.3447031 0.07947071 0.23422523
v 0.005241618 0.08416636 0.60186553
v -0.5705671 0.084166296 0.6703051
v -0.47576472 0.58823436 0.51675105
v 0.0031355827 0.61322415 0.46062177
v 0.55444705 -0.06573121 -1.1166545
v 0.4427023 0.78739864 -0.862089
v -0.6811241 0.69014204 -0.95377433
v -0.8120628 -0.06573122 -1.1303816
v 0.84028167 0.08416633 0.4148069
v 0.66052115 0.59193075 0.28648418
v 0.92671204 0.58999556 -0.17311236
v 1.162265 0.08416642 -0.18803784
v 0.005241618 0.08416636 0.60186553
v 0.3447031 0.07947071 0.23422523
v 0.55444705 -0.06573121 -1.1166545
v -0.22222161 -0.09490621 0.11976523
v -1.162265 0.08416642 -0.15888317
v -0.9723547 0.5844468 -0.1529505
v -0.47576472 0.58823436 0.51675105
v -0.5705671 0.084166296 0.6703051
v 0.4427023 0.78739864 -0.862089
v 0.2658545 0.5938421 0.19178748
v 0.0031355827 0.61322415 0.46062177
v -0.43206722 0.6807456 -0.4294614
v 1.162265 0.08416642 -0.18803784
v 0.92671204 0.58999556 -0.17311236
v 0.4427023 0.78739864 -0.862089
v 0.55444705 -0.06573121 -1.1166545
v 0.3447031 0.07947071 0.23422523
v 0.2658545 0.5938421 0.19178748
v 0.66052115 0.59193075 0.28648418
v 0.84028167 0.08416633 0.4148069
v 0.55444705 -0.06573121 -1.1166545
v 0.3447031 0.07947071 0.23422523
v 0.84028167 0.08416633 0.4148069
v 1.162265 0.08416642 -0.18803784
v -0.47576472 0.58823436 0.51675105
v -0.9723547 0.5844468 -0.1529505
v -0.43206722 0.6807456 -0.4294614
v 0.0031355827 0.61322415 0.46062177
v 0.038944237 0.35676485 0.69595504
v 0.7810944 0.3641745 0.92872864
v 0.3239032 0.3189434 1.0816008
v 0.77002555 0.42794177 0.4492842
vt 0.062800065 0.71489966
vt 0.20937301 0.73713136
vt 0.17853566 0.5206849
vt 0.16901475 0.19238116
vt 0.2953646 0.12195893
vt 0.20545532 0.11924221
vt 0.2953646 0.12195893
vt 0.16901475 0.19238116
vt 0.34078252 0.2395136
vt 0.17853566 0.5206849
vt 0.20937301 0.73713136
vt 0.4112772 0.5098833
vt 0.32311457 0.38033736
vt 0.25499907 0.33417812
vt 0.20086363 0.41921303
vt 0.20937301 0.73713136
vt 0.5255613 0.7930196
vt 0.4112772 0.5098833
vt 0.062800065 0.71489966
vt 0.12579897 0.82777876
vt 0.20937301 0.73713136
vt 0.25499907 0.33417812
vt 0.32311457 0.38033736
vt 0.34078252 0.2395136
vt 0.32311457 0.38033736
vt 0.20086363 0.41921303
vt 0.4112772 0.5098833
vt 0.4112772 0.5098833
vt 0.20086363 0.41921303
vt 0.17853566 0.5206849
vt 0.7398935 0.20998283
vt 0.6434699 0.4173546
vt 0.76738876 0.35005596
vt 0.5276401 0.3112652
vt 0.7398935 0.20998283
vt 0.5991329 0.19476552
vt 0.76738876 0.07339669
vt 0.7013118 0.10545988
vt 0.7398935 0.20998283
vt 0.5991329 0.19476552
vt 0.62761176 0.14121091
vt 0.55512094 0.07991928
vt 0.7398935 0.20998283
vt 0.6801517 0.14886098
vt 0.5991329 0.19476552
vt 0.55512094 0.07991928
vt 0.6119979 0.08344251
vt 0.6608977 0.0010394144
vt 0.7013118 0.10545988
vt 0.62761176 0.14121091
vt 0.6801517 0.14886098
vt 0.6608977 0.0010394144
vt 0.667353 0.061377514
vt 0.76738876 0.07339669
vt 0.6434699 0.4173546
vt 0.7398935 0.20998283
vt 0.5276401 0.3112652
vt 0.7398935 0.20998283
vt 0.7013118 0.10545988
vt 0.6801517 0.14886098
vt 0.55512094 0.07991928
vt 0.62761176 0.14121091
vt 0.6119979 0.08344251
vt 0.76738876 0.07339669
vt 0.667353 0.061377514
vt 0.7013118 0.10545988
vt 0.5991329 0.19476552
vt 0.6801517 0.14886098
vt 0.62761176 0.14121091
vt 0.6608977 0.0010394144
vt 0.6119979 0.08344251
vt 0.667353 0.061377514
vt 0.0010394144 0.21938157
vt 0.12147957 0.2445246
vt 0.16901475 0.19238116
vt 0.07439682 0.101089746
vt 0.0010394144 0.21938157
vt 0.0036111788 0.37301344
vt 0.106095575 0.32292822
vt 0.12147957 0.2445246
vt 0.5255613 0.21564609
vt 0.34078252 0.2395136
vt 0.32311457 0.38033736
vt 0.4112772 0.5098833
vt 0.18347523 0.0010394144
vt 0.20545532 0.11924221
vt 0.2953646 0.12195893
vt 0.35179844 0.020494334
vt 0.12579897 0.82777876
vt 0.22996576 0.8680553
vt 0.5255613 0.7930196
vt 0.20937301 0.73713136
vt 0.17853566 0.5206849
vt 0.20086363 0.41921303
vt 0.106095575 0.32292822
vt 0.0036111788 0.37301344
vt 0.34078252 0.2395136
vt 0.16901475 0.19238116
vt 0.12147957 0.2445246
vt 0.25499907 0.33417812
vt 0.35179844 0.020494334
vt 0.2953646 0.12195893
vt 0.34078252 0.2395136
vt 0.5255613 0.21564609
vt 0.07439682 0.101089746
vt 0.16901475 0.19238116
vt 0.20545532 0.11924221
vt 0.18347523 0.0010394144
vt 0.5255613 0.7930196
vt 0.22996576 0.8680553
vt 0.23563421 0.98493284
vt 0.38659492 0.99896055
vt 0.106095575 0.32292822
vt 0.20086363 0.41921303
vt 0.25499907 0.33417812
vt 0.12147957 0.2445246
vt 0.62761176 0.14121091
vt 0.667353 0.061377514
vt 0.6119979 0.08344251
vt 0.7013118 0.10545988
vn -0.23161095 -0.95866615 0.16527438
vn -0.23161095 -0.95866615 0.16527438
vn -0.23161095 -0.95866615 0.16527438
vn 0.005139155 0.99998605 -0.0012341412
vn 0.005139155 0.99998605 -0.0012341412
vn 0.005139155 0.99998605 -0.0012341412
vn 0.115039535 0.97341114 0.1980826
vn 0.115039535 0.97341114 0.1980826
vn 0.115039535 0.97341114 0.1980826
vn -0.20812972 -0.97518754 0.07544103
vn -0.20812972 -0.97518754 0.07544103
vn -0.20812972 -0.97518754 0.07544103
vn -0.13431296 0.98758185 0.081499465
vn -0.13431296 0.98758185 0.081499465
vn -0.13431296 0.98758185 0.081499465
vn 0.00023548714 -0.99972516 -0.023441946
vn 0.00023548714 -0.99972516 -0.023441946
vn 0.00023548714 -0.99972516 -0.023441946
vn 0.03940594 -0.94261914 0.33153644
vn 0.03940594 -0.94261914 0.33153644
vn 0.03940594 -0.94261914 0.33153644
vn -0.0909992 0.9939785 0.061039627
vn -0.0909992 0.9939785 0.061039627
vn -0.0909992 0.9939785 0.061039627
vn -0.9236966 0.2313613 -0.30537933
vn -0.9236966 0.2313613 -0.30537933
vn -0.9236966 0.2313613 -0.30537933
vn -0.86902255 0.3342139 -0.36482966
vn -0.86902255 0.3342139 -0.36482966
vn -0.86902255 0.3342139 -0.36482966
vn 0.11094993 -0.9937593 0.011520235
vn 0.11094993 -0.9937593 0.011520235
vn 0.11094993 -0.9937593 0.011520235
vn -0.091245085 -0.9938432 0.062848456
vn -0.091245085 -0.9938432 0.062848456
vn -0.091245085 -0.9938432 0.062848456
vn 0.39528885 0.022783661 -0.9182743
vn 0.39528885 0.022783661 -0.9182743
vn 0.39528885 0.022783661 -0.9182743
vn -0.91560715 0.041326433 0.39994448
vn -0.91560715 0.041326433 0.39994448
vn -0.91560715 0.041326433 0.39994448
vn -0.75531 -0.0033824341 -0.65535897
vn -0.75531 -0.0033824341 -0.65535897
vn -0.75531 -0.0033824341 -0.65535897
vn 0.22205766 0.104993336 0.96936417
vn 0.22205766 0.104993336 0.96936417
vn 0.22205766 0.104993336 0.96936417
vn -0.051079806 0.9896408 0.1341714
vn -0.051079806 0.9896408 0.1341714
vn -0.051079806 0.9896408 0.1341714
vn 0.99265224 0.0633866 0.10307143
vn 0.99265224 0.0633866 0.10307143
vn 0.99265224 0.0633866 0.10307143
vn -0.0011383926 -0.99697757 0.07768284
vn -0.0011383926 -0.99697757 0.07768284
vn -0.0011383926 -0.99697757 0.07768284
vn 0.2860108 0.14850256 -0.9466492
vn 0.2860108 0.14850256 -0.9466492
vn 0.2860108 0.14850256 -0.9466492
vn -0.694979 0.45347193 0.558003
vn -0.694979 0.45347193 0.558003
vn -0.694979 0.45347193 0.558003
vn 0.97619176 0.21681778 0.0063000545
vn 0.97619176 0.21681778 0.0063000545
vn 0.97619176 0.21681778 0.0063000545
vn -0.8171207 0.15508015 -0.55521536
vn -0.8171207 0.15508015 -0.55521536
vn -0.8171207 0.15508015 -0.55521536
vn 0.28537974 0.24607463 0.926286
vn 0.28537974 0.24607463 0.926286
vn 0.28537974 0.24607463 0.926286
vn 0.7185731 0.17426938 0.6732629
vn 0.7185731 0.17426938 0.6732629
vn 0.7185731 0.17426938 0.6732629
vn 0.7185731 0.17426938 0.6732629
vn 0.1069632 0.26393276 0.9585919
vn 0.1069632 0.26393276 0.9585919
vn 0.1069632 0.26393276 0.9585919
vn 0.1069632 0.26393276 0.9585919
vn 0.030779961 0.258377 -0.9655537
vn 0.030779961 0.258377 -0.9655537
vn 0.030779961 0.258377 -0.9655537
vn 0.030779961 0.258377 -0.9655537
vn 0.80900216 0.38151163 0.44717386
vn 0.80900216 0.38151163 0.44717386
vn 0.80900216 0.38151163 0.44717386
vn 0.80900216 0.38151163 0.44717386
vn 0.2591829 -0.95148665 0.16582301
vn 0.2591829 -0.95148665 0.16582301
vn 0.2591829 -0.95148665 0.16582301
vn 0.2591829 -0.95148665 0.16582301
vn -0.77200437 0.3011228 0.5597627
vn -0.77200437 0.3011228 0.5597627
vn -0.77200437 0.3011228 0.5597627
vn -0.77200437 0.3011228 0.5597627
vn 0.005586629 0.9911839 0.13237567
vn 0.005586629 0.9911839 0.13237567
vn 0.005586629 0.9911839 0.13237567
vn 0.005586629 0.9911839 0.13237567
vn 0.7929875 0.30701154 -0.5262268
vn 0.7929875 0.30701154 -0.5262268
vn 0.7929875 0.30701154 -0.5262268
vn 0.7929875 0.30701154 -0.5262268
vn -0.29460064 0.08448659 0.95187837
vn -0.29460064 0.08448659 0.95187837
vn -0.29460064 0.08448659 0.95187837
vn -0.29460064 0.08448659 0.95187837
vn 0.051081464 -0.9948242 0.08783823
vn 0.051081464 -0.9948242 0.08783823
vn 0.051081464 -0.9948242 0.08783823
vn 0.051081464 -0.9948242 0.08783823
vn -0.08770312 0.9918035 0.0929184
vn -0.08770312 0.9918035 0.0929184
vn -0.08770312 0.9918035 0.0929184
vn -0.08770312 0.9918035 0.0929184
vn -0.052470803 0.98934585 0.1357996
vn -0.052470803 0.98934585 0.1357996
vn -0.052470803 0.98934585 0.1357996
vn -0.05154568 0.98979694 0.13283542
g stone-flat_0
f 3/3/3 2/2/2 1/1/1
f 6/6/6 5/5/5 4/4/4
f 9/9/9 8/8/8 7/7/7
f 12/12/12 11/11/11 10/10/10
f 15/15/15 14/14/14 13/13/13
f 18/18/18 17/17/17 16/16/16
f 21/21/21 20/20/20 19/19/19
f 24/24/24 23/23/23 22/22/22
f 27/27/27 26/26/26 25/25/25
f 30/30/30 29/29/29 28/28/28
f 33/33/33 32/32/32 31/31/31
f 36/36/36 35/35/35 34/34/34
f 39/39/39 38/38/38 37/37/37
f 42/42/42 41/41/41 40/40/40
f 45/45/45 44/44/44 43/43/43
f 48/48/48 47/47/47 46/46/46
f 51/51/51 50/50/50 49/49/49
f 54/54/54 53/53/53 52/52/52
f 57/57/57 56/56/56 55/55/55
f 60/60/60 59/59/59 58/58/58
f 63/63/63 62/62/62 61/61/61
f 66/66/66 65/65/65 64/64/64
f 69/69/69 68/68/68 67/67/67
f 72/72/72 71/71/71 70/70/70
f 75/75/75 74/74/74 73/73/73
f 76/76/76 75/75/75 73/73/73
f 79/79/79 78/78/78 77/77/77
f 80/80/80 79/79/79 77/77/77
f 83/83/83 82/82/82 81/81/81
f 84/84/84 83/83/83 81/81/81
f 87/87/87 86/86/86 85/85/85
f 88/88/88 87/87/87 85/85/85
f 91/91/91 90/90/90 89/89/89
f 92/92/92 91/91/91 89/89/89
f 95/95/95 94/94/94 93/93/93
f 96/96/96 95/95/95 93/93/93
f 99/99/99 98/98/98 97/97/97
f 100/100/100 99/99/99 97/97/97
f 103/103/103 102/102/102 101/101/101
f 104/104/104 103/103/103 101/101/101
f 107/107/107 106/106/106 105/105/105
f 108/108/108 107/107/107 105/105/105
f 111/111/111 110/110/110 109/109/109
f 112/112/112 111/111/111 109/109/109
f 115/115/115 114/114/114 113/113/113
f 116/116/116 115/115/115 113/113/113
f 119/119/119 118/118/118 117/117/117
f 120/120/120 117/117/117 118/118/118
