g stone-brick
v 0.33555546 0.03386342 0.7230776
v 0.30198604 0.00029396865 0.72307765
v 0.30198604 0.033863425 0.75664693
v 0.22345716 0.6716822 0.75664693
v 0.30198604 0.54933876 0.75664693
v 0.30198604 0.033863425 0.75664693
v -0.33555335 0.033863425 0.756647
v -0.33555335 0.6716822 0.75664693
v 0.33555526 0.03386325 -0.5081677
v 0.33555537 0.24580413 -0.7539766
v 0.083410576 0.03386321 -0.7539765
v 0.08322499 0.0002938527 -0.7204072
v 0.30198586 0.00029376821 -0.5071434
v -0.33555335 0.6716822 0.75664693
v -0.32353768 0.67168206 -0.74283963
v 0.30198583 0.67168206 -0.74283963
v 0.30198604 0.6716824 0.60225636
v 0.22345716 0.6716822 0.75664693
v 0.30198604 0.54933876 0.75664693
v 0.22345716 0.6716822 0.75664693
v 0.30198604 0.6716824 0.60225636
v 0.33555546 0.53799117 0.7230776
v 0.083410576 0.03386321 -0.7539765
v 0.33555537 0.24580413 -0.7539766
v 0.30198583 0.67168206 -0.74283963
v -0.32353768 0.67168206 -0.74283963
v -0.32353768 0.03386321 -0.7539765
v 0.33555537 0.24580413 -0.7539766
v 0.33555526 0.03386325 -0.5081677
v 0.33555546 0.03386342 0.7230776
v 0.33555546 0.53799117 0.7230776
v 0.30198583 0.67168206 -0.74283963
v 0.30198604 0.6716824 0.60225636
v -0.33555335 0.033863425 0.756647
v -0.32353768 0.03386321 -0.7539765
v -0.32353768 0.67168206 -0.74283963
v -0.33555335 0.6716822 0.75664693
v -0.2899671 0.0002938527 -0.7204072
v -0.32353768 0.03386321 -0.7539765
v -0.33555335 0.033863425 0.756647
v -0.30198276 0.00029396865 0.72307765
v 0.08322499 0.0002938527 -0.7204072
v 0.083410576 0.03386321 -0.7539765
v -0.32353768 0.03386321 -0.7539765
v -0.2899671 0.0002938527 -0.7204072
v 0.30198604 0.54933876 0.75664693
v 0.33555546 0.53799117 0.7230776
v 0.33555546 0.03386342 0.7230776
v 0.30198604 0.033863425 0.75664693
v -0.30198276 0.00029396865 0.72307765
v -0.33555335 0.033863425 0.756647
v 0.30198604 0.033863425 0.75664693
v 0.30198604 0.00029396865 0.72307765
v 0.30198604 0.00029396865 0.72307765
v 0.33555546 0.03386342 0.7230776
v 0.33555526 0.03386325 -0.5081677
v 0.30198586 0.00029376821 -0.5071434
v 0.30198586 0.00029376821 -0.5071434
v 0.08322499 0.0002938527 -0.7204072
v -0.2899671 0.0002938527 -0.7204072
v -0.30198276 0.00029396865 0.72307765
v 0.30198604 0.00029396865 0.72307765
vt 0.6820372 0.23268513
vt 0.69821334 0.22993313
vt 0.6850159 0.20995523
vt 0.4831952 0.28800735
vt 0.5235193 0.2923525
vt 0.6850159 0.20995523
vt 0.49573162 0.0009821032
vt 0.2866685 0.19034922
vt 0.7029856 0.6366313
vt 0.65277994 0.6957768
vt 0.7615409 0.79130435
vt 0.7745379 0.76777786
vt 0.7212072 0.6373955
vt 0.2866685 0.19034922
vt 0.3672927 0.8620062
vt 0.5605011 0.69573003
vt 0.48866683 0.34259173
vt 0.4831952 0.28800735
vt 0.5235193 0.2923525
vt 0.4831952 0.28800735
vt 0.48866683 0.34259173
vt 0.5312967 0.30581024
vt 0.7615409 0.79130435
vt 0.65277994 0.6957768
vt 0.5605011 0.69573003
vt 0.3672927 0.8620062
vt 0.7032939 0.99901783
vt 0.65277994 0.6957768
vt 0.7029856 0.6366313
vt 0.6820372 0.23268513
vt 0.5312967 0.30581024
vt 0.5605011 0.69573003
vt 0.48866683 0.34259173
vt 0.0009821032 0.22464263
vt 0.08220491 0.90128773
vt 0.3672927 0.8620062
vt 0.2866685 0.19034922
vt 0.94533676 0.8146401
vt 0.96740687 0.8430612
vt 0.96740687 0.17509678
vt 0.9470355 0.19803183
vt 0.7745379 0.76777786
vt 0.7615409 0.79130435
vt 0.96740687 0.8430612
vt 0.94533676 0.8146401
vt 0.5235193 0.2923525
vt 0.5312967 0.30581024
vt 0.6820372 0.23268513
vt 0.6850159 0.20995523
vt 0.9470355 0.19803183
vt 0.96740687 0.17509678
vt 0.6850159 0.20995523
vt 0.69821334 0.22993313
vt 0.69821334 0.22993313
vt 0.6820372 0.23268513
vt 0.7029856 0.6366313
vt 0.7212072 0.6373955
vt 0.7212072 0.6373955
vt 0.7745379 0.76777786
vt 0.94533676 0.8146401
vt 0.9470355 0.19803183
vt 0.69821334 0.22993313
vn 0.5773497 -0.57734954 0.57735145
vn 0.5773497 -0.57734954 0.57735145
vn 0.5773497 -0.57734954 0.57735145
vn 1.03683135E-07 0 1
vn 1.03683135E-07 0 1
vn 1.03683135E-07 0 1
vn 1.03683135E-07 0 1
vn 1.03683135E-07 0 1
vn 0.5436982 -0.6271756 -0.5577124
vn 0.5436982 -0.6271756 -0.5577124
vn 0.5436982 -0.6271756 -0.5577124
vn 0.5436982 -0.6271756 -0.5577124
vn 0.5436982 -0.6271756 -0.5577124
vn -1.66288E-07 1 0
vn -1.66288E-07 1 0
vn -1.66288E-07 1 0
vn -1.66288E-07 1 0
vn -1.66288E-07 1 0
vn 0.74614745 0.52180886 0.41349676
vn 0.74614745 0.52180886 0.41349676
vn 0.74614745 0.52180886 0.41349676
vn 0.74614745 0.52180886 0.41349676
vn -0.0030529455 0.018504063 -0.9998242
vn -0.0030529455 0.018504063 -0.9998242
vn -0.0030529455 0.018504063 -0.9998242
vn -0.0030529455 0.018504063 -0.9998242
vn -0.0030529455 0.018504063 -0.9998242
vn 0.9986203 0.052234747 -0.005408169
vn 0.9986203 0.052234747 -0.005408169
vn 0.9986203 0.052234747 -0.005408169
vn 0.9986203 0.052234747 -0.005408169
vn 0.9986203 0.052234747 -0.005408169
vn 0.9986203 0.052234747 -0.005408169
vn -0.9999682 6.9697315E-05 -0.007983283
vn -0.9999682 6.9697315E-05 -0.007983283
vn -0.9999682 6.9697315E-05 -0.007983283
vn -0.9999682 6.9697315E-05 -0.007983283
vn -0.7070826 -0.7071075 -0.0057519474
vn -0.7070826 -0.7071075 -0.0057519474
vn -0.7070826 -0.7071075 -0.0057519474
vn -0.7070826 -0.7071075 -0.0057519474
vn -0 -0.7071073 -0.70710623
vn -0 -0.7071073 -0.70710623
vn -0 -0.7071073 -0.70710623
vn -0 -0.7071073 -0.70710623
vn 0.70710546 0 0.7071081
vn 0.70710546 0 0.7071081
vn 0.70710546 0 0.7071081
vn 0.70710546 0 0.7071081
vn -0 -0.7071048 0.70710874
vn -0 -0.7071048 0.70710874
vn -0 -0.7071048 0.70710874
vn -0 -0.7071048 0.70710874
vn 0.7071072 -0.70710635 0
vn 0.7071072 -0.70710635 0
vn 0.7071072 -0.70710635 0
vn 0.7071072 -0.70710635 0
vn -0 -1 0
vn -0 -1 0
vn -0 -1 0
vn -0 -1 0
vn -0 -1 0
g stone-brick_0
f 3/3/3 2/2/2 1/1/1
f 6/6/6 5/5/5 4/4/4
f 4/4/4 7/7/7 6/6/6
f 4/4/4 8/8/8 7/7/7
f 11/11/11 10/10/10 9/9/9
f 9/9/9 12/12/12 11/11/11
f 9/9/9 13/13/13 12/12/12
f 16/16/16 15/15/15 14/14/14
f 14/14/14 17/17/17 16/16/16
f 14/14/14 18/18/18 17/17/17
f 21/21/21 20/20/20 19/19/19
f 22/22/22 21/21/21 19/19/19
f 25/25/25 24/24/24 23/23/23
f 23/23/23 26/26/26 25/25/25
f 23/23/23 27/27/27 26/26/26
f 30/30/30 29/29/29 28/28/28
f 28/28/28 31/31/31 30/30/30
f 28/28/28 32/32/32 31/31/31
f 32/32/32 33/33/33 31/31/31
f 36/36/36 35/35/35 34/34/34
f 37/37/37 36/36/36 34/34/34
f 40/40/40 39/39/39 38/38/38
f 41/41/41 40/40/40 38/38/38
f 44/44/44 43/43/43 42/42/42
f 45/45/45 44/44/44 42/42/42
f 48/48/48 47/47/47 46/46/46
f 49/49/49 48/48/48 46/46/46
f 52/52/52 51/51/51 50/50/50
f 53/53/53 52/52/52 50/50/50
f 56/56/56 55/55/55 54/54/54
f 57/57/57 56/56/56 54/54/54
f 60/60/60 59/59/59 58/58/58
f 58/58/58 61/61/61 60/60/60
f 58/58/58 62/62/62 61/61/61
