g stone-round
v -0.45597818 0.18761942 -1.0047315
v 0.061564412 1.2368062 -1.0049598
v -1.0349227 0.49914652 -0.34661648
v 1.1931199 0.9882596 0.9680467
v 0.4492218 1.3329928 -0.33459735
v 1.3083361 0.74027616 -0.3155478
v 0.061564412 1.2368062 -1.0049598
v 1.1965725 0.40812784 -0.9866653
v 0.4492218 1.3329928 -0.33459735
v 1.0917721 -0.24470972 0.947236
v 1.0807246 -0.3030576 -0.636039
v 0.20364475 -0.64740574 0.6704356
v 1.1965725 0.40812784 -0.9866653
v 1.0807246 -0.3030576 -0.636039
v 1.5431458 0.0952616 -0.33487055
v 0.4299138 0.4021716 -1.3491011
v 0.061564412 1.2368062 -1.0049598
v -0.45597818 0.18761942 -1.0047315
v 1.0917721 -0.24470972 0.947236
v 1.5431458 0.0952616 -0.33487055
v 1.0807246 -0.3030576 -0.636039
v -0.60626847 0.22760674 1.320013
v 0.116635524 1.2782834 1.3285464
v 0.40243828 0.48098654 1.6787978
v 1.5439602 0.21279603 0.6898369
v 1.5431458 0.0952616 -0.33487055
v 1.0917721 -0.24470972 0.947236
v 0.20364475 -0.64740574 0.6704356
v 1.0807246 -0.3030576 -0.636039
v 0.2207506 -0.5943159 -0.3598241
v 0.4918286 1.6208858 0.68190026
v 0.4492218 1.3329928 -0.33459735
v 1.1931199 0.9882596 0.9680467
v 0.4299138 0.4021716 -1.3491011
v 1.1965725 0.40812784 -0.9866653
v 0.061564412 1.2368062 -1.0049598
v -1.0140357 0.5675815 0.66518754
v 0.116635524 1.2782834 1.3285464
v -0.60626847 0.22760674 1.320013
v 1.1931199 0.9882596 0.9680467
v 1.3083361 0.74027616 -0.3155478
v 1.5439602 0.21279603 0.6898369
v 0.4299138 0.4021716 -1.3491011
v 1.0807246 -0.3030576 -0.636039
v 1.1965725 0.40812784 -0.9866653
v -0.5280413 1.2648633 -0.33263302
v 0.061564412 1.2368062 -1.0049598
v 0.4492218 1.3329928 -0.33459735
v -1.0140357 0.5675815 0.66518754
v -1.0349227 0.49914652 -0.34661648
v -0.54373336 1.4670416 0.6642028
v 0.4918286 1.6208858 0.68190026
v 1.1931199 0.9882596 0.9680467
v 0.116635524 1.2782834 1.3285464
v -0.8130876 -0.31400162 0.66411245
v -0.7370767 -0.32469523 -0.35661143
v -1.0140357 0.5675815 0.66518754
v 0.20364475 -0.64740574 0.6704356
v 0.2207506 -0.5943159 -0.3598241
v -0.8130876 -0.31400162 0.66411245
v 0.41582423 -0.31579745 -1.1116716
v -0.45597818 0.18761942 -1.0047315
v 0.2207506 -0.5943159 -0.3598241
v -0.8130876 -0.31400162 0.66411245
v -0.60626847 0.22760674 1.320013
v 0.20364475 -0.64740574 0.6704356
v 0.116635524 1.2782834 1.3285464
v 1.1931199 0.9882596 0.9680467
v 0.40243828 0.48098654 1.6787978
v 0.3983745 -0.35256153 1.4200236
v 1.0917721 -0.24470972 0.947236
v 0.20364475 -0.64740574 0.6704356
v 1.2808385 0.46840587 1.4273695
v 1.0917721 -0.24470972 0.947236
v 0.40243828 0.48098654 1.6787978
v -0.54373336 1.4670416 0.6642028
v -0.5280413 1.2648633 -0.33263302
v 0.4918286 1.6208858 0.68190026
v -0.7370767 -0.32469523 -0.35661143
v -0.45597818 0.18761942 -1.0047315
v -1.0349227 0.49914652 -0.34661648
v -1.0140357 0.5675815 0.66518754
v -0.7370767 -0.32469523 -0.35661143
v -1.0349227 0.49914652 -0.34661648
v 0.4918286 1.6208858 0.68190026
v -0.5280413 1.2648633 -0.33263302
v 0.4492218 1.3329928 -0.33459735
v -0.8130876 -0.31400162 0.66411245
v 0.2207506 -0.5943159 -0.3598241
v -0.7370767 -0.32469523 -0.35661143
v -0.54373336 1.4670416 0.6642028
v 0.116635524 1.2782834 1.3285464
v -1.0140357 0.5675815 0.66518754
v -0.54373336 1.4670416 0.6642028
v -1.0349227 0.49914652 -0.34661648
v -0.5280413 1.2648633 -0.33263302
v 1.5439602 0.21279603 0.6898369
v 1.3083361 0.74027616 -0.3155478
v 1.5431458 0.0952616 -0.33487055
v 1.3083361 0.74027616 -0.3155478
v 1.1965725 0.40812784 -0.9866653
v 1.5431458 0.0952616 -0.33487055
v 0.3983745 -0.35256153 1.4200236
v -0.60626847 0.22760674 1.320013
v 0.40243828 0.48098654 1.6787978
v 0.4918286 1.6208858 0.68190026
v 0.116635524 1.2782834 1.3285464
v -0.54373336 1.4670416 0.6642028
v 0.4492218 1.3329928 -0.33459735
v 1.1965725 0.40812784 -0.9866653
v 1.3083361 0.74027616 -0.3155478
v 0.2207506 -0.5943159 -0.3598241
v 1.0807246 -0.3030576 -0.636039
v 0.41582423 -0.31579745 -1.1116716
v 0.41582423 -0.31579745 -1.1116716
v 1.0807246 -0.3030576 -0.636039
v 0.4299138 0.4021716 -1.3491011
v 1.2808385 0.46840587 1.4273695
v 1.1931199 0.9882596 0.9680467
v 1.5439602 0.21279603 0.6898369
v 0.2207506 -0.5943159 -0.3598241
v -0.45597818 0.18761942 -1.0047315
v -0.7370767 -0.32469523 -0.35661143
v 0.20364475 -0.64740574 0.6704356
v -0.60626847 0.22760674 1.320013
v 0.3983745 -0.35256153 1.4200236
v 0.40243828 0.48098654 1.6787978
v 1.0917721 -0.24470972 0.947236
v 0.3983745 -0.35256153 1.4200236
v 0.40243828 0.48098654 1.6787978
v 1.1931199 0.9882596 0.9680467
v 1.2808385 0.46840587 1.4273695
v 1.5439602 0.21279603 0.6898369
v 1.0917721 -0.24470972 0.947236
v 1.2808385 0.46840587 1.4273695
v 0.4299138 0.4021716 -1.3491011
v -0.45597818 0.18761942 -1.0047315
v 0.41582423 -0.31579745 -1.1116716
v -1.0140357 0.5675815 0.66518754
v -0.60626847 0.22760674 1.320013
v -0.8130876 -0.31400162 0.66411245
v -1.0349227 0.49914652 -0.34661648
v 0.061564412 1.2368062 -1.0049598
v -0.5280413 1.2648633 -0.33263302
vt 0.34803253 0.07153934
vt 0.23894167 0.18388635
vt 0.37056142 0.21501021
vt 0.15801997 0.34212402
vt 0.20673078 0.2386012
vt 0.11243742 0.23213045
vt 0.23894167 0.18388635
vt 0.116840385 0.1546617
vt 0.20673078 0.2386012
vt 0.0709107 0.67987007
vt 0.17399421 0.95530033
vt 0.2533904 0.6777632
vt 0.116840385 0.1546617
vt 0.020907743 0.061171364
vt 0.00071074266 0.21018207
vt 0.19669 0.10835168
vt 0.23894167 0.18388635
vt 0.34803253 0.07153934
vt 0.0709107 0.67987007
vt 0.04872398 0.93899304
vt 0.17399421 0.95530033
vt 0.3670794 0.45832422
vt 0.2420367 0.36130953
vt 0.20943467 0.43128943
vt 0.07557691 0.3508942
vt 0.00071074266 0.21018207
vt 0.024145607 0.47306028
vt 0.2533904 0.6777632
vt 0.17399421 0.95530033
vt 0.31229478 0.8490321
vt 0.21798731 0.31113383
vt 0.20673078 0.2386012
vt 0.15801997 0.34212402
vt 0.19669 0.10835168
vt 0.116840385 0.1546617
vt 0.23894167 0.18388635
vt 0.37288663 0.33276004
vt 0.2420367 0.36130953
vt 0.3670794 0.45832422
vt 0.15801997 0.34212402
vt 0.11243742 0.23213045
vt 0.07557691 0.3508942
vt 0.19669 0.10835168
vt 0.020907743 0.061171364
vt 0.116840385 0.1546617
vt 0.28146324 0.23749506
vt 0.23894167 0.18388635
vt 0.20673078 0.2386012
vt 0.37288663 0.33276004
vt 0.37056142 0.21501021
vt 0.2812897 0.3087289
vt 0.21798731 0.31113383
vt 0.15801997 0.34212402
vt 0.2420367 0.36130953
vt 0.50334704 0.36221054
vt 0.50658494 0.1690249
vt 0.37288663 0.33276004
vt 0.2533904 0.6777632
vt 0.31229478 0.8490321
vt 0.43533117 0.61047477
vt 0.3221562 0.9992893
vt 0.50658494 0.95634085
vt 0.31229478 0.8490321
vt 0.43533117 0.61047477
vt 0.3670794 0.45832422
vt 0.2533904 0.6777632
vt 0.2420367 0.36130953
vt 0.15801997 0.34212402
vt 0.20943467 0.43128943
vt 0.16930225 0.554408
vt 0.0709107 0.67987007
vt 0.2533904 0.6777632
vt 0.1384458 0.3915772
vt 0.024145607 0.47306028
vt 0.20943467 0.43128943
vt 0.2812897 0.3087289
vt 0.28146324 0.23749506
vt 0.21798731 0.31113383
vt 0.50658494 0.1690249
vt 0.34803253 0.07153934
vt 0.37056142 0.21501021
vt 0.37288663 0.33276004
vt 0.50658494 0.1690249
vt 0.37056142 0.21501021
vt 0.21798731 0.31113383
vt 0.28146324 0.23749506
vt 0.20673078 0.2386012
vt 0.43533117 0.61047477
vt 0.31229478 0.8490321
vt 0.4836475 0.79429483
vt 0.2812897 0.3087289
vt 0.2420367 0.36130953
vt 0.37288663 0.33276004
vt 0.2812897 0.3087289
vt 0.37056142 0.21501021
vt 0.28146324 0.23749506
vt 0.07557691 0.3508942
vt 0.11243742 0.23213045
vt 0.00071074266 0.21018207
vt 0.11243742 0.23213045
vt 0.116840385 0.1546617
vt 0.00071074266 0.21018207
vt 0.16930225 0.554408
vt 0.3670794 0.45832422
vt 0.20943467 0.43128943
vt 0.21798731 0.31113383
vt 0.2420367 0.36130953
vt 0.2812897 0.3087289
vt 0.20673078 0.2386012
vt 0.116840385 0.1546617
vt 0.11243742 0.23213045
vt 0.31229478 0.8490321
vt 0.17399421 0.95530033
vt 0.3221562 0.9992893
vt 0.16232246 0.00071074266
vt 0.020907743 0.061171364
vt 0.19669 0.10835168
vt 0.1384458 0.3915772
vt 0.15801997 0.34212402
vt 0.07557691 0.3508942
vt 0.31229478 0.8490321
vt 0.50658494 0.95634085
vt 0.4836475 0.79429483
vt 0.2533904 0.6777632
vt 0.3670794 0.45832422
vt 0.16930225 0.554408
vt 0.20943467 0.43128943
vt 0.024145607 0.47306028
vt 0.16930225 0.554408
vt 0.20943467 0.43128943
vt 0.15801997 0.34212402
vt 0.1384458 0.3915772
vt 0.07557691 0.3508942
vt 0.024145607 0.47306028
vt 0.1384458 0.3915772
vt 0.19669 0.10835168
vt 0.34803253 0.07153934
vt 0.16232246 0.00071074266
vt 0.37288663 0.33276004
vt 0.3670794 0.45832422
vt 0.50334704 0.36221054
vt 0.37056142 0.21501021
vt 0.23894167 0.18388635
vt 0.28146324 0.23749506
vn -0.63473856 0.31294996 -0.7065192
vn -0.63473856 0.31294996 -0.7065192
vn -0.63473856 0.31294996 -0.7065192
vn 0.56622136 0.81726974 -0.10706779
vn 0.56622136 0.81726974 -0.10706779
vn 0.56622136 0.81726974 -0.10706779
vn 0.54025733 0.730757 -0.41727242
vn 0.54025733 0.730757 -0.41727242
vn 0.54025733 0.730757 -0.41727242
vn 0.40476537 -0.91389984 0.030855369
vn 0.40476537 -0.91389984 0.030855369
vn 0.40476537 -0.91389984 0.030855369
vn 0.7164025 -0.3989017 -0.5724028
vn 0.7164025 -0.3989017 -0.5724028
vn 0.7164025 -0.3989017 -0.5724028
vn -0.39605108 0.19516894 -0.89724725
vn -0.39605108 0.19516894 -0.89724725
vn -0.39605108 0.19516894 -0.89724725
vn 0.64354885 -0.76503795 0.023703353
vn 0.64354885 -0.76503795 0.023703353
vn 0.64354885 -0.76503795 0.023703353
vn -0.38018757 0.2543612 0.8892456
vn -0.38018757 0.2543612 0.8892456
vn -0.38018757 0.2543612 0.8892456
vn 0.7304908 -0.6785396 0.07724804
vn 0.7304908 -0.6785396 0.07724804
vn 0.7304908 -0.6785396 0.07724804
vn 0.30780706 -0.95043707 -0.043865953
vn 0.30780706 -0.95043707 -0.043865953
vn 0.30780706 -0.95043707 -0.043865953
vn 0.70145077 0.6774961 -0.22128254
vn 0.70145077 0.6774961 -0.22128254
vn 0.70145077 0.6774961 -0.22128254
vn 0.3697153 0.48894206 -0.7900925
vn 0.3697153 0.48894206 -0.7900925
vn 0.3697153 0.48894206 -0.7900925
vn -0.64352095 0.43766555 0.6279567
vn -0.64352095 0.43766555 0.6279567
vn -0.64352095 0.43766555 0.6279567
vn 0.91140026 0.41151467 0.0023053826
vn 0.91140026 0.41151467 0.0023053826
vn 0.91140026 0.41151467 0.0023053826
vn 0.382855 -0.45792487 -0.8023259
vn 0.382855 -0.45792487 -0.8023259
vn 0.382855 -0.45792487 -0.8023259
vn -0.06938578 0.9923348 -0.10226025
vn -0.06938578 0.9923348 -0.10226025
vn -0.06938578 0.9923348 -0.10226025
vn -0.8861034 0.4633041 -0.013044258
vn -0.8861034 0.4633041 -0.013044258
vn -0.8861034 0.4633041 -0.013044258
vn 0.38898855 0.7013747 0.5972951
vn 0.38898855 0.7013747 0.5972951
vn 0.38898855 0.7013747 0.5972951
vn -0.9726116 -0.22161165 -0.07010636
vn -0.9726116 -0.22161165 -0.07010636
vn -0.9726116 -0.22161165 -0.07010636
vn -0.31083316 -0.94892585 -0.05405962
vn -0.31083316 -0.94892585 -0.05405962
vn -0.31083316 -0.94892585 -0.05405962
vn -0.49304658 -0.766361 -0.41182035
vn -0.49304658 -0.766361 -0.41182035
vn -0.49304658 -0.766361 -0.41182035
vn -0.23727101 -0.7110157 0.6619359
vn -0.23727101 -0.7110157 0.6619359
vn -0.23727101 -0.7110157 0.6619359
vn 0.3923515 0.48420006 0.78205544
vn 0.3923515 0.48420006 0.78205544
vn 0.3923515 0.48420006 0.78205544
vn 0.32597613 -0.9055512 0.27150816
vn 0.32597613 -0.9055512 0.27150816
vn 0.32597613 -0.9055512 0.27150816
vn 0.21562816 -0.5840528 0.78255147
vn 0.21562816 -0.5840528 0.78255147
vn 0.21562816 -0.5840528 0.78255147
vn -0.14068477 0.96986467 -0.1989227
vn -0.14068477 0.96986467 -0.1989227
vn -0.14068477 0.96986467 -0.1989227
vn -0.782682 -0.2761983 -0.5577843
vn -0.782682 -0.2761983 -0.5577843
vn -0.782682 -0.2761983 -0.5577843
vn -0.9394168 -0.34014457 0.042399
vn -0.9394168 -0.34014457 0.042399
vn -0.9394168 -0.34014457 0.042399
vn -0.06751594 0.96069807 -0.26925966
vn -0.06751594 0.96069807 -0.26925966
vn -0.06751594 0.96069807 -0.26925966
vn -0.2709788 -0.96253234 -0.010095167
vn -0.2709788 -0.96253234 -0.010095167
vn -0.2709788 -0.96253234 -0.010095167
vn -0.6224516 0.3262415 0.7114214
vn -0.6224516 0.3262415 0.7114214
vn -0.6224516 0.3262415 0.7114214
vn -0.82632774 0.549276 -0.12441202
vn -0.82632774 0.549276 -0.12441202
vn -0.82632774 0.549276 -0.12441202
vn 0.938531 0.34286115 -0.040072214
vn 0.938531 0.34286115 -0.040072214
vn 0.938531 0.34286115 -0.040072214
vn 0.8894044 0.33315325 -0.3129995
vn 0.8894044 0.33315325 -0.3129995
vn 0.8894044 0.33315325 -0.3129995
vn -0.25674114 -0.2854105 0.9233769
vn -0.25674114 -0.2854105 0.9233769
vn -0.25674114 -0.2854105 0.9233769
vn -0.14145347 0.9063579 0.3981284
vn -0.14145347 0.9063579 0.3981284
vn -0.14145347 0.9063579 0.3981284
vn 0.51450604 0.73136485 -0.44764826
vn 0.51450604 0.73136485 -0.44764826
vn 0.51450604 0.73136485 -0.44764826
vn 0.22325647 -0.93150604 -0.28714627
vn 0.22325647 -0.93150604 -0.28714627
vn 0.22325647 -0.93150604 -0.28714627
vn 0.56372476 -0.26928157 -0.7808341
vn 0.56372476 -0.26928157 -0.7808341
vn 0.56372476 -0.26928157 -0.7808341
vn 0.91692334 0.33972123 0.20938262
vn 0.91692334 0.33972123 0.20938262
vn 0.91692334 0.33972123 0.20938262
vn -0.20556778 -0.722413 -0.6601979
vn -0.20556778 -0.722413 -0.6601979
vn -0.20556778 -0.722413 -0.6601979
vn -0.4838185 -0.76430935 0.4263224
vn -0.4838185 -0.76430935 0.4263224
vn -0.4838185 -0.76430935 0.4263224
vn 0.57187694 -0.24576433 0.78265995
vn 0.57187694 -0.24576433 0.78265995
vn 0.57187694 -0.24576433 0.78265995
vn 0.21388154 0.66682816 0.71385914
vn 0.21388154 0.66682816 0.71385914
vn 0.21388154 0.66682816 0.71385914
vn 0.75018126 -0.49447152 0.43900564
vn 0.75018126 -0.49447152 0.43900564
vn 0.75018126 -0.49447152 0.43900564
vn -0.28290862 -0.29613772 -0.9122856
vn -0.28290862 -0.29613772 -0.9122856
vn -0.28290862 -0.29613772 -0.9122856
vn -0.87493956 -0.19997163 0.44101274
vn -0.87493956 -0.19997163 0.44101274
vn -0.87493956 -0.19997163 0.44101274
vn -0.6622818 0.44935948 -0.5995488
vn -0.6622818 0.44935948 -0.5995488
vn -0.6622818 0.44935948 -0.5995488
g stone-round_0
f 3/3/3 2/2/2 1/1/1
f 6/6/6 5/5/5 4/4/4
f 9/9/9 8/8/8 7/7/7
f 12/12/12 11/11/11 10/10/10
f 15/15/15 14/14/14 13/13/13
f 18/18/18 17/17/17 16/16/16
f 21/21/21 20/20/20 19/19/19
f 24/24/24 23/23/23 22/22/22
f 27/27/27 26/26/26 25/25/25
f 30/30/30 29/29/29 28/28/28
f 33/33/33 32/32/32 31/31/31
f 36/36/36 35/35/35 34/34/34
f 39/39/39 38/38/38 37/37/37
f 42/42/42 41/41/41 40/40/40
f 45/45/45 44/44/44 43/43/43
f 48/48/48 47/47/47 46/46/46
f 51/51/51 50/50/50 49/49/49
f 54/54/54 53/53/53 52/52/52
f 57/57/57 56/56/56 55/55/55
f 60/60/60 59/59/59 58/58/58
f 63/63/63 62/62/62 61/61/61
f 66/66/66 65/65/65 64/64/64
f 69/69/69 68/68/68 67/67/67
f 72/72/72 71/71/71 70/70/70
f 75/75/75 74/74/74 73/73/73
f 78/78/78 77/77/77 76/76/76
f 81/81/81 80/80/80 79/79/79
f 84/84/84 83/83/83 82/82/82
f 87/87/87 86/86/86 85/85/85
f 90/90/90 89/89/89 88/88/88
f 93/93/93 92/92/92 91/91/91
f 96/96/96 95/95/95 94/94/94
f 99/99/99 98/98/98 97/97/97
f 102/102/102 101/101/101 100/100/100
f 105/105/105 104/104/104 103/103/103
f 108/108/108 107/107/107 106/106/106
f 111/111/111 110/110/110 109/109/109
f 114/114/114 113/113/113 112/112/112
f 117/117/117 116/116/116 115/115/115
f 120/120/120 119/119/119 118/118/118
f 123/123/123 122/122/122 121/121/121
f 126/126/126 125/125/125 124/124/124
f 129/129/129 128/128/128 127/127/127
f 132/132/132 131/131/131 130/130/130
f 135/135/135 134/134/134 133/133/133
f 138/138/138 137/137/137 136/136/136
f 141/141/141 140/140/140 139/139/139
f 144/144/144 143/143/143 142/142/142
