g surf
v -0.020670991 2.6820757 -0.00014787876
v -1.081851E-08 2.748103 -0.06187443
v 1.343751E-10 2.7090437 0.00076877006
v -0.16521728 2.5051033 -0.061874464
v -1.6695445E-08 2.5051033 -0.09548659
v -1.081851E-08 2.748103 -0.06187443
v 0.020670991 2.6820757 -0.00014788599
v 1.343751E-10 2.7090437 0.00076877006
v -1.081851E-08 2.748103 -0.06187443
v 0.16521728 2.5051033 -0.06187452
v -1.081851E-08 2.748103 -0.06187443
v -1.6695445E-08 2.5051033 -0.09548659
v -0.014894141 0.47188383 -0.1213149
v -0.01489413 0.14914285 -0.06187494
v -0.014894163 0.075535305 -0.249137
v -0.014894164 0.15130949 -0.26732674
v -0.014894163 0.075535305 -0.249137
v -0.01489413 0.14914285 -0.06187494
v 0.014894108 0.14914285 -0.06187494
v 0.014894075 0.075535305 -0.249137
v -0.014894141 0.47188383 -0.1213149
v -0.014894164 0.15130949 -0.26732674
v 0.014894074 0.15130949 -0.26732674
v 0.014894098 0.47188383 -0.1213149
v -0.020236392 2.129988 0.024732359
v -0.020236392 2.4895425 0.024732457
v 4.3243222E-09 2.4895425 0.024732457
v 4.3243094E-09 2.129988 0.024732353
v -0.020236392 1.6150689 0.024732212
v 0.020236393 2.129988 0.024732351
v 0.020236393 2.4895425 0.024732456
v 0.020236393 1.6150689 0.024732206
v 4.3242925E-09 1.6150689 0.02473221
v -0.020236392 0.8661097 0.024732057
v 0.020236393 0.8661097 0.024732053
v 4.3242765E-09 0.8661097 0.024732055
v -0.020236392 0.40833274 0.024731955
v 0.020236393 0.40833274 0.024731945
v 4.3242654E-09 0.40833274 0.024731947
v -0.020236392 0.07573792 0.024731869
v 0.020236393 0.07573792 0.024731861
v 4.3242556E-09 0.07573792 0.024731867
v -0.13476442 2.4895425 -0.005207452
v -0.16521728 2.5051033 -0.061874464
v -1.081851E-08 2.748103 -0.06187443
v -0.020670991 2.6820757 -0.00014787876
v -2.1211381E-08 0.39847896 -0.12131491
v -0.35891125 0.86277294 -0.061874732
v -0.27841094 0.39847896 -0.06187482
v -2.3886916E-08 0.86277306 -0.13661715
v -0.37723193 1.6172369 -0.06187457
v -2.388689E-08 1.6172369 -0.13661695
v -0.2992265 2.129988 -0.061874554
v -2.121135E-08 2.129988 -0.12131459
v -0.16521728 2.5051033 -0.061874464
v -1.6695445E-08 2.5051033 -0.09548659
v -1.0818562E-08 0.07573795 -0.061874956
v -2.1211381E-08 0.39847896 -0.12131491
v -0.27841094 0.39847896 -0.06187482
v -0.106555015 0.0021303617 -0.06187496
v -0.3250746 0.8661097 -0.0056049554
v -0.35891125 0.86277294 -0.061874732
v -0.37723193 1.6172369 -0.06187457
v -0.34316146 1.6150689 -0.005458784
v -0.34316146 1.6150689 -0.005458784
v -0.37723193 1.6172369 -0.06187457
v -0.2992265 2.129988 -0.061874554
v -0.26610485 2.1216018 -0.005395064
v -0.26610485 2.1216018 -0.005395064
v -0.2992265 2.129988 -0.061874554
v -0.16521728 2.5051033 -0.061874464
v -0.13476442 2.4895425 -0.005207452
v -0.2456073 0.40833274 -0.005224365
v -0.27841094 0.39847896 -0.06187482
v -0.35891125 0.86277294 -0.061874732
v -0.3250746 0.8661097 -0.0056049554
v -0.020236392 0.07573792 0.024731869
v -1.0818562E-08 0.07573795 -0.061874956
v -0.106555015 0.0021303617 -0.06187496
v -0.09611962 0.038868397 3.667415E-05
v -0.09611962 0.038868397 3.667415E-05
v -0.106555015 0.0021303617 -0.06187496
v -0.27841094 0.39847896 -0.06187482
v -0.2456073 0.40833274 -0.005224365
v 4.3242556E-09 0.07573792 0.024731867
v -1.0818562E-08 0.07573795 -0.061874956
v -0.020236392 0.07573792 0.024731869
v 0.020236393 0.07573792 0.024731861
v -0.020670991 2.6820757 -0.00014787876
v 1.343751E-10 2.7090437 0.00076877006
v 4.3243222E-09 2.4895425 0.024732457
v -0.020236392 2.4895425 0.024732457
v 0.014894098 0.47188383 -0.1213149
v 0.014894074 0.15130949 -0.26732674
v 0.014894075 0.075535305 -0.249137
v 0.014894108 0.14914285 -0.06187494
v 0.13476442 2.4895425 -0.0052075004
v 0.020670991 2.6820757 -0.00014788599
v -1.081851E-08 2.748103 -0.06187443
v 0.16521728 2.5051033 -0.06187452
v -2.1211381E-08 0.39847896 -0.12131491
v 0.27841094 0.39847896 -0.06187492
v 0.35891125 0.86277294 -0.06187486
v -2.3886916E-08 0.86277306 -0.13661715
v 0.37723193 1.6172369 -0.061874703
v -2.388689E-08 1.6172369 -0.13661695
v 0.2992265 2.129988 -0.06187465
v -2.121135E-08 2.129988 -0.12131459
v 0.16521728 2.5051033 -0.06187452
v -1.6695445E-08 2.5051033 -0.09548659
v -1.0818562E-08 0.07573795 -0.061874956
v 0.106555 0.0021303617 -0.061874997
v 0.27841094 0.39847896 -0.06187492
v -2.1211381E-08 0.39847896 -0.12131491
v 0.3250746 0.8661097 -0.0056050704
v 0.34316146 1.6150689 -0.005458905
v 0.37723193 1.6172369 -0.061874703
v 0.35891125 0.86277294 -0.06187486
v 0.34316146 1.6150689 -0.005458905
v 0.26610485 2.1216018 -0.0053951573
v 0.2992265 2.129988 -0.06187465
v 0.37723193 1.6172369 -0.061874703
v 0.26610485 2.1216018 -0.0053951573
v 0.13476442 2.4895425 -0.0052075004
v 0.16521728 2.5051033 -0.06187452
v 0.2992265 2.129988 -0.06187465
v 0.2456073 0.40833274 -0.0052244505
v 0.3250746 0.8661097 -0.0056050704
v 0.35891125 0.86277294 -0.06187486
v 0.27841094 0.39847896 -0.06187492
v 0.020236393 0.07573792 0.024731861
v 0.09611962 0.038868397 3.6640537E-05
v 0.106555 0.0021303617 -0.061874997
v -1.0818562E-08 0.07573795 -0.061874956
v 0.09611962 0.038868397 3.6640537E-05
v 0.2456073 0.40833274 -0.0052244505
v 0.27841094 0.39847896 -0.06187492
v 0.106555 0.0021303617 -0.061874997
v 0.020670991 2.6820757 -0.00014788599
v 0.020236393 2.4895425 0.024732456
v 4.3243222E-09 2.4895425 0.024732457
v 1.343751E-10 2.7090437 0.00076877006
v -0.014894164 0.15130949 -0.26732674
v -0.014894163 0.075535305 -0.249137
v 0.014894075 0.075535305 -0.249137
v 0.014894074 0.15130949 -0.26732674
v -0.020670991 2.6820757 -0.00014787876
v -0.020236392 2.4895425 0.024732457
v -0.13476442 2.4895425 -0.005207452
v 0.020670991 2.6820757 -0.00014788599
v 0.13476442 2.4895425 -0.0052075004
v 0.020236393 2.4895425 0.024732456
v -0.020236392 0.8661097 0.024732057
v -0.020236392 0.40833274 0.024731955
v -0.2456073 0.40833274 -0.005224365
v -0.3250746 0.8661097 -0.0056049554
v -0.020236392 1.6150689 0.024732212
v -0.34316146 1.6150689 -0.005458784
v -0.020236392 2.129988 0.024732359
v -0.26610485 2.1216018 -0.005395064
v -0.020236392 0.40833274 0.024731955
v -0.020236392 0.07573792 0.024731869
v -0.09611962 0.038868397 3.667415E-05
v -0.2456073 0.40833274 -0.005224365
v -0.26610485 2.1216018 -0.005395064
v -0.13476442 2.4895425 -0.005207452
v -0.020236392 2.4895425 0.024732457
v -0.020236392 2.129988 0.024732359
v 0.020236393 0.8661097 0.024732053
v 0.2456073 0.40833274 -0.0052244505
v 0.020236393 0.40833274 0.024731945
v 0.3250746 0.8661097 -0.0056050704
v 0.020236393 1.6150689 0.024732206
v 0.34316146 1.6150689 -0.005458905
v 0.020236393 2.129988 0.024732351
v 0.26610485 2.1216018 -0.0053951573
v 0.020236393 0.40833274 0.024731945
v 0.2456073 0.40833274 -0.0052244505
v 0.09611962 0.038868397 3.6640537E-05
v 0.020236393 0.07573792 0.024731861
v 0.26610485 2.1216018 -0.0053951573
v 0.020236393 2.129988 0.024732351
v 0.020236393 2.4895425 0.024732456
v 0.13476442 2.4895425 -0.0052075004
vt 0.5074716 0.7692862
vt 0.49361345 0.7826546
vt 0.50992274 0.7748313
vt 0.051648963 0.15418535
vt 0.051825915 0.10771054
vt 0.0015967889 0.10771054
vt 0.5647564 0.23038507
vt 0.5672074 0.22483952
vt 0.5508981 0.21701764
vt 0.051648963 0.061235618
vt 0.0015967889 0.10771054
vt 0.051825915 0.10771054
vt 0.05376429 0.29361987
vt 0.05376429 0.22623064
vt 0.0026739722 0.21701764
vt 0.0015967889 0.2329691
vt 0.2287137 0.21701764
vt 0.2287137 0.25770438
vt 0.237093 0.25770438
vt 0.237093 0.21701764
vt 0.22552012 0.21701798
vt 0.1587209 0.21701764
vt 0.1587209 0.22539705
vt 0.22552012 0.22539705
vt 0.5752183 0.78597015
vt 0.5011484 0.78597015
vt 0.5011484 0.79166263
vt 0.5752183 0.79166263
vt 0.6812937 0.78597015
vt 0.5752183 0.79735506
vt 0.5011484 0.79735506
vt 0.6812937 0.79735506
vt 0.6812937 0.79166263
vt 0.8355829 0.78597015
vt 0.8355829 0.79735506
vt 0.8355829 0.79166263
vt 0.9298871 0.78597015
vt 0.9298871 0.79735506
vt 0.9298871 0.79166263
vt 0.9984032 0.78597003
vt 0.9984032 0.79735476
vt 0.9984032 0.7916625
vt 0.4941244 0.7296788
vt 0.47602645 0.7327017
vt 0.49361345 0.7826546
vt 0.5074716 0.7692862
vt 0.48588014 0.10771031
vt 0.38993347 0.20867054
vt 0.48556828 0.18602613
vt 0.3903271 0.10771066
vt 0.23453033 0.21382406
vt 0.23492396 0.10771066
vt 0.12891462 0.19188145
vt 0.12922741 0.10771066
vt 0.051648963 0.15418535
vt 0.051825915 0.10771054
vt 0.55204594 0.10771031
vt 0.48588014 0.10771031
vt 0.48556828 0.18602613
vt 0.5672074 0.13768387
vt 0.47930026 0.39535418
vt 0.46100202 0.39448792
vt 0.45583183 0.5499294
vt 0.47421676 0.5496619
vt 0.47421676 0.5496619
vt 0.45583183 0.5499294
vt 0.46249503 0.65551186
vt 0.48081532 0.65396506
vt 0.48081532 0.65396506
vt 0.46249503 0.65551186
vt 0.47602645 0.7327017
vt 0.4941244 0.7296788
vt 0.4902255 0.30099496
vt 0.47197217 0.29878426
vt 0.46100202 0.39448792
vt 0.47930026 0.39535418
vt 0.11231906 0.23480329
vt 0.13628206 0.23897296
vt 0.14001524 0.21701764
vt 0.12102211 0.21916784
vt 0.50992274 0.2248007
vt 0.49294028 0.21701764
vt 0.47197217 0.29878426
vt 0.4902255 0.30099496
vt 0.11231906 0.23897296
vt 0.13628206 0.23897296
vt 0.11231906 0.23480329
vt 0.11231895 0.24314263
vt 0.4613834 0.7858481
vt 0.45583183 0.7916625
vt 0.5011484 0.79166263
vt 0.5011484 0.78597015
vt 0.10912537 0.21701764
vt 0.056957867 0.27766794
vt 0.05803505 0.29361987
vt 0.10912537 0.28440687
vt 0.55140895 0.26999253
vt 0.5647564 0.23038507
vt 0.5508981 0.21701764
vt 0.5333109 0.2669691
vt 0.48588014 0.10771031
vt 0.48556828 0.029394493
vt 0.38993347 0.0067503126
vt 0.3903271 0.10771066
vt 0.23453033 0.0015967889
vt 0.23492396 0.10771066
vt 0.12891462 0.023539402
vt 0.12922741 0.10771066
vt 0.051648963 0.061235618
vt 0.051825915 0.10771054
vt 0.55204594 0.10771031
vt 0.5672074 0.07773699
vt 0.48556828 0.029394493
vt 0.48588014 0.10771031
vt 0.53658503 0.60431665
vt 0.5315016 0.45000893
vt 0.5131163 0.44974142
vt 0.5182865 0.60518336
vt 0.5315016 0.45000893
vt 0.53809994 0.3457072
vt 0.51977944 0.34415993
vt 0.5131163 0.44974142
vt 0.53809994 0.3457072
vt 0.55140895 0.26999253
vt 0.5333109 0.2669691
vt 0.51977944 0.34415993
vt 0.5475104 0.69867676
vt 0.53658503 0.60431665
vt 0.5182865 0.60518336
vt 0.52925646 0.7008875
vt 0.11231895 0.24314263
vt 0.12102188 0.2587781
vt 0.14001524 0.2609283
vt 0.13628206 0.23897296
vt 0.5672074 0.7748706
vt 0.5475104 0.69867676
vt 0.52925646 0.7008875
vt 0.5502249 0.7826546
vt 0.4613834 0.7974772
vt 0.5011484 0.79735506
vt 0.5011484 0.79166263
vt 0.45583183 0.7916625
vt 0.1587209 0.21701764
vt 0.14320882 0.21701775
vt 0.14320882 0.22539705
vt 0.1587209 0.22539705
vt 0.6958324 0.7544945
vt 0.69600147 0.69951123
vt 0.6514565 0.69968176
vt 0.82462734 0.0015967889
vt 0.78025055 0.056409545
vt 0.824796 0.05658003
vt 0.6960019 0.23708941
vt 0.6960019 0.106695496
vt 0.6083442 0.10686552
vt 0.57743555 0.2372622
vt 0.69600147 0.45042482
vt 0.5704009 0.4505962
vt 0.6960019 0.597095
vt 0.6003717 0.5948778
vt 0.6960019 0.106695496
vt 0.69600147 0.011958354
vt 0.66648716 0.0015967889
vt 0.6083442 0.10686552
vt 0.6003717 0.5948778
vt 0.6514565 0.69968176
vt 0.69600147 0.69951123
vt 0.6960019 0.597095
vt 0.824796 0.51900184
vt 0.73713875 0.6492258
vt 0.824796 0.64939576
vt 0.70623004 0.51882905
vt 0.824796 0.30566645
vt 0.69919544 0.30549505
vt 0.824796 0.15899628
vt 0.72916627 0.16121349
vt 0.824796 0.64939576
vt 0.73713875 0.6492258
vt 0.7952817 0.7544945
vt 0.824796 0.74413294
vt 0.72916627 0.16121349
vt 0.824796 0.15899628
vt 0.824796 0.05658003
vt 0.78025055 0.056409545
vn -0.7490232 0.56221104 0.35054666
vn -0.7490232 0.56221104 0.35054666
vn -0.7490232 0.56221104 0.35054666
vn -0.19755164 0.13431709 -0.971047
vn -0.19755164 0.13431709 -0.971047
vn -0.19755164 0.13431709 -0.971047
vn 0.749029 0.5622057 0.35054308
vn 0.749029 0.5622057 0.35054308
vn 0.749029 0.5622057 0.35054308
vn 0.19755127 0.13431707 -0.9710471
vn 0.19755127 0.13431707 -0.9710471
vn 0.19755127 0.13431707 -0.9710471
vn -1 0 1.6242512E-07
vn -1 0 1.6242512E-07
vn -1 0 1.6242512E-07
vn -1 0 1.6242512E-07
vn -0 -0.9306833 0.36582598
vn -0 -0.9306833 0.36582598
vn -0 -0.9306833 0.36582598
vn -0 -0.9306833 0.36582598
vn -0 0.4144998 -0.91004944
vn -0 0.4144998 -0.91004944
vn -0 0.4144998 -0.91004944
vn -0 0.4144998 -0.91004944
vn 1.8408927E-07 -2.7930466E-07 1
vn 1.8408913E-07 -2.8799488E-07 1
vn 1.8408913E-07 -2.8799488E-07 1
vn 1.8408927E-07 -2.7930466E-07 1
vn -0 -2.0738749E-07 1
vn 1.8408743E-07 -2.7930474E-07 1
vn -0 -2.8799494E-07 1
vn 1.840885E-07 -2.0738759E-07 1
vn -0 -2.0738749E-07 1
vn -0 -2.0738749E-07 1
vn 1.840885E-07 -2.0738759E-07 1
vn -0 -2.0738749E-07 1
vn 1.8408863E-07 -2.5944945E-07 1
vn 1.8408869E-07 -2.594495E-07 1
vn 1.8408863E-07 -2.5944945E-07 1
vn 1.8408863E-07 -2.5944945E-07 1
vn 1.8408869E-07 -2.594495E-07 1
vn 1.8408863E-07 -2.5944945E-07 1
vn -0.7728126 0.49093845 0.40216932
vn -0.7728126 0.49093845 0.40216932
vn -0.7728126 0.49093845 0.40216932
vn -0.7728126 0.49093845 0.40216932
vn -0.2059055 -0.033966247 -0.97798216
vn -0.2059055 -0.033966247 -0.97798216
vn -0.2059055 -0.033966247 -0.97798216
vn -0.2059055 -0.033966247 -0.97798216
vn -0.194485 0.029423937 -0.98046416
vn -0.194485 0.029423937 -0.98046416
vn -0.19598402 0.068683736 -0.97819877
vn -0.19598402 0.068683736 -0.97819877
vn -0.19598402 0.068683736 -0.97819877
vn -0.19598402 0.068683736 -0.97819877
vn -0.13055675 -0.11262373 -0.98502326
vn -0.13055675 -0.11262373 -0.98502326
vn -0.13055675 -0.11262373 -0.98502326
vn -0.13055675 -0.11262373 -0.98502326
vn -0.8562193 -0.020784825 0.5161944
vn -0.8562193 -0.020784825 0.5161944
vn -0.8562193 -0.020784825 0.5161944
vn -0.8562193 -0.020784825 0.5161944
vn -0.8468228 0.12879364 0.5160459
vn -0.8468228 0.12879364 0.5160459
vn -0.8468228 0.12879364 0.5160459
vn -0.8468228 0.12879364 0.5160459
vn -0.80747163 0.2882227 0.5147011
vn -0.80747163 0.2882227 0.5147011
vn -0.80747163 0.2882227 0.5147011
vn -0.80747163 0.2882227 0.5147011
vn -0.8443747 -0.14627561 0.5153977
vn -0.8443747 -0.14627561 0.5153977
vn -0.8443747 -0.14627561 0.5153977
vn -0.8443747 -0.14627561 0.5153977
vn 0.47876665 -0.8443701 0.24046078
vn 0.47876665 -0.8443701 0.24046078
vn 0.47876665 -0.8443701 0.24046078
vn 0.47876665 -0.8443701 0.24046078
vn -0.8298824 -0.3452168 0.4383155
vn -0.8298824 -0.3452168 0.4383155
vn -0.8298824 -0.3452168 0.4383155
vn -0.8298824 -0.3452168 0.4383155
vn -0 -1 -3.441106E-07
vn -0 -1 -3.441106E-07
vn -0 -1 -3.441106E-07
vn -0 -1 -3.4411056E-07
vn -0.09929665 0.11703416 0.98815143
vn -0.09929665 0.11703416 0.98815143
vn -0.09929665 0.11703416 0.98815143
vn -0.09929665 0.11703416 0.98815143
vn 1 0 -1.7952252E-07
vn 1 0 -1.7952252E-07
vn 1 0 -1.7952252E-07
vn 1 0 -1.7952252E-07
vn 0.77281165 0.4909394 0.40216988
vn 0.77281165 0.4909394 0.40216988
vn 0.77281165 0.4909394 0.40216988
vn 0.77281165 0.4909394 0.40216988
vn 0.20590511 -0.033966266 -0.9779823
vn 0.20590511 -0.033966266 -0.9779823
vn 0.20590511 -0.033966266 -0.9779823
vn 0.20590511 -0.033966266 -0.9779823
vn 0.19448464 0.029423948 -0.98046416
vn 0.19448464 0.029423948 -0.98046416
vn 0.19598351 0.068683736 -0.9781989
vn 0.19598351 0.068683736 -0.9781989
vn 0.19598351 0.068683736 -0.9781989
vn 0.19598351 0.068683736 -0.9781989
vn 0.13055637 -0.11262375 -0.98502326
vn 0.13055637 -0.11262375 -0.98502326
vn 0.13055637 -0.11262375 -0.98502326
vn 0.13055637 -0.11262375 -0.98502326
vn 0.8562193 -0.020784829 0.5161942
vn 0.8562193 -0.020784829 0.5161942
vn 0.8562193 -0.020784829 0.5161942
vn 0.8562193 -0.020784829 0.5161942
vn 0.84682286 0.12879355 0.51604575
vn 0.84682286 0.12879355 0.51604575
vn 0.84682286 0.12879355 0.51604575
vn 0.84682286 0.12879355 0.51604575
vn 0.8074717 0.28822258 0.51470107
vn 0.8074717 0.28822258 0.51470107
vn 0.8074717 0.28822258 0.51470107
vn 0.8074717 0.28822258 0.51470107
vn 0.84437484 -0.1462756 0.51539767
vn 0.84437484 -0.1462756 0.51539767
vn 0.84437484 -0.1462756 0.51539767
vn 0.84437484 -0.1462756 0.51539767
vn -0.47876662 -0.84437025 0.24046086
vn -0.47876662 -0.84437025 0.24046086
vn -0.47876662 -0.84437025 0.24046086
vn -0.47876662 -0.84437025 0.24046086
vn 0.82988256 -0.34521678 0.4383154
vn 0.82988256 -0.34521678 0.4383154
vn 0.82988256 -0.34521678 0.4383154
vn 0.82988256 -0.34521678 0.4383154
vn 0.099298194 0.11703415 0.9881513
vn 0.099298194 0.11703415 0.9881513
vn 0.099298194 0.11703415 0.9881513
vn 0.099298194 0.11703415 0.9881513
vn -0 -0.23342067 -0.97237587
vn -0 -0.23342067 -0.97237587
vn -0 -0.23342067 -0.97237587
vn -0 -0.23342067 -0.97237587
vn -0.25098464 0.123500966 0.9600803
vn -0.25098464 0.123500966 0.9600803
vn -0.25098464 0.123500966 0.9600803
vn 0.25098464 0.12350098 0.9600803
vn 0.25098464 0.12350098 0.9600803
vn 0.25098464 0.12350098 0.9600803
vn -0.112982966 -0.009393672 0.99355257
vn -0.112982966 -0.009393672 0.99355257
vn -0.112982966 -0.009393672 0.99355257
vn -0.112982966 -0.009393672 0.99355257
vn -0.10556685 0.007901615 0.9943808
vn -0.10556685 0.007901615 0.9943808
vn -0.10556685 0.007901615 0.9943808
vn -0.10556685 0.007901615 0.9943808
vn -0.17488077 -0.029862186 0.9841367
vn -0.17488077 -0.029862186 0.9841367
vn -0.17488077 -0.029862186 0.9841367
vn -0.17488077 -0.029862186 0.9841367
vn -0.16499923 0.029534232 0.98585135
vn -0.16499923 0.029534232 0.98585135
vn -0.16499923 0.029534232 0.98585135
vn -0.16499923 0.029534232 0.98585135
vn 0.11298329 -0.009393674 0.99355245
vn 0.11298329 -0.009393674 0.99355245
vn 0.11298329 -0.009393674 0.99355245
vn 0.11298329 -0.009393674 0.99355245
vn 0.10556717 0.007901613 0.9943808
vn 0.10556717 0.007901613 0.9943808
vn 0.10556717 0.007901613 0.9943808
vn 0.10556717 0.007901613 0.9943808
vn 0.17488109 -0.029862182 0.9841366
vn 0.17488109 -0.029862182 0.9841366
vn 0.17488109 -0.029862182 0.9841366
vn 0.17488109 -0.029862182 0.9841366
vn 0.1649996 0.029534232 0.98585135
vn 0.1649996 0.029534232 0.98585135
vn 0.1649996 0.029534232 0.98585135
vn 0.1649996 0.029534232 0.98585135
g surf_0
f 3/3/3 2/2/2 1/1/1
f 6/6/6 5/5/5 4/4/4
f 9/9/9 8/8/8 7/7/7
f 12/12/12 11/11/11 10/10/10
f 15/15/15 14/14/14 13/13/13
f 16/16/16 15/15/15 13/13/13
f 19/19/19 18/18/18 17/17/17
f 20/20/20 19/19/19 17/17/17
f 23/23/23 22/22/22 21/21/21
f 24/24/24 23/23/23 21/21/21
f 27/27/27 26/26/26 25/25/25
f 28/28/28 27/27/27 25/25/25
f 28/28/28 25/25/25 29/29/29
f 27/27/27 28/28/28 30/30/30
f 31/31/31 27/27/27 30/30/30
f 30/30/30 28/28/28 32/32/32
f 33/33/33 28/28/28 29/29/29
f 28/28/28 33/33/33 32/32/32
f 33/33/33 29/29/29 34/34/34
f 32/32/32 33/33/33 35/35/35
f 36/36/36 33/33/33 34/34/34
f 33/33/33 36/36/36 35/35/35
f 34/34/34 37/37/37 36/36/36
f 38/38/38 35/35/35 36/36/36
f 37/37/37 39/39/39 36/36/36
f 39/39/39 38/38/38 36/36/36
f 37/37/37 40/40/40 39/39/39
f 41/41/41 38/38/38 39/39/39
f 40/40/40 42/42/42 39/39/39
f 42/42/42 41/41/41 39/39/39
f 45/45/45 44/44/44 43/43/43
f 46/46/46 45/45/45 43/43/43
f 49/49/49 48/48/48 47/47/47
f 48/48/48 50/50/50 47/47/47
f 50/50/50 48/48/48 51/51/51
f 52/52/52 50/50/50 51/51/51
f 52/52/52 51/51/51 53/53/53
f 54/54/54 52/52/52 53/53/53
f 54/54/54 53/53/53 55/55/55
f 56/56/56 54/54/54 55/55/55
f 59/59/59 58/58/58 57/57/57
f 60/60/60 59/59/59 57/57/57
f 63/63/63 62/62/62 61/61/61
f 64/64/64 63/63/63 61/61/61
f 67/67/67 66/66/66 65/65/65
f 68/68/68 67/67/67 65/65/65
f 71/71/71 70/70/70 69/69/69
f 72/72/72 71/71/71 69/69/69
f 75/75/75 74/74/74 73/73/73
f 76/76/76 75/75/75 73/73/73
f 79/79/79 78/78/78 77/77/77
f 80/80/80 79/79/79 77/77/77
f 83/83/83 82/82/82 81/81/81
f 84/84/84 83/83/83 81/81/81
f 87/87/87 86/86/86 85/85/85
f 86/86/86 88/88/88 85/85/85
f 91/91/91 90/90/90 89/89/89
f 92/92/92 91/91/91 89/89/89
f 95/95/95 94/94/94 93/93/93
f 96/96/96 95/95/95 93/93/93
f 99/99/99 98/98/98 97/97/97
f 100/100/100 99/99/99 97/97/97
f 103/103/103 102/102/102 101/101/101
f 104/104/104 103/103/103 101/101/101
f 103/103/103 104/104/104 105/105/105
f 104/104/104 106/106/106 105/105/105
f 105/105/105 106/106/106 107/107/107
f 106/106/106 108/108/108 107/107/107
f 107/107/107 108/108/108 109/109/109
f 108/108/108 110/110/110 109/109/109
f 113/113/113 112/112/112 111/111/111
f 114/114/114 113/113/113 111/111/111
f 117/117/117 116/116/116 115/115/115
f 118/118/118 117/117/117 115/115/115
f 121/121/121 120/120/120 119/119/119
f 122/122/122 121/121/121 119/119/119
f 125/125/125 124/124/124 123/123/123
f 126/126/126 125/125/125 123/123/123
f 129/129/129 128/128/128 127/127/127
f 130/130/130 129/129/129 127/127/127
f 133/133/133 132/132/132 131/131/131
f 134/134/134 133/133/133 131/131/131
f 137/137/137 136/136/136 135/135/135
f 138/138/138 137/137/137 135/135/135
f 141/141/141 140/140/140 139/139/139
f 142/142/142 141/141/141 139/139/139
f 145/145/145 144/144/144 143/143/143
f 146/146/146 145/145/145 143/143/143
g surf_1
f 149/149/149 148/148/148 147/147/147
f 152/152/152 151/151/151 150/150/150
f 155/155/155 154/154/154 153/153/153
f 156/156/156 155/155/155 153/153/153
f 153/153/153 157/157/157 156/156/156
f 157/157/157 158/158/158 156/156/156
f 157/157/157 159/159/159 158/158/158
f 159/159/159 160/160/160 158/158/158
f 163/163/163 162/162/162 161/161/161
f 164/164/164 163/163/163 161/161/161
f 167/167/167 166/166/166 165/165/165
f 168/168/168 167/167/167 165/165/165
f 171/171/171 170/170/170 169/169/169
f 170/170/170 172/172/172 169/169/169
f 173/173/173 169/169/169 172/172/172
f 174/174/174 173/173/173 172/172/172
f 175/175/175 173/173/173 174/174/174
f 176/176/176 175/175/175 174/174/174
f 179/179/179 178/178/178 177/177/177
f 180/180/180 179/179/179 177/177/177
f 183/183/183 182/182/182 181/181/181
f 184/184/184 183/183/183 181/181/181
