g terrain-world-hill4
v -3.010293 3.8275201 14.999942
v -9.010291 5.4386997 14.999942
v -8.999973 4.771018 8.999945
v -14.999976 0.5542187 -9.000061
v -14.999976 2.2053777E-05 -15.000053
v -8.999979 0.22691545 -15.000053
v 3.0000222 0.8654449 8.999942
v -2.9999776 2.924976 8.999942
v -2.9999788 1.7683483 2.9999425
v 2.9897017 1.6652989 14.99994
v -3.010293 3.8275201 14.999942
v -2.9999776 2.924976 8.999942
v 3.0000222 0.8654449 8.999942
v -3.010293 3.8275201 14.999942
v -8.999973 4.771018 8.999945
v -2.9999776 2.924976 8.999942
v -8.999973 4.771018 8.999945
v -8.999975 3.007343 2.9999437
v -2.9999793 0.3191849 -3.0000548
v -8.999975 1.0276742 -3.0000534
v -8.999978 0.40990874 -9.000063
v 8.989714 0.5542124 14.999939
v 2.9897017 1.6652989 14.99994
v 3.0000222 0.8654449 8.999942
v 9.000021 0.37098175 -9.000065
v 9.000022 -0.059732884 -3.0000567
v 3.0000207 0.29926503 -3.0000558
v -2.9999788 1.7683483 2.9999425
v -8.999975 3.007343 2.9999437
v -8.999975 1.0276742 -3.0000534
v -8.999975 1.0276742 -3.0000534
v -14.999975 1.6653031 -3.0000527
v -14.999976 0.5542187 -9.000061
v -8.999978 0.40990874 -9.000063
v -8.999979 0.22691545 -15.000053
v -2.9999819 0.4500953 -15.000057
v 3.0000196 0.10191972 -9.000064
v 3.000018 0.14943038 -15.000057
v 9.000019 0.07543288 -15.000061
v -2.9999804 0.42210388 -9.000064
v -2.9999819 0.4500953 -15.000057
v 3.0000196 0.10191972 -9.000064
v 3.0000207 0.29926503 -3.0000558
v 9.000022 0.28216526 2.9999404
v 9.000022 -0.059732884 -3.0000567
v 3.0000212 0.5426292 2.9999416
v -2.9999793 0.3191849 -3.0000548
v 3.0000212 0.5426292 2.9999416
v -2.9999788 1.7683483 2.9999425
v -2.9999793 0.3191849 -3.0000548
v -2.9999776 2.924976 8.999942
v -8.999975 3.007343 2.9999437
v -14.999976 0.5542187 -9.000061
v -8.999979 0.22691545 -15.000053
v -8.999978 0.40990874 -9.000063
v 3.0000222 0.8654449 8.999942
v -2.9999788 1.7683483 2.9999425
v 3.0000212 0.5426292 2.9999416
v 15.000019 0.13314906 8.999939
v 9.000022 0.28216526 2.9999404
v 15.000014 0.4041664 2.999939
v 15.000019 1.5139557E-05 14.999935
v 9.000023 0.22534122 8.999941
v 15.000019 0.13314906 8.999939
v 9.000022 0.28216526 2.9999404
v 3.0000212 0.5426292 2.9999416
v -2.9999788 1.7683483 2.9999425
v -8.999975 1.0276742 -3.0000534
v -2.9999793 0.3191849 -3.0000548
v -8.999975 1.0276742 -3.0000534
v -14.999976 0.5542187 -9.000061
v -8.999978 0.40990874 -9.000063
v 3.0000207 0.29926503 -3.0000558
v -2.9999793 0.3191849 -3.0000548
v -2.9999804 0.42210388 -9.000064
v -8.999978 0.40990874 -9.000063
v -2.9999819 0.4500953 -15.000057
v 15.000014 0.03878107 -3.0000582
v 9.000022 -0.059732884 -3.0000567
v 9.000021 0.37098175 -9.000065
v 15.00001 0.35069996 -9.000067
v 15.00001 0.35069996 -9.000067
v 9.000021 0.37098175 -9.000065
v 9.000019 0.07543288 -15.000061
v 15.000019 2.4914792E-05 -15.000048
v -8.999975 3.007343 2.9999437
v -14.999975 3.827524 2.999945
v -14.999975 1.6653031 -3.0000527
v -8.999975 1.0276742 -3.0000534
v -9.010291 5.4386997 14.999942
v -14.999967 6.000014 14.999956
v -14.999974 5.438698 8.999946
v -8.999973 4.771018 8.999945
v 15.000014 0.03878107 -3.0000582
v 15.000014 0.4041664 2.999939
v 9.000022 0.28216526 2.9999404
v 9.000022 -0.059732884 -3.0000567
v 15.000019 1.5139557E-05 14.999935
v 8.989714 0.5542124 14.999939
v 9.000023 0.22534122 8.999941
v 3.0000222 0.8654449 8.999942
v 3.0000212 0.5426292 2.9999416
v -8.999973 4.771018 8.999945
v -14.999974 5.438698 8.999946
v -14.999975 3.827524 2.999945
v -8.999975 3.007343 2.9999437
v 9.000021 0.37098175 -9.000065
v 3.0000207 0.29926503 -3.0000558
v 3.0000196 0.10191972 -9.000064
v 9.000019 0.07543288 -15.000061
v 15.000019 1.5139557E-05 14.999935
v 15.000019 -1.9999843 14.999935
v 8.989714 -1.4457868 14.999936
v 8.989714 0.5542124 14.999939
v -14.999976 0.5542187 -9.000061
v -14.999976 -1.999978 -15.000054
v -14.999976 2.2053777E-05 -15.000053
v -14.999976 -1.4457792 -9.000062
v -14.999975 1.6653031 -3.0000527
v -14.999975 -0.33469602 -3.0000534
v -14.999975 3.827524 2.999945
v -14.999975 1.8275236 2.9999447
v -14.999974 5.438698 8.999946
v -14.999974 3.4387002 8.999945
v -14.999967 6.000014 14.999956
v -14.999967 4.000015 14.999956
v 15.000019 0.13314906 8.999939
v 15.000019 -1.9999843 14.999935
v 15.000019 1.5139557E-05 14.999935
v 15.000019 -1.8668504 8.999939
v 15.000014 0.4041664 2.999939
v 15.000014 -1.5958328 2.9999392
v 15.000014 0.03878107 -3.0000582
v 15.000014 -1.9612193 -3.0000584
v 15.00001 0.35069996 -9.000067
v 15.00001 -1.6492982 -9.000067
v 15.000019 2.4914792E-05 -15.000048
v 15.000019 -1.9999752 -15.000048
v -9.010291 5.4386997 14.999942
v -9.010291 3.4386969 14.999942
v -14.999967 4.000015 14.999956
v -14.999967 6.000014 14.999956
v 9.000019 0.07543288 -15.000061
v 15.000019 -1.9999752 -15.000048
v 15.000019 2.4914792E-05 -15.000048
v 9.000019 -1.9245672 -15.000059
v 3.000018 0.14943038 -15.000057
v 3.000018 -1.8505725 -15.000059
v -2.9999819 0.4500953 -15.000057
v -2.9999819 -1.5499077 -15.000057
v -14.999976 2.2053777E-05 -15.000053
v -14.999976 -1.999978 -15.000054
v -8.999979 -1.7730846 -15.000054
v -8.999979 0.22691545 -15.000053
v -2.9999819 -1.5499077 -15.000057
v -2.9999819 0.4500953 -15.000057
v -3.010293 3.8275201 14.999942
v -3.010293 1.8275204 14.99994
v -9.010291 3.4386969 14.999942
v -9.010291 5.4386997 14.999942
v 2.9897017 1.6652989 14.99994
v 2.9897017 -0.33470058 14.999936
v -3.010293 1.8275204 14.99994
v -3.010293 3.8275201 14.999942
v 8.989714 0.5542124 14.999939
v 8.989714 -1.4457868 14.999936
v 2.9897017 -0.33470058 14.999936
v 2.9897017 1.6652989 14.99994
v -14.999976 -1.4457792 -9.000062
v -14.999976 -5.9999766 -15.000057
v -14.999976 -1.999978 -15.000054
v -14.999976 -5.44578 -9.000061
v -14.999975 -0.33469602 -3.0000534
v -14.999975 -4.3346977 -3.0000534
v -14.999975 1.8275236 2.9999447
v -14.999975 -2.1724777 2.9999437
v -14.999974 3.4387002 8.999945
v -14.999974 -0.5613022 8.999945
v -14.999967 4.000015 14.999956
v -14.999967 1.5258789E-05 14.999952
v 15.000019 -1.9999752 -15.000048
v 15.000019 -5.9999747 -15.000046
v 15.00001 -5.6493015 -9.000067
v 15.00001 -1.6492982 -9.000067
v 15.000014 -5.9612193 -3.0000584
v 15.000014 -1.9612193 -3.0000584
v 15.000014 -5.5958323 2.999939
v 15.000014 -1.5958328 2.9999392
v 15.000019 -5.86685 8.999939
v 15.000019 -1.8668504 8.999939
v 15.000019 -5.9999847 14.999936
v 15.000019 -1.9999843 14.999935
v -9.010291 3.4386969 14.999942
v -14.999967 1.5258789E-05 14.999952
v -14.999967 4.000015 14.999956
v -9.010291 -0.5613041 14.999939
v -3.010293 1.8275204 14.99994
v -3.010293 -2.1724815 14.999939
v 2.9897017 -0.33470058 14.999936
v 2.9897017 -4.3347015 14.99994
v 8.989714 -1.4457868 14.999936
v 8.989714 -5.4457874 14.999936
v 15.000019 -1.9999843 14.999935
v 15.000019 -5.9999847 14.999936
v 9.000019 -1.9245672 -15.000059
v 15.000019 -5.9999747 -15.000046
v 15.000019 -1.9999752 -15.000048
v 9.000019 -5.92457 -15.000059
v 3.000018 -1.8505725 -15.000059
v 3.000018 -5.8505726 -15.000058
v -2.9999819 -1.5499077 -15.000057
v -2.9999819 -5.5499077 -15.000058
v -14.999976 -1.999978 -15.000054
v -14.999976 -5.9999766 -15.000057
v -8.999979 -5.7730846 -15.000058
v -8.999979 -1.7730846 -15.000054
v -2.9999819 -5.5499077 -15.000058
v -2.9999819 -1.5499077 -15.000057
vt 0.44721588 0.48647878
vt 0.46691483 0.4865257
vt 0.46687236 0.46697405
vt 0.48649392 0.4072215
vt 0.4863346 0.38740006
vt 0.46657792 0.38751334
vt 0.42701286 0.4666437
vt 0.4470362 0.4667833
vt 0.44693893 0.44698077
vt 0.427122 0.48654833
vt 0.44721588 0.48647878
vt 0.4470362 0.4667833
vt 0.42701286 0.4666437
vt 0.44721588 0.48647878
vt 0.46687236 0.46697405
vt 0.4470362 0.4667833
vt 0.46687236 0.46697405
vt 0.46675858 0.4471524
vt 0.44686124 0.4270769
vt 0.46668807 0.42713276
vt 0.46665284 0.407291
vt 0.40712532 0.48638424
vt 0.427122 0.48654833
vt 0.42701286 0.4666437
vt 0.40736207 0.40726545
vt 0.4073044 0.42702574
vt 0.4270855 0.42705584
vt 0.44693893 0.44698077
vt 0.46675858 0.4471524
vt 0.46668807 0.42713276
vt 0.46668807 0.42713276
vt 0.4865981 0.42723742
vt 0.48649392 0.4072215
vt 0.46665284 0.407291
vt 0.46657792 0.38751334
vt 0.4468712 0.38760167
vt 0.42711315 0.40728173
vt 0.42713597 0.38750556
vt 0.407358 0.38751754
vt 0.44687605 0.40731266
vt 0.4468712 0.38760167
vt 0.42711315 0.40728173
vt 0.4270855 0.42705584
vt 0.40728876 0.44679138
vt 0.4073044 0.42702574
vt 0.42706618 0.4468466
vt 0.44686124 0.4270769
vt 0.42706618 0.4468466
vt 0.44693893 0.44698077
vt 0.44686124 0.4270769
vt 0.4470362 0.4667833
vt 0.46675858 0.4471524
vt 0.48649392 0.4072215
vt 0.46657792 0.38751334
vt 0.46665284 0.407291
vt 0.42701286 0.4666437
vt 0.44693893 0.44698077
vt 0.42706618 0.4468466
vt 0.3874283 0.46642435
vt 0.40728876 0.44679138
vt 0.3875926 0.4467346
vt 0.3872913 0.48616815
vt 0.407193 0.46655706
vt 0.3874283 0.46642435
vt 0.40728876 0.44679138
vt 0.42706618 0.4468466
vt 0.44693893 0.44698077
vt 0.46668807 0.42713276
vt 0.44686124 0.4270769
vt 0.46668807 0.42713276
vt 0.48649392 0.4072215
vt 0.46665284 0.407291
vt 0.4270855 0.42705584
vt 0.44686124 0.4270769
vt 0.44687605 0.40731266
vt 0.46665284 0.407291
vt 0.4468712 0.38760167
vt 0.38750333 0.42698267
vt 0.4073044 0.42702574
vt 0.40736207 0.40726545
vt 0.38767713 0.4072322
vt 0.38767713 0.4072322
vt 0.40736207 0.40726545
vt 0.407358 0.38751754
vt 0.38761196 0.38753578
vt 0.46675858 0.4471524
vt 0.4864561 0.44734752
vt 0.4865981 0.42723742
vt 0.46668807 0.42713276
vt 0.46691483 0.4865257
vt 0.4865161 0.48670152
vt 0.48642844 0.46705937
vt 0.46687236 0.46697405
vt 0.38750333 0.42698267
vt 0.3875926 0.4467346
vt 0.40728876 0.44679138
vt 0.4073044 0.42702574
vt 0.3872913 0.48616815
vt 0.40712532 0.48638424
vt 0.407193 0.46655706
vt 0.42701286 0.4666437
vt 0.42706618 0.4468466
vt 0.46687236 0.46697405
vt 0.48642844 0.46705937
vt 0.4864561 0.44734752
vt 0.46675858 0.4471524
vt 0.40736207 0.40726545
vt 0.4270855 0.42705584
vt 0.42711315 0.40728173
vt 0.407358 0.38751754
vt 0.3872913 0.48616815
vt 0.38686237 0.49351093
vt 0.40652952 0.49375248
vt 0.40712532 0.48638424
vt 0.48649392 0.4072215
vt 0.49368656 0.38699114
vt 0.4863346 0.38740006
vt 0.49387163 0.40664664
vt 0.4865981 0.42723742
vt 0.4939747 0.42625633
vt 0.4864561 0.44734752
vt 0.4937454 0.44624326
vt 0.48642844 0.46705937
vt 0.49375677 0.4663546
vt 0.4865161 0.48670152
vt 0.4939747 0.48629072
vt 0.3874283 0.46642435
vt 0.37989536 0.48620605
vt 0.3872913 0.48616815
vt 0.38001308 0.46648243
vt 0.3875926 0.4467346
vt 0.3802305 0.44670004
vt 0.38750333 0.42698267
vt 0.38005117 0.42695028
vt 0.38767713 0.4072322
vt 0.38030955 0.40719217
vt 0.38761196 0.38753578
vt 0.38018227 0.38736638
vt 0.46691483 0.4865257
vt 0.46618026 0.49384573
vt 0.486063 0.49414942
vt 0.4865161 0.48670152
vt 0.407358 0.38751754
vt 0.38755834 0.38013276
vt 0.38761196 0.38753578
vt 0.40730053 0.38011363
vt 0.42713597 0.38750556
vt 0.4270408 0.38007352
vt 0.4468712 0.38760167
vt 0.4468516 0.3802161
vt 0.4863346 0.38740006
vt 0.48643547 0.37999025
vt 0.46667084 0.38009474
vt 0.46657792 0.38751334
vt 0.4468516 0.3802161
vt 0.4468712 0.38760167
vt 0.44721588 0.48647878
vt 0.44608548 0.49375775
vt 0.46618026 0.49384573
vt 0.46691483 0.4865257
vt 0.427122 0.48654833
vt 0.4261174 0.49391475
vt 0.44608548 0.49375775
vt 0.44721588 0.48647878
vt 0.40712532 0.48638424
vt 0.40652952 0.49375248
vt 0.4261174 0.49391475
vt 0.427122 0.48654833
vt 0.038687177 0.8248279
vt 0.027001992 0.8408018
vt 0.039658025 0.8393677
vt 0.026031144 0.826262
vt 0.038387507 0.81021214
vt 0.025731511 0.8116463
vt 0.039354846 0.7954529
vt 0.026698798 0.7968868
vt 0.039658025 0.78076875
vt 0.027001955 0.78220284
vt 0.03869569 0.766228
vt 0.026039682 0.767662
vt 0.04017364 0.83901095
vt 0.052910626 0.83901095
vt 0.052485216 0.8244544
vt 0.039748214 0.8244544
vt 0.05286362 0.80989784
vt 0.040126577 0.80989784
vt 0.052420333 0.79534125
vt 0.039683346 0.7953412
vt 0.05274916 0.78078467
vt 0.040012076 0.7807846
vt 0.052910626 0.766228
vt 0.0401736 0.7662281
vt 0.025706194 0.8262852
vt 0.012091331 0.8393676
vt 0.024747439 0.84080106
vt 0.013050161 0.8248518
vt 0.025402375 0.81160116
vt 0.012746207 0.81016773
vt 0.024434336 0.79684186
vt 0.011778183 0.7954084
vt 0.024733223 0.782226
vt 0.01207713 0.78079265
vt 0.025706194 0.76766145
vt 0.013050102 0.766228
vt 0.05423993 0.8536556
vt 0.039683346 0.84082705
vt 0.039683346 0.8535641
vt 0.05423993 0.84091854
vt 0.068796515 0.85374534
vt 0.068796515 0.8410083
vt 0.08335318 0.85411006
vt 0.083353095 0.841373
vt 0.112466335 0.8535641
vt 0.112466335 0.84082705
vt 0.09790972 0.84110236
vt 0.09790972 0.8538393
vt 0.083353095 0.841373
vt 0.08335318 0.85411006
vn 0.25786975 0.96030104 -0.10641906
vn 0.25786975 0.96030104 -0.10641906
vn 0.25786975 0.96030104 -0.10641906
vn -0.037628636 0.99505615 -0.091909595
vn -0.037628636 0.99505615 -0.091909595
vn -0.037628636 0.99505615 -0.091909595
vn 0.31939575 0.93049026 -0.17937195
vn 0.33571061 0.9315703 -0.13955337
vn 0.31939575 0.93049026 -0.17937195
vn 0.33571061 0.9315703 -0.13955337
vn 0.33571061 0.9315703 -0.13955337
vn 0.2910973 0.9461235 -0.14181913
vn 0.32213306 0.9384653 -0.12455175
vn 0.2910973 0.9461235 -0.14181913
vn 0.2910973 0.9461235 -0.14181913
vn 0.28310862 0.92015857 -0.27047688
vn 0.28310862 0.92015857 -0.27047688
vn 0.28310862 0.92015857 -0.27047688
vn 0.11665864 0.98794925 -0.10172008
vn 0.11665864 0.98794925 -0.10172008
vn 0.11665864 0.98794925 -0.10172008
vn 0.18054791 0.9749819 -0.12966341
vn 0.18054791 0.9749819 -0.12966341
vn 0.18054791 0.9749819 -0.12966341
vn 0.059573423 0.9956618 0.07147424
vn 0.059573423 0.9956618 0.07147424
vn 0.059573423 0.9956618 0.07147424
vn 0.19243556 0.93189496 -0.30747402
vn 0.19243556 0.93189496 -0.30747402
vn 0.19243556 0.93189496 -0.30747402
vn 0.10392907 0.97795814 -0.18109879
vn 0.10392907 0.97795814 -0.18109879
vn 0.10392907 0.97795814 -0.18109879
vn -0.03715371 0.9988451 -0.030463712
vn -0.03715371 0.9988451 -0.030463712
vn -0.03715371 0.9988451 -0.030463712
vn 0.012331599 0.9998926 0.0079176035
vn 0.05004748 0.99873596 0.0046593323
vn 0.012331599 0.9998926 0.0079176035
vn 0.05004748 0.99873596 0.0046593323
vn 0.05004748 0.99873596 0.0046593323
vn 0.053259503 0.9980411 -0.032826424
vn 0.043334223 0.9982399 -0.04048932
vn 0.043334223 0.9982399 -0.04048932
vn 0.059629764 0.99660385 -0.056789514
vn 0.043334223 0.9982399 -0.04048932
vn 0.0033172332 0.99917287 -0.04052716
vn 0.19477347 0.9534329 -0.2302801
vn 0.19477347 0.9534329 -0.2302801
vn 0.19477347 0.9534329 -0.2302801
vn 0.19872208 0.9623383 -0.1855113
vn 0.19872208 0.9623383 -0.1855113
vn 0.024033533 0.9992465 -0.030475954
vn 0.024033533 0.9992465 -0.030475954
vn 0.024033533 0.9992465 -0.030475954
vn 0.19987525 0.9784063 -0.052640866
vn 0.19987525 0.9784063 -0.052640866
vn 0.19987525 0.9784063 -0.052640866
vn -0.020308638 0.9987754 0.04511425
vn -0.020308638 0.9987754 0.04511425
vn -0.020308638 0.9987754 0.04511425
vn 0.01535979 0.99963593 0.02218093
vn 0.015362867 0.99983716 0.009469126
vn 0.015362867 0.99983716 0.009469126
vn 0.015362867 0.99983716 0.009469126
vn 0.043367863 0.9990144 0.009461338
vn 0.11403234 0.9657088 -0.23324504
vn 0.11403234 0.9657088 -0.23324504
vn 0.11403234 0.9657088 -0.23324504
vn 0.023918327 0.99445665 -0.102389984
vn 0.023918327 0.99445665 -0.102389984
vn 0.023918327 0.99445665 -0.102389984
vn 0.0033194672 0.9998474 0.017150521
vn 0.0033194672 0.9998474 0.017150521
vn 0.0033194672 0.9998474 0.017150521
vn -0.002032218 0.99985087 0.017150583
vn -0.0020324949 0.9999871 0.0046651806
vn -0.016374663 0.9972996 0.07159183
vn -0.016374663 0.9972996 0.07159183
vn -0.016374663 0.9972996 0.07159183
vn 0.0033757472 0.9986457 0.051916
vn 0.0033761747 0.9987833 -0.049198244
vn 0.0033761747 0.9987833 -0.049198244
vn 0.0033761747 0.9987833 -0.049198244
vn 0.012545725 0.99821776 -0.05834183
vn 0.12755066 0.9330921 -0.33625868
vn 0.12755066 0.9330921 -0.33625868
vn 0.12755066 0.9330921 -0.33625868
vn 0.1004101 0.9448448 -0.3117469
vn 0.092902824 0.9913464 -0.09274306
vn 0.092902824 0.9913464 -0.09274306
vn 0.092902824 0.9913464 -0.09274306
vn 0.10992899 0.9878627 -0.109740466
vn -0.020291787 0.99794537 -0.060772456
vn -0.020291787 0.99794537 -0.060772456
vn -0.020291787 0.99794537 -0.060772456
vn -0.01639023 0.9982463 -0.056883108
vn 0.091682605 0.99430436 -0.054342154
vn 0.091682605 0.99430436 -0.054342154
vn 0.091682605 0.99430436 -0.054342154
vn 0.105930485 0.9929375 -0.053422667
vn 0.105930485 0.9929375 -0.053422667
vn 0.10685699 0.960256 -0.25785673
vn 0.10685699 0.960256 -0.25785673
vn 0.10685699 0.960256 -0.25785673
vn 0.13003482 0.95126414 -0.27962023
vn -0.044774473 0.9984572 -0.032840077
vn -0.044774473 0.9984572 -0.032840077
vn -0.044774473 0.9984572 -0.032840077
vn -0.044744495 0.99778867 -0.04914923
vn 4.320514E-07 -6.346929E-07 1
vn 4.320514E-07 -6.346929E-07 1
vn 4.320514E-07 -6.346929E-07 1
vn 4.320514E-07 -6.346929E-07 1
vn -1 0 0
vn -1 0 0
vn -1 0 0
vn -1 0 0
vn -1 0 4.7683687E-07
vn -1 0 4.7683687E-07
vn -1 0 0
vn -1 0 0
vn -1 0 1.1126185E-06
vn -1 0 1.1126185E-06
vn -1 0 1.1126185E-06
vn -1 0 1.1126185E-06
vn 1 0 0
vn 1 0 0
vn 1 0 0
vn 1 0 0
vn 1 0 -5.960466E-07
vn 1 0 -5.960466E-07
vn 1 0 0
vn 1 0 0
vn 1 0 1.9073557E-06
vn 1 0 1.9073557E-06
vn 1 0 1.9073557E-06
vn 1 0 1.9073557E-06
vn 2.2290762E-06 0 1
vn 2.2290762E-06 0 1
vn 2.2290762E-06 0 1
vn 2.2290762E-06 0 1
vn 2.1427702E-06 -6.357826E-07 -1
vn 2.1427702E-06 -6.357826E-07 -1
vn 2.1427702E-06 -6.357826E-07 -1
vn 2.1427702E-06 -6.357826E-07 -1
vn -2.0257659E-07 6.35782E-07 -1
vn -2.0257659E-07 6.35782E-07 -1
vn -2.0257659E-07 6.35782E-07 -1
vn -2.0257659E-07 6.35782E-07 -1
vn -0 1.2715657E-06 -1
vn -0 1.2715657E-06 -1
vn -0 1.2715657E-06 -1
vn -0 1.2715657E-06 -1
vn -4.94574E-07 6.357826E-07 -1
vn -4.94574E-07 6.357826E-07 -1
vn -0 -6.357825E-07 1
vn -0 -6.357825E-07 1
vn -0 -6.357825E-07 1
vn -0 -6.357825E-07 1
vn -0 -6.357835E-07 1
vn -0 -6.357835E-07 1
vn -0 -6.357835E-07 1
vn -0 -6.357835E-07 1
vn -1.4127995E-07 -6.3578176E-07 1
vn -1.4127995E-07 -6.3578176E-07 1
vn -1.4127995E-07 -6.3578176E-07 1
vn -1.4127995E-07 -6.3578176E-07 1
vn -1 0 0
vn -1 0 0
vn -1 0 0
vn -1 0 0
vn -1 0 2.3841818E-07
vn -1 0 2.3841818E-07
vn -1 0 0
vn -1 0 0
vn -1 0 9.93409E-07
vn -1 0 9.93409E-07
vn -1 0 9.93409E-07
vn -1 0 9.93409E-07
vn 1 0 1.6888032E-06
vn 1 0 1.6888032E-06
vn 1 0 -8.940681E-07
vn 1 0 -8.940681E-07
vn 1 0 -8.940681E-07
vn 1 0 -8.940681E-07
vn 1 0 -8.3446525E-07
vn 1 0 -8.3446525E-07
vn 1 0 0
vn 1 0 0
vn 1 0 0
vn 1 0 0
vn -0 -6.357828E-07 1
vn 2.1397025E-06 -9.55318E-07 1
vn 2.1397025E-06 -9.55318E-07 1
vn -0 -6.357828E-07 1
vn -0 -6.357828E-07 1
vn -0 -6.357828E-07 1
vn 2.4486485E-07 0 1
vn 2.4486485E-07 0 1
vn 3.0464383E-07 3.1789074E-07 1
vn 3.0464383E-07 3.1789074E-07 1
vn 1.8065724E-07 3.1734632E-07 1
vn 1.8065724E-07 3.1734632E-07 1
vn -0 -3.1789128E-07 -1
vn 2.222244E-06 0 -1
vn 2.222244E-06 0 -1
vn -0 -3.1789128E-07 -1
vn -0 -3.1789128E-07 -1
vn -0 -3.1789128E-07 -1
vn -2.324449E-07 0 -1
vn -2.324449E-07 0 -1
vn -1.8599353E-07 6.357831E-07 -1
vn -1.8599353E-07 6.357831E-07 -1
vn -1.8599353E-07 6.357831E-07 -1
vn -1.8599353E-07 6.357831E-07 -1
vn -1.8555058E-07 6.3578324E-07 -1
vn -1.8555058E-07 6.3578324E-07 -1
g terrain-world-hill4_0
f 3/3/3 2/2/2 1/1/1
f 6/6/6 5/5/5 4/4/4
f 9/9/9 8/8/8 7/7/7
f 8/8/8 11/11/11 10/10/10
f 13/13/13 12/12/12 10/10/10
f 12/12/12 15/15/15 14/14/14
f 18/18/18 17/17/17 16/16/16
f 21/21/21 20/20/20 19/19/19
f 24/24/24 23/23/23 22/22/22
f 27/27/27 26/26/26 25/25/25
f 30/30/30 29/29/29 28/28/28
f 33/33/33 32/32/32 31/31/31
f 36/36/36 35/35/35 34/34/34
f 39/39/39 38/38/38 37/37/37
f 38/38/38 41/41/41 40/40/40
f 42/42/42 38/38/38 40/40/40
f 42/42/42 40/40/40 43/43/43
f 45/45/45 43/43/43 44/44/44
f 43/43/43 46/46/46 44/44/44
f 43/43/43 47/47/47 46/46/46
f 50/50/50 49/49/49 48/48/48
f 49/49/49 52/52/52 51/51/51
f 55/55/55 54/54/54 53/53/53
f 58/58/58 57/57/57 56/56/56
f 61/61/61 60/60/60 59/59/59
f 59/59/59 63/63/63 62/62/62
f 65/65/65 63/63/63 64/64/64
f 65/65/65 66/66/66 63/63/63
f 69/69/69 68/68/68 67/67/67
f 72/72/72 71/71/71 70/70/70
f 75/75/75 74/74/74 73/73/73
f 75/75/75 76/76/76 74/74/74
f 75/75/75 77/77/77 76/76/76
f 80/80/80 79/79/79 78/78/78
f 81/81/81 80/80/80 78/78/78
f 84/84/84 83/83/83 82/82/82
f 85/85/85 84/84/84 82/82/82
f 88/88/88 87/87/87 86/86/86
f 89/89/89 88/88/88 86/86/86
f 92/92/92 91/91/91 90/90/90
f 93/93/93 92/92/92 90/90/90
f 96/96/96 95/95/95 94/94/94
f 97/97/97 96/96/96 94/94/94
f 100/100/100 99/99/99 98/98/98
f 100/100/100 101/101/101 99/99/99
f 102/102/102 101/101/101 100/100/100
f 105/105/105 104/104/104 103/103/103
f 106/106/106 105/105/105 103/103/103
f 109/109/109 108/108/108 107/107/107
f 107/107/107 110/110/110 109/109/109
f 113/113/113 112/112/112 111/111/111
f 114/114/114 113/113/113 111/111/111
f 117/117/117 116/116/116 115/115/115
f 116/116/116 118/118/118 115/115/115
f 115/115/115 118/118/118 119/119/119
f 118/118/118 120/120/120 119/119/119
f 119/119/119 120/120/120 121/121/121
f 120/120/120 122/122/122 121/121/121
f 121/121/121 122/122/122 123/123/123
f 122/122/122 124/124/124 123/123/123
f 123/123/123 124/124/124 125/125/125
f 124/124/124 126/126/126 125/125/125
f 129/129/129 128/128/128 127/127/127
f 128/128/128 130/130/130 127/127/127
f 127/127/127 130/130/130 131/131/131
f 130/130/130 132/132/132 131/131/131
f 131/131/131 132/132/132 133/133/133
f 132/132/132 134/134/134 133/133/133
f 133/133/133 134/134/134 135/135/135
f 134/134/134 136/136/136 135/135/135
f 135/135/135 136/136/136 137/137/137
f 136/136/136 138/138/138 137/137/137
f 141/141/141 140/140/140 139/139/139
f 142/142/142 141/141/141 139/139/139
f 145/145/145 144/144/144 143/143/143
f 144/144/144 146/146/146 143/143/143
f 143/143/143 146/146/146 147/147/147
f 146/146/146 148/148/148 147/147/147
f 147/147/147 148/148/148 149/149/149
f 148/148/148 150/150/150 149/149/149
f 153/153/153 152/152/152 151/151/151
f 154/154/154 153/153/153 151/151/151
f 155/155/155 153/153/153 154/154/154
f 156/156/156 155/155/155 154/154/154
f 159/159/159 158/158/158 157/157/157
f 160/160/160 159/159/159 157/157/157
f 163/163/163 162/162/162 161/161/161
f 164/164/164 163/163/163 161/161/161
f 167/167/167 166/166/166 165/165/165
f 168/168/168 167/167/167 165/165/165
f 171/171/171 170/170/170 169/169/169
f 170/170/170 172/172/172 169/169/169
f 169/169/169 172/172/172 173/173/173
f 172/172/172 174/174/174 173/173/173
f 173/173/173 174/174/174 175/175/175
f 174/174/174 176/176/176 175/175/175
f 175/175/175 176/176/176 177/177/177
f 176/176/176 178/178/178 177/177/177
f 177/177/177 178/178/178 179/179/179
f 178/178/178 180/180/180 179/179/179
f 183/183/183 182/182/182 181/181/181
f 184/184/184 183/183/183 181/181/181
f 185/185/185 183/183/183 184/184/184
f 186/186/186 185/185/185 184/184/184
f 187/187/187 185/185/185 186/186/186
f 188/188/188 187/187/187 186/186/186
f 189/189/189 187/187/187 188/188/188
f 190/190/190 189/189/189 188/188/188
f 191/191/191 189/189/189 190/190/190
f 192/192/192 191/191/191 190/190/190
f 195/195/195 194/194/194 193/193/193
f 194/194/194 196/196/196 193/193/193
f 193/193/193 196/196/196 197/197/197
f 196/196/196 198/198/198 197/197/197
f 197/197/197 198/198/198 199/199/199
f 198/198/198 200/200/200 199/199/199
f 199/199/199 200/200/200 201/201/201
f 200/200/200 202/202/202 201/201/201
f 201/201/201 202/202/202 203/203/203
f 202/202/202 204/204/204 203/203/203
f 207/207/207 206/206/206 205/205/205
f 206/206/206 208/208/208 205/205/205
f 205/205/205 208/208/208 209/209/209
f 208/208/208 210/210/210 209/209/209
f 209/209/209 210/210/210 211/211/211
f 210/210/210 212/212/212 211/211/211
f 215/215/215 214/214/214 213/213/213
f 216/216/216 215/215/215 213/213/213
f 217/217/217 215/215/215 216/216/216
f 218/218/218 217/217/217 216/216/216
