g tile-hill
v -14.999998 1.4901356E-06 15.000014
v -15.000003 5.9999986 -14.999997
v 14.999992 5.9999986 -15.000002
v 14.999997 1.4901356E-06 15.0000105
v -15.000003 5.9999986 -14.999997
v -15.000003 3.9999983 -14.999998
v 14.999992 3.9999983 -15.000002
v 14.999992 5.9999986 -15.000002
v 14.999997 1.4901356E-06 15.0000105
v 14.999997 -1.9999974 15.0000105
v -14.999998 -1.9999974 15.000014
v -14.999998 1.4901356E-06 15.000014
v -14.999998 1.4901356E-06 15.000014
v -14.999998 -1.9999974 15.000014
v -15.000003 3.9999983 -14.999998
v -15.000003 5.9999986 -14.999997
v 14.999992 5.9999986 -15.000002
v 14.999992 3.9999983 -15.000002
v 14.999997 -1.9999974 15.0000105
v 14.999997 1.4901356E-06 15.0000105
v 14.999992 3.9999983 -15.000002
v 14.999992 5.722046E-06 -15.000002
v 15.000001 -5.999991 15.0000105
v 14.999997 -1.9999974 15.0000105
v -14.999998 -1.9999974 15.000014
v 14.999997 -1.9999974 15.0000105
v 15.000001 -5.999991 15.0000105
v -14.999993 -5.99999 15.000011
v -15.000003 3.9999983 -14.999998
v -15.000003 5.722046E-06 -14.999998
v 14.999992 5.722046E-06 -15.000002
v 14.999992 3.9999983 -15.000002
v -14.999998 -1.9999974 15.000014
v -14.999993 -5.99999 15.000011
v -15.000003 5.722046E-06 -14.999998
v -15.000003 3.9999983 -14.999998
vt 0.3886091 0.38906127
vt 0.3886091 0.4885493
vt 0.48616505 0.4885493
vt 0.4861651 0.38906127
vt 0.3886091 0.4885493
vt 0.3886091 0.4950531
vt 0.48616505 0.49505305
vt 0.48616505 0.4885493
vt 0.4861651 0.38906127
vt 0.4861651 0.38255745
vt 0.3886091 0.38255757
vt 0.3886091 0.38906127
vt 0.3886091 0.38906127
vt 0.3822317 0.38778582
vt 0.3822317 0.4872738
vt 0.3886091 0.4885493
vt 0.48616505 0.4885493
vt 0.49254256 0.4872738
vt 0.4925425 0.3877858
vt 0.4861651 0.38906127
vt 0.112223595 0.81456923
vt 0.109672576 0.8018143
vt 0.010184616 0.8018143
vt 0.012735575 0.81456923
vt 0.010184616 0.8416033
vt 0.10774061 0.8416033
vt 0.10774061 0.8285959
vt 0.010184616 0.8285959
vt 0.010184616 0.81507885
vt 0.010184616 0.82808626
vt 0.10774055 0.82808626
vt 0.10774055 0.81507885
vt 0.012735635 0.7885498
vt 0.010184616 0.8013047
vt 0.10967252 0.8013047
vt 0.112223476 0.7885499
vn -0 0.9805807 0.19611599
vn -0 0.9805807 0.19611599
vn -0 0.9805807 0.19611599
vn -0 0.9805807 0.19611599
vn -1.11262025E-07 0 -1
vn -1.11262025E-07 0 -1
vn -1.11262025E-07 0 -1
vn -1.11262025E-07 0 -1
vn 1.1126202E-07 0 1
vn 1.1126202E-07 0 1
vn 1.1126202E-07 0 1
vn 1.1126202E-07 0 1
vn -1 0 1.2715654E-07
vn -1 0 1.2715654E-07
vn -1 0 1.2715654E-07
vn -1 0 1.2715654E-07
vn 1 0 -1.2715657E-07
vn 1 0 -1.2715657E-07
vn 1 0 -1.2715657E-07
vn 1 0 -1.2715657E-07
vn 1 4.76838E-07 -1.907351E-07
vn 1 4.76838E-07 -1.907351E-07
vn 1 4.76838E-07 -1.907351E-07
vn 1 4.76838E-07 -1.907351E-07
vn -0 -4.768384E-07 1
vn -0 -4.768384E-07 1
vn -0 -4.768384E-07 1
vn -0 -4.768384E-07 1
vn -0 0 -1
vn -0 0 -1
vn -0 0 -1
vn -0 0 -1
vn -1 -7.1525693E-07 0
vn -1 -7.1525693E-07 0
vn -1 -7.1525693E-07 0
vn -1 -7.1525693E-07 0
g tile-hill_0
f 3/3/3 2/2/2 1/1/1
f 4/4/4 3/3/3 1/1/1
f 7/7/7 6/6/6 5/5/5
f 8/8/8 7/7/7 5/5/5
f 11/11/11 10/10/10 9/9/9
f 12/12/12 11/11/11 9/9/9
f 15/15/15 14/14/14 13/13/13
f 16/16/16 15/15/15 13/13/13
f 19/19/19 18/18/18 17/17/17
f 20/20/20 19/19/19 17/17/17
f 23/23/23 22/22/22 21/21/21
f 24/24/24 23/23/23 21/21/21
f 27/27/27 26/26/26 25/25/25
f 28/28/28 27/27/27 25/25/25
f 31/31/31 30/30/30 29/29/29
f 32/32/32 31/31/31 29/29/29
f 35/35/35 34/34/34 33/33/33
f 36/36/36 35/35/35 33/33/33
