g base-japan_small
v -5.0007725 5.000001 2.5007777
v 5.0007725 5 2.5007722
v 5.000773 -1.96735E-07 4.0007763
v -5.000772 1.01288194E-07 4.0007772
v -5.0007725 4.999999 -2.5007718
v -5.0007725 5.000001 2.5007777
v -5.000772 1.01288194E-07 4.0007772
v -5.000771 1.9673497E-07 -4.0007725
v 5.0007725 5 2.5007722
v 5.000771 5.000001 -2.5007775
v 5.0007715 1.3713056E-07 -4.0007772
v 5.000773 -1.96735E-07 4.0007763
v -5.0007725 4.999999 -2.5007718
v -5.000771 1.9673497E-07 -4.0007725
v 5.0007715 1.3713056E-07 -4.0007772
v 5.000771 5.000001 -2.5007775
v -5.000771 1.9673497E-07 -4.0007725
v -5.000772 1.01288194E-07 4.0007772
v 5.000773 -1.96735E-07 4.0007763
v 5.0007715 1.3713056E-07 -4.0007772
v -2.1469867 1.6799748 3.4939432
v -2.1469867 1.6954379 3.5454874
v -1.6699771 1.7975726 3.514844
v -1.6699771 1.7821095 3.4632998
v -5.0007725 4.999999 -2.5007718
v 5.000771 5.000001 -2.5007775
v 5.0007725 5 2.5007722
v -5.0007725 5.000001 2.5007777
v -0.50068885 1.6196558 3.5686765
v -0.10064909 1.5189784 3.5988812
v -0.21425836 1.1518705 3.7090154
v -0.9275306 1.1588101 3.7069325
v -0.9145835 1.539916 3.5926023
v -0.9145835 1.5248568 3.5424008
v -0.9145835 1.539916 3.5926023
v -0.9275306 1.1588101 3.7069325
v -0.9275306 1.1437507 3.656735
v -0.21425842 1.136811 3.6588178
v -0.21425836 1.1518705 3.7090154
v -0.10064909 1.5189784 3.5988812
v -0.10064909 1.503919 3.5486836
v -0.9275306 1.1437507 3.656735
v -0.9275306 1.1588101 3.7069325
v -0.21425836 1.1518705 3.7090154
v -0.21425842 1.136811 3.6588178
v -0.50068885 1.6045965 3.5184827
v -0.50068885 1.6196558 3.5686765
v -0.9145835 1.539916 3.5926023
v -0.9145835 1.5248568 3.5424008
v -0.10064909 1.503919 3.5486836
v -0.10064909 1.5189784 3.5988812
v -0.50068885 1.6196558 3.5686765
v -0.50068885 1.6045965 3.5184827
v -2.63082 2.1568506 3.4070601
v -2.1706455 2.2061095 3.392282
v -2.1469867 1.6954379 3.5454874
v -2.6336772 1.7680714 3.5236948
v -2.1706455 2.2061095 3.392282
v -1.6699771 1.7975726 3.514844
v -1.8027939 2.2061095 3.3922815
v -2.63082 2.1413875 3.355516
v -2.63082 2.1568506 3.4070601
v -2.6336772 1.7680714 3.5236948
v -2.6336772 1.7526083 3.4721506
v -2.6336772 1.7526083 3.4721506
v -2.6336772 1.7680714 3.5236948
v -2.1469867 1.6954379 3.5454874
v -2.1469867 1.6799748 3.4939432
v -1.8027939 2.1906464 3.3407373
v -1.8027939 2.2061095 3.3922815
v -2.1706455 2.2061095 3.392282
v -2.1706455 2.1906464 3.3407378
v -2.1706455 2.1906464 3.3407378
v -2.1706455 2.2061095 3.392282
v -2.63082 2.1568506 3.4070601
v -2.63082 2.1413875 3.355516
v -1.6699771 1.7821095 3.4632998
v -1.6699771 1.7975726 3.514844
v -1.8027939 2.2061095 3.3922815
v -1.8027939 2.1906464 3.3407373
v 2.9705327 3.5483599 2.9742348
v 3.4238677 3.486776 3.0084636
v 3.2951229 3.0707607 3.1332705
v 2.6572037 3.0769668 3.131408
v 2.5014975 3.5105028 3.0013485
v 2.5014975 3.4934378 2.944459
v 2.5014975 3.5105028 3.0013485
v 2.6572037 3.0769668 3.131408
v 2.6572037 3.059901 3.0745227
v 3.2951229 3.0536947 3.0763855
v 3.2951229 3.0707607 3.1332705
v 3.4238677 3.486776 3.0084636
v 3.4238677 3.4697104 2.9515789
v 2.6572037 3.059901 3.0745227
v 2.6572037 3.0769668 3.131408
v 3.2951229 3.0707607 3.1332705
v 3.2951229 3.0536947 3.0763855
v 2.9705327 3.531294 2.9173543
v 2.9705327 3.5483599 2.9742348
v 2.5014975 3.5105028 3.0013485
v 2.5014975 3.4934378 2.944459
v 3.4238677 3.4697104 2.9515789
v 3.4238677 3.486776 3.0084636
v 2.9705327 3.5483599 2.9742348
v 2.9705327 3.531294 2.9173543
v 1.0044482 1.3600373 -3.6430838
v 1.7177203 1.3669769 -3.641001
v 1.7047732 1.7480829 -3.5266707
v 1.2908785 1.8278227 -3.502745
v 0.8908389 1.7271452 -3.5329492
v 1.7047732 1.7330236 -3.4764693
v 1.7047732 1.7480829 -3.5266707
v 1.7177203 1.3669769 -3.641001
v 1.7177203 1.3519175 -3.5908034
v 1.0044482 1.3449779 -3.5928862
v 1.0044482 1.3600373 -3.6430838
v 0.8908389 1.7271452 -3.5329492
v 0.8908389 1.712086 -3.4827514
v 1.7177203 1.3519175 -3.5908034
v 1.7177203 1.3669769 -3.641001
v 1.0044482 1.3600373 -3.6430838
v 1.0044482 1.3449779 -3.5928862
v 1.2908785 1.8127635 -3.4525511
v 1.2908785 1.8278227 -3.502745
v 1.7047732 1.7480829 -3.5266707
v 1.7047732 1.7330236 -3.4764693
v 0.8908389 1.712086 -3.4827514
v 0.8908389 1.7271452 -3.5329492
v 1.2908785 1.8278227 -3.502745
v 1.2908785 1.8127635 -3.4525511
v 3.42101 2.365017 -3.3411288
v 2.9608355 2.4142756 -3.3263507
v 2.9371767 1.9036047 -3.4795554
v 3.4238672 1.9762383 -3.457763
v 2.9608355 2.4142756 -3.3263507
v 2.460167 2.005739 -3.448912
v 2.5929842 2.4142756 -3.3263495
v 3.42101 2.3495538 -3.2895846
v 3.42101 2.365017 -3.3411288
v 3.4238672 1.9762383 -3.457763
v 3.4238672 1.9607751 -3.4062188
v 3.4238672 1.9607751 -3.4062188
v 3.4238672 1.9762383 -3.457763
v 2.9371767 1.9036047 -3.4795554
v 2.9371767 1.8881416 -3.4280112
v 2.5929842 2.3988128 -3.2748053
v 2.5929842 2.4142756 -3.3263495
v 2.9608355 2.4142756 -3.3263507
v 2.9608355 2.3988128 -3.2748065
v 2.9608355 2.3988128 -3.2748065
v 2.9608355 2.4142756 -3.3263507
v 3.42101 2.365017 -3.3411288
v 3.42101 2.3495538 -3.2895846
v 2.9371767 1.8881416 -3.4280112
v 2.9371767 1.9036047 -3.4795554
v 2.460167 2.005739 -3.448912
v 2.460167 1.9902763 -3.3973677
v 2.460167 1.9902763 -3.3973677
v 2.460167 2.005739 -3.448912
v 2.5929842 2.4142756 -3.3263495
v 2.5929842 2.3988128 -3.2748053
v -1.8670138 3.2851334 -3.065476
v -1.7113076 3.7186694 -2.9354165
v -2.180343 3.7565265 -2.9083028
v -2.5049329 3.2789268 -3.0673385
v -2.633678 3.6949425 -2.9425316
v -1.7113076 3.701604 -2.878527
v -1.7113076 3.7186694 -2.9354165
v -1.8670138 3.2851334 -3.065476
v -1.8670138 3.2680676 -3.0085907
v -2.5049329 3.2618608 -3.0104535
v -2.5049329 3.2789268 -3.0673385
v -2.633678 3.6949425 -2.9425316
v -2.633678 3.6778765 -2.8856468
v -1.8670138 3.2680676 -3.0085907
v -1.8670138 3.2851334 -3.065476
v -2.5049329 3.2789268 -3.0673385
v -2.5049329 3.2618608 -3.0104535
v -2.180343 3.7394607 -2.8514223
v -2.180343 3.7565265 -2.9083028
v -1.7113076 3.7186694 -2.9354165
v -1.7113076 3.701604 -2.878527
v -2.633678 3.6778765 -2.8856468
v -2.633678 3.6949425 -2.9425316
v -2.180343 3.7565265 -2.9083028
v -2.180343 3.7394607 -2.8514223
vt 0.22135781 0.38696724
vt 0.09391439 0.6073279
vt 0.20892738 0.6738448
vt 0.3363713 0.45348522
vt 0.2507373 0.26310503
vt 0.22135781 0.38696724
vt 0.3363713 0.45348522
vt 0.3833725 0.25532788
vt 0.09391439 0.6073279
vt 0.0012050067 0.69456375
vt 0.060610488 0.8134072
vt 0.20892738 0.6738448
vt 0.2507373 0.26310503
vt 0.3833725 0.25532788
vt 0.36847237 0.0012050067
vt 0.23583616 0.008981889
vt 0.23505507 0.99879503
vt 0.383373 0.8592337
vt 0.20892738 0.6738448
vt 0.060610488 0.8134072
vt 0.5073433 0.64784503
vt 0.5054576 0.6485573
vt 0.50593567 0.66059357
vt 0.5073433 0.6619948
vt 0.70794815 0.64543504
vt 0.70794815 0.0012050067
vt 0.38578352 0.0012055186
vt 0.385783 0.64543504
vt 0.46958533 0.6602381
vt 0.47388646 0.67015684
vt 0.4826653 0.6670366
vt 0.48291662 0.6516525
vt 0.4743589 0.6494789
vt 0.473348 0.64784503
vt 0.4743589 0.6494789
vt 0.48291662 0.6516525
vt 0.4842075 0.65037334
vt 0.4842075 0.6680004
vt 0.4826653 0.6670366
vt 0.47388646 0.67015684
vt 0.47320876 0.6722058
vt 0.4842075 0.65037334
vt 0.48291662 0.6516525
vt 0.4826653 0.6670366
vt 0.4842075 0.6680004
vt 0.46761367 0.66037756
vt 0.46958533 0.6602381
vt 0.4743589 0.6494789
vt 0.473348 0.64784503
vt 0.47320876 0.6722058
vt 0.47388646 0.67015684
vt 0.46958533 0.6602381
vt 0.46761367 0.66037756
vt 0.42281288 0.6701133
vt 0.422645 0.65763044
vt 0.40777764 0.66141385
vt 0.41446146 0.6716632
vt 0.422645 0.65763044
vt 0.40900815 0.6494315
vt 0.4183577 0.649678
vt 0.42428908 0.6711194
vt 0.42281288 0.6701133
vt 0.41446146 0.6716632
vt 0.41387895 0.6733895
vt 0.41387895 0.6733895
vt 0.41446146 0.6716632
vt 0.40777764 0.66141385
vt 0.40581056 0.6618525
vt 0.41914186 0.6484378
vt 0.4183577 0.649678
vt 0.422645 0.65763044
vt 0.42428908 0.65714395
vt 0.42428908 0.65714395
vt 0.422645 0.65763044
vt 0.42281288 0.6701133
vt 0.42428908 0.6711194
vt 0.40781295 0.64784503
vt 0.40900815 0.6494315
vt 0.4183577 0.649678
vt 0.41914186 0.6484378
vt 0.4285863 0.6607116
vt 0.43303588 0.67212546
vt 0.44256458 0.6687426
vt 0.44273043 0.6539845
vt 0.43389273 0.64972895
vt 0.43297955 0.64784503
vt 0.43389273 0.64972895
vt 0.44273043 0.6539845
vt 0.44431615 0.6527407
vt 0.44431615 0.66981953
vt 0.44256458 0.6687426
vt 0.43303588 0.67212546
vt 0.431941 0.6745916
vt 0.44431615 0.6527407
vt 0.44273043 0.6539845
vt 0.44256458 0.6687426
vt 0.44431615 0.66981953
vt 0.4266991 0.6606512
vt 0.4285863 0.6607116
vt 0.43389273 0.64972895
vt 0.43297955 0.64784503
vt 0.431941 0.6745916
vt 0.43303588 0.67212546
vt 0.4285863 0.6607116
vt 0.4266991 0.6606512
vt 0.5013692 0.6671001
vt 0.50171626 0.6514007
vt 0.49302083 0.6494656
vt 0.48855233 0.66045105
vt 0.49277157 0.6701973
vt 0.49195105 0.64784503
vt 0.49302083 0.6494656
vt 0.50171626 0.6514007
vt 0.5030476 0.65006495
vt 0.5030476 0.6684232
vt 0.5013692 0.6671001
vt 0.49277157 0.6701973
vt 0.4920432 0.6718086
vt 0.5030476 0.65006495
vt 0.50171626 0.6514007
vt 0.5013692 0.6671001
vt 0.5030476 0.6684232
vt 0.48661754 0.6606095
vt 0.48855233 0.66045105
vt 0.49302083 0.6494656
vt 0.49195105 0.64784503
vt 0.4920432 0.6718086
vt 0.49277157 0.6701973
vt 0.48855233 0.66045105
vt 0.48661754 0.6606095
vt 0.46372744 0.6701136
vt 0.46355906 0.65763074
vt 0.4486927 0.6614151
vt 0.4553755 0.6716635
vt 0.46355906 0.65763074
vt 0.4499227 0.6494315
vt 0.45927176 0.6496775
vt 0.46520364 0.67111963
vt 0.46372744 0.6701136
vt 0.4553755 0.6716635
vt 0.45479402 0.67338973
vt 0.45479402 0.67338973
vt 0.4553755 0.6716635
vt 0.4486927 0.6614151
vt 0.44672617 0.66185176
vt 0.46005592 0.6484375
vt 0.45927176 0.6496775
vt 0.46355906 0.65763074
vt 0.46520364 0.6571437
vt 0.46520364 0.6571437
vt 0.46355906 0.65763074
vt 0.46372744 0.6701136
vt 0.46520364 0.67111963
vt 0.44672617 0.66185176
vt 0.4486927 0.6614151
vt 0.4499227 0.6494315
vt 0.44872802 0.64784503
vt 0.44872802 0.64784503
vt 0.4499227 0.6494315
vt 0.45927176 0.6496775
vt 0.46005592 0.6484375
vt 0.40181485 0.6539848
vt 0.39297715 0.6497292
vt 0.38767022 0.6607118
vt 0.401649 0.66874415
vt 0.3921203 0.6721265
vt 0.39206398 0.64784503
vt 0.39297715 0.6497292
vt 0.40181485 0.6539848
vt 0.40340057 0.6527404
vt 0.40340057 0.66982085
vt 0.401649 0.66874415
vt 0.3921203 0.6721265
vt 0.3910244 0.6745921
vt 0.40340057 0.6527404
vt 0.40181485 0.6539848
vt 0.401649 0.66874415
vt 0.40340057 0.66982085
vt 0.385783 0.66065043
vt 0.38767022 0.6607118
vt 0.39297715 0.6497292
vt 0.39206398 0.64784503
vt 0.3910244 0.6745921
vt 0.3921203 0.6721265
vt 0.38767022 0.6607118
vt 0.385783 0.66065043
vn 3.3335925E-07 0.28734818 0.95782614
vn 3.3335925E-07 0.28734818 0.95782614
vn 3.3335925E-07 0.28734818 0.95782614
vn 3.3335925E-07 0.28734818 0.95782614
vn -1 -1.9073487E-07 -1.7602102E-07
vn -1 -1.9073487E-07 -1.7602102E-07
vn -1 -1.9073487E-07 -1.7602102E-07
vn -1 -1.9073487E-07 -1.7602102E-07
vn 1 0 -1.17347284E-07
vn 1 0 -1.17347284E-07
vn 1 0 -1.17347284E-07
vn 1 0 -1.17347284E-07
vn -5.297218E-07 0.28734803 -0.95782626
vn -5.297218E-07 0.28734803 -0.95782626
vn -5.297218E-07 0.28734803 -0.95782626
vn -5.297218E-07 0.28734803 -0.95782626
vn -0 -1 0
vn -0 -1 0
vn -0 -1 0
vn -0 -1 0
vn 0.21815975 -0.9347557 0.2804248
vn 0.21815975 -0.9347557 0.2804248
vn 0.21815975 -0.9347557 0.2804248
vn 0.21815975 -0.9347557 0.2804248
vn -0 1 0
vn -0 1 0
vn -0 1 0
vn -0 1 0
vn 1.1808005E-06 0.2873508 0.9578254
vn 1.1808005E-06 0.2873508 0.9578254
vn 1.1808005E-06 0.2873508 0.9578254
vn 1.1808005E-06 0.2873508 0.9578254
vn 1.1808005E-06 0.2873508 0.9578254
vn -0.999471 0.031150866 -0.0093445815
vn -0.999471 0.031150866 -0.0093445815
vn -0.999471 0.031150866 -0.0093445815
vn -0.999471 0.031150866 -0.0093445815
vn 0.95876575 -0.27221206 0.081663325
vn 0.95876575 -0.27221206 0.081663325
vn 0.95876575 -0.27221206 0.081663325
vn 0.95876575 -0.27221206 0.081663325
vn -0.01015757 -0.9577758 0.2873367
vn -0.01015757 -0.9577758 0.2873367
vn -0.01015757 -0.9577758 0.2873367
vn -0.01015757 -0.9577758 0.2873367
vn -0.19719078 0.9390196 -0.28170508
vn -0.19719078 0.9390196 -0.28170508
vn -0.19719078 0.9390196 -0.28170508
vn -0.19719078 0.9390196 -0.28170508
vn 0.25412312 0.9263801 -0.27792305
vn 0.25412312 0.9263801 -0.27792305
vn 0.25412312 0.9263801 -0.27792305
vn 0.25412312 0.9263801 -0.27792305
vn -1.7439017E-06 0.28735277 0.9578248
vn -1.7439017E-06 0.28735277 0.9578248
vn -1.7439017E-06 0.28735277 0.9578248
vn -1.7439017E-06 0.28735277 0.9578248
vn 3.1693698E-06 0.28735322 0.95782477
vn 3.1693698E-06 0.28735322 0.95782477
vn 3.1693698E-06 0.28735322 0.95782477
vn -0.9999752 0.0067422227 -0.0020247179
vn -0.9999752 0.0067422227 -0.0020247179
vn -0.9999752 0.0067422227 -0.0020247179
vn -0.9999752 0.0067422227 -0.0020247179
vn -0.15395477 -0.9464076 0.28392014
vn -0.15395477 -0.9464076 0.28392014
vn -0.15395477 -0.9464076 0.28392014
vn -0.15395477 -0.9464076 0.28392014
vn -4.4826817E-07 0.95782745 -0.28734392
vn -4.4826817E-07 0.95782745 -0.28734392
vn -4.4826817E-07 0.95782745 -0.28734392
vn -4.4826817E-07 0.95782745 -0.28734392
vn -0.11106666 0.95190096 -0.28556773
vn -0.11106666 0.95190096 -0.28556773
vn -0.11106666 0.95190096 -0.28556773
vn -0.11106666 0.95190096 -0.28556773
vn 0.9547808 0.28477252 -0.08543014
vn 0.9547808 0.28477252 -0.08543014
vn 0.9547808 0.28477252 -0.08543014
vn 0.9547808 0.28477252 -0.08543014
vn 0.00050393323 0.3052197 0.95228183
vn 0.00050393323 0.3052197 0.95228183
vn 0.00050393323 0.3052197 0.95228183
vn 0.00050393323 0.3052197 0.95228183
vn 0.00050393323 0.3052197 0.95228183
vn -0.9456122 -0.3115772 0.09347295
vn -0.9456122 -0.3115772 0.09347295
vn -0.9456122 -0.3115772 0.09347295
vn -0.9456122 -0.3115772 0.09347295
vn 0.9587661 -0.27220988 0.08166519
vn 0.9587661 -0.27220988 0.08166519
vn 0.9587661 -0.27220988 0.08166519
vn 0.9587661 -0.27220988 0.08166519
vn -0.010157442 -0.9577751 0.28733903
vn -0.010157442 -0.9577751 0.28733903
vn -0.010157442 -0.9577751 0.28733903
vn -0.010157442 -0.9577751 0.28733903
vn -0.093505494 0.9536297 -0.28608924
vn -0.093505494 0.9536297 -0.28608924
vn -0.093505494 0.9536297 -0.28608924
vn -0.093505494 0.9536297 -0.28608924
vn 0.15009288 0.94697183 -0.28410643
vn 0.15009288 0.94697183 -0.28410643
vn 0.15009288 0.94697183 -0.28410643
vn 0.15009288 0.94697183 -0.28410643
vn -1.5339368E-06 0.28735146 -0.9578252
vn -1.5339368E-06 0.28735146 -0.9578252
vn -1.5339368E-06 0.28735146 -0.9578252
vn -1.5339368E-06 0.28735146 -0.9578252
vn -1.5339368E-06 0.28735146 -0.9578252
vn 0.999471 0.031150887 0.009344588
vn 0.999471 0.031150887 0.009344588
vn 0.999471 0.031150887 0.009344588
vn 0.999471 0.031150887 0.009344588
vn -0.95876586 -0.27221084 -0.08166553
vn -0.95876586 -0.27221084 -0.08166553
vn -0.95876586 -0.27221084 -0.08166553
vn -0.95876586 -0.27221084 -0.08166553
vn 0.010157763 -0.9577758 -0.2873367
vn 0.010157763 -0.9577758 -0.2873367
vn 0.010157763 -0.9577758 -0.2873367
vn 0.010157763 -0.9577758 -0.2873367
vn 0.19719063 0.93901974 0.281705
vn 0.19719063 0.93901974 0.281705
vn 0.19719063 0.93901974 0.281705
vn 0.19719063 0.93901974 0.281705
vn -0.2541238 0.92637956 0.2779242
vn -0.2541238 0.92637956 0.2779242
vn -0.2541238 0.92637956 0.2779242
vn -0.2541238 0.92637956 0.2779242
vn 1.6097575E-06 0.28735206 -0.95782506
vn 1.6097575E-06 0.28735206 -0.95782506
vn 1.6097575E-06 0.28735206 -0.95782506
vn 1.6097575E-06 0.28735206 -0.95782506
vn -4.177809E-06 0.28735343 -0.95782465
vn -4.177809E-06 0.28735343 -0.95782465
vn -4.177809E-06 0.28735343 -0.95782465
vn 0.9999752 0.006742228 0.0020192615
vn 0.9999752 0.006742228 0.0020192615
vn 0.9999752 0.006742228 0.0020192615
vn 0.9999752 0.006742228 0.0020192615
vn 0.15395452 -0.94640774 -0.28391963
vn 0.15395452 -0.94640774 -0.28391963
vn 0.15395452 -0.94640774 -0.28391963
vn 0.15395452 -0.94640774 -0.28391963
vn 8.597055E-07 0.95782703 0.28734553
vn 8.597055E-07 0.95782703 0.28734553
vn 8.597055E-07 0.95782703 0.28734553
vn 8.597055E-07 0.95782703 0.28734553
vn 0.11106546 0.95190096 0.285568
vn 0.11106546 0.95190096 0.285568
vn 0.11106546 0.95190096 0.285568
vn 0.11106546 0.95190096 0.285568
vn -0.21815872 -0.93475705 -0.28042102
vn -0.21815872 -0.93475705 -0.28042102
vn -0.21815872 -0.93475705 -0.28042102
vn -0.21815872 -0.93475705 -0.28042102
vn -0.9547804 0.28477377 0.085430145
vn -0.9547804 0.28477377 0.085430145
vn -0.9547804 0.28477377 0.085430145
vn -0.9547804 0.28477377 0.085430145
vn -0.00050417375 0.30521977 -0.95228183
vn -0.00050417375 0.30521977 -0.95228183
vn -0.00050417375 0.30521977 -0.95228183
vn -0.00050417375 0.30521977 -0.95228183
vn -0.00050417375 0.30521977 -0.95228183
vn 0.94561154 -0.3115798 -0.093470685
vn 0.94561154 -0.3115798 -0.093470685
vn 0.94561154 -0.3115798 -0.093470685
vn 0.94561154 -0.3115798 -0.093470685
vn -0.95876557 -0.27221084 -0.08166956
vn -0.95876557 -0.27221084 -0.08166956
vn -0.95876557 -0.27221084 -0.08166956
vn -0.95876557 -0.27221084 -0.08166956
vn 0.0101570245 -0.95777565 -0.2873372
vn 0.0101570245 -0.95777565 -0.2873372
vn 0.0101570245 -0.95777565 -0.2873372
vn 0.0101570245 -0.95777565 -0.2873372
vn 0.09350432 0.9536301 0.28608838
vn 0.09350432 0.9536301 0.28608838
vn 0.09350432 0.9536301 0.28608838
vn 0.09350432 0.9536301 0.28608838
vn -0.15009288 0.94697183 0.28410643
vn -0.15009288 0.94697183 0.28410643
vn -0.15009288 0.94697183 0.28410643
vn -0.15009288 0.94697183 0.28410643
g base-japan_small_0
f 3/3/3 2/2/2 1/1/1
f 4/4/4 3/3/3 1/1/1
f 7/7/7 6/6/6 5/5/5
f 8/8/8 7/7/7 5/5/5
f 11/11/11 10/10/10 9/9/9
f 12/12/12 11/11/11 9/9/9
f 15/15/15 14/14/14 13/13/13
f 16/16/16 15/15/15 13/13/13
f 19/19/19 18/18/18 17/17/17
f 20/20/20 19/19/19 17/17/17
f 23/23/23 22/22/22 21/21/21
f 24/24/24 23/23/23 21/21/21
g base-japan_small_1
f 27/27/27 26/26/26 25/25/25
f 28/28/28 27/27/27 25/25/25
g base-japan_small_2
f 31/31/31 30/30/30 29/29/29
f 29/29/29 32/32/32 31/31/31
f 29/29/29 33/33/33 32/32/32
f 36/36/36 35/35/35 34/34/34
f 37/37/37 36/36/36 34/34/34
f 40/40/40 39/39/39 38/38/38
f 41/41/41 40/40/40 38/38/38
f 44/44/44 43/43/43 42/42/42
f 45/45/45 44/44/44 42/42/42
f 48/48/48 47/47/47 46/46/46
f 49/49/49 48/48/48 46/46/46
f 52/52/52 51/51/51 50/50/50
f 53/53/53 52/52/52 50/50/50
f 56/56/56 55/55/55 54/54/54
f 57/57/57 56/56/56 54/54/54
f 56/56/56 59/59/59 58/58/58
f 59/59/59 60/60/60 58/58/58
f 63/63/63 62/62/62 61/61/61
f 64/64/64 63/63/63 61/61/61
f 67/67/67 66/66/66 65/65/65
f 68/68/68 67/67/67 65/65/65
f 71/71/71 70/70/70 69/69/69
f 72/72/72 71/71/71 69/69/69
f 75/75/75 74/74/74 73/73/73
f 76/76/76 75/75/75 73/73/73
f 79/79/79 78/78/78 77/77/77
f 80/80/80 79/79/79 77/77/77
f 83/83/83 82/82/82 81/81/81
f 81/81/81 84/84/84 83/83/83
f 81/81/81 85/85/85 84/84/84
f 88/88/88 87/87/87 86/86/86
f 89/89/89 88/88/88 86/86/86
f 92/92/92 91/91/91 90/90/90
f 93/93/93 92/92/92 90/90/90
f 96/96/96 95/95/95 94/94/94
f 97/97/97 96/96/96 94/94/94
f 100/100/100 99/99/99 98/98/98
f 101/101/101 100/100/100 98/98/98
f 104/104/104 103/103/103 102/102/102
f 105/105/105 104/104/104 102/102/102
f 108/108/108 107/107/107 106/106/106
f 106/106/106 109/109/109 108/108/108
f 106/106/106 110/110/110 109/109/109
f 113/113/113 112/112/112 111/111/111
f 114/114/114 113/113/113 111/111/111
f 117/117/117 116/116/116 115/115/115
f 118/118/118 117/117/117 115/115/115
f 121/121/121 120/120/120 119/119/119
f 122/122/122 121/121/121 119/119/119
f 125/125/125 124/124/124 123/123/123
f 126/126/126 125/125/125 123/123/123
f 129/129/129 128/128/128 127/127/127
f 130/130/130 129/129/129 127/127/127
f 133/133/133 132/132/132 131/131/131
f 134/134/134 133/133/133 131/131/131
f 133/133/133 136/136/136 135/135/135
f 136/136/136 137/137/137 135/135/135
f 140/140/140 139/139/139 138/138/138
f 141/141/141 140/140/140 138/138/138
f 144/144/144 143/143/143 142/142/142
f 145/145/145 144/144/144 142/142/142
f 148/148/148 147/147/147 146/146/146
f 149/149/149 148/148/148 146/146/146
f 152/152/152 151/151/151 150/150/150
f 153/153/153 152/152/152 150/150/150
f 156/156/156 155/155/155 154/154/154
f 157/157/157 156/156/156 154/154/154
f 160/160/160 159/159/159 158/158/158
f 161/161/161 160/160/160 158/158/158
f 164/164/164 163/163/163 162/162/162
f 162/162/162 165/165/165 164/164/164
f 165/165/165 166/166/166 164/164/164
f 169/169/169 168/168/168 167/167/167
f 170/170/170 169/169/169 167/167/167
f 173/173/173 172/172/172 171/171/171
f 174/174/174 173/173/173 171/171/171
f 177/177/177 176/176/176 175/175/175
f 178/178/178 177/177/177 175/175/175
f 181/181/181 180/180/180 179/179/179
f 182/182/182 181/181/181 179/179/179
f 185/185/185 184/184/184 183/183/183
f 186/186/186 185/185/185 183/183/183
