g flag-big
v -0.026067805 2 -0.015050251
v -0 2.05 0
v -0.026067805 2 0.015050254
v 0.026067805 2 0.015050251
v -0 2.05 0
v 0.026067805 2 -0.015050251
v -0.026067805 2 0.015050254
v -0 2.05 0
v 2.2920328E-09 2 0.030100508
v -1.0087072E-09 2 -0.030100508
v -0 2.05 0
v -0.026067805 2 -0.015050251
v 0.026067805 2 -0.015050251
v -0 2.05 0
v -1.0087072E-09 2 -0.030100508
v 2.2920328E-09 2 0.030100508
v -0 2.05 0
v 0.026067805 2 0.015050251
v -1.0087072E-09 0 -0.030100508
v 0.026067805 0 -0.015050251
v 0.026067805 2 -0.015050251
v -1.0087072E-09 2 -0.030100508
v 0.026067805 0 0.015050251
v 2.2920328E-09 0 0.030100508
v 2.2920328E-09 2 0.030100508
v 0.026067805 2 0.015050251
v -0.026067805 0 0.015050254
v -0.026067805 0 -0.015050251
v -0.026067805 2 -0.015050251
v -0.026067805 2 0.015050254
v 0.026067805 0 -0.015050251
v 0.026067805 0 0.015050251
v 0.026067805 2 0.015050251
v 0.026067805 2 -0.015050251
v 2.2920328E-09 0 0.030100508
v -0.026067805 0 0.015050254
v -0.026067805 2 0.015050254
v 2.2920328E-09 2 0.030100508
v -0.026067805 0 -0.015050251
v -1.0087072E-09 0 -0.030100508
v -1.0087072E-09 2 -0.030100508
v -0.026067805 2 -0.015050251
v 0.026067805 0 -0.015050251
v -1.0087072E-09 0 -0.030100508
v -0.026067805 0 -0.015050251
v 0.026067805 0 0.015050251
v -0.026067805 0 0.015050254
v 2.2920328E-09 0 0.030100508
v -0.77966213 1.1769537 -0.050654903
v -1.160726 1.2106135 0.016172582
v -1.1957847 1.9795986 0.016172582
v -0.8042616 1.9494076 -0.050654903
v -0.021215476 1.1702445 0.016172582
v -0.34811366 1.2272722 0.005270192
v -0.39060217 1.9795986 0.005270192
v -0.021215476 1.9795986 0.016172582
v -0.34811366 1.2272722 0.005270192
v -0.77966213 1.1769537 -0.050654903
v -0.8042616 1.9494076 -0.050654903
v -0.39060217 1.9795986 0.005270192
v -0.77966213 1.1769537 -0.050654903
v -0.8042616 1.9494076 -0.050654903
v -1.1957847 1.9795986 0.016172582
v -1.160726 1.2106135 0.016172582
v -0.021215476 1.1702445 0.016172582
v -0.021215476 1.9795986 0.016172582
v -0.39060217 1.9795986 0.005270192
v -0.34811366 1.2272722 0.005270192
v -0.34811366 1.2272722 0.005270192
v -0.39060217 1.9795986 0.005270192
v -0.8042616 1.9494076 -0.050654903
v -0.77966213 1.1769537 -0.050654903
vt 0.45258027 0.73862034
vt 0.4557889 0.74206984
vt 0.4542251 0.7380347
vt 0.45733404 0.7380253
vt 0.4557889 0.74206984
vt 0.4589875 0.7386034
vt 0.4542251 0.7380347
vt 0.4557889 0.74206984
vt 0.45577833 0.7378601
vt 0.45076406 0.7398937
vt 0.4557889 0.74206984
vt 0.45258027 0.73862034
vt 0.4589875 0.7386034
vt 0.4557889 0.74206984
vt 0.46082258 0.739878
vt 0.45577833 0.7378601
vt 0.4557889 0.74206984
vt 0.45733404 0.7380253
vt 0.4612649 0.6411007
vt 0.45954078 0.64109504
vt 0.4589875 0.7386034
vt 0.46082258 0.739878
vt 0.4576742 0.64109164
vt 0.4558104 0.64109164
vt 0.45577833 0.7378601
vt 0.45733404 0.7380253
vt 0.45394695 0.6410949
vt 0.45208296 0.6411015
vt 0.45258027 0.73862034
vt 0.4542251 0.7380347
vt 0.45954078 0.64109504
vt 0.4576742 0.64109164
vt 0.45733404 0.7380253
vt 0.4589875 0.7386034
vt 0.4558104 0.64109164
vt 0.45394695 0.6410949
vt 0.4542251 0.7380347
vt 0.45577833 0.7378601
vt 0.45208296 0.6411015
vt 0.45021605 0.6411113
vt 0.45076406 0.7398937
vt 0.45258027 0.73862034
vt 0.4586061 0.6394776
vt 0.45767424 0.6378635
vt 0.45581043 0.6378635
vt 0.4576742 0.64109164
vt 0.4548785 0.6394776
vt 0.4558104 0.64109164
vt 0.19569778 0.5249243
vt 0.17567748 0.52665263
vt 0.17386399 0.56644404
vt 0.19441745 0.5648949
vt 0.23513883 0.5245873
vt 0.21821398 0.5275381
vt 0.21601635 0.5664676
vt 0.23513873 0.5664676
vt 0.21821398 0.5275381
vt 0.19569778 0.5249243
vt 0.19441745 0.5648949
vt 0.21601635 0.5664676
vt 0.17325896 0.5640283
vt 0.13328831 0.5653087
vt 0.13173917 0.58586216
vt 0.17153057 0.5840486
vt 0.17359594 0.5245873
vt 0.13171569 0.52458733
vt 0.13171569 0.54370975
vt 0.1706451 0.54151213
vt 0.1706451 0.54151213
vt 0.13171569 0.54370975
vt 0.13328831 0.5653087
vt 0.17325896 0.5640283
vn -0.88672495 0.46229735 0
vn -0.88672495 0.46229735 0
vn -0.88672495 0.46229735 0
vn 0.88672495 0.4622973 0
vn 0.88672495 0.4622973 0
vn 0.88672495 0.4622973 0
vn -0.44336388 0.46229884 0.76792467
vn -0.44336388 0.46229884 0.76792467
vn -0.44336388 0.46229884 0.76792467
vn -0.4433639 0.46229884 -0.7679246
vn -0.4433639 0.46229884 -0.7679246
vn -0.4433639 0.46229884 -0.7679246
vn 0.4433639 0.46229884 -0.7679246
vn 0.4433639 0.46229884 -0.7679246
vn 0.4433639 0.46229884 -0.7679246
vn 0.443364 0.4622989 0.7679246
vn 0.443364 0.4622989 0.7679246
vn 0.443364 0.4622989 0.7679246
vn 0.5 0 -0.86602545
vn 0.5 0 -0.86602545
vn 0.5 0 -0.86602545
vn 0.5 0 -0.86602545
vn 0.5000001 0 0.8660253
vn 0.5000001 0 0.8660253
vn 0.5000001 0 0.8660253
vn 0.5000001 0 0.8660253
vn -1 0 0
vn -1 0 0
vn -1 0 0
vn -1 0 0
vn 1 0 0
vn 1 0 0
vn 1 0 0
vn 1 0 0
vn -0.49999997 0 0.86602545
vn -0.49999997 0 0.86602545
vn -0.49999997 0 0.86602545
vn -0.49999997 0 0.86602545
vn -0.5000001 0 -0.8660253
vn -0.5000001 0 -0.8660253
vn -0.5000001 0 -0.8660253
vn -0.5000001 0 -0.8660253
vn -0 -1 0
vn -0 -1 0
vn -0 -1 0
vn -0 -1 0
vn -0 -1 0
vn -0 -1 0
vn 0.17099196 0.006617892 0.9852503
vn 0.17099196 0.006617892 0.9852503
vn 0.17099196 0.006617892 0.9852503
vn 0.17099196 0.006617892 0.9852503
vn -0.031370364 -0.00085349154 0.99950755
vn -0.031370364 -0.00085349154 0.99950755
vn -0.031370364 -0.00085349154 0.99950755
vn -0.031370364 -0.00085349154 0.99950755
vn -0.13065042 -0.005748422 0.9914118
vn -0.13065042 -0.005748422 0.9914118
vn -0.13065042 -0.005748422 0.9914118
vn -0.13065042 -0.005748422 0.9914118
vn -0.17099194 -0.00661789 -0.9852503
vn -0.17099194 -0.00661789 -0.9852503
vn -0.17099194 -0.00661789 -0.9852503
vn -0.17099194 -0.00661789 -0.9852503
vn 0.031370364 0.00085349183 -0.99950755
vn 0.031370364 0.00085349183 -0.99950755
vn 0.031370364 0.00085349183 -0.99950755
vn 0.031370364 0.00085349183 -0.99950755
vn 0.13065042 0.0057484233 -0.9914118
vn 0.13065042 0.0057484233 -0.9914118
vn 0.13065042 0.0057484233 -0.9914118
vn 0.13065042 0.0057484233 -0.9914118
g flag-big_0
f 3/3/3 2/2/2 1/1/1
f 6/6/6 5/5/5 4/4/4
f 9/9/9 8/8/8 7/7/7
f 12/12/12 11/11/11 10/10/10
f 15/15/15 14/14/14 13/13/13
f 18/18/18 17/17/17 16/16/16
f 21/21/21 20/20/20 19/19/19
f 22/22/22 21/21/21 19/19/19
f 25/25/25 24/24/24 23/23/23
f 26/26/26 25/25/25 23/23/23
f 29/29/29 28/28/28 27/27/27
f 30/30/30 29/29/29 27/27/27
f 33/33/33 32/32/32 31/31/31
f 34/34/34 33/33/33 31/31/31
f 37/37/37 36/36/36 35/35/35
f 38/38/38 37/37/37 35/35/35
f 41/41/41 40/40/40 39/39/39
f 42/42/42 41/41/41 39/39/39
f 45/45/45 44/44/44 43/43/43
f 43/43/43 46/46/46 45/45/45
f 46/46/46 47/47/47 45/45/45
f 46/46/46 48/48/48 47/47/47
f 51/51/51 50/50/50 49/49/49
f 52/52/52 51/51/51 49/49/49
f 55/55/55 54/54/54 53/53/53
f 56/56/56 55/55/55 53/53/53
f 59/59/59 58/58/58 57/57/57
f 60/60/60 59/59/59 57/57/57
f 63/63/63 62/62/62 61/61/61
f 64/64/64 63/63/63 61/61/61
f 67/67/67 66/66/66 65/65/65
f 68/68/68 67/67/67 65/65/65
f 71/71/71 70/70/70 69/69/69
f 72/72/72 71/71/71 69/69/69
