g japan-flag_big
v 0.0022741437 4.4974933 -0.10840584
v -0.42695507 4.5678854 -0.06564497
v -0.42695507 4.4974933 -0.1084058
v 0.0022741475 4.5678854 -0.06564502
v 0.43150336 4.4974933 -0.10840588
v 0.43150336 4.5678854 -0.06564505
v 0.0022740907 1.791324 -0.09470725
v 0.43150336 1.5686773 -0.10381651
v 0.43150336 2.832801 -0.08922159
v 0.002274144 2.832801 -0.08922155
v -0.42695507 2.832801 -0.08922151
v -0.42695507 1.5686773 -0.10381645
v -0.42695507 3.8927748 -0.09643236
v 0.007822623 3.8927748 -0.096432395
v -0.42695507 4.4974933 -0.1084058
v 0.43150336 3.8927748 -0.09643245
v 0.0022741437 4.4974933 -0.10840584
v 0.43150336 4.4974933 -0.10840588
v 0.0022741437 4.4974933 -0.10840584
v -0.42695507 4.4974933 -0.1084058
v -0.42695507 4.5678854 -0.06564497
v 0.0022741475 4.5678854 -0.06564502
v 0.43150336 4.4974933 -0.10840588
v 0.43150336 4.5678854 -0.06564505
v 0.0022740907 1.791324 -0.09470725
v 0.43150336 2.832801 -0.08922159
v 0.43150336 1.5686773 -0.10381651
v 0.002274144 2.832801 -0.08922155
v -0.42695507 2.832801 -0.08922151
v -0.42695507 1.5686773 -0.10381645
v -0.42695507 3.8927748 -0.09643236
v 0.007822623 3.8927748 -0.096432395
v -0.42695507 4.4974933 -0.1084058
v 0.43150336 3.8927748 -0.09643245
v 0.0022741437 4.4974933 -0.10840584
v 0.43150336 4.4974933 -0.10840588
v 0.42695528 4.4746537 0.01326763
v 0.42695528 4.4455013 -0.054812096
v -0.42695507 4.4455013 -0.05481199
v -0.42695507 4.4746537 0.013267735
v 0.42695528 4.501241 -0.103575446
v 0.42695528 4.564842 -0.06563283
v -0.42695507 4.564842 -0.06563272
v -0.42695507 4.501241 -0.10357534
v 0.42695528 4.54841 0.0065804073
v 0.42695528 4.4746537 0.01326763
v -0.42695507 4.4746537 0.013267735
v -0.42695507 4.54841 0.0065805116
v 0.42695528 4.4455013 -0.054812096
v 0.42695528 4.501241 -0.103575446
v -0.42695507 4.501241 -0.10357534
v -0.42695507 4.4455013 -0.05481199
v 0.42695528 4.564842 -0.06563283
v 0.42695528 4.54841 0.0065804073
v -0.42695507 4.54841 0.0065805116
v -0.42695507 4.564842 -0.06563272
v -0.42695507 4.4746537 0.013267735
v -0.42695507 4.4455013 -0.05481199
v -0.42695507 4.501241 -0.10357534
v -0.42695507 4.54841 0.0065805116
v -0.42695507 4.564842 -0.06563272
v 0.42695528 4.501241 -0.103575446
v 0.42695528 4.4455013 -0.054812096
v 0.42695528 4.4746537 0.01326763
v 0.42695528 4.54841 0.0065804073
v 0.42695528 4.564842 -0.06563283
v 0.050000113 -3.5811227E-05 0.0021030267
v -0.049999893 -3.5811227E-05 0.0021031906
v -0.04999989 -3.5821E-05 0.062103193
v 0.050000116 -3.5821E-05 0.062103022
v 0.050000116 4.8999643 0.062103834
v 0.050000113 4.8999643 0.0021038402
v 0.050000113 -3.5811227E-05 0.0021030267
v 0.050000116 -3.5821E-05 0.062103022
v 0.050000113 4.8999643 0.0021038402
v 0.050000116 4.8999643 0.062103834
v -0.04999989 4.8999643 0.062104005
v -0.049999893 4.8999643 0.0021040041
v 0.050000113 4.8999643 0.0021038402
v -0.049999893 4.8999643 0.0021040041
v -0.049999893 -3.5811227E-05 0.0021031906
v 0.050000113 -3.5811227E-05 0.0021030267
v -0.049999893 4.8999643 0.0021040041
v -0.04999989 4.8999643 0.062104005
v -0.04999989 -3.5821E-05 0.062103193
v -0.049999893 -3.5811227E-05 0.0021031906
v -0.04999989 4.8999643 0.062104005
v 0.050000116 4.8999643 0.062103834
v 0.050000116 -3.5821E-05 0.062103022
v -0.04999989 -3.5821E-05 0.062103193
vt 0.02666068 0.1331613
vt 0.0013775032 0.2649262
vt 0.026661182 0.2649262
vt 0.0013775032 0.1331613
vt 0.026660556 0.0013969163
vt 0.001377378 0.0013969163
vt 0.85744846 0.13316081
vt 0.92581767 0.001377378
vt 0.53773177 0.0013964154
vt 0.5377319 0.13316081
vt 0.5377319 0.26492518
vt 0.9258178 0.26494423
vt 0.2123335 0.2649257
vt 0.2123335 0.13145846
vt 0.026661182 0.2649262
vt 0.21233338 0.0013969163
vt 0.02666068 0.1331613
vt 0.026660556 0.0013969163
vt 0.026660556 0.39948294
vt 0.026661057 0.5312478
vt 0.001377378 0.5312478
vt 0.001377378 0.39948294
vt 0.026660556 0.26771852
vt 0.001377378 0.26771852
vt 0.85744834 0.39948243
vt 0.53773177 0.26771802
vt 0.92581767 0.26769897
vt 0.53773177 0.39948243
vt 0.53773177 0.53124684
vt 0.92581767 0.53126585
vt 0.21233338 0.5312473
vt 0.21233338 0.3977801
vt 0.026661057 0.5312478
vt 0.21233338 0.26771852
vt 0.026660556 0.39948294
vt 0.026660556 0.26771852
vt 0.061564635 0.730665
vt 0.0766107 0.730665
vt 0.0766107 0.55717516
vt 0.061564136 0.55717516
vt 0.016424444 0.7306648
vt 0.031471007 0.730665
vt 0.031471007 0.55717516
vt 0.016424444 0.55717486
vt 0.046518575 0.730665
vt 0.061564635 0.730665
vt 0.061564136 0.55717516
vt 0.046517573 0.55717516
vt 0.001377879 0.7306648
vt 0.016424444 0.7306648
vt 0.016424444 0.55717486
vt 0.001377378 0.55717486
vt 0.031471007 0.730665
vt 0.046518575 0.730665
vt 0.046517573 0.55717516
vt 0.031471007 0.55717516
vt 0.061564136 0.55717516
vt 0.0766107 0.55717516
vt 0.08126034 0.5428645
vt 0.0569145 0.54286504
vt 0.06908792 0.53402066
vt 0.08126084 0.74497515
vt 0.0766107 0.730665
vt 0.061564635 0.730665
vt 0.0569145 0.74497515
vt 0.06908692 0.753819
vt 0.9635973 0.012705636
vt 0.9447167 0.012705636
vt 0.9447167 0.001377378
vt 0.9635973 0.001377378
vt 0.97974503 0.93778026
vt 0.96360135 0.9376961
vt 0.9635973 0.012705636
vt 0.97974104 0.012790052
vt 0.96360135 0.9376961
vt 0.9636008 0.94902235
vt 0.9447237 0.94902235
vt 0.9447237 0.9376961
vt 0.96360135 0.9376961
vt 0.9447237 0.9376961
vt 0.9447167 0.012705636
vt 0.9635973 0.012705636
vt 0.9447237 0.9376961
vt 0.9285795 0.9376122
vt 0.9285725 0.012621721
vt 0.9447167 0.012705636
vt 0.99862266 0.93778
vt 0.97974503 0.93778026
vt 0.97974104 0.012790052
vt 0.99862266 0.012790052
vn -2.9659452E-07 0.5191799 -0.854665
vn -2.9659452E-07 0.5191799 -0.854665
vn -2.9659452E-07 0.5191799 -0.854665
vn -2.9659452E-07 0.5191799 -0.854665
vn -0 0.51917994 -0.8546649
vn -0 0.51917994 -0.8546649
vn -0.008351764 0.008708866 -0.99992716
vn -0.008351764 0.008708866 -0.99992716
vn -0.008351764 0.008708866 -0.99992716
vn -0.008351764 0.008708866 -0.99992716
vn -1.03425144E-07 -0.0068027037 -0.9999769
vn 0.008351591 0.008708868 -0.99992716
vn -1.03425144E-07 -0.0068027037 -0.9999769
vn -1.03425144E-07 -0.0068027037 -0.9999769
vn -0 -0.019796161 -0.9998041
vn -1.0477077E-07 -0.0068027023 -0.9999769
vn -1.0066452E-07 -0.019796148 -0.9998041
vn -1.0066452E-07 -0.019796148 -0.9998041
vn 4.2150486E-07 -0.5191799 0.854665
vn 4.2150486E-07 -0.5191799 0.854665
vn 4.2150486E-07 -0.5191799 0.854665
vn 4.2150486E-07 -0.5191799 0.854665
vn -0 -0.51917994 0.8546649
vn -0 -0.51917994 0.8546649
vn 0.008351764 -0.008708866 0.99992716
vn 0.008351764 -0.008708866 0.99992716
vn 0.008351764 -0.008708866 0.99992716
vn 0.008351764 -0.008708866 0.99992716
vn 1.01689885E-07 0.0068027037 0.9999769
vn -0.008351591 -0.008708868 0.99992716
vn 1.01689885E-07 0.0068027037 0.9999769
vn 1.01689885E-07 0.0068027037 0.9999769
vn -0 0.019796161 0.9998041
vn 1.0301294E-07 0.0068027047 0.9999769
vn 1.01099E-07 0.01979615 0.9998041
vn 1.01099E-07 0.01979615 0.9998041
vn 2.0770584E-07 -0.91926545 0.39363828
vn 2.0770584E-07 -0.91926545 0.39363828
vn 2.0770584E-07 -0.91926545 0.39363828
vn 2.0770584E-07 -0.91926545 0.39363828
vn -0 0.5123298 -0.8587887
vn -0 0.5123298 -0.8587887
vn -0 0.5123298 -0.8587887
vn -0 0.5123298 -0.8587887
vn 1.301678E-07 0.09029619 0.995915
vn 1.301678E-07 0.09029619 0.995915
vn 1.301678E-07 0.09029619 0.995915
vn 1.301678E-07 0.09029619 0.995915
vn -0 -0.6584355 -0.75263727
vn -0 -0.6584355 -0.75263727
vn -0 -0.6584355 -0.75263727
vn -0 -0.6584355 -0.75263727
vn -0 0.97507393 0.22188029
vn -0 0.97507393 0.22188029
vn -0 0.97507393 0.22188029
vn -0 0.97507393 0.22188029
vn -1 0 2.960832E-07
vn -1 0 2.960832E-07
vn -1 0 2.960832E-07
vn -1 0 2.960832E-07
vn -1 0 2.960832E-07
vn 1 0 1.9738972E-07
vn 1 0 1.9738972E-07
vn 1 0 1.9738972E-07
vn 1 0 1.9738972E-07
vn 1 0 1.9738972E-07
vn -0 -1 -1.629208E-07
vn -0 -1 -1.629208E-07
vn -0 -1 -1.629208E-07
vn -0 -1 -1.629208E-07
vn 1 0 0
vn 1 0 0
vn 1 0 0
vn 1 0 0
vn 4.098837E-06 1 0
vn 4.098837E-06 1 0
vn 4.098837E-06 1 0
vn 4.098837E-06 1 0
vn -1.6391278E-06 1.6601061E-07 -1
vn -1.6391278E-06 1.6601061E-07 -1
vn -1.6391278E-06 1.6601061E-07 -1
vn -1.6391278E-06 1.6601061E-07 -1
vn -1 0 1.01368435E-07
vn -1 0 1.01368435E-07
vn -1 0 1.01368435E-07
vn -1 0 1.01368435E-07
vn 1.7136337E-06 -1.6535726E-07 1
vn 1.7136337E-06 -1.6535726E-07 1
vn 1.7136337E-06 -1.6535726E-07 1
vn 1.7136337E-06 -1.6535726E-07 1
g japan-flag_big_0
f 3/3/3 2/2/2 1/1/1
f 2/2/2 4/4/4 1/1/1
f 1/1/1 4/4/4 5/5/5
f 4/4/4 6/6/6 5/5/5
f 9/9/9 8/8/8 7/7/7
f 10/10/10 9/9/9 7/7/7
f 11/11/11 10/10/10 7/7/7
f 12/12/12 11/11/11 7/7/7
f 11/11/11 13/13/13 10/10/10
f 10/10/10 14/14/14 9/9/9
f 13/13/13 14/14/14 10/10/10
f 13/13/13 15/15/15 14/14/14
f 14/14/14 16/16/16 9/9/9
f 15/15/15 17/17/17 14/14/14
f 14/14/14 17/17/17 16/16/16
f 17/17/17 18/18/18 16/16/16
f 21/21/21 20/20/20 19/19/19
f 22/22/22 21/21/21 19/19/19
f 22/22/22 19/19/19 23/23/23
f 24/24/24 22/22/22 23/23/23
f 27/27/27 26/26/26 25/25/25
f 26/26/26 28/28/28 25/25/25
f 28/28/28 29/29/29 25/25/25
f 29/29/29 30/30/30 25/25/25
f 31/31/31 29/29/29 28/28/28
f 32/32/32 28/28/28 26/26/26
f 32/32/32 31/31/31 28/28/28
f 33/33/33 31/31/31 32/32/32
f 34/34/34 32/32/32 26/26/26
f 35/35/35 33/33/33 32/32/32
f 35/35/35 32/32/32 34/34/34
f 36/36/36 35/35/35 34/34/34
g japan-flag_big_1
f 39/39/39 38/38/38 37/37/37
f 40/40/40 39/39/39 37/37/37
f 43/43/43 42/42/42 41/41/41
f 44/44/44 43/43/43 41/41/41
f 47/47/47 46/46/46 45/45/45
f 48/48/48 47/47/47 45/45/45
f 51/51/51 50/50/50 49/49/49
f 52/52/52 51/51/51 49/49/49
f 55/55/55 54/54/54 53/53/53
f 56/56/56 55/55/55 53/53/53
f 59/59/59 58/58/58 57/57/57
f 57/57/57 60/60/60 59/59/59
f 60/60/60 61/61/61 59/59/59
f 64/64/64 63/63/63 62/62/62
f 62/62/62 65/65/65 64/64/64
f 62/62/62 66/66/66 65/65/65
f 69/69/69 68/68/68 67/67/67
f 70/70/70 69/69/69 67/67/67
f 73/73/73 72/72/72 71/71/71
f 74/74/74 73/73/73 71/71/71
f 77/77/77 76/76/76 75/75/75
f 78/78/78 77/77/77 75/75/75
f 81/81/81 80/80/80 79/79/79
f 82/82/82 81/81/81 79/79/79
f 85/85/85 84/84/84 83/83/83
f 86/86/86 85/85/85 83/83/83
f 89/89/89 88/88/88 87/87/87
f 90/90/90 89/89/89 87/87/87
