g lunar-rover-base_FR
v -0.927413 0.41159493 0.69836533
v -0.927413 0.38727352 0.865284
v -0.927413 0.2800937 0.88418263
v -0.927413 0.19023602 0.73739684
v -0.927413 0.04575422 1.1343573
v -0.927413 0.2800937 1.1597581
v -0.927413 0.19023599 1.3065438
v -0.927413 0.21013705 1.076387
v -0.927413 0.04575422 0.9095834
v -0.927413 0.21013705 0.9675537
v -0.927413 0.60625476 1.2331887
v -0.927413 0.48152587 1.1242403
v -0.927413 0.518749 1.0219704
v -0.927413 0.68313175 1.0219704
v -0.927413 0.6062547 0.81075215
v -0.927413 0.48152584 0.9197005
v -0.927413 0.38727352 0.865284
v -0.927413 0.41159493 0.69836533
v -0.927413 0.41159493 1.3455753
v -0.927413 0.38727352 1.1786568
v -0.927413 0.48152587 1.1242403
v -0.927413 0.60625476 1.2331887
v -0.927413 0.68313175 1.0219704
v -0.927413 0.518749 1.0219704
v -0.927413 0.48152584 0.9197005
v -0.927413 0.6062547 0.81075215
v -0.927413 0.19023602 0.73739684
v -0.927413 0.2800937 0.88418263
v -0.927413 0.21013705 0.9675537
v -0.927413 0.04575422 0.9095834
v -0.927413 0.19023599 1.3065438
v -0.927413 0.2800937 1.1597581
v -0.927413 0.38727352 1.1786568
v -0.927413 0.41159493 1.3455753
v -0.927413 0.48152584 0.9197005
v -0.90649116 0.44067538 0.95538265
v -0.90649116 0.3793079 0.9199522
v -0.927413 0.38727352 0.865284
v -0.927413 0.21013705 0.9675537
v -0.90649116 0.26397473 0.98653984
v -0.90649116 0.26397473 1.057401
v -0.927413 0.21013705 1.076387
v -0.927413 0.38727352 1.1786568
v -0.90649116 0.3793079 1.1239886
v -0.90649116 0.4406754 1.0885581
v -0.927413 0.48152587 1.1242403
v -0.927413 0.518749 1.0219704
v -0.90649116 0.4649113 1.0219704
v -0.90649116 0.44067538 0.95538265
v -0.927413 0.48152584 0.9197005
v -0.927413 0.2800937 0.88418263
v -0.90649116 0.30952334 0.93225706
v -0.90649116 0.26397473 0.98653984
v -0.927413 0.21013705 0.9675537
v -0.927413 0.2800937 1.1597581
v -0.90649116 0.30952334 1.1116836
v -0.90649116 0.3793079 1.1239886
v -0.927413 0.38727352 1.1786568
v -0.927413 0.38727352 0.865284
v -0.90649116 0.3793079 0.9199522
v -0.90649116 0.30952334 0.93225706
v -0.927413 0.2800937 0.88418263
v -0.927413 0.21013705 1.076387
v -0.90649116 0.26397473 1.057401
v -0.90649116 0.30952334 1.1116836
v -0.927413 0.2800937 1.1597581
v -0.927413 0.48152587 1.1242403
v -0.90649116 0.4406754 1.0885581
v -0.90649116 0.4649113 1.0219704
v -0.927413 0.518749 1.0219704
v -0.90649116 0.4649113 1.0219704
v -0.90649116 0.3793079 0.9199522
v -0.90649116 0.44067538 0.95538265
v -0.90649116 0.30952334 0.93225706
v -0.90649116 0.26397473 0.98653984
v -0.90649116 0.26397473 1.057401
v -0.90649116 0.30952334 1.1116836
v -0.90649116 0.4406754 1.0885581
v -0.90649116 0.3793079 1.1239886
v -0.8237331 0.626694 1.2510421
v -0.8237331 0.7100692 1.0219704
v -0.72005326 0.68313175 1.0219704
v -0.72005326 0.60625476 1.2331887
v -0.82373303 0.62669396 0.7928988
v -0.82373303 0.4155805 0.6710124
v -0.72005314 0.411595 0.69836533
v -0.72005314 0.6062547 0.81075215
v -0.82373303 0.018816888 0.90008384
v -0.82373303 0.018816888 1.1438568
v -0.72005314 0.04575422 1.1343573
v -0.7200531 0.04575422 0.9095834
v -0.8237331 0.4155805 1.3729283
v -0.8237331 0.626694 1.2510421
v -0.72005326 0.60625476 1.2331887
v -0.72005326 0.411595 1.3455753
v -0.8237331 0.7100692 1.0219704
v -0.82373303 0.62669396 0.7928988
v -0.72005314 0.6062547 0.81075215
v -0.72005326 0.68313175 1.0219704
v -0.82373303 0.17551105 0.713343
v -0.82373303 0.018816888 0.90008384
v -0.7200531 0.04575422 0.9095834
v -0.7200531 0.19023599 0.73739684
v -0.82373303 0.17551102 1.3305976
v -0.8237331 0.4155805 1.3729283
v -0.72005326 0.411595 1.3455753
v -0.72005314 0.19023597 1.3065438
v -0.82373303 0.4155805 0.6710124
v -0.82373303 0.17551105 0.713343
v -0.7200531 0.19023599 0.73739684
v -0.72005314 0.411595 0.69836533
v -0.82373303 0.018816888 1.1438568
v -0.82373303 0.17551102 1.3305976
v -0.72005314 0.19023597 1.3065438
v -0.72005314 0.04575422 1.1343573
v -0.927413 0.04575422 1.1343573
v -0.927413 0.19023599 1.3065438
v -0.82373303 0.17551102 1.3305976
v -0.82373303 0.018816888 1.1438568
v -0.927413 0.41159493 0.69836533
v -0.927413 0.19023602 0.73739684
v -0.82373303 0.17551105 0.713343
v -0.82373303 0.4155805 0.6710124
v -0.927413 0.19023599 1.3065438
v -0.927413 0.41159493 1.3455753
v -0.8237331 0.4155805 1.3729283
v -0.82373303 0.17551102 1.3305976
v -0.927413 0.19023602 0.73739684
v -0.927413 0.04575422 0.9095834
v -0.82373303 0.018816888 0.90008384
v -0.82373303 0.17551105 0.713343
v -0.927413 0.68313175 1.0219704
v -0.927413 0.6062547 0.81075215
v -0.82373303 0.62669396 0.7928988
v -0.8237331 0.7100692 1.0219704
v -0.927413 0.41159493 1.3455753
v -0.927413 0.60625476 1.2331887
v -0.8237331 0.626694 1.2510421
v -0.8237331 0.4155805 1.3729283
v -0.927413 0.04575422 0.9095834
v -0.927413 0.04575422 1.1343573
v -0.82373303 0.018816888 1.1438568
v -0.82373303 0.018816888 0.90008384
v -0.927413 0.6062547 0.81075215
v -0.927413 0.41159493 0.69836533
v -0.82373303 0.4155805 0.6710124
v -0.82373303 0.62669396 0.7928988
v -0.927413 0.60625476 1.2331887
v -0.927413 0.68313175 1.0219704
v -0.8237331 0.7100692 1.0219704
v -0.8237331 0.626694 1.2510421
v -0.7200531 0.19023599 0.73739684
v -0.7200531 0.04575422 0.9095834
v -0.72005314 0.04575422 1.1343573
v -0.72005314 0.19023597 1.3065438
v -0.72005326 0.411595 1.3455753
v -0.72005314 0.411595 0.69836533
v -0.72005314 0.6062547 0.81075215
v -0.72005326 0.60625476 1.2331887
v -0.72005326 0.68313175 1.0219704
vt 0.1066025 0.73009646
vt 0.104633965 0.73238707
vt 0.10600225 0.7342425
vt 0.108897634 0.7325929
vt 0.09091591 0.73450226
vt 0.09537796 0.7335236
vt 0.09286953 0.73144007
vt 0.09429226 0.73569936
vt 0.089883156 0.73896086
vt 0.09409117 0.7382481
vt 0.09822563 0.7281635
vt 0.0989299 0.7308524
vt 0.10093335 0.73046094
vt 0.101101555 0.72793293
vt 0.103924595 0.7285437
vt 0.10286638 0.7311133
vt 0.104633965 0.73238707
vt 0.1066025 0.73009646
vt 0.095384695 0.7293372
vt 0.097004324 0.7318794
vt 0.0989299 0.7308524
vt 0.09822563 0.7281635
vt 0.101101555 0.72793293
vt 0.10093335 0.73046094
vt 0.10286638 0.7311133
vt 0.103924595 0.7285437
vt 0.108897634 0.7325929
vt 0.10600225 0.7342425
vt 0.10666231 0.736591
vt 0.110744715 0.73653865
vt 0.09286953 0.73144007
vt 0.09537796 0.7335236
vt 0.097004324 0.7318794
vt 0.095384695 0.7293372
vt 0.48436356 0.7317233
vt 0.48394585 0.7327852
vt 0.48498932 0.7336554
vt 0.48601204 0.7331157
vt 0.48529643 0.7370947
vt 0.4845443 0.7361795
vt 0.48325834 0.73664117
vt 0.48327827 0.7378304
vt 0.48016614 0.73523796
vt 0.48129755 0.7349951
vt 0.48153895 0.7336588
vt 0.4805373 0.7331128
vt 0.48219758 0.7317233
vt 0.48258686 0.7327953
vt 0.48394585 0.7327852
vt 0.48436356 0.7317233
vt 0.48637497 0.7352378
vt 0.48522466 0.7349953
vt 0.4845443 0.7361795
vt 0.48529643 0.7370947
vt 0.48125088 0.7371011
vt 0.4819768 0.7361739
vt 0.48129755 0.7349951
vt 0.48016614 0.73523796
vt 0.48601204 0.7331157
vt 0.48498932 0.7336554
vt 0.48522466 0.7349953
vt 0.48637497 0.7352378
vt 0.48327827 0.7378304
vt 0.48325834 0.73664117
vt 0.4819768 0.7361739
vt 0.48125088 0.7371011
vt 0.4805373 0.7331128
vt 0.48153895 0.7336588
vt 0.48258686 0.7327953
vt 0.48219758 0.7317233
vt 0.48258686 0.7327953
vt 0.48498932 0.7336554
vt 0.48394585 0.7327852
vt 0.48522466 0.7349953
vt 0.4845443 0.7361795
vt 0.48325834 0.73664117
vt 0.4819768 0.7361739
vt 0.48153895 0.7336588
vt 0.48129755 0.7349951
vt 0.097807266 0.72667086
vt 0.10120445 0.72638345
vt 0.101311475 0.7247587
vt 0.09745499 0.7249471
vt 0.10453764 0.72711647
vt 0.1076754 0.72884387
vt 0.1087628 0.72731036
vt 0.10511175 0.7254509
vt 0.087416776 0.73844945
vt 0.08918577 0.73368216
vt 0.08727694 0.7326005
vt 0.085162155 0.73728263
vt 0.09449021 0.72796816
vt 0.097807266 0.72667086
vt 0.09745499 0.7249471
vt 0.09360079 0.7263211
vt 0.10120445 0.72638345
vt 0.10453764 0.72711647
vt 0.10511175 0.7254509
vt 0.101311475 0.7247587
vt 0.11039784 0.7316038
vt 0.11285771 0.7355836
vt 0.11467426 0.7341295
vt 0.11195284 0.73028207
vt 0.091522746 0.7303222
vt 0.09449021 0.72796816
vt 0.09360079 0.7263211
vt 0.09010617 0.7289075
vt 0.1076754 0.72884387
vt 0.11039784 0.7316038
vt 0.11195284 0.73028207
vt 0.1087628 0.72731036
vt 0.08918577 0.73368216
vt 0.091522746 0.7303222
vt 0.09010617 0.7289075
vt 0.08727694 0.7326005
vt 0.09091591 0.73450226
vt 0.09286953 0.73144007
vt 0.091522746 0.7303222
vt 0.08918577 0.73368216
vt 0.1066025 0.73009646
vt 0.108897634 0.7325929
vt 0.11039784 0.7316038
vt 0.1076754 0.72884387
vt 0.09286953 0.73144007
vt 0.095384695 0.7293372
vt 0.09449021 0.72796816
vt 0.091522746 0.7303222
vt 0.108897634 0.7325929
vt 0.110744715 0.73653865
vt 0.11285771 0.7355836
vt 0.11039784 0.7316038
vt 0.101101555 0.72793293
vt 0.103924595 0.7285437
vt 0.10453764 0.72711647
vt 0.10120445 0.72638345
vt 0.095384695 0.7293372
vt 0.09822563 0.7281635
vt 0.097807266 0.72667086
vt 0.09449021 0.72796816
vt 0.089883156 0.73896086
vt 0.09091591 0.73450226
vt 0.08918577 0.73368216
vt 0.087416776 0.73844945
vt 0.103924595 0.7285437
vt 0.1066025 0.73009646
vt 0.1076754 0.72884387
vt 0.10453764 0.72711647
vt 0.09822563 0.7281635
vt 0.101101555 0.72793293
vt 0.10120445 0.72638345
vt 0.097807266 0.72667086
vt 0.08053253 0.73951
vt 0.085162155 0.73728263
vt 0.08727694 0.7326005
vt 0.08588729 0.7276544
vt 0.081643514 0.7247587
vt 0.07555426 0.7382404
vt 0.07255679 0.7340679
vt 0.07653126 0.7252683
vt 0.07294264 0.72894484
vn -1 0 -2.7888967E-07
vn -1 0 -2.7888967E-07
vn -1 0 -2.7888967E-07
vn -1 0 -2.7888967E-07
vn -1 0 0
vn -1 0 0
vn -1 0 0
vn -1 0 0
vn -1 0 0
vn -1 0 0
vn -1 -3.6259678E-07 -2.8916298E-07
vn -1 -3.6259678E-07 -2.8916298E-07
vn -1 -3.6259678E-07 -2.8916298E-07
vn -1 -3.6259678E-07 -2.8916298E-07
vn -1 0 0
vn -1 0 0
vn -1 0 0
vn -1 0 0
vn -1 -1.9016694E-07 -8.5504996E-07
vn -1 -1.9016694E-07 -8.5504996E-07
vn -1 -1.9016694E-07 -8.5504996E-07
vn -1 -1.9016694E-07 -8.5504996E-07
vn -1 -2.4430597E-07 1.4458149E-07
vn -1 -2.4430597E-07 1.4458149E-07
vn -1 -2.4430597E-07 1.4458149E-07
vn -1 -2.4430597E-07 1.4458149E-07
vn -1 0 0
vn -1 0 0
vn -1 0 0
vn -1 0 0
vn -1 -1.4266551E-07 0
vn -1 -1.4266551E-07 0
vn -1 -1.4266551E-07 0
vn -1 -1.4266551E-07 0
vn -0.9260239 -0.18873246 0.32689416
vn -0.9260239 -0.18873246 0.32689416
vn -0.9260239 -0.18873246 0.32689416
vn -0.9260239 -0.18873246 0.32689416
vn -0.9320926 0.36222014 0
vn -0.9320926 0.36222014 0
vn -0.9320926 0.36222014 0
vn -0.9320926 0.36222014 0
vn -0.9260238 -0.1887322 -0.32689443
vn -0.9260238 -0.1887322 -0.32689443
vn -0.9260238 -0.1887322 -0.32689443
vn -0.9260238 -0.1887322 -0.32689443
vn -0.9240965 -0.35911247 0.13070577
vn -0.9240965 -0.35911247 0.13070577
vn -0.9240965 -0.35911247 0.13070577
vn -0.9240965 -0.35911247 0.13070577
vn -0.9311947 0.2792406 0.2343099
vn -0.9311947 0.2792406 0.2343099
vn -0.9311947 0.2792406 0.2343099
vn -0.9311947 0.2792406 0.2343099
vn -0.9288425 0.06433255 -0.36484662
vn -0.9288425 0.06433255 -0.36484662
vn -0.9288425 0.06433255 -0.36484662
vn -0.9288425 0.06433255 -0.36484662
vn -0.9288423 0.06433226 0.36484706
vn -0.9288423 0.06433226 0.36484706
vn -0.9288423 0.06433226 0.36484706
vn -0.9288423 0.06433226 0.36484706
vn -0.9311946 0.27924028 -0.23431066
vn -0.9311946 0.27924028 -0.23431066
vn -0.9311946 0.27924028 -0.23431066
vn -0.9311946 0.27924028 -0.23431066
vn -0.9240963 -0.35911247 -0.13070677
vn -0.9240963 -0.35911247 -0.13070677
vn -0.9240963 -0.35911247 -0.13070677
vn -0.9240963 -0.35911247 -0.13070677
vn -1 0 0
vn -1 0 0
vn -1 0 0
vn -1 0 0
vn -1 0 0
vn -1 0 0
vn -1 0 0
vn -1 0 0
vn -1 0 0
vn 0.23717833 0.9128798 0.3322604
vn 0.23717833 0.9128798 0.3322604
vn 0.23717833 0.9128798 0.3322604
vn 0.23717833 0.9128798 0.3322604
vn 0.24043046 0.48533317 -0.8406218
vn 0.24043046 0.48533317 -0.8406218
vn 0.24043046 0.48533317 -0.8406218
vn 0.24043046 0.48533317 -0.8406218
vn 0.25146395 -0.96786666 0
vn 0.25146395 -0.96786666 0
vn 0.25146395 -0.96786666 0
vn 0.25146395 -0.96786666 0
vn 0.24043015 0.48533267 0.84062207
vn 0.24043015 0.48533267 0.84062207
vn 0.24043015 0.48533267 0.84062207
vn 0.24043015 0.48533267 0.84062207
vn 0.23717779 0.91287977 -0.33226103
vn 0.23717779 0.91287977 -0.33226103
vn 0.23717779 0.91287977 -0.33226103
vn 0.23717779 0.91287977 -0.33226103
vn 0.2497495 -0.74176884 -0.622418
vn 0.2497495 -0.74176884 -0.622418
vn 0.2497495 -0.74176884 -0.622418
vn 0.2497495 -0.74176884 -0.622418
vn 0.24539775 -0.16833857 0.95469475
vn 0.24539775 -0.16833857 0.95469475
vn 0.24539775 -0.16833857 0.95469475
vn 0.24539775 -0.16833857 0.95469475
vn 0.24539769 -0.16833824 -0.95469487
vn 0.24539769 -0.16833824 -0.95469487
vn 0.24539769 -0.16833824 -0.95469487
vn 0.24539769 -0.16833824 -0.95469487
vn 0.24974911 -0.74176913 0.62241775
vn 0.24974911 -0.74176913 0.62241775
vn 0.24974911 -0.74176913 0.62241775
vn 0.24974911 -0.74176913 0.62241775
vn -0.24974917 -0.7417692 0.6224177
vn -0.24974917 -0.7417692 0.6224177
vn -0.24974917 -0.7417692 0.6224177
vn -0.24974917 -0.7417692 0.6224177
vn -0.24539767 -0.16833827 -0.95469487
vn -0.24539767 -0.16833827 -0.95469487
vn -0.24539767 -0.16833827 -0.95469487
vn -0.24539767 -0.16833827 -0.95469487
vn -0.24539772 -0.1683386 0.95469475
vn -0.24539772 -0.1683386 0.95469475
vn -0.24539772 -0.1683386 0.95469475
vn -0.24539772 -0.1683386 0.95469475
vn -0.24974972 -0.74176884 -0.622418
vn -0.24974972 -0.74176884 -0.622418
vn -0.24974972 -0.74176884 -0.622418
vn -0.24974972 -0.74176884 -0.622418
vn -0.23717779 0.91287977 -0.3322609
vn -0.23717779 0.91287977 -0.3322609
vn -0.23717779 0.91287977 -0.3322609
vn -0.23717779 0.91287977 -0.3322609
vn -0.24043015 0.48533264 0.8406221
vn -0.24043015 0.48533264 0.8406221
vn -0.24043015 0.48533264 0.8406221
vn -0.24043015 0.48533264 0.8406221
vn -0.25146404 -0.96786666 0
vn -0.25146404 -0.96786666 0
vn -0.25146404 -0.96786666 0
vn -0.25146404 -0.96786666 0
vn -0.2404304 0.48533326 -0.84062165
vn -0.2404304 0.48533326 -0.84062165
vn -0.2404304 0.48533326 -0.84062165
vn -0.2404304 0.48533326 -0.84062165
vn -0.23717831 0.91287977 0.3322606
vn -0.23717831 0.91287977 0.3322606
vn -0.23717831 0.91287977 0.3322606
vn -0.23717831 0.91287977 0.3322606
vn 1 1.3622015E-07 2.26624E-07
vn 1 1.3622015E-07 2.26624E-07
vn 1 1.3622015E-07 2.26624E-07
vn 1 1.3622015E-07 2.26624E-07
vn 1 1.3622015E-07 2.26624E-07
vn 1 1.3622015E-07 2.26624E-07
vn 1 1.3622015E-07 2.26624E-07
vn 1 1.3622015E-07 2.26624E-07
vn 1 1.3622015E-07 2.26624E-07
g lunar-rover-base_FR_0
f 3/3/3 2/2/2 1/1/1
f 4/4/4 3/3/3 1/1/1
f 7/7/7 6/6/6 5/5/5
f 6/6/6 8/8/8 5/5/5
f 5/5/5 8/8/8 9/9/9
f 8/8/8 10/10/10 9/9/9
f 13/13/13 12/12/12 11/11/11
f 14/14/14 13/13/13 11/11/11
f 17/17/17 16/16/16 15/15/15
f 18/18/18 17/17/17 15/15/15
f 21/21/21 20/20/20 19/19/19
f 22/22/22 21/21/21 19/19/19
f 25/25/25 24/24/24 23/23/23
f 26/26/26 25/25/25 23/23/23
f 29/29/29 28/28/28 27/27/27
f 30/30/30 29/29/29 27/27/27
f 33/33/33 32/32/32 31/31/31
f 34/34/34 33/33/33 31/31/31
f 37/37/37 36/36/36 35/35/35
f 38/38/38 37/37/37 35/35/35
f 41/41/41 40/40/40 39/39/39
f 42/42/42 41/41/41 39/39/39
f 45/45/45 44/44/44 43/43/43
f 46/46/46 45/45/45 43/43/43
f 49/49/49 48/48/48 47/47/47
f 50/50/50 49/49/49 47/47/47
f 53/53/53 52/52/52 51/51/51
f 54/54/54 53/53/53 51/51/51
f 57/57/57 56/56/56 55/55/55
f 58/58/58 57/57/57 55/55/55
f 61/61/61 60/60/60 59/59/59
f 62/62/62 61/61/61 59/59/59
f 65/65/65 64/64/64 63/63/63
f 66/66/66 65/65/65 63/63/63
f 69/69/69 68/68/68 67/67/67
f 70/70/70 69/69/69 67/67/67
f 73/73/73 72/72/72 71/71/71
f 72/72/72 74/74/74 71/71/71
f 71/71/71 74/74/74 75/75/75
f 71/71/71 75/75/75 76/76/76
f 76/76/76 77/77/77 71/71/71
f 71/71/71 77/77/77 78/78/78
f 77/77/77 79/79/79 78/78/78
f 82/82/82 81/81/81 80/80/80
f 83/83/83 82/82/82 80/80/80
f 86/86/86 85/85/85 84/84/84
f 87/87/87 86/86/86 84/84/84
f 90/90/90 89/89/89 88/88/88
f 91/91/91 90/90/90 88/88/88
f 94/94/94 93/93/93 92/92/92
f 95/95/95 94/94/94 92/92/92
f 98/98/98 97/97/97 96/96/96
f 99/99/99 98/98/98 96/96/96
f 102/102/102 101/101/101 100/100/100
f 103/103/103 102/102/102 100/100/100
f 106/106/106 105/105/105 104/104/104
f 107/107/107 106/106/106 104/104/104
f 110/110/110 109/109/109 108/108/108
f 111/111/111 110/110/110 108/108/108
f 114/114/114 113/113/113 112/112/112
f 115/115/115 114/114/114 112/112/112
f 118/118/118 117/117/117 116/116/116
f 119/119/119 118/118/118 116/116/116
f 122/122/122 121/121/121 120/120/120
f 123/123/123 122/122/122 120/120/120
f 126/126/126 125/125/125 124/124/124
f 127/127/127 126/126/126 124/124/124
f 130/130/130 129/129/129 128/128/128
f 131/131/131 130/130/130 128/128/128
f 134/134/134 133/133/133 132/132/132
f 135/135/135 134/134/134 132/132/132
f 138/138/138 137/137/137 136/136/136
f 139/139/139 138/138/138 136/136/136
f 142/142/142 141/141/141 140/140/140
f 143/143/143 142/142/142 140/140/140
f 146/146/146 145/145/145 144/144/144
f 147/147/147 146/146/146 144/144/144
f 150/150/150 149/149/149 148/148/148
f 151/151/151 150/150/150 148/148/148
f 154/154/154 153/153/153 152/152/152
f 152/152/152 155/155/155 154/154/154
f 152/152/152 156/156/156 155/155/155
f 152/152/152 157/157/157 156/156/156
f 157/157/157 158/158/158 156/156/156
f 158/158/158 159/159/159 156/156/156
f 158/158/158 160/160/160 159/159/159
