g lunar-rover-base_FL
v 0.927413 0.41159493 0.69836533
v 0.927413 0.19023602 0.73739684
v 0.927413 0.2800937 0.88418263
v 0.927413 0.38727352 0.865284
v 0.927413 0.04575422 1.1343573
v 0.927413 0.19023599 1.3065438
v 0.927413 0.2800937 1.1597581
v 0.927413 0.21013705 1.076387
v 0.927413 0.04575422 0.9095834
v 0.927413 0.21013705 0.9675537
v 0.927413 0.60625476 1.2331887
v 0.927413 0.68313175 1.0219704
v 0.927413 0.518749 1.0219704
v 0.927413 0.48152587 1.1242403
v 0.927413 0.6062547 0.81075215
v 0.927413 0.41159493 0.69836533
v 0.927413 0.38727352 0.865284
v 0.927413 0.48152584 0.9197005
v 0.927413 0.41159493 1.3455753
v 0.927413 0.60625476 1.2331887
v 0.927413 0.48152587 1.1242403
v 0.927413 0.38727352 1.1786568
v 0.927413 0.68313175 1.0219704
v 0.927413 0.6062547 0.81075215
v 0.927413 0.48152584 0.9197005
v 0.927413 0.518749 1.0219704
v 0.927413 0.19023602 0.73739684
v 0.927413 0.04575422 0.9095834
v 0.927413 0.21013705 0.9675537
v 0.927413 0.2800937 0.88418263
v 0.927413 0.19023599 1.3065438
v 0.927413 0.41159493 1.3455753
v 0.927413 0.38727352 1.1786568
v 0.927413 0.2800937 1.1597581
v 0.8237331 0.626694 1.2510421
v 0.72005326 0.60625476 1.2331887
v 0.72005326 0.68313175 1.0219704
v 0.8237331 0.7100692 1.0219704
v 0.82373303 0.62669396 0.7928988
v 0.72005314 0.6062547 0.81075215
v 0.72005314 0.411595 0.69836533
v 0.82373303 0.4155805 0.6710124
v 0.82373303 0.018816888 0.90008384
v 0.7200531 0.04575422 0.9095834
v 0.72005314 0.04575422 1.1343573
v 0.82373303 0.018816888 1.1438568
v 0.8237331 0.4155805 1.3729283
v 0.72005326 0.411595 1.3455753
v 0.72005326 0.60625476 1.2331887
v 0.8237331 0.626694 1.2510421
v 0.8237331 0.7100692 1.0219704
v 0.72005326 0.68313175 1.0219704
v 0.72005314 0.6062547 0.81075215
v 0.82373303 0.62669396 0.7928988
v 0.82373303 0.17551105 0.713343
v 0.7200531 0.19023599 0.73739684
v 0.7200531 0.04575422 0.9095834
v 0.82373303 0.018816888 0.90008384
v 0.82373303 0.17551102 1.3305976
v 0.72005314 0.19023597 1.3065438
v 0.72005326 0.411595 1.3455753
v 0.8237331 0.4155805 1.3729283
v 0.82373303 0.4155805 0.6710124
v 0.72005314 0.411595 0.69836533
v 0.7200531 0.19023599 0.73739684
v 0.82373303 0.17551105 0.713343
v 0.82373303 0.018816888 1.1438568
v 0.72005314 0.04575422 1.1343573
v 0.72005314 0.19023597 1.3065438
v 0.82373303 0.17551102 1.3305976
v 0.927413 0.04575422 1.1343573
v 0.82373303 0.018816888 1.1438568
v 0.82373303 0.17551102 1.3305976
v 0.927413 0.19023599 1.3065438
v 0.927413 0.41159493 0.69836533
v 0.82373303 0.4155805 0.6710124
v 0.82373303 0.17551105 0.713343
v 0.927413 0.19023602 0.73739684
v 0.927413 0.19023599 1.3065438
v 0.82373303 0.17551102 1.3305976
v 0.8237331 0.4155805 1.3729283
v 0.927413 0.41159493 1.3455753
v 0.927413 0.19023602 0.73739684
v 0.82373303 0.17551105 0.713343
v 0.82373303 0.018816888 0.90008384
v 0.927413 0.04575422 0.9095834
v 0.927413 0.68313175 1.0219704
v 0.8237331 0.7100692 1.0219704
v 0.82373303 0.62669396 0.7928988
v 0.927413 0.6062547 0.81075215
v 0.927413 0.41159493 1.3455753
v 0.8237331 0.4155805 1.3729283
v 0.8237331 0.626694 1.2510421
v 0.927413 0.60625476 1.2331887
v 0.927413 0.04575422 0.9095834
v 0.82373303 0.018816888 0.90008384
v 0.82373303 0.018816888 1.1438568
v 0.927413 0.04575422 1.1343573
v 0.927413 0.6062547 0.81075215
v 0.82373303 0.62669396 0.7928988
v 0.82373303 0.4155805 0.6710124
v 0.927413 0.41159493 0.69836533
v 0.927413 0.60625476 1.2331887
v 0.8237331 0.626694 1.2510421
v 0.8237331 0.7100692 1.0219704
v 0.927413 0.68313175 1.0219704
v 0.72005314 0.19023597 1.3065438
v 0.72005314 0.04575422 1.1343573
v 0.7200531 0.04575422 0.9095834
v 0.7200531 0.19023599 0.73739684
v 0.72005326 0.411595 1.3455753
v 0.72005314 0.411595 0.69836533
v 0.72005326 0.60625476 1.2331887
v 0.72005314 0.6062547 0.81075215
v 0.72005326 0.68313175 1.0219704
v 0.927413 0.48152584 0.9197005
v 0.927413 0.38727352 0.865284
v 0.90649116 0.3793079 0.9199522
v 0.90649116 0.44067538 0.95538265
v 0.927413 0.21013705 0.9675537
v 0.927413 0.21013705 1.076387
v 0.90649116 0.26397473 1.057401
v 0.90649116 0.26397473 0.98653984
v 0.927413 0.38727352 1.1786568
v 0.927413 0.48152587 1.1242403
v 0.90649116 0.4406754 1.0885581
v 0.90649116 0.3793079 1.1239886
v 0.927413 0.518749 1.0219704
v 0.927413 0.48152584 0.9197005
v 0.90649116 0.44067538 0.95538265
v 0.90649116 0.4649113 1.0219704
v 0.927413 0.2800937 0.88418263
v 0.927413 0.21013705 0.9675537
v 0.90649116 0.26397473 0.98653984
v 0.90649116 0.30952334 0.93225706
v 0.927413 0.2800937 1.1597581
v 0.927413 0.38727352 1.1786568
v 0.90649116 0.3793079 1.1239886
v 0.90649116 0.30952334 1.1116836
v 0.927413 0.38727352 0.865284
v 0.927413 0.2800937 0.88418263
v 0.90649116 0.30952334 0.93225706
v 0.90649116 0.3793079 0.9199522
v 0.927413 0.21013705 1.076387
v 0.927413 0.2800937 1.1597581
v 0.90649116 0.30952334 1.1116836
v 0.90649116 0.26397473 1.057401
v 0.927413 0.48152587 1.1242403
v 0.927413 0.518749 1.0219704
v 0.90649116 0.4649113 1.0219704
v 0.90649116 0.4406754 1.0885581
v 0.90649116 0.4649113 1.0219704
v 0.90649116 0.44067538 0.95538265
v 0.90649116 0.3793079 0.9199522
v 0.90649116 0.30952334 0.93225706
v 0.90649116 0.26397473 0.98653984
v 0.90649116 0.26397473 1.057401
v 0.90649116 0.30952334 1.1116836
v 0.90649116 0.4406754 1.0885581
v 0.90649116 0.3793079 1.1239886
vt 0.5025616 0.21404634
vt 0.52156264 0.19337936
vt 0.49759236 0.17972215
vt 0.4862647 0.19508316
vt 0.37269616 0.17757167
vt 0.38886958 0.20292309
vt 0.4096363 0.18567383
vt 0.40064794 0.16766146
vt 0.36414617 0.14066027
vt 0.39898327 0.14656089
vt 0.43321165 0.2300492
vt 0.4570206 0.23195764
vt 0.45562822 0.21102904
vt 0.43904203 0.20778817
vt 0.48039183 0.22690137
vt 0.5025616 0.21404634
vt 0.4862647 0.19508316
vt 0.47163135 0.20562801
vt 0.4096922 0.22033201
vt 0.43321165 0.2300492
vt 0.43904203 0.20778817
vt 0.42310068 0.19928561
vt 0.4570206 0.23195764
vt 0.48039183 0.22690137
vt 0.47163135 0.20562801
vt 0.45562822 0.21102904
vt 0.52156264 0.19337936
vt 0.53685415 0.16071315
vt 0.5030569 0.16027975
vt 0.49759236 0.17972215
vt 0.38886958 0.20292309
vt 0.4096922 0.22033201
vt 0.42310068 0.19928561
vt 0.4096363 0.18567383
vt 0.42974788 0.24240583
vt 0.42683157 0.25667688
vt 0.45875844 0.2582364
vt 0.4578726 0.24478565
vt 0.4854672 0.23871723
vt 0.49021995 0.25250602
vt 0.5204463 0.23711212
vt 0.5114441 0.22441654
vt 0.34372762 0.14489356
vt 0.325062 0.15455362
vt 0.34256977 0.19331616
vt 0.3583725 0.18436085
vt 0.40228686 0.23166603
vt 0.39492357 0.24530129
vt 0.42683157 0.25667688
vt 0.42974788 0.24240583
vt 0.4578726 0.24478565
vt 0.45875844 0.2582364
vt 0.49021995 0.25250602
vt 0.4854672 0.23871723
vt 0.5339823 0.20156749
vt 0.5468559 0.21250959
vt 0.56938607 0.18065806
vt 0.55434734 0.16861998
vt 0.37772 0.21217744
vt 0.36599243 0.22388914
vt 0.39492357 0.24530129
vt 0.40228686 0.23166603
vt 0.5114441 0.22441654
vt 0.5204463 0.23711212
vt 0.5468559 0.21250959
vt 0.5339823 0.20156749
vt 0.3583725 0.18436085
vt 0.34256977 0.19331616
vt 0.36599243 0.22388914
vt 0.37772 0.21217744
vt 0.37269616 0.17757167
vt 0.3583725 0.18436085
vt 0.37772 0.21217744
vt 0.38886958 0.20292309
vt 0.5025616 0.21404634
vt 0.5114441 0.22441654
vt 0.5339823 0.20156749
vt 0.52156264 0.19337936
vt 0.38886958 0.20292309
vt 0.37772 0.21217744
vt 0.40228686 0.23166603
vt 0.4096922 0.22033201
vt 0.52156264 0.19337936
vt 0.5339823 0.20156749
vt 0.55434734 0.16861998
vt 0.53685415 0.16071315
vt 0.4570206 0.23195764
vt 0.4578726 0.24478565
vt 0.4854672 0.23871723
vt 0.48039183 0.22690137
vt 0.4096922 0.22033201
vt 0.40228686 0.23166603
vt 0.42974788 0.24240583
vt 0.43321165 0.2300492
vt 0.36414617 0.14066027
vt 0.34372762 0.14489356
vt 0.3583725 0.18436085
vt 0.37269616 0.17757167
vt 0.48039183 0.22690137
vt 0.4854672 0.23871723
vt 0.5114441 0.22441654
vt 0.5025616 0.21404634
vt 0.43321165 0.2300492
vt 0.42974788 0.24240583
vt 0.4578726 0.24478565
vt 0.4570206 0.23195764
vt 0.33106542 0.23426369
vt 0.34256977 0.19331616
vt 0.325062 0.15455362
vt 0.2867343 0.13611357
vt 0.295932 0.25823644
vt 0.24552049 0.1466243
vt 0.25360882 0.25401735
vt 0.22070499 0.18116768
vt 0.22389938 0.22358051
vt 0.37901735 0.9654168
vt 0.3926651 0.95388967
vt 0.38419825 0.94942164
vt 0.37555945 0.9566255
vt 0.3867404 0.92094815
vt 0.37003297 0.9148578
vt 0.36986795 0.9247032
vt 0.380514 0.9285258
vt 0.3442683 0.9363202
vt 0.34734082 0.9539138
vt 0.3556334 0.9493936
vt 0.35363495 0.93833035
vt 0.36108592 0.9654168
vt 0.37901735 0.9654168
vt 0.37555945 0.9566255
vt 0.36430892 0.95654196
vt 0.39566964 0.9363216
vt 0.3867404 0.92094815
vt 0.380514 0.9285258
vt 0.3861469 0.9383289
vt 0.3532488 0.9208959
vt 0.3442683 0.9363202
vt 0.35363495 0.93833035
vt 0.35925815 0.9285714
vt 0.3926651 0.95388967
vt 0.39566964 0.9363216
vt 0.3861469 0.9383289
vt 0.38419825 0.94942164
vt 0.37003297 0.9148578
vt 0.3532488 0.9208959
vt 0.35925815 0.9285714
vt 0.36986795 0.9247032
vt 0.34734082 0.9539138
vt 0.36108592 0.9654168
vt 0.36430892 0.95654196
vt 0.3556334 0.9493936
vt 0.36430892 0.95654196
vt 0.37555945 0.9566255
vt 0.38419825 0.94942164
vt 0.3861469 0.9383289
vt 0.380514 0.9285258
vt 0.36986795 0.9247032
vt 0.35925815 0.9285714
vt 0.3556334 0.9493936
vt 0.35363495 0.93833035
vn 1 0 -2.7888967E-07
vn 1 0 -2.7888967E-07
vn 1 0 -2.7888967E-07
vn 1 0 -2.7888967E-07
vn 1 0 0
vn 1 0 0
vn 1 0 0
vn 1 0 0
vn 1 0 0
vn 1 0 0
vn 1 -3.6259678E-07 -5.7832597E-07
vn 1 -3.6259678E-07 -5.7832597E-07
vn 1 -3.6259678E-07 -5.7832597E-07
vn 1 -3.6259678E-07 -5.7832597E-07
vn 1 0 -1.4250833E-07
vn 1 0 -1.4250833E-07
vn 1 0 -1.4250833E-07
vn 1 0 -1.4250833E-07
vn 1 -1.9016694E-07 -8.5504996E-07
vn 1 -1.9016694E-07 -8.5504996E-07
vn 1 -1.9016694E-07 -8.5504996E-07
vn 1 -1.9016694E-07 -8.5504996E-07
vn 1 -2.4430597E-07 0
vn 1 -2.4430597E-07 0
vn 1 -2.4430597E-07 0
vn 1 -2.4430597E-07 0
vn 1 0 0
vn 1 0 0
vn 1 0 0
vn 1 0 0
vn 1 -1.4266553E-07 -1.394449E-07
vn 1 -1.4266553E-07 -1.394449E-07
vn 1 -1.4266553E-07 -1.394449E-07
vn 1 -1.4266553E-07 -1.394449E-07
vn -0.23717831 0.91287977 0.33226046
vn -0.23717831 0.91287977 0.33226046
vn -0.23717831 0.91287977 0.33226046
vn -0.23717831 0.91287977 0.33226046
vn -0.2404305 0.48533314 -0.8406218
vn -0.2404305 0.48533314 -0.8406218
vn -0.2404305 0.48533314 -0.8406218
vn -0.2404305 0.48533314 -0.8406218
vn -0.25146392 -0.96786666 0
vn -0.25146392 -0.96786666 0
vn -0.25146392 -0.96786666 0
vn -0.25146392 -0.96786666 0
vn -0.24043028 0.48533267 0.84062207
vn -0.24043028 0.48533267 0.84062207
vn -0.24043028 0.48533267 0.84062207
vn -0.24043028 0.48533267 0.84062207
vn -0.2371779 0.91287965 -0.33226097
vn -0.2371779 0.91287965 -0.33226097
vn -0.2371779 0.91287965 -0.33226097
vn -0.2371779 0.91287965 -0.33226097
vn -0.2497495 -0.74176884 -0.622418
vn -0.2497495 -0.74176884 -0.622418
vn -0.2497495 -0.74176884 -0.622418
vn -0.2497495 -0.74176884 -0.622418
vn -0.2453978 -0.16833878 0.95469475
vn -0.2453978 -0.16833878 0.95469475
vn -0.2453978 -0.16833878 0.95469475
vn -0.2453978 -0.16833878 0.95469475
vn -0.24539775 -0.16833836 -0.95469475
vn -0.24539775 -0.16833836 -0.95469475
vn -0.24539775 -0.16833836 -0.95469475
vn -0.24539775 -0.16833836 -0.95469475
vn -0.24974906 -0.74176913 0.62241775
vn -0.24974906 -0.74176913 0.62241775
vn -0.24974906 -0.74176913 0.62241775
vn -0.24974906 -0.74176913 0.62241775
vn 0.24974912 -0.74176913 0.62241775
vn 0.24974912 -0.74176913 0.62241775
vn 0.24974912 -0.74176913 0.62241775
vn 0.24974912 -0.74176913 0.62241775
vn 0.24539767 -0.16833828 -0.95469487
vn 0.24539767 -0.16833828 -0.95469487
vn 0.24539767 -0.16833828 -0.95469487
vn 0.24539767 -0.16833828 -0.95469487
vn 0.24539769 -0.1683388 0.95469475
vn 0.24539769 -0.1683388 0.95469475
vn 0.24539769 -0.1683388 0.95469475
vn 0.24539769 -0.1683388 0.95469475
vn 0.24974973 -0.74176884 -0.6224179
vn 0.24974973 -0.74176884 -0.6224179
vn 0.24974973 -0.74176884 -0.6224179
vn 0.24974973 -0.74176884 -0.6224179
vn 0.23717794 0.91287977 -0.3322609
vn 0.23717794 0.91287977 -0.3322609
vn 0.23717794 0.91287977 -0.3322609
vn 0.23717794 0.91287977 -0.3322609
vn 0.24043012 0.48533267 0.84062207
vn 0.24043012 0.48533267 0.84062207
vn 0.24043012 0.48533267 0.84062207
vn 0.24043012 0.48533267 0.84062207
vn 0.25146404 -0.96786666 0
vn 0.25146404 -0.96786666 0
vn 0.25146404 -0.96786666 0
vn 0.25146404 -0.96786666 0
vn 0.24043047 0.48533338 -0.84062165
vn 0.24043047 0.48533338 -0.84062165
vn 0.24043047 0.48533338 -0.84062165
vn 0.24043047 0.48533338 -0.84062165
vn 0.23717831 0.91287977 0.3322606
vn 0.23717831 0.91287977 0.3322606
vn 0.23717831 0.91287977 0.3322606
vn 0.23717831 0.91287977 0.3322606
vn -1 1.3622017E-07 1.9084126E-07
vn -1 1.3622017E-07 1.9084126E-07
vn -1 1.3622017E-07 1.9084126E-07
vn -1 1.3622017E-07 1.9084126E-07
vn -1 1.3622017E-07 1.9084126E-07
vn -1 1.3622017E-07 1.9084126E-07
vn -1 1.3622017E-07 1.9084126E-07
vn -1 1.3622017E-07 1.9084126E-07
vn -1 1.3622017E-07 1.9084126E-07
vn 0.9260238 -0.18873243 0.32689428
vn 0.9260238 -0.18873243 0.32689428
vn 0.9260238 -0.18873243 0.32689428
vn 0.9260238 -0.18873243 0.32689428
vn 0.9320926 0.36222014 0
vn 0.9320926 0.36222014 0
vn 0.9320926 0.36222014 0
vn 0.9320926 0.36222014 0
vn 0.9260238 -0.1887322 -0.32689443
vn 0.9260238 -0.1887322 -0.32689443
vn 0.9260238 -0.1887322 -0.32689443
vn 0.9260238 -0.1887322 -0.32689443
vn 0.9240965 -0.3591125 0.13070542
vn 0.9240965 -0.3591125 0.13070542
vn 0.9240965 -0.3591125 0.13070542
vn 0.9240965 -0.3591125 0.13070542
vn 0.9311946 0.2792406 0.2343099
vn 0.9311946 0.2792406 0.2343099
vn 0.9311946 0.2792406 0.2343099
vn 0.9311946 0.2792406 0.2343099
vn 0.9288425 0.06433255 -0.36484644
vn 0.9288425 0.06433255 -0.36484644
vn 0.9288425 0.06433255 -0.36484644
vn 0.9288425 0.06433255 -0.36484644
vn 0.9288424 0.06433227 0.3648468
vn 0.9288424 0.06433227 0.3648468
vn 0.9288424 0.06433227 0.3648468
vn 0.9288424 0.06433227 0.3648468
vn 0.9311947 0.2792403 -0.23431031
vn 0.9311947 0.2792403 -0.23431031
vn 0.9311947 0.2792403 -0.23431031
vn 0.9311947 0.2792403 -0.23431031
vn 0.9240963 -0.35911247 -0.13070677
vn 0.9240963 -0.35911247 -0.13070677
vn 0.9240963 -0.35911247 -0.13070677
vn 0.9240963 -0.35911247 -0.13070677
vn 1 0 6.5354504E-07
vn 1 0 6.5354504E-07
vn 1 0 6.5354504E-07
vn 1 0 6.5354504E-07
vn 1 0 0
vn 1 0 0
vn 1 0 0
vn 1 0 0
vn 1 0 0
g lunar-rover-base_FL_0
f 3/3/3 2/2/2 1/1/1
f 4/4/4 3/3/3 1/1/1
f 7/7/7 6/6/6 5/5/5
f 8/8/8 7/7/7 5/5/5
f 8/8/8 5/5/5 9/9/9
f 10/10/10 8/8/8 9/9/9
f 13/13/13 12/12/12 11/11/11
f 14/14/14 13/13/13 11/11/11
f 17/17/17 16/16/16 15/15/15
f 18/18/18 17/17/17 15/15/15
f 21/21/21 20/20/20 19/19/19
f 22/22/22 21/21/21 19/19/19
f 25/25/25 24/24/24 23/23/23
f 26/26/26 25/25/25 23/23/23
f 29/29/29 28/28/28 27/27/27
f 30/30/30 29/29/29 27/27/27
f 33/33/33 32/32/32 31/31/31
f 34/34/34 33/33/33 31/31/31
f 37/37/37 36/36/36 35/35/35
f 38/38/38 37/37/37 35/35/35
f 41/41/41 40/40/40 39/39/39
f 42/42/42 41/41/41 39/39/39
f 45/45/45 44/44/44 43/43/43
f 46/46/46 45/45/45 43/43/43
f 49/49/49 48/48/48 47/47/47
f 50/50/50 49/49/49 47/47/47
f 53/53/53 52/52/52 51/51/51
f 54/54/54 53/53/53 51/51/51
f 57/57/57 56/56/56 55/55/55
f 58/58/58 57/57/57 55/55/55
f 61/61/61 60/60/60 59/59/59
f 62/62/62 61/61/61 59/59/59
f 65/65/65 64/64/64 63/63/63
f 66/66/66 65/65/65 63/63/63
f 69/69/69 68/68/68 67/67/67
f 70/70/70 69/69/69 67/67/67
f 73/73/73 72/72/72 71/71/71
f 74/74/74 73/73/73 71/71/71
f 77/77/77 76/76/76 75/75/75
f 78/78/78 77/77/77 75/75/75
f 81/81/81 80/80/80 79/79/79
f 82/82/82 81/81/81 79/79/79
f 85/85/85 84/84/84 83/83/83
f 86/86/86 85/85/85 83/83/83
f 89/89/89 88/88/88 87/87/87
f 90/90/90 89/89/89 87/87/87
f 93/93/93 92/92/92 91/91/91
f 94/94/94 93/93/93 91/91/91
f 97/97/97 96/96/96 95/95/95
f 98/98/98 97/97/97 95/95/95
f 101/101/101 100/100/100 99/99/99
f 102/102/102 101/101/101 99/99/99
f 105/105/105 104/104/104 103/103/103
f 106/106/106 105/105/105 103/103/103
f 109/109/109 108/108/108 107/107/107
f 107/107/107 110/110/110 109/109/109
f 107/107/107 111/111/111 110/110/110
f 111/111/111 112/112/112 110/110/110
f 111/111/111 113/113/113 112/112/112
f 113/113/113 114/114/114 112/112/112
f 113/113/113 115/115/115 114/114/114
g lunar-rover-base_FL_1
f 118/118/118 117/117/117 116/116/116
f 119/119/119 118/118/118 116/116/116
f 122/122/122 121/121/121 120/120/120
f 123/123/123 122/122/122 120/120/120
f 126/126/126 125/125/125 124/124/124
f 127/127/127 126/126/126 124/124/124
f 130/130/130 129/129/129 128/128/128
f 131/131/131 130/130/130 128/128/128
f 134/134/134 133/133/133 132/132/132
f 135/135/135 134/134/134 132/132/132
f 138/138/138 137/137/137 136/136/136
f 139/139/139 138/138/138 136/136/136
f 142/142/142 141/141/141 140/140/140
f 143/143/143 142/142/142 140/140/140
f 146/146/146 145/145/145 144/144/144
f 147/147/147 146/146/146 144/144/144
f 150/150/150 149/149/149 148/148/148
f 151/151/151 150/150/150 148/148/148
f 154/154/154 153/153/153 152/152/152
f 155/155/155 154/154/154 152/152/152
f 155/155/155 152/152/152 156/156/156
f 156/156/156 152/152/152 157/157/157
f 158/158/158 157/157/157 152/152/152
f 158/158/158 152/152/152 159/159/159
f 160/160/160 158/158/158 159/159/159
