g lunar-rover-base_BL
v 0.927413 0.41159493 -1.3495426
v 0.927413 0.19023602 -1.3105111
v 0.927413 0.2800937 -1.1637254
v 0.927413 0.38727352 -1.1826241
v 0.927413 0.04575422 -0.9135507
v 0.927413 0.19023599 -0.7413641
v 0.927413 0.2800937 -0.8881499
v 0.927413 0.21013705 -0.97152096
v 0.927413 0.04575422 -1.1383246
v 0.927413 0.21013705 -1.0803543
v 0.927413 0.60625476 -0.8147193
v 0.927413 0.68313175 -1.0259377
v 0.927413 0.518749 -1.0259377
v 0.927413 0.48152587 -0.9236677
v 0.927413 0.6062547 -1.2371559
v 0.927413 0.41159493 -1.3495426
v 0.927413 0.38727352 -1.1826241
v 0.927413 0.48152584 -1.1282074
v 0.927413 0.41159493 -0.7023326
v 0.927413 0.60625476 -0.8147193
v 0.927413 0.48152587 -0.9236677
v 0.927413 0.38727352 -0.86925125
v 0.927413 0.68313175 -1.0259377
v 0.927413 0.6062547 -1.2371559
v 0.927413 0.48152584 -1.1282074
v 0.927413 0.518749 -1.0259377
v 0.927413 0.19023602 -1.3105111
v 0.927413 0.04575422 -1.1383246
v 0.927413 0.21013705 -1.0803543
v 0.927413 0.2800937 -1.1637254
v 0.927413 0.19023599 -0.7413641
v 0.927413 0.41159493 -0.7023326
v 0.927413 0.38727352 -0.86925125
v 0.927413 0.2800937 -0.8881499
v 0.8237331 0.626694 -0.7968659
v 0.72005326 0.60625476 -0.8147193
v 0.72005326 0.68313175 -1.0259377
v 0.8237331 0.7100692 -1.0259377
v 0.82373303 0.62669396 -1.2550093
v 0.72005314 0.6062547 -1.2371559
v 0.72005314 0.411595 -1.3495426
v 0.82373303 0.4155805 -1.3768955
v 0.82373303 0.018816888 -1.1478242
v 0.7200531 0.04575422 -1.1383246
v 0.72005314 0.04575422 -0.9135507
v 0.82373303 0.018816888 -0.90405124
v 0.8237331 0.4155805 -0.6749797
v 0.72005326 0.411595 -0.7023326
v 0.72005326 0.60625476 -0.8147193
v 0.8237331 0.626694 -0.7968659
v 0.8237331 0.7100692 -1.0259377
v 0.72005326 0.68313175 -1.0259377
v 0.72005314 0.6062547 -1.2371559
v 0.82373303 0.62669396 -1.2550093
v 0.82373303 0.17551105 -1.3345649
v 0.7200531 0.19023599 -1.3105111
v 0.7200531 0.04575422 -1.1383246
v 0.82373303 0.018816888 -1.1478242
v 0.82373303 0.17551102 -0.7173103
v 0.72005314 0.19023597 -0.7413641
v 0.72005326 0.411595 -0.7023326
v 0.8237331 0.4155805 -0.6749797
v 0.82373303 0.4155805 -1.3768955
v 0.72005314 0.411595 -1.3495426
v 0.7200531 0.19023599 -1.3105111
v 0.82373303 0.17551105 -1.3345649
v 0.82373303 0.018816888 -0.90405124
v 0.72005314 0.04575422 -0.9135507
v 0.72005314 0.19023597 -0.7413641
v 0.82373303 0.17551102 -0.7173103
v 0.927413 0.04575422 -0.9135507
v 0.82373303 0.018816888 -0.90405124
v 0.82373303 0.17551102 -0.7173103
v 0.927413 0.19023599 -0.7413641
v 0.927413 0.41159493 -1.3495426
v 0.82373303 0.4155805 -1.3768955
v 0.82373303 0.17551105 -1.3345649
v 0.927413 0.19023602 -1.3105111
v 0.927413 0.19023599 -0.7413641
v 0.82373303 0.17551102 -0.7173103
v 0.8237331 0.4155805 -0.6749797
v 0.927413 0.41159493 -0.7023326
v 0.927413 0.19023602 -1.3105111
v 0.82373303 0.17551105 -1.3345649
v 0.82373303 0.018816888 -1.1478242
v 0.927413 0.04575422 -1.1383246
v 0.927413 0.68313175 -1.0259377
v 0.8237331 0.7100692 -1.0259377
v 0.82373303 0.62669396 -1.2550093
v 0.927413 0.6062547 -1.2371559
v 0.927413 0.41159493 -0.7023326
v 0.8237331 0.4155805 -0.6749797
v 0.8237331 0.626694 -0.7968659
v 0.927413 0.60625476 -0.8147193
v 0.927413 0.04575422 -1.1383246
v 0.82373303 0.018816888 -1.1478242
v 0.82373303 0.018816888 -0.90405124
v 0.927413 0.04575422 -0.9135507
v 0.927413 0.6062547 -1.2371559
v 0.82373303 0.62669396 -1.2550093
v 0.82373303 0.4155805 -1.3768955
v 0.927413 0.41159493 -1.3495426
v 0.927413 0.60625476 -0.8147193
v 0.8237331 0.626694 -0.7968659
v 0.8237331 0.7100692 -1.0259377
v 0.927413 0.68313175 -1.0259377
v 0.72005314 0.19023597 -0.7413641
v 0.72005314 0.04575422 -0.9135507
v 0.7200531 0.04575422 -1.1383246
v 0.7200531 0.19023599 -1.3105111
v 0.72005326 0.411595 -0.7023326
v 0.72005314 0.411595 -1.3495426
v 0.72005326 0.60625476 -0.8147193
v 0.72005314 0.6062547 -1.2371559
v 0.72005326 0.68313175 -1.0259377
v 0.927413 0.48152584 -1.1282074
v 0.927413 0.38727352 -1.1826241
v 0.90649116 0.3793079 -1.1279559
v 0.90649116 0.44067538 -1.0925254
v 0.927413 0.21013705 -1.0803543
v 0.927413 0.21013705 -0.97152096
v 0.90649116 0.26397473 -0.9905071
v 0.90649116 0.26397473 -1.0613682
v 0.927413 0.38727352 -0.86925125
v 0.927413 0.48152587 -0.9236677
v 0.90649116 0.4406754 -0.95934993
v 0.90649116 0.3793079 -0.92391944
v 0.927413 0.518749 -1.0259377
v 0.927413 0.48152584 -1.1282074
v 0.90649116 0.44067538 -1.0925254
v 0.90649116 0.4649113 -1.0259377
v 0.927413 0.2800937 -1.1637254
v 0.927413 0.21013705 -1.0803543
v 0.90649116 0.26397473 -1.0613682
v 0.90649116 0.30952334 -1.115651
v 0.927413 0.2800937 -0.8881499
v 0.927413 0.38727352 -0.86925125
v 0.90649116 0.3793079 -0.92391944
v 0.90649116 0.30952334 -0.9362244
v 0.927413 0.38727352 -1.1826241
v 0.927413 0.2800937 -1.1637254
v 0.90649116 0.30952334 -1.115651
v 0.90649116 0.3793079 -1.1279559
v 0.927413 0.21013705 -0.97152096
v 0.927413 0.2800937 -0.8881499
v 0.90649116 0.30952334 -0.9362244
v 0.90649116 0.26397473 -0.9905071
v 0.927413 0.48152587 -0.9236677
v 0.927413 0.518749 -1.0259377
v 0.90649116 0.4649113 -1.0259377
v 0.90649116 0.4406754 -0.95934993
v 0.90649116 0.4649113 -1.0259377
v 0.90649116 0.44067538 -1.0925254
v 0.90649116 0.3793079 -1.1279559
v 0.90649116 0.30952334 -1.115651
v 0.90649116 0.26397473 -1.0613682
v 0.90649116 0.26397473 -0.9905071
v 0.90649116 0.30952334 -0.9362244
v 0.90649116 0.4406754 -0.95934993
v 0.90649116 0.3793079 -0.92391944
vt 0.5025616 0.34549597
vt 0.5215626 0.32482892
vt 0.49759227 0.31117177
vt 0.4862647 0.32653278
vt 0.37269613 0.3090215
vt 0.38886958 0.3343729
vt 0.4096363 0.3171236
vt 0.40064788 0.29911125
vt 0.36414605 0.27211013
vt 0.39898315 0.2780107
vt 0.4332117 0.3614989
vt 0.45702064 0.36340734
vt 0.4556282 0.3424787
vt 0.43904203 0.33923787
vt 0.48039183 0.35835102
vt 0.5025616 0.34549597
vt 0.4862647 0.32653278
vt 0.4716313 0.33707768
vt 0.4096922 0.35178173
vt 0.4332117 0.3614989
vt 0.43904203 0.33923787
vt 0.42310062 0.33073536
vt 0.45702064 0.36340734
vt 0.48039183 0.35835102
vt 0.4716313 0.33707768
vt 0.4556282 0.3424787
vt 0.5215626 0.32482892
vt 0.536854 0.29216272
vt 0.5030568 0.29172936
vt 0.49759227 0.31117177
vt 0.38886958 0.3343729
vt 0.4096922 0.35178173
vt 0.42310062 0.33073536
vt 0.4096363 0.3171236
vt 0.42974788 0.3738556
vt 0.42683166 0.38812664
vt 0.45875853 0.38968605
vt 0.4578726 0.37623537
vt 0.48546723 0.37016684
vt 0.49021998 0.38395566
vt 0.52044636 0.3685617
vt 0.5114441 0.35586613
vt 0.34372753 0.27634344
vt 0.32506198 0.28600353
vt 0.34256977 0.32476604
vt 0.35837245 0.31581074
vt 0.4022869 0.3631158
vt 0.3949236 0.37675104
vt 0.42683166 0.38812664
vt 0.42974788 0.3738556
vt 0.4578726 0.37623537
vt 0.45875853 0.38968605
vt 0.49021998 0.38395566
vt 0.48546723 0.37016684
vt 0.5339823 0.33301708
vt 0.54685587 0.34395912
vt 0.569386 0.31210756
vt 0.5543473 0.30006954
vt 0.37772 0.34362727
vt 0.3659925 0.355339
vt 0.3949236 0.37675104
vt 0.4022869 0.3631158
vt 0.5114441 0.35586613
vt 0.52044636 0.3685617
vt 0.54685587 0.34395912
vt 0.5339823 0.33301708
vt 0.35837245 0.31581074
vt 0.34256977 0.32476604
vt 0.3659925 0.355339
vt 0.37772 0.34362727
vt 0.37269613 0.3090215
vt 0.35837245 0.31581074
vt 0.37772 0.34362727
vt 0.38886958 0.3343729
vt 0.5025616 0.34549597
vt 0.5114441 0.35586613
vt 0.5339823 0.33301708
vt 0.5215626 0.32482892
vt 0.38886958 0.3343729
vt 0.37772 0.34362727
vt 0.4022869 0.3631158
vt 0.4096922 0.35178173
vt 0.5215626 0.32482892
vt 0.5339823 0.33301708
vt 0.5543473 0.30006954
vt 0.536854 0.29216272
vt 0.45702064 0.36340734
vt 0.4578726 0.37623537
vt 0.48546723 0.37016684
vt 0.48039183 0.35835102
vt 0.4096922 0.35178173
vt 0.4022869 0.3631158
vt 0.42974788 0.3738556
vt 0.4332117 0.3614989
vt 0.36414605 0.27211013
vt 0.34372753 0.27634344
vt 0.35837245 0.31581074
vt 0.37269613 0.3090215
vt 0.48039183 0.35835102
vt 0.48546723 0.37016684
vt 0.5114441 0.35586613
vt 0.5025616 0.34549597
vt 0.4332117 0.3614989
vt 0.42974788 0.3738556
vt 0.4578726 0.37623537
vt 0.45702064 0.36340734
vt 0.33106548 0.36571357
vt 0.34256977 0.32476604
vt 0.32506198 0.28600353
vt 0.28673416 0.26756355
vt 0.29593208 0.3896864
vt 0.24552037 0.27807435
vt 0.25360888 0.38546738
vt 0.22070499 0.31261778
vt 0.2238994 0.3550306
vt 0.9556783 0.7705942
vt 0.969326 0.7590671
vt 0.9608592 0.7545991
vt 0.9522203 0.7618029
vt 0.9634014 0.72612554
vt 0.94669396 0.7200352
vt 0.9465289 0.7298806
vt 0.95717496 0.73370326
vt 0.9209292 0.74149764
vt 0.92400175 0.7590912
vt 0.9322943 0.75457096
vt 0.9302959 0.7435077
vt 0.9377469 0.7705942
vt 0.9556783 0.7705942
vt 0.9522203 0.7618029
vt 0.9409699 0.76171935
vt 0.9723306 0.74149907
vt 0.9634014 0.72612554
vt 0.95717496 0.73370326
vt 0.96280783 0.7435063
vt 0.9299098 0.72607327
vt 0.9209292 0.74149764
vt 0.9302959 0.7435077
vt 0.93591905 0.7337488
vt 0.969326 0.7590671
vt 0.9723306 0.74149907
vt 0.96280783 0.7435063
vt 0.9608592 0.7545991
vt 0.94669396 0.7200352
vt 0.9299098 0.72607327
vt 0.93591905 0.7337488
vt 0.9465289 0.7298806
vt 0.92400175 0.7590912
vt 0.9377469 0.7705942
vt 0.9409699 0.76171935
vt 0.9322943 0.75457096
vt 0.9409699 0.76171935
vt 0.9522203 0.7618029
vt 0.9608592 0.7545991
vt 0.96280783 0.7435063
vt 0.95717496 0.73370326
vt 0.9465289 0.7298806
vt 0.93591905 0.7337488
vt 0.9322943 0.75457096
vt 0.9302959 0.7435077
vn 1 0 -2.788898E-07
vn 1 0 -2.788898E-07
vn 1 0 -2.788898E-07
vn 1 0 -2.788898E-07
vn 1 0 0
vn 1 0 0
vn 1 0 0
vn 1 0 0
vn 1 0 0
vn 1 0 0
vn 1 -3.6259678E-07 -5.7832597E-07
vn 1 -3.6259678E-07 -5.7832597E-07
vn 1 -3.6259678E-07 -5.7832597E-07
vn 1 -3.6259678E-07 -5.7832597E-07
vn 1 0 -1.4250828E-07
vn 1 0 -1.4250828E-07
vn 1 0 -1.4250828E-07
vn 1 0 -1.4250828E-07
vn 1 -1.9016679E-07 -8.5504996E-07
vn 1 -1.9016679E-07 -8.5504996E-07
vn 1 -1.9016679E-07 -8.5504996E-07
vn 1 -1.9016679E-07 -8.5504996E-07
vn 1 -2.4430588E-07 0
vn 1 -2.4430588E-07 0
vn 1 -2.4430588E-07 0
vn 1 -2.4430588E-07 0
vn 1 0 0
vn 1 0 0
vn 1 0 0
vn 1 0 0
vn 1 -1.4266566E-07 -1.394449E-07
vn 1 -1.4266566E-07 -1.394449E-07
vn 1 -1.4266566E-07 -1.394449E-07
vn 1 -1.4266566E-07 -1.394449E-07
vn -0.23717837 0.91287977 0.33226055
vn -0.23717837 0.91287977 0.33226055
vn -0.23717837 0.91287977 0.33226055
vn -0.23717837 0.91287977 0.33226055
vn -0.24043041 0.48533353 -0.8406216
vn -0.24043041 0.48533353 -0.8406216
vn -0.24043041 0.48533353 -0.8406216
vn -0.24043041 0.48533353 -0.8406216
vn -0.25146374 -0.96786666 0
vn -0.25146374 -0.96786666 0
vn -0.25146374 -0.96786666 0
vn -0.25146374 -0.96786666 0
vn -0.24043033 0.48533246 0.84062225
vn -0.24043033 0.48533246 0.84062225
vn -0.24043033 0.48533246 0.84062225
vn -0.24043033 0.48533246 0.84062225
vn -0.2371779 0.91287965 -0.332261
vn -0.2371779 0.91287965 -0.332261
vn -0.2371779 0.91287965 -0.332261
vn -0.2371779 0.91287965 -0.332261
vn -0.24974968 -0.7417686 -0.6224181
vn -0.24974968 -0.7417686 -0.6224181
vn -0.24974968 -0.7417686 -0.6224181
vn -0.24974968 -0.7417686 -0.6224181
vn -0.2453978 -0.16833806 0.95469487
vn -0.2453978 -0.16833806 0.95469487
vn -0.2453978 -0.16833806 0.95469487
vn -0.2453978 -0.16833806 0.95469487
vn -0.24539775 -0.16833878 -0.95469475
vn -0.24539775 -0.16833878 -0.95469475
vn -0.24539775 -0.16833878 -0.95469475
vn -0.24539775 -0.16833878 -0.95469475
vn -0.24974911 -0.7417691 0.6224179
vn -0.24974911 -0.7417691 0.6224179
vn -0.24974911 -0.7417691 0.6224179
vn -0.24974911 -0.7417691 0.6224179
vn 0.24974918 -0.741769 0.62241787
vn 0.24974918 -0.741769 0.62241787
vn 0.24974918 -0.741769 0.62241787
vn 0.24974918 -0.741769 0.62241787
vn 0.24539763 -0.16833858 -0.95469475
vn 0.24539763 -0.16833858 -0.95469475
vn 0.24539763 -0.16833858 -0.95469475
vn 0.24539763 -0.16833858 -0.95469475
vn 0.24539769 -0.16833812 0.95469487
vn 0.24539769 -0.16833812 0.95469487
vn 0.24539769 -0.16833812 0.95469487
vn 0.24539769 -0.16833812 0.95469487
vn 0.24974993 -0.7417686 -0.6224181
vn 0.24974993 -0.7417686 -0.6224181
vn 0.24974993 -0.7417686 -0.6224181
vn 0.24974993 -0.7417686 -0.6224181
vn 0.23717794 0.91287977 -0.3322609
vn 0.23717794 0.91287977 -0.3322609
vn 0.23717794 0.91287977 -0.3322609
vn 0.23717794 0.91287977 -0.3322609
vn 0.24043018 0.48533246 0.84062225
vn 0.24043018 0.48533246 0.84062225
vn 0.24043018 0.48533246 0.84062225
vn 0.24043018 0.48533246 0.84062225
vn 0.25146383 -0.96786666 0
vn 0.25146383 -0.96786666 0
vn 0.25146383 -0.96786666 0
vn 0.25146383 -0.96786666 0
vn 0.24043041 0.48533383 -0.8406214
vn 0.24043041 0.48533383 -0.8406214
vn 0.24043041 0.48533383 -0.8406214
vn 0.24043041 0.48533383 -0.8406214
vn 0.23717834 0.91287965 0.33226067
vn 0.23717834 0.91287965 0.33226067
vn 0.23717834 0.91287965 0.33226067
vn 0.23717834 0.91287965 0.33226067
vn -1 1.3622012E-07 1.9084126E-07
vn -1 1.3622012E-07 1.9084126E-07
vn -1 1.3622012E-07 1.9084126E-07
vn -1 1.3622012E-07 1.9084126E-07
vn -1 1.3622012E-07 1.9084126E-07
vn -1 1.3622012E-07 1.9084126E-07
vn -1 1.3622012E-07 1.9084126E-07
vn -1 1.3622012E-07 1.9084126E-07
vn -1 1.3622012E-07 1.9084126E-07
vn 0.9260239 -0.18873298 0.32689393
vn 0.9260239 -0.18873298 0.32689393
vn 0.9260239 -0.18873298 0.32689393
vn 0.9260239 -0.18873298 0.32689393
vn 0.9320926 0.36222014 0
vn 0.9320926 0.36222014 0
vn 0.9320926 0.36222014 0
vn 0.9320926 0.36222014 0
vn 0.9260238 -0.1887322 -0.32689443
vn 0.9260238 -0.1887322 -0.32689443
vn 0.9260238 -0.1887322 -0.32689443
vn 0.9260238 -0.1887322 -0.32689443
vn 0.9240965 -0.35911238 0.1307055
vn 0.9240965 -0.35911238 0.1307055
vn 0.9240965 -0.35911238 0.1307055
vn 0.9240965 -0.35911238 0.1307055
vn 0.9311946 0.2792406 0.2343099
vn 0.9311946 0.2792406 0.2343099
vn 0.9311946 0.2792406 0.2343099
vn 0.9311946 0.2792406 0.2343099
vn 0.9288425 0.06433255 -0.36484644
vn 0.9288425 0.06433255 -0.36484644
vn 0.9288425 0.06433255 -0.36484644
vn 0.9288425 0.06433255 -0.36484644
vn 0.9288424 0.06433227 0.3648468
vn 0.9288424 0.06433227 0.3648468
vn 0.9288424 0.06433227 0.3648468
vn 0.9288424 0.06433227 0.3648468
vn 0.9311947 0.2792403 -0.23431031
vn 0.9311947 0.2792403 -0.23431031
vn 0.9311947 0.2792403 -0.23431031
vn 0.9311947 0.2792403 -0.23431031
vn 0.9240964 -0.35911214 -0.13070679
vn 0.9240964 -0.35911214 -0.13070679
vn 0.9240964 -0.35911214 -0.13070679
vn 0.9240964 -0.35911214 -0.13070679
vn 1 0 6.535445E-07
vn 1 0 6.535445E-07
vn 1 0 6.535445E-07
vn 1 0 6.535445E-07
vn 1 0 0
vn 1 0 0
vn 1 0 0
vn 1 0 0
vn 1 0 0
g lunar-rover-base_BL_0
f 3/3/3 2/2/2 1/1/1
f 4/4/4 3/3/3 1/1/1
f 7/7/7 6/6/6 5/5/5
f 8/8/8 7/7/7 5/5/5
f 8/8/8 5/5/5 9/9/9
f 10/10/10 8/8/8 9/9/9
f 13/13/13 12/12/12 11/11/11
f 14/14/14 13/13/13 11/11/11
f 17/17/17 16/16/16 15/15/15
f 18/18/18 17/17/17 15/15/15
f 21/21/21 20/20/20 19/19/19
f 22/22/22 21/21/21 19/19/19
f 25/25/25 24/24/24 23/23/23
f 26/26/26 25/25/25 23/23/23
f 29/29/29 28/28/28 27/27/27
f 30/30/30 29/29/29 27/27/27
f 33/33/33 32/32/32 31/31/31
f 34/34/34 33/33/33 31/31/31
f 37/37/37 36/36/36 35/35/35
f 38/38/38 37/37/37 35/35/35
f 41/41/41 40/40/40 39/39/39
f 42/42/42 41/41/41 39/39/39
f 45/45/45 44/44/44 43/43/43
f 46/46/46 45/45/45 43/43/43
f 49/49/49 48/48/48 47/47/47
f 50/50/50 49/49/49 47/47/47
f 53/53/53 52/52/52 51/51/51
f 54/54/54 53/53/53 51/51/51
f 57/57/57 56/56/56 55/55/55
f 58/58/58 57/57/57 55/55/55
f 61/61/61 60/60/60 59/59/59
f 62/62/62 61/61/61 59/59/59
f 65/65/65 64/64/64 63/63/63
f 66/66/66 65/65/65 63/63/63
f 69/69/69 68/68/68 67/67/67
f 70/70/70 69/69/69 67/67/67
f 73/73/73 72/72/72 71/71/71
f 74/74/74 73/73/73 71/71/71
f 77/77/77 76/76/76 75/75/75
f 78/78/78 77/77/77 75/75/75
f 81/81/81 80/80/80 79/79/79
f 82/82/82 81/81/81 79/79/79
f 85/85/85 84/84/84 83/83/83
f 86/86/86 85/85/85 83/83/83
f 89/89/89 88/88/88 87/87/87
f 90/90/90 89/89/89 87/87/87
f 93/93/93 92/92/92 91/91/91
f 94/94/94 93/93/93 91/91/91
f 97/97/97 96/96/96 95/95/95
f 98/98/98 97/97/97 95/95/95
f 101/101/101 100/100/100 99/99/99
f 102/102/102 101/101/101 99/99/99
f 105/105/105 104/104/104 103/103/103
f 106/106/106 105/105/105 103/103/103
f 109/109/109 108/108/108 107/107/107
f 107/107/107 110/110/110 109/109/109
f 107/107/107 111/111/111 110/110/110
f 111/111/111 112/112/112 110/110/110
f 111/111/111 113/113/113 112/112/112
f 113/113/113 114/114/114 112/112/112
f 113/113/113 115/115/115 114/114/114
g lunar-rover-base_BL_1
f 118/118/118 117/117/117 116/116/116
f 119/119/119 118/118/118 116/116/116
f 122/122/122 121/121/121 120/120/120
f 123/123/123 122/122/122 120/120/120
f 126/126/126 125/125/125 124/124/124
f 127/127/127 126/126/126 124/124/124
f 130/130/130 129/129/129 128/128/128
f 131/131/131 130/130/130 128/128/128
f 134/134/134 133/133/133 132/132/132
f 135/135/135 134/134/134 132/132/132
f 138/138/138 137/137/137 136/136/136
f 139/139/139 138/138/138 136/136/136
f 142/142/142 141/141/141 140/140/140
f 143/143/143 142/142/142 140/140/140
f 146/146/146 145/145/145 144/144/144
f 147/147/147 146/146/146 144/144/144
f 150/150/150 149/149/149 148/148/148
f 151/151/151 150/150/150 148/148/148
f 154/154/154 153/153/153 152/152/152
f 155/155/155 154/154/154 152/152/152
f 155/155/155 152/152/152 156/156/156
f 156/156/156 152/152/152 157/157/157
f 158/158/158 157/157/157 152/152/152
f 158/158/158 152/152/152 159/159/159
f 160/160/160 158/158/158 159/159/159
