g scifi-robotic-arm-second
v 0.073656425 0.034043785 -0.019664148
v 0.07365642 1.0494596E-07 -0.039319217
v 0.1179325 7.472654E-08 -0.030173376
v 0.11793253 0.026122387 -0.015091693
v -0.07361689 5.589575E-08 0.0393013
v -0.11789896 3.798789E-08 0.030153532
v -0.11789896 0.026122391 0.01507177
v -0.07362288 0.03404379 0.01964613
v 0.07365642 5.589575E-08 0.039301306
v 0.07365642 0.034043785 0.01964613
v 0.1179325 0.026122387 0.015071769
v 0.1179325 3.7088817E-08 0.030153528
v -0.0736229 0.03404379 -0.01966415
v -0.117899 0.026122391 -0.015091695
v -0.11789896 7.382747E-08 -0.03017338
v -0.07362288 1.0377459E-07 -0.03931922
v 0.1179325 7.472654E-08 -0.030173376
v 0.1179325 0.026122387 0.015071769
v 0.11793253 0.026122387 -0.015091693
v 0.1179325 3.7088817E-08 0.030153528
v 0.1179325 -0.026122313 -0.015091684
v 0.1179325 -0.026122313 0.015071781
v 0.1179325 7.472654E-08 -0.030173376
v 0.07365642 -0.034043677 -0.019664133
v 0.07365641 -0.034043677 0.01964615
v 0.1179325 -0.026122313 0.015071781
v 0.1179325 -0.026122313 -0.015091684
v 0.07365641 -0.034043677 0.01964615
v 0.07365642 5.589575E-08 0.039301306
v 0.1179325 3.7088817E-08 0.030153528
v 0.1179325 -0.026122313 0.015071781
v 0.07365642 0.034043785 0.01964613
v 0.073656425 0.034043785 -0.019664148
v 0.11793253 0.026122387 -0.015091693
v 0.1179325 0.026122387 0.015071769
v 0.07365642 1.0494596E-07 -0.039319217
v 0.07365642 -0.034043677 -0.019664133
v 0.1179325 -0.026122313 -0.015091684
v 0.1179325 7.472654E-08 -0.030173376
v -0.11789896 7.382747E-08 -0.03017338
v -0.117899 0.026122391 -0.015091695
v -0.11789896 0.026122391 0.01507177
v -0.11789896 3.798789E-08 0.030153532
v -0.11789896 -0.026122317 -0.015091685
v -0.11789896 7.382747E-08 -0.03017338
v -0.11789896 -0.026122317 0.015071783
v -0.07362288 -0.03404368 -0.019664133
v -0.11789896 -0.026122317 -0.015091685
v -0.11789896 -0.026122317 0.015071783
v -0.07362288 -0.03404368 0.019646153
v -0.07362288 -0.03404368 0.019646153
v -0.11789896 -0.026122317 0.015071783
v -0.11789896 3.798789E-08 0.030153532
v -0.07361689 5.589575E-08 0.0393013
v -0.07362288 0.03404379 0.01964613
v -0.11789896 0.026122391 0.01507177
v -0.117899 0.026122391 -0.015091695
v -0.0736229 0.03404379 -0.01966415
v -0.07362288 1.0377459E-07 -0.03931922
v -0.11789896 7.382747E-08 -0.03017338
v -0.11789896 -0.026122317 -0.015091685
v -0.07362288 -0.03404368 -0.019664133
v -0.07031895 0.0847282 -0.04892303
v -0.070318975 0.0847282 0.048912484
v -0.07362288 0.03404379 0.01964613
v -0.0736229 0.03404379 -0.01966415
v -0.07031896 -0.084727995 -0.048922997
v -0.111815125 2.0217705E-07 -0.09783985
v -0.07362288 1.0377459E-07 -0.03931922
v -0.07362288 -0.03404368 -0.019664133
v -0.070318975 0.0847282 0.048912484
v -0.11181092 1.0544714E-07 0.09783032
v -0.07361689 5.589575E-08 0.0393013
v -0.07362288 0.03404379 0.01964613
v -0.111815125 2.0217705E-07 -0.09783985
v -0.07031895 0.0847282 -0.04892303
v -0.0736229 0.03404379 -0.01966415
v -0.07362288 1.0377459E-07 -0.03931922
v -0.07031899 -0.084727995 0.04891252
v -0.07031896 -0.084727995 -0.048922997
v -0.07362288 -0.03404368 -0.019664133
v -0.07362288 -0.03404368 0.019646153
v -0.11181092 1.0544714E-07 0.09783032
v -0.07031899 -0.084727995 0.04891252
v -0.07362288 -0.03404368 0.019646153
v -0.07361689 5.589575E-08 0.0393013
v 0.07365642 5.589575E-08 0.039301306
v 0.07365641 -0.034043677 0.01964615
v 0.07039454 -0.084727995 0.04891252
v 0.11188649 1.0544714E-07 0.09783032
v 0.07365641 -0.034043677 0.01964615
v 0.07365642 -0.034043677 -0.019664133
v 0.070394546 -0.084727995 -0.048922986
v 0.07039454 -0.084727995 0.04891252
v -0.07031896 -0.084727995 -0.048922997
v -0.07031899 -0.084727995 0.04891252
v -0.048102196 -0.1146356 0.033465594
v -0.048102178 -0.1146356 -0.033476077
v 0.07365642 1.0494596E-07 -0.039319217
v 0.073656425 0.034043785 -0.019664148
v 0.07039458 0.0847282 -0.04892302
v 0.11189069 2.0217705E-07 -0.09783985
v 0.07365642 0.034043785 0.01964613
v 0.07365642 5.589575E-08 0.039301306
v 0.11188649 1.0544714E-07 0.09783032
v 0.07039454 0.0847282 0.048912484
v 0.07365642 -0.034043677 -0.019664133
v 0.07365642 1.0494596E-07 -0.039319217
v 0.11189069 2.0217705E-07 -0.09783985
v 0.070394546 -0.084727995 -0.048922986
v 0.073656425 0.034043785 -0.019664148
v 0.07365642 0.034043785 0.01964613
v 0.07039454 0.0847282 0.048912484
v 0.07039458 0.0847282 -0.04892302
v -0.07031899 -0.084727995 0.04891252
v 0.07039454 -0.084727995 0.04891252
v 0.048177745 -0.1146356 0.033465594
v -0.048102196 -0.1146356 0.033465594
v 0.070394546 -0.084727995 -0.048922986
v -0.07031896 -0.084727995 -0.048922997
v -0.048102178 -0.1146356 -0.033476077
v 0.048177768 -0.1146356 -0.033476062
v 0.07039454 -0.084727995 0.04891252
v 0.070394546 -0.084727995 -0.048922986
v 0.048177768 -0.1146356 -0.033476062
v 0.048177745 -0.1146356 0.033465594
v 0.11189069 2.0217705E-07 -0.09783985
v 0.070394546 0.043017518 -0.15591821
v 0.070394546 -0.04301711 -0.15591821
v -0.07031897 -0.04301711 -0.15591821
v -0.07031897 0.043017518 -0.15591821
v -0.111815125 2.0217705E-07 -0.09783985
v -0.11181092 1.0544714E-07 0.09783032
v -0.070318975 0.04301752 0.15789025
v -0.070318975 -0.043017104 0.15789025
v 0.07039454 0.04301752 0.15789025
v 0.11188649 1.0544714E-07 0.09783032
v 0.07039454 -0.043017104 0.15789025
v -0.070318975 0.0847282 0.048912484
v 0.07039454 0.08472821 0.10897242
v -0.070318975 0.08472821 0.10897241
v 0.07039454 0.0847282 0.048912484
v 0.07039458 0.0847282 -0.04892302
v -0.070318975 0.0847282 0.048912484
v -0.07031895 0.0847282 -0.04892303
v -0.070318945 0.084728196 -0.10700064
v 0.07039458 0.084728196 -0.10700064
v 0.11189069 2.0217705E-07 -0.09783985
v 0.07039458 0.0847282 -0.04892302
v 0.07039458 0.084728196 -0.10700064
v 0.070394546 0.043017518 -0.15591821
v 0.07039454 0.0847282 0.048912484
v 0.11188649 1.0544714E-07 0.09783032
v 0.07039454 0.04301752 0.15789025
v 0.07039454 0.08472821 0.10897242
v -0.07031896 -0.084727995 -0.048922997
v 0.070394546 -0.084727995 -0.048922986
v 0.07039455 -0.084728 -0.10700062
v -0.07031895 -0.084728 -0.10700062
v 0.070394546 0.043017518 -0.15591821
v 0.07039458 0.084728196 -0.10700064
v -0.070318945 0.084728196 -0.10700064
v -0.07031897 0.043017518 -0.15591821
v 0.07039455 -0.084728 -0.10700062
v 0.070394546 -0.04301711 -0.15591821
v -0.07031897 -0.04301711 -0.15591821
v -0.07031895 -0.084728 -0.10700062
v -0.111815125 2.0217705E-07 -0.09783985
v -0.07031896 -0.084727995 -0.048922997
v -0.07031895 -0.084728 -0.10700062
v -0.07031897 -0.04301711 -0.15591821
v -0.07031895 0.0847282 -0.04892303
v -0.111815125 2.0217705E-07 -0.09783985
v -0.07031897 0.043017518 -0.15591821
v -0.070318945 0.084728196 -0.10700064
v 0.07039455 -0.084728 -0.10700062
v 0.070394546 -0.084727995 -0.048922986
v 0.11189069 2.0217705E-07 -0.09783985
v 0.070394546 -0.04301711 -0.15591821
v 0.07039454 -0.043017104 0.15789025
v 0.07039454 -0.08472799 0.108972445
v -0.07031899 -0.08472799 0.108972445
v -0.070318975 -0.043017104 0.15789025
v 0.07039454 0.08472821 0.10897242
v 0.07039454 0.04301752 0.15789025
v -0.070318975 0.04301752 0.15789025
v -0.070318975 0.08472821 0.10897241
v 0.11188649 1.0544714E-07 0.09783032
v 0.07039454 -0.084727995 0.04891252
v 0.07039454 -0.08472799 0.108972445
v 0.07039454 -0.043017104 0.15789025
v -0.11181092 1.0544714E-07 0.09783032
v -0.070318975 0.0847282 0.048912484
v -0.070318975 0.08472821 0.10897241
v -0.070318975 0.04301752 0.15789025
v -0.07031899 -0.084727995 0.04891252
v -0.11181092 1.0544714E-07 0.09783032
v -0.070318975 -0.043017104 0.15789025
v -0.07031899 -0.08472799 0.108972445
v 0.07039454 -0.084727995 0.04891252
v -0.07031899 -0.084727995 0.04891252
v -0.07031899 -0.08472799 0.108972445
v 0.07039454 -0.08472799 0.108972445
v -0.07031897 0.043017518 -0.15591821
v -0.07031897 -0.04301711 -0.15591821
v 0.070394546 -0.04301711 -0.15591821
v 0.070394546 0.043017518 -0.15591821
v -0.070318975 -0.043017104 0.15789025
v -0.070318975 0.04301752 0.15789025
v 0.07039454 0.04301752 0.15789025
v 0.07039454 -0.043017104 0.15789025
vt 0.86311454 0.44927344
vt 0.86311454 0.46755597
vt 0.852083 0.45762226
vt 0.8520525 0.4524371
vt 0.36862954 0.8506353
vt 0.37894854 0.84134287
vt 0.37856486 0.8364962
vt 0.36820713 0.83273125
vt 0.8327576 0.4402199
vt 0.85051966 0.4379297
vt 0.84785587 0.4486235
vt 0.8430753 0.44951087
vt 0.38080406 0.821389
vt 0.38279563 0.83272076
vt 0.38795564 0.8332318
vt 0.39898705 0.823298
vt 0.852083 0.45762226
vt 0.84785587 0.4486235
vt 0.8520525 0.4524371
vt 0.8430753 0.44951087
vt 0.846923 0.45813346
vt 0.84269196 0.45435807
vt 0.852083 0.45762226
vt 0.84493196 0.46946537
vt 0.8323349 0.4581241
vt 0.84269196 0.45435807
vt 0.846923 0.45813346
vt 0.8323349 0.4581241
vt 0.8327576 0.4402199
vt 0.8430753 0.44951087
vt 0.84269196 0.45435807
vt 0.85051966 0.4379297
vt 0.86311454 0.44927344
vt 0.8520525 0.4524371
vt 0.84785587 0.4486235
vt 0.86311454 0.46755597
vt 0.84493196 0.46946537
vt 0.846923 0.45813346
vt 0.852083 0.45762226
vt 0.38795564 0.8332318
vt 0.38279563 0.83272076
vt 0.37856486 0.8364962
vt 0.37894854 0.84134287
vt 0.38792518 0.83841705
vt 0.38795564 0.8332318
vt 0.38372865 0.8422305
vt 0.39898705 0.8415809
vt 0.38792518 0.83841705
vt 0.38372865 0.8422305
vt 0.38639158 0.8529247
vt 0.38639158 0.8529247
vt 0.38372865 0.8422305
vt 0.37894854 0.84134287
vt 0.36862954 0.8506353
vt 0.36820713 0.83273125
vt 0.37856486 0.8364962
vt 0.38279563 0.83272076
vt 0.38080406 0.821389
vt 0.39898705 0.823298
vt 0.38795564 0.8332318
vt 0.38792518 0.83841705
vt 0.39898705 0.8415809
vt 0.7349721 0.88846076
vt 0.71486765 0.87378496
vt 0.7285479 0.8675369
vt 0.73680985 0.8735514
vt 0.76088053 0.8530312
vt 0.76088053 0.880219
vt 0.7463091 0.86956334
vt 0.74722993 0.8593021
vt 0.71486765 0.87378496
vt 0.71488494 0.8465839
vt 0.72947305 0.8572517
vt 0.7285479 0.8675369
vt 0.76088053 0.880219
vt 0.7349721 0.88846076
vt 0.73680985 0.8735514
vt 0.7463091 0.86956334
vt 0.7408008 0.83832157
vt 0.76088053 0.8530312
vt 0.74722993 0.8593021
vt 0.7389939 0.8532522
vt 0.71488494 0.8465839
vt 0.7408008 0.83832157
vt 0.7389939 0.8532522
vt 0.72947305 0.8572517
vt 0.7462843 0.8064632
vt 0.7367582 0.8024549
vt 0.73495656 0.78751963
vt 0.7608861 0.7957935
vt 0.7367582 0.8024549
vt 0.7285109 0.8085018
vt 0.71486765 0.8022324
vt 0.73495656 0.78751963
vt 0.96782225 0.0040701334
vt 0.94245267 0.04158487
vt 0.9321723 0.026000848
vt 0.94953084 0.00033226522
vt 0.72946084 0.81875235
vt 0.7389497 0.8227518
vt 0.7407817 0.83765703
vt 0.71488506 0.82941467
vt 0.7472131 0.81675583
vt 0.7462843 0.8064632
vt 0.7608861 0.7957935
vt 0.7608861 0.8230056
vt 0.7285109 0.8085018
vt 0.72946084 0.81875235
vt 0.71488506 0.82941467
vt 0.71486765 0.8022324
vt 0.7389497 0.8227518
vt 0.7472131 0.81675583
vt 0.7608861 0.8230056
vt 0.7407817 0.83765703
vt 0.94245267 0.04158487
vt 0.89863515 0.0533559
vt 0.90111536 0.039404836
vt 0.9321723 0.026000848
vt 0.9109717 0.22383735
vt 0.9574467 0.228865
vt 0.94951123 0.2468956
vt 0.9157557 0.2375928
vt 0.89863515 0.0533559
vt 0.8696779 0.034836985
vt 0.881302 0.026733717
vt 0.90111536 0.039404836
vt 0.90358 0.19004947
vt 0.9211762 0.18210006
vt 0.92108524 0.1981704
vt 0.9486805 0.19919145
vt 0.948846 0.1821318
vt 0.96782225 0.19086112
vt 0.9582206 0.07643947
vt 0.94108886 0.08769295
vt 0.93835443 0.07152576
vt 0.91471225 0.09181646
vt 0.8964334 0.08683719
vt 0.912315 0.07656399
vt 0.9549004 0.11437129
vt 0.9137526 0.10419136
vt 0.9455987 0.10014512
vt 0.9084621 0.11903167
vt 0.91106844 0.15563615
vt 0.9549004 0.11437129
vt 0.95811474 0.15309042
vt 0.95135736 0.16854633
vt 0.9183397 0.16946764
vt 0.90358 0.19004947
vt 0.91106844 0.15563615
vt 0.9183397 0.16946764
vt 0.9211762 0.18210006
vt 0.9084621 0.11903167
vt 0.8964334 0.08683719
vt 0.91471225 0.09181646
vt 0.9137526 0.10419136
vt 0.9574467 0.228865
vt 0.9109717 0.22383735
vt 0.9181881 0.21054755
vt 0.95095414 0.21296072
vt 0.9211762 0.18210006
vt 0.9183397 0.16946764
vt 0.95135736 0.16854633
vt 0.948846 0.1821318
vt 0.9181881 0.21054755
vt 0.92108524 0.1981704
vt 0.9486805 0.19919145
vt 0.95095414 0.21296072
vt 0.96782225 0.19086112
vt 0.9574467 0.228865
vt 0.95095414 0.21296072
vt 0.9486805 0.19919145
vt 0.95811474 0.15309042
vt 0.96782225 0.19086112
vt 0.948846 0.1821318
vt 0.95135736 0.16854633
vt 0.9181881 0.21054755
vt 0.9109717 0.22383735
vt 0.90358 0.19004947
vt 0.92108524 0.1981704
vt 0.912315 0.07656399
vt 0.9077737 0.06534323
vt 0.93849105 0.058234315
vt 0.93835443 0.07152576
vt 0.9137526 0.10419136
vt 0.91471225 0.09181646
vt 0.94108886 0.08769295
vt 0.9455987 0.10014512
vt 0.8964334 0.08683719
vt 0.89863515 0.0533559
vt 0.9077737 0.06534323
vt 0.912315 0.07656399
vt 0.9582206 0.07643947
vt 0.9549004 0.11437129
vt 0.9455987 0.10014512
vt 0.94108886 0.08769295
vt 0.94245267 0.04158487
vt 0.9582206 0.07643947
vt 0.93835443 0.07152576
vt 0.93849105 0.058234315
vt 0.89863515 0.0533559
vt 0.94245267 0.04158487
vt 0.93849105 0.058234315
vt 0.9077737 0.06534323
vt 0.948846 0.1821318
vt 0.9486805 0.19919145
vt 0.92108524 0.1981704
vt 0.9211762 0.18210006
vt 0.93835443 0.07152576
vt 0.94108886 0.08769295
vt 0.91471225 0.09181646
vt 0.912315 0.07656399
vn 0.1760946 0.49218556 -0.85249287
vn 0.1760946 0.49218556 -0.85249287
vn 0.1760946 0.49218556 -0.85249287
vn 0.1760946 0.49218556 -0.85249287
vn -0.17611873 0.49217144 0.852496
vn -0.17611873 0.49217144 0.852496
vn -0.17611873 0.49217144 0.852496
vn -0.17611873 0.49217144 0.852496
vn 0.17613044 0.49218383 0.85248643
vn 0.17613044 0.49218383 0.85248643
vn 0.17613044 0.49218383 0.85248643
vn 0.17613044 0.49218383 0.85248643
vn -0.17609458 0.49218538 -0.8524929
vn -0.17609458 0.49218538 -0.8524929
vn -0.17609458 0.49218538 -0.8524929
vn -0.17609458 0.49218538 -0.8524929
vn 1 0 0
vn 1 0 0
vn 1 0 0
vn 1 0 0
vn 1 0 0
vn 1 0 0
vn 1 0 0
vn 0.17611215 -0.9843701 0
vn 0.17611215 -0.9843701 0
vn 0.17611215 -0.9843701 0
vn 0.17611215 -0.9843701 0
vn 0.17613013 -0.49218348 0.8524868
vn 0.17613013 -0.49218348 0.8524868
vn 0.17613013 -0.49218348 0.8524868
vn 0.17613013 -0.49218348 0.8524868
vn 0.17611271 0.98437 0
vn 0.17611271 0.98437 0
vn 0.17611271 0.98437 0
vn 0.17611271 0.98437 0
vn 0.17609407 -0.49218476 -0.85249335
vn 0.17609407 -0.49218476 -0.85249335
vn 0.17609407 -0.49218476 -0.85249335
vn 0.17609407 -0.49218476 -0.85249335
vn -1 0 0
vn -1 0 0
vn -1 0 0
vn -1 0 0
vn -1 0 0
vn -1 0 0
vn -1 0 0
vn -0.17611212 -0.9843701 0
vn -0.17611212 -0.9843701 0
vn -0.17611212 -0.9843701 0
vn -0.17611212 -0.9843701 0
vn -0.17611848 -0.4921713 0.8524962
vn -0.17611848 -0.4921713 0.8524962
vn -0.17611848 -0.4921713 0.8524962
vn -0.17611848 -0.4921713 0.8524962
vn -0.17611271 0.98437 0
vn -0.17611271 0.98437 0
vn -0.17611271 0.98437 0
vn -0.17611271 0.98437 0
vn -0.17609404 -0.49218476 -0.85249335
vn -0.17609404 -0.49218476 -0.85249335
vn -0.17609404 -0.49218476 -0.85249335
vn -0.17609404 -0.49218476 -0.85249335
vn -0.99788207 0.06504818 0
vn -0.99788207 0.06504818 0
vn -0.99788207 0.06504818 0
vn -0.99788207 0.06504818 0
vn -0.90907955 -0.08175433 0.4085226
vn -0.90907955 -0.08175433 0.4085226
vn -0.90907955 -0.08175433 0.4085226
vn -0.90907955 -0.08175433 0.4085226
vn -0.90911067 0.08171969 -0.40846005
vn -0.90911067 0.08171969 -0.40846005
vn -0.90911067 0.08171969 -0.40846005
vn -0.90911067 0.08171969 -0.40846005
vn -0.9090794 0.081754535 0.40852278
vn -0.9090794 0.081754535 0.40852278
vn -0.9090794 0.081754535 0.40852278
vn -0.9090794 0.081754535 0.40852278
vn -0.99788207 -0.06504794 0
vn -0.99788207 -0.06504794 0
vn -0.99788207 -0.06504794 0
vn -0.99788207 -0.06504794 0
vn -0.90911067 -0.081719756 -0.40846005
vn -0.90911067 -0.081719756 -0.40846005
vn -0.90911067 -0.081719756 -0.40846005
vn -0.90911067 -0.081719756 -0.40846005
vn 0.9089016 -0.081385486 -0.40899202
vn 0.9089016 -0.081385486 -0.40899202
vn 0.9089016 -0.081385486 -0.40899202
vn 0.9089016 -0.081385486 -0.40899202
vn 0.99793553 -0.06422376 0
vn 0.99793553 -0.06422376 0
vn 0.99793553 -0.06422376 0
vn 0.99793553 -0.06422376 0
vn -0.8027476 -0.59631896 0
vn -0.8027476 -0.59631896 0
vn -0.8027476 -0.59631896 0
vn -0.8027476 -0.59631896 0
vn 0.9088646 0.081357695 0.4090795
vn 0.9088646 0.081357695 0.4090795
vn 0.9088646 0.081357695 0.4090795
vn 0.9088646 0.081357695 0.4090795
vn 0.9089016 0.08138521 -0.408992
vn 0.9089016 0.08138521 -0.408992
vn 0.9089016 0.08138521 -0.408992
vn 0.9089016 0.08138521 -0.408992
vn 0.90886474 -0.08135791 0.40907902
vn 0.90886474 -0.08135791 0.40907902
vn 0.90886474 -0.08135791 0.40907902
vn 0.90886474 -0.08135791 0.40907902
vn 0.99793553 0.064223416 0
vn 0.99793553 0.064223416 0
vn 0.99793553 0.064223416 0
vn 0.99793553 0.064223416 0
vn -0 -0.458895 0.88849056
vn -0 -0.458895 0.88849056
vn -0 -0.458895 0.88849056
vn -0 -0.458895 0.88849056
vn -0 -0.458895 -0.88849056
vn -0 -0.458895 -0.88849056
vn -0 -0.458895 -0.88849056
vn -0 -0.458895 -0.88849056
vn 0.8027475 -0.5963191 0
vn 0.8027475 -0.5963191 0
vn 0.8027475 -0.5963191 0
vn 0.8027475 -0.5963191 0
vn 0.81365657 0 -0.58134586
vn 0.81365657 0 -0.58134586
vn 0.81365657 0 -0.58134586
vn -0.81365657 0 -0.5813459
vn -0.81365657 0 -0.5813459
vn -0.81365657 0 -0.5813459
vn -0.8227561 0 0.56839466
vn -0.8227561 0 0.56839466
vn -0.8227561 0 0.56839466
vn 0.8227561 0 0.56839466
vn 0.8227561 0 0.56839466
vn 0.8227561 0 0.56839466
vn -0 1 0
vn -0 1 0
vn -0 1 0
vn -0 1 0
vn -0 1 0
vn -0 1 0
vn -0 1 0
vn -0 1 0
vn -0 1 0
vn 0.89285165 0.41959453 -0.16357394
vn 0.89285165 0.41959453 -0.16357394
vn 0.89285165 0.41959453 -0.16357394
vn 0.89285165 0.41959453 -0.16357394
vn 0.8947049 0.41714707 0.1596609
vn 0.8947049 0.41714707 0.1596609
vn 0.8947049 0.41714707 0.1596609
vn 0.8947049 0.41714707 0.1596609
vn -0 -1 0
vn -0 -1 0
vn -0 -1 0
vn -0 -1 0
vn -0 0.7609348 -0.6488284
vn -0 0.7609348 -0.6488284
vn -0 0.7609348 -0.6488284
vn -0 0.7609348 -0.6488284
vn -0 -0.7609332 -0.6488301
vn -0 -0.7609332 -0.6488301
vn -0 -0.7609332 -0.6488301
vn -0 -0.7609332 -0.6488301
vn -0.8928517 -0.41959417 -0.16357411
vn -0.8928517 -0.41959417 -0.16357411
vn -0.8928517 -0.41959417 -0.16357411
vn -0.8928517 -0.41959417 -0.16357411
vn -0.89285135 0.4195952 -0.16357373
vn -0.89285135 0.4195952 -0.16357373
vn -0.89285135 0.4195952 -0.16357373
vn -0.89285135 0.4195952 -0.16357373
vn 0.8928519 -0.41959393 -0.16357389
vn 0.8928519 -0.41959393 -0.16357389
vn 0.8928519 -0.41959393 -0.16357389
vn 0.8928519 -0.41959393 -0.16357389
vn -0 -0.7609347 0.6488285
vn -0 -0.7609347 0.6488285
vn -0 -0.7609347 0.6488285
vn -0 -0.7609347 0.6488285
vn -0 0.76093644 0.6488264
vn -0 0.76093644 0.6488264
vn -0 0.76093644 0.6488264
vn -0 0.76093644 0.6488264
vn 0.8947047 -0.41714704 0.15966177
vn 0.8947047 -0.41714704 0.15966177
vn 0.8947047 -0.41714704 0.15966177
vn 0.8947047 -0.41714704 0.15966177
vn -0.89470476 0.4171471 0.15966092
vn -0.89470476 0.4171471 0.15966092
vn -0.89470476 0.4171471 0.15966092
vn -0.89470476 0.4171471 0.15966092
vn -0.89470476 -0.41714683 0.15966196
vn -0.89470476 -0.41714683 0.15966196
vn -0.89470476 -0.41714683 0.15966196
vn -0.89470476 -0.41714683 0.15966196
vn -0 -1 0
vn -0 -1 0
vn -0 -1 0
vn -0 -1 0
vn -0 0 -1
vn -0 0 -1
vn -0 0 -1
vn -0 0 -1
vn -0 0 1
vn -0 0 1
vn -0 0 1
vn -0 0 1
g scifi-robotic-arm-second_0
f 3/3/3 2/2/2 1/1/1
f 4/4/4 3/3/3 1/1/1
f 7/7/7 6/6/6 5/5/5
f 8/8/8 7/7/7 5/5/5
f 11/11/11 10/10/10 9/9/9
f 12/12/12 11/11/11 9/9/9
f 15/15/15 14/14/14 13/13/13
f 16/16/16 15/15/15 13/13/13
f 19/19/19 18/18/18 17/17/17
f 18/18/18 20/20/20 17/17/17
f 20/20/20 22/22/22 21/21/21
f 23/23/23 20/20/20 21/21/21
f 26/26/26 25/25/25 24/24/24
f 27/27/27 26/26/26 24/24/24
f 30/30/30 29/29/29 28/28/28
f 31/31/31 30/30/30 28/28/28
f 34/34/34 33/33/33 32/32/32
f 35/35/35 34/34/34 32/32/32
f 38/38/38 37/37/37 36/36/36
f 39/39/39 38/38/38 36/36/36
f 42/42/42 41/41/41 40/40/40
f 43/43/43 42/42/42 40/40/40
f 43/43/43 45/45/45 44/44/44
f 46/46/46 43/43/43 44/44/44
f 49/49/49 48/48/48 47/47/47
f 50/50/50 49/49/49 47/47/47
f 53/53/53 52/52/52 51/51/51
f 54/54/54 53/53/53 51/51/51
f 57/57/57 56/56/56 55/55/55
f 58/58/58 57/57/57 55/55/55
f 61/61/61 60/60/60 59/59/59
f 62/62/62 61/61/61 59/59/59
g scifi-robotic-arm-second_1
f 65/65/65 64/64/64 63/63/63
f 66/66/66 65/65/65 63/63/63
f 69/69/69 68/68/68 67/67/67
f 70/70/70 69/69/69 67/67/67
f 73/73/73 72/72/72 71/71/71
f 74/74/74 73/73/73 71/71/71
f 77/77/77 76/76/76 75/75/75
f 78/78/78 77/77/77 75/75/75
f 81/81/81 80/80/80 79/79/79
f 82/82/82 81/81/81 79/79/79
f 85/85/85 84/84/84 83/83/83
f 86/86/86 85/85/85 83/83/83
f 89/89/89 88/88/88 87/87/87
f 90/90/90 89/89/89 87/87/87
f 93/93/93 92/92/92 91/91/91
f 94/94/94 93/93/93 91/91/91
f 97/97/97 96/96/96 95/95/95
f 98/98/98 97/97/97 95/95/95
f 101/101/101 100/100/100 99/99/99
f 102/102/102 101/101/101 99/99/99
f 105/105/105 104/104/104 103/103/103
f 106/106/106 105/105/105 103/103/103
f 109/109/109 108/108/108 107/107/107
f 110/110/110 109/109/109 107/107/107
f 113/113/113 112/112/112 111/111/111
f 114/114/114 113/113/113 111/111/111
f 117/117/117 116/116/116 115/115/115
f 118/118/118 117/117/117 115/115/115
f 121/121/121 120/120/120 119/119/119
f 122/122/122 121/121/121 119/119/119
f 125/125/125 124/124/124 123/123/123
f 126/126/126 125/125/125 123/123/123
g scifi-robotic-arm-second_2
f 129/129/129 128/128/128 127/127/127
f 132/132/132 131/131/131 130/130/130
f 135/135/135 134/134/134 133/133/133
f 138/138/138 137/137/137 136/136/136
f 141/141/141 140/140/140 139/139/139
f 140/140/140 142/142/142 139/139/139
f 144/144/144 142/142/142 143/143/143
f 145/145/145 144/144/144 143/143/143
f 146/146/146 145/145/145 143/143/143
f 147/147/147 146/146/146 143/143/143
f 150/150/150 149/149/149 148/148/148
f 151/151/151 150/150/150 148/148/148
f 154/154/154 153/153/153 152/152/152
f 155/155/155 154/154/154 152/152/152
f 158/158/158 157/157/157 156/156/156
f 159/159/159 158/158/158 156/156/156
f 162/162/162 161/161/161 160/160/160
f 163/163/163 162/162/162 160/160/160
f 166/166/166 165/165/165 164/164/164
f 167/167/167 166/166/166 164/164/164
f 170/170/170 169/169/169 168/168/168
f 171/171/171 170/170/170 168/168/168
f 174/174/174 173/173/173 172/172/172
f 175/175/175 174/174/174 172/172/172
f 178/178/178 177/177/177 176/176/176
f 179/179/179 178/178/178 176/176/176
f 182/182/182 181/181/181 180/180/180
f 183/183/183 182/182/182 180/180/180
f 186/186/186 185/185/185 184/184/184
f 187/187/187 186/186/186 184/184/184
f 190/190/190 189/189/189 188/188/188
f 191/191/191 190/190/190 188/188/188
f 194/194/194 193/193/193 192/192/192
f 195/195/195 194/194/194 192/192/192
f 198/198/198 197/197/197 196/196/196
f 199/199/199 198/198/198 196/196/196
f 202/202/202 201/201/201 200/200/200
f 203/203/203 202/202/202 200/200/200
f 206/206/206 205/205/205 204/204/204
f 207/207/207 206/206/206 204/204/204
f 210/210/210 209/209/209 208/208/208
f 211/211/211 210/210/210 208/208/208
