g scifi-pillar-light
v -0.3501542 0 -0.20016503
v 0.2000252 0 -0.35016698
v -0.20002517 0 -0.35016698
v 0.35015413 0 -0.20016503
v -0.35015413 0 0.20015664
v 0.35015413 0 0.20015661
v -0.20002514 0 0.35015863
v 0.2000252 0 0.35015863
v -0.3501542 3 -0.20016503
v -0.20002517 3 -0.35016698
v 0.2000252 3 -0.35016698
v 0.35015413 3 -0.20016503
v -0.35015413 3 0.20015664
v 0.35015413 3 0.20015661
v -0.20002514 3 0.35015863
v 0.2000252 3 0.35015863
v 0.2000252 2.500675 -0.35016698
v 0.35015413 2.500675 -0.20016503
v 0.35015413 3 -0.20016503
v 0.2000252 3 -0.35016698
v 0.35015413 2.500675 0.20015661
v 0.2000252 2.500675 0.35015863
v 0.2000252 3 0.35015863
v 0.35015413 3 0.20015661
v -0.20002514 2.700675 0.35015863
v -0.35015413 2.700675 0.20015664
v -0.35015413 3 0.20015664
v -0.20002514 3 0.35015863
v -0.3501542 2.700675 -0.20016503
v -0.20002517 2.700675 -0.35016698
v -0.20002517 3 -0.35016698
v -0.3501542 3 -0.20016503
v -0.20002517 2.700675 -0.35016698
v 0.2000252 2.500675 -0.35016698
v 0.2000252 3 -0.35016698
v -0.20002517 3 -0.35016698
v 0.35015413 2.500675 -0.20016503
v 0.35015413 2.500675 0.20015661
v 0.35015413 3 0.20015661
v 0.35015413 3 -0.20016503
v 0.2000252 2.500675 0.35015863
v -0.20002514 2.700675 0.35015863
v -0.20002514 3 0.35015863
v 0.2000252 3 0.35015863
v -0.35015413 2.700675 0.20015664
v -0.3501542 2.700675 -0.20016503
v -0.3501542 3 -0.20016503
v -0.35015413 3 0.20015664
v -0.35015413 0 0.20015664
v -0.3501542 0 -0.20016503
v -0.3501542 0.69932467 -0.20016503
v -0.35015413 0.6993249 0.20015664
v -0.3132022 2.600675 0.18484148
v -0.31320226 2.600675 -0.18484987
v -0.3501542 2.700675 -0.20016503
v -0.35015413 2.700675 0.20015664
v 0.2000252 0 0.35015863
v -0.20002514 0 0.35015863
v -0.20002514 0.69932467 0.35015863
v 0.2000252 0.49932495 0.35015863
v 0.18671192 2.400675 0.3124392
v -0.18212298 2.600675 0.31438836
v -0.20002514 2.700675 0.35015863
v 0.2000252 2.500675 0.35015863
v 0.35015413 0 -0.20016503
v 0.35015413 0 0.20015661
v 0.35015413 0.4993247 0.20015661
v 0.35015413 0.49932495 -0.20016503
v 0.3132022 2.400675 -0.18484987
v 0.3132022 2.400675 0.18484147
v 0.35015413 2.500675 0.20015661
v 0.35015413 2.500675 -0.20016503
v -0.20002517 0 -0.35016698
v 0.2000252 0 -0.35016698
v 0.2000252 0.4993247 -0.35016698
v -0.20002517 0.6993249 -0.35016698
v -0.18212302 2.600675 -0.3143967
v 0.18671192 2.400675 -0.31244755
v 0.2000252 2.500675 -0.35016698
v -0.20002517 2.700675 -0.35016698
v -0.3501542 0 -0.20016503
v -0.20002517 0 -0.35016698
v -0.20002517 0.6993249 -0.35016698
v -0.3501542 0.69932467 -0.20016503
v -0.31320226 2.600675 -0.18484987
v -0.18212302 2.600675 -0.3143967
v -0.20002517 2.700675 -0.35016698
v -0.3501542 2.700675 -0.20016503
v -0.20002514 0 0.35015863
v -0.35015413 0 0.20015664
v -0.35015413 0.6993249 0.20015664
v -0.20002514 0.69932467 0.35015863
v -0.18212298 2.600675 0.31438836
v -0.3132022 2.600675 0.18484148
v -0.35015413 2.700675 0.20015664
v -0.20002514 2.700675 0.35015863
v 0.35015413 0 0.20015661
v 0.2000252 0 0.35015863
v 0.2000252 0.49932495 0.35015863
v 0.35015413 0.4993247 0.20015661
v 0.3132022 2.400675 0.18484147
v 0.18671192 2.400675 0.3124392
v 0.2000252 2.500675 0.35015863
v 0.35015413 2.500675 0.20015661
v 0.2000252 0 -0.35016698
v 0.35015413 0 -0.20016503
v 0.35015413 0.49932495 -0.20016503
v 0.2000252 0.4993247 -0.35016698
v 0.18671192 2.400675 -0.31244755
v 0.3132022 2.400675 -0.18484987
v 0.35015413 2.500675 -0.20016503
v 0.2000252 2.500675 -0.35016698
v -0.35015413 0.6993249 0.20015664
v -0.3501542 0.69932467 -0.20016503
v -0.31320226 0.79932475 -0.18484987
v -0.3132022 0.799325 0.18484148
v 0.2000252 0.49932495 0.35015863
v -0.20002514 0.69932467 0.35015863
v -0.18671186 0.79932475 0.31243917
v 0.18212304 0.59932494 0.31438836
v 0.35015413 0.49932495 -0.20016503
v 0.35015413 0.4993247 0.20015661
v 0.3132022 0.5993247 0.18484147
v 0.3132022 0.59932494 -0.18484987
v -0.20002517 0.6993249 -0.35016698
v 0.2000252 0.4993247 -0.35016698
v 0.18212304 0.5993247 -0.3143967
v -0.18671189 0.799325 -0.31244755
v -0.3501542 0.69932467 -0.20016503
v -0.20002517 0.6993249 -0.35016698
v -0.18671189 0.799325 -0.31244755
v -0.31320226 0.79932475 -0.18484987
v -0.20002514 0.69932467 0.35015863
v -0.35015413 0.6993249 0.20015664
v -0.3132022 0.799325 0.18484148
v -0.18671186 0.79932475 0.31243917
v 0.35015413 0.4993247 0.20015661
v 0.2000252 0.49932495 0.35015863
v 0.18212304 0.59932494 0.31438836
v 0.3132022 0.5993247 0.18484147
v 0.2000252 0.4993247 -0.35016698
v 0.35015413 0.49932495 -0.20016503
v 0.3132022 0.59932494 -0.18484987
v 0.18212304 0.5993247 -0.3143967
v 0.18212304 0.5993247 -0.3143967
v 0.3132022 0.59932494 -0.18484987
v 0.3132022 2.400675 -0.18484987
v 0.18671192 2.400675 -0.31244755
v 0.3132022 0.5993247 0.18484147
v 0.18212304 0.59932494 0.31438836
v 0.18671192 2.400675 0.3124392
v 0.3132022 2.400675 0.18484147
v -0.18671186 0.79932475 0.31243917
v -0.3132022 0.799325 0.18484148
v -0.3132022 2.600675 0.18484148
v -0.18212298 2.600675 0.31438836
v -0.31320226 0.79932475 -0.18484987
v -0.18671189 0.799325 -0.31244755
v -0.18212302 2.600675 -0.3143967
v -0.31320226 2.600675 -0.18484987
v -0.18671189 0.799325 -0.31244755
v 0.18212304 0.5993247 -0.3143967
v 0.18671192 2.400675 -0.31244755
v -0.18212302 2.600675 -0.3143967
v 0.3132022 0.59932494 -0.18484987
v 0.3132022 0.5993247 0.18484147
v 0.3132022 2.400675 0.18484147
v 0.3132022 2.400675 -0.18484987
v 0.18212304 0.59932494 0.31438836
v -0.18671186 0.79932475 0.31243917
v -0.18212298 2.600675 0.31438836
v 0.18671192 2.400675 0.3124392
v -0.3132022 0.799325 0.18484148
v -0.31320226 0.79932475 -0.18484987
v -0.31320226 2.600675 -0.18484987
v -0.3132022 2.600675 0.18484148
vt 0.18742903 0.62959343
vt 0.15515357 0.51121277
vt 0.15515351 0.5972906
vt 0.18742906 0.47890997
vt 0.2735652 0.62959343
vt 0.2735652 0.47891003
vt 0.3058407 0.59729064
vt 0.3058407 0.5112129
vt 0.0014900243 0.5973217
vt 0.033792865 0.6295972
vt 0.11987062 0.62959725
vt 0.15217349 0.5973217
vt 0.0014900173 0.5111855
vt 0.15217349 0.5111855
vt 0.033792883 0.47890997
vt 0.11987062 0.47890997
vt 0.9618535 0.080694444
vt 0.9781991 0.03907846
vt 0.8545383 0.0014900173
vt 0.84122777 0.04527915
vt 0.95075905 0.4335788
vt 0.94162947 0.3909326
vt 0.8144517 0.41038692
vt 0.82295287 0.4585452
vt 0.89228106 0.31449783
vt 0.8908909 0.2718934
vt 0.80538946 0.26937926
vt 0.80576617 0.31795904
vt 0.89588237 0.19051012
vt 0.90277016 0.14827529
vt 0.8205961 0.13243139
vt 0.81273067 0.17901798
vt 0.90277016 0.14827529
vt 0.9618535 0.080694444
vt 0.84122777 0.04527915
vt 0.8205961 0.13243139
vt 0.9773245 0.5151801
vt 0.95075905 0.4335788
vt 0.82295287 0.4585452
vt 0.8440043 0.54921925
vt 0.94162947 0.3909326
vt 0.89228106 0.31449783
vt 0.80576617 0.31795904
vt 0.8144517 0.41038692
vt 0.8908909 0.2718934
vt 0.89588237 0.19051012
vt 0.81273067 0.17901798
vt 0.80538946 0.26937926
vt 0.6088051 0.2738933
vt 0.60723144 0.36495897
vt 0.7772758 0.36236763
vt 0.7769613 0.28240806
vt 0.91368496 0.2725851
vt 0.9192465 0.19277528
vt 0.89588237 0.19051012
vt 0.8908909 0.2718934
vt 0.62266916 0.13529314
vt 0.6117684 0.22617789
vt 0.77898085 0.23959325
vt 0.74818456 0.15476061
vt 0.9649466 0.38768658
vt 0.9145857 0.31309986
vt 0.89228106 0.31449783
vt 0.94162947 0.3909326
vt 0.6491014 0.0014900173
vt 0.6309465 0.08820996
vt 0.7553421 0.11249191
vt 0.7789306 0.028669858
vt 0.99850994 0.50460976
vt 0.97293675 0.4274695
vt 0.95075905 0.4335788
vt 0.9773245 0.5151801
vt 0.60866785 0.4132059
vt 0.616519 0.5060949
vt 0.7471549 0.4916476
vt 0.7789772 0.40490463
vt 0.9247239 0.15248647
vt 0.9834615 0.087431595
vt 0.9618535 0.080694444
vt 0.90277016 0.14827529
vt 0.60723144 0.36495897
vt 0.60866785 0.4132059
vt 0.7789772 0.40490463
vt 0.7772758 0.36236763
vt 0.9192465 0.19277528
vt 0.9247239 0.15248647
vt 0.90277016 0.14827529
vt 0.89588237 0.19051012
vt 0.6117684 0.22617789
vt 0.6088051 0.2738933
vt 0.7769613 0.28240806
vt 0.77898085 0.23959325
vt 0.9145857 0.31309986
vt 0.91368496 0.2725851
vt 0.8908909 0.2718934
vt 0.89228106 0.31449783
vt 0.6309465 0.08820996
vt 0.62266916 0.13529314
vt 0.74818456 0.15476061
vt 0.7553421 0.11249191
vt 0.97293675 0.4274695
vt 0.9649466 0.38768658
vt 0.94162947 0.3909326
vt 0.95075905 0.4335788
vt 0.616519 0.5060949
vt 0.6225238 0.55487436
vt 0.7565996 0.53692305
vt 0.7471549 0.4916476
vt 0.9834615 0.087431595
vt 0.99850994 0.051073175
vt 0.9781991 0.03907846
vt 0.9618535 0.080694444
vt 0.7769613 0.28240806
vt 0.7772758 0.36236763
vt 0.79943067 0.36198315
vt 0.7998578 0.28273472
vt 0.74818456 0.15476061
vt 0.77898085 0.23959325
vt 0.80240947 0.24207185
vt 0.7702113 0.15823866
vt 0.7789306 0.028669858
vt 0.7553421 0.11249191
vt 0.77799475 0.11809838
vt 0.80166864 0.038865164
vt 0.7789772 0.40490463
vt 0.7471549 0.4916476
vt 0.76990604 0.48745596
vt 0.80240947 0.40242192
vt 0.7772758 0.36236763
vt 0.7789772 0.40490463
vt 0.80240947 0.40242192
vt 0.79943067 0.36198315
vt 0.77898085 0.23959325
vt 0.7769613 0.28240806
vt 0.7998578 0.28273472
vt 0.80240947 0.24207185
vt 0.7553421 0.11249191
vt 0.74818456 0.15476061
vt 0.7702113 0.15823866
vt 0.77799475 0.11809838
vt 0.7471549 0.4916476
vt 0.7565996 0.53692305
vt 0.7798188 0.5280063
vt 0.76990604 0.48745596
vt 0.6042514 0.041144982
vt 0.6042512 0.0014911678
vt 0.0445252 0.0014900173
vt 0.044525087 0.040149
vt 0.60425127 0.39638442
vt 0.6042514 0.35673052
vt 0.04452503 0.35772574
vt 0.04452497 0.3963843
vt 0.5612165 0.27736893
vt 0.5612164 0.23871037
vt 0.0014902418 0.23871015
vt 0.0014900173 0.278364
vt 0.5612165 0.15916494
vt 0.5612165 0.12050635
vt 0.0014901856 0.11951038
vt 0.0014902418 0.1591645
vt 0.5612165 0.12050635
vt 0.6042514 0.041144982
vt 0.044525087 0.040149
vt 0.0014901856 0.11951038
vt 0.60425127 0.47592992
vt 0.60425127 0.39638442
vt 0.04452497 0.3963843
vt 0.04452503 0.47592992
vt 0.6042514 0.35673052
vt 0.5612165 0.27736893
vt 0.0014900173 0.278364
vt 0.04452503 0.35772574
vt 0.5612164 0.23871037
vt 0.5612165 0.15916494
vt 0.0014902418 0.1591645
vt 0.0014902418 0.23871015
vn -0 -1 0
vn -0 -1 0
vn -0 -1 0
vn -0 -1 0
vn -0 -1 0
vn -0 -1 0
vn -0 -1 0
vn -0 -1 0
vn -0 1 0
vn -0 1 0
vn -0 1 0
vn -0 1 0
vn -0 1 0
vn -0 1 0
vn -0 1 0
vn -0 1 0
vn 0.7068076 0 -0.70740587
vn 0.7068076 0 -0.70740587
vn 0.7068076 0 -0.70740587
vn 0.7068076 0 -0.70740587
vn 0.7068079 0 0.7074056
vn 0.7068079 0 0.7074056
vn 0.7068079 0 0.7074056
vn 0.7068079 0 0.7074056
vn -0.7068073 0 0.70740616
vn -0.7068073 0 0.70740616
vn -0.7068073 0 0.70740616
vn -0.7068073 0 0.70740616
vn -0.7068074 0 -0.70740604
vn -0.7068074 0 -0.70740604
vn -0.7068074 0 -0.70740604
vn -0.7068074 0 -0.70740604
vn -0 0 -1
vn -0 0 -1
vn -0 0 -1
vn -0 0 -1
vn 1 0 0
vn 1 0 0
vn 1 0 0
vn 1 0 0
vn -0 0 1
vn -0 0 1
vn -0 0 1
vn -0 0 1
vn -1 0 0
vn -1 0 0
vn -1 0 0
vn -1 0 0
vn -1 0 0
vn -1 0 0
vn -1 0 0
vn -1 0 0
vn -0.93800825 -0.34661293 0
vn -0.93800825 -0.34661293 0
vn -0.93800825 -0.34661293 0
vn -0.93800825 -0.34661293 0
vn -0 0 1
vn -0 0 1
vn -0 0 1
vn -0 0 1
vn -0.17613646 -0.34306732 0.92264885
vn -0.17613646 -0.34306732 0.92264885
vn -0.17613646 -0.34306732 0.92264885
vn -0.17613646 -0.34306732 0.92264885
vn 1 0 0
vn 1 0 0
vn 1 0 0
vn 1 0 0
vn 0.93800825 -0.34661305 0
vn 0.93800825 -0.34661305 0
vn 0.93800825 -0.34661305 0
vn 0.93800825 -0.34661305 0
vn -0 0 -1
vn -0 0 -1
vn -0 0 -1
vn -0 0 -1
vn -0.17613642 -0.3430674 -0.9226487
vn -0.17613642 -0.3430674 -0.9226487
vn -0.17613642 -0.3430674 -0.9226487
vn -0.17613642 -0.3430674 -0.9226487
vn -0.7068074 0 -0.70740616
vn -0.7068074 0 -0.70740616
vn -0.7068074 0 -0.70740616
vn -0.7068074 0 -0.70740616
vn -0.6602275 -0.3507232 -0.6641482
vn -0.6602275 -0.3507232 -0.6641482
vn -0.6602275 -0.3507232 -0.6641482
vn -0.6602275 -0.3507232 -0.6641482
vn -0.7068075 0 0.707406
vn -0.7068075 0 0.707406
vn -0.7068075 0 0.707406
vn -0.7068075 0 0.707406
vn -0.6602283 -0.35072282 0.6641477
vn -0.6602283 -0.35072282 0.6641477
vn -0.6602283 -0.35072282 0.6641477
vn -0.6602283 -0.35072282 0.6641477
vn 0.70680773 0 0.7074057
vn 0.70680773 0 0.7074057
vn 0.70680773 0 0.7074057
vn 0.70680773 0 0.7074057
vn 0.6653733 -0.3430422 0.66302365
vn 0.6653733 -0.3430422 0.66302365
vn 0.6653733 -0.3430422 0.66302365
vn 0.6653733 -0.3430422 0.66302365
vn 0.7068076 0 -0.70740587
vn 0.7068076 0 -0.70740587
vn 0.7068076 0 -0.70740587
vn 0.7068076 0 -0.70740587
vn 0.66537315 -0.34304217 -0.6630238
vn 0.66537315 -0.34304217 -0.6630238
vn 0.66537315 -0.34304217 -0.6630238
vn 0.66537315 -0.34304217 -0.6630238
vn -0.93800867 0.34661174 0
vn -0.93800867 0.34661174 0
vn -0.93800867 0.34661174 0
vn -0.93800867 0.34661174 0
vn 0.1761359 0.34306723 0.92264885
vn 0.1761359 0.34306723 0.92264885
vn 0.1761359 0.34306723 0.92264885
vn 0.1761359 0.34306723 0.92264885
vn 0.9380085 0.34661222 0
vn 0.9380085 0.34661222 0
vn 0.9380085 0.34661222 0
vn 0.9380085 0.34661222 0
vn 0.17613633 0.34306723 -0.92264885
vn 0.17613633 0.34306723 -0.92264885
vn 0.17613633 0.34306723 -0.92264885
vn 0.17613633 0.34306723 -0.92264885
vn -0.66537374 0.34304157 -0.66302353
vn -0.66537374 0.34304157 -0.66302353
vn -0.66537374 0.34304157 -0.66302353
vn -0.66537374 0.34304157 -0.66302353
vn -0.66537327 0.34304142 0.6630241
vn -0.66537327 0.34304142 0.6630241
vn -0.66537327 0.34304142 0.6630241
vn -0.66537327 0.34304142 0.6630241
vn 0.660229 0.35072255 0.6641471
vn 0.660229 0.35072255 0.6641471
vn 0.660229 0.35072255 0.6641471
vn 0.660229 0.35072255 0.6641471
vn 0.6602284 0.35072258 -0.66414773
vn 0.6602284 0.35072258 -0.66414773
vn 0.6602284 0.35072258 -0.66414773
vn 0.6602284 0.35072258 -0.66414773
vn 0.70652264 -0.0005170393 -0.7076902
vn 0.70652264 -0.0005170393 -0.7076902
vn 0.70652264 -0.0005170393 -0.7076902
vn 0.70652264 -0.0005170393 -0.7076902
vn 0.7065229 -0.0005170321 0.70768994
vn 0.7065229 -0.0005170321 0.70768994
vn 0.7065229 -0.0005170321 0.70768994
vn 0.7065229 -0.0005170321 0.70768994
vn -0.7065226 0.00051702774 0.7076902
vn -0.7065226 0.00051702774 0.7076902
vn -0.7065226 0.00051702774 0.7076902
vn -0.7065226 0.00051702774 0.7076902
vn -0.70652246 0.0005170324 -0.7076904
vn -0.70652246 0.0005170324 -0.7076904
vn -0.70652246 0.0005170324 -0.7076904
vn -0.70652246 0.0005170324 -0.7076904
vn -0 0 -1
vn -0 0 -1
vn -0 0 -1
vn -0 0 -1
vn 1 0 0
vn 1 0 0
vn 1 0 0
vn 1 0 0
vn -0 0 1
vn -0 0 1
vn -0 0 1
vn -0 0 1
vn -1 0 0
vn -1 0 0
vn -1 0 0
vn -1 0 0
g scifi-pillar-light_0
f 3/3/3 2/2/2 1/1/1
f 2/2/2 4/4/4 1/1/1
f 1/1/1 4/4/4 5/5/5
f 4/4/4 6/6/6 5/5/5
f 5/5/5 6/6/6 7/7/7
f 6/6/6 8/8/8 7/7/7
f 11/11/11 10/10/10 9/9/9
f 12/12/12 11/11/11 9/9/9
f 12/12/12 9/9/9 13/13/13
f 14/14/14 12/12/12 13/13/13
f 14/14/14 13/13/13 15/15/15
f 16/16/16 14/14/14 15/15/15
f 19/19/19 18/18/18 17/17/17
f 20/20/20 19/19/19 17/17/17
f 23/23/23 22/22/22 21/21/21
f 24/24/24 23/23/23 21/21/21
f 27/27/27 26/26/26 25/25/25
f 28/28/28 27/27/27 25/25/25
f 31/31/31 30/30/30 29/29/29
f 32/32/32 31/31/31 29/29/29
f 35/35/35 34/34/34 33/33/33
f 36/36/36 35/35/35 33/33/33
f 39/39/39 38/38/38 37/37/37
f 40/40/40 39/39/39 37/37/37
f 43/43/43 42/42/42 41/41/41
f 44/44/44 43/43/43 41/41/41
f 47/47/47 46/46/46 45/45/45
f 48/48/48 47/47/47 45/45/45
f 51/51/51 50/50/50 49/49/49
f 52/52/52 51/51/51 49/49/49
f 55/55/55 54/54/54 53/53/53
f 56/56/56 55/55/55 53/53/53
f 59/59/59 58/58/58 57/57/57
f 60/60/60 59/59/59 57/57/57
f 63/63/63 62/62/62 61/61/61
f 64/64/64 63/63/63 61/61/61
f 67/67/67 66/66/66 65/65/65
f 68/68/68 67/67/67 65/65/65
f 71/71/71 70/70/70 69/69/69
f 72/72/72 71/71/71 69/69/69
f 75/75/75 74/74/74 73/73/73
f 76/76/76 75/75/75 73/73/73
f 79/79/79 78/78/78 77/77/77
f 80/80/80 79/79/79 77/77/77
f 83/83/83 82/82/82 81/81/81
f 84/84/84 83/83/83 81/81/81
f 87/87/87 86/86/86 85/85/85
f 88/88/88 87/87/87 85/85/85
f 91/91/91 90/90/90 89/89/89
f 92/92/92 91/91/91 89/89/89
f 95/95/95 94/94/94 93/93/93
f 96/96/96 95/95/95 93/93/93
f 99/99/99 98/98/98 97/97/97
f 100/100/100 99/99/99 97/97/97
f 103/103/103 102/102/102 101/101/101
f 104/104/104 103/103/103 101/101/101
f 107/107/107 106/106/106 105/105/105
f 108/108/108 107/107/107 105/105/105
f 111/111/111 110/110/110 109/109/109
f 112/112/112 111/111/111 109/109/109
f 115/115/115 114/114/114 113/113/113
f 116/116/116 115/115/115 113/113/113
f 119/119/119 118/118/118 117/117/117
f 120/120/120 119/119/119 117/117/117
f 123/123/123 122/122/122 121/121/121
f 124/124/124 123/123/123 121/121/121
f 127/127/127 126/126/126 125/125/125
f 128/128/128 127/127/127 125/125/125
f 131/131/131 130/130/130 129/129/129
f 132/132/132 131/131/131 129/129/129
f 135/135/135 134/134/134 133/133/133
f 136/136/136 135/135/135 133/133/133
f 139/139/139 138/138/138 137/137/137
f 140/140/140 139/139/139 137/137/137
f 143/143/143 142/142/142 141/141/141
f 144/144/144 143/143/143 141/141/141
g scifi-pillar-light_1
f 147/147/147 146/146/146 145/145/145
f 148/148/148 147/147/147 145/145/145
f 151/151/151 150/150/150 149/149/149
f 152/152/152 151/151/151 149/149/149
f 155/155/155 154/154/154 153/153/153
f 156/156/156 155/155/155 153/153/153
f 159/159/159 158/158/158 157/157/157
f 160/160/160 159/159/159 157/157/157
f 163/163/163 162/162/162 161/161/161
f 164/164/164 163/163/163 161/161/161
f 167/167/167 166/166/166 165/165/165
f 168/168/168 167/167/167 165/165/165
f 171/171/171 170/170/170 169/169/169
f 172/172/172 171/171/171 169/169/169
f 175/175/175 174/174/174 173/173/173
f 176/176/176 175/175/175 173/173/173
