g stone-snow
v -0.17043726 0.9595506 0.39298826
v 0.39117068 0.7921536 0.6647705
v -0.24073683 0.60293174 0.7220653
v -0.3817849 0.85095024 0.48453486
v -0.74827397 0.7781941 0.115280956
v -0.57892925 0.90485275 -0.41491988
v -0.2980212 1.0095534 -0.30862764
v -0.17043726 0.9595506 0.39298826
v -0.3817849 0.85095024 0.48453486
v 0.42649883 0.6705149 -0.5707147
v 0.45074892 0.95239997 -0.4423372
v -0.2980212 1.0095534 -0.30862764
v -0.34491622 0.5071344 -0.7345758
v -0.57892925 0.90485275 -0.41491988
v -0.2980212 1.0095534 -0.30862764
v 0.45074892 0.95239997 -0.4423372
v 0.78396714 0.842843 0.2332734
v -0.17043726 0.9595506 0.39298826
v 0.39117068 0.7921536 0.6647705
v 0.42649883 0.6705149 -0.5707147
v 0.43277526 0.6024924 -0.4806546
v 0.48348072 0.74968183 -0.31902492
v 0.45074892 0.95239997 -0.4423372
v -0.3817849 0.85095024 0.48453486
v -0.36785826 0.6882023 0.46202925
v -0.7292544 0.612261 0.10983621
v -0.74827397 0.7781941 0.115280956
v -0.74827397 0.7781941 0.115280956
v -0.7292544 0.612261 0.10983621
v -0.5632927 0.7081664 -0.34583935
v -0.57892925 0.90485275 -0.41491988
v -0.57892925 0.90485275 -0.41491988
v -0.5632927 0.7081664 -0.34583935
v -0.33863986 0.43911183 -0.6445158
v -0.34491622 0.5071344 -0.7345758
v 0.78396714 0.842843 0.2332734
v 0.7781706 0.6734895 0.23150563
v 0.38750854 0.62347925 0.5999611
v 0.39117068 0.7921536 0.6647705
v 0.45074892 0.95239997 -0.4423372
v 0.48348072 0.74968183 -0.31902492
v 0.7781706 0.6734895 0.23150563
v 0.78396714 0.842843 0.2332734
v -0.34491622 0.5071344 -0.7345758
v -0.33863986 0.43911183 -0.6445158
v 0.43277526 0.6024924 -0.4806546
v 0.42649883 0.6705149 -0.5707147
v -0.24073683 0.60293174 0.7220653
v -0.23487115 0.45082003 0.6276462
v -0.36785826 0.6882023 0.46202925
v -0.3817849 0.85095024 0.48453486
v 0.39117068 0.7921536 0.6647705
v 0.38750854 0.62347925 0.5999611
v -0.23487115 0.45082003 0.6276462
v -0.24073683 0.60293174 0.7220653
v 0.6242458 0.2611014 0.43021056
v 0.63809544 0.25480798 0.42089468
v 0.63182527 0.24525145 0.41837436
v -0.36172572 0.73142385 0.46224335
v -0.16036342 0.8347773 0.3348783
v 0.33590445 0.77738786 0.5210578
v -0.27935144 0.61711586 0.5368243
v 0.30489194 0.65733105 0.56724614
v 0.64837563 -0.035171676 -0.1466382
v -0.3222549 -0.0032989439 -0.4019608
v -0.3986216 -0.02009328 0.05670752
v 0.5070608 -0.01006141 0.19291587
v -0.12604229 -0.020459527 0.19382745
v 0.40589514 0.6374643 -0.50261146
v 0.85331106 0.15696289 -0.199038
v 0.8111 0.42109507 0.22492391
v 0.7428999 0.7257143 0.21944377
v 0.39248985 0.8099753 -0.45270908
v -0.6598228 0.22630107 0.2657968
v -0.34754643 0.2999103 0.49456796
v -0.12604229 -0.020459527 0.19382745
v -0.3986216 -0.02009328 0.05670752
v -0.3222549 -0.0032989439 -0.4019608
v -0.3678456 0.07314993 -0.4546834
v -0.8277251 0.39453933 0.14468502
v -0.3986216 -0.02009328 0.05670752
v -0.6598228 0.22630107 0.2657968
v 0.85331106 0.15696289 -0.199038
v 0.64837563 -0.035171676 -0.1466382
v 0.5070608 -0.01006141 0.19291587
v 0.63182527 0.24525145 0.41837436
v 0.8111 0.42109507 0.22492391
v 0.63809544 0.25480798 0.42089468
v -0.8277251 0.39453933 0.14468502
v -0.3678456 0.07314993 -0.4546834
v -0.32159674 0.48338634 -0.65714264
v -0.7086294 0.66384816 0.10913927
v -0.5447354 0.75259316 -0.35017687
v -0.36172572 0.73142385 0.46224335
v -0.27935144 0.61711586 0.5368243
v -0.34754643 0.2999103 0.49456796
v -0.6598228 0.22630107 0.2657968
v -0.7086294 0.66384816 0.10913927
v -0.8277251 0.39453933 0.14468502
v 0.6242458 0.2611014 0.43021056
v 0.63182527 0.24525145 0.41837436
v 0.5070608 -0.01006141 0.19291587
v 0.30489194 0.65733105 0.56724614
v -0.12604229 -0.020459527 0.19382745
v -0.27935144 0.61711586 0.5368243
v -0.34754643 0.2999103 0.49456796
v -0.7086294 0.66384816 0.10913927
v -0.5447354 0.75259316 -0.35017687
v -0.27827963 0.85201406 -0.24882741
v -0.16036342 0.8347773 0.3348783
v -0.36172572 0.73142385 0.46224335
v 0.7428999 0.7257143 0.21944377
v 0.8111 0.42109507 0.22492391
v 0.63809544 0.25480798 0.42089468
v 0.33590445 0.77738786 0.5210578
v 0.6242458 0.2611014 0.43021056
v 0.30489194 0.65733105 0.56724614
v 0.64837563 -0.035171676 -0.1466382
v 0.85331106 0.15696289 -0.199038
v 0.40589514 0.6374643 -0.50261146
v -0.3222549 -0.0032989439 -0.4019608
v -0.32159674 0.48338634 -0.65714264
v -0.3678456 0.07314993 -0.4546834
v -0.27827963 0.85201406 -0.24882741
v 0.39248985 0.8099753 -0.45270908
v 0.7428999 0.7257143 0.21944377
v -0.16036342 0.8347773 0.3348783
v 0.33590445 0.77738786 0.5210578
v -0.5447354 0.75259316 -0.35017687
v -0.32159674 0.48338634 -0.65714264
v 0.40589514 0.6374643 -0.50261146
v 0.39248985 0.8099753 -0.45270908
v -0.27827963 0.85201406 -0.24882741
vt 0.8552602 0.30801925
vt 0.77737117 0.45193022
vt 0.9464865 0.40739492
vt 0.92969126 0.29901245
vt 0.9472174 0.15478246
vt 0.82026076 0.08848258
vt 0.78207374 0.15672716
vt 0.8552602 0.30801925
vt 0.92969126 0.29901245
vt 0.59997344 0.16796632
vt 0.6361489 0.22394313
vt 0.78207374 0.15672716
vt 0.71402 0.035187807
vt 0.82026076 0.08848258
vt 0.78207374 0.15672716
vt 0.6361489 0.22394313
vt 0.6424184 0.40673977
vt 0.8552602 0.30801925
vt 0.77737117 0.45193022
vt 0.59997344 0.16796632
vt 0.56764656 0.16452609
vt 0.56942976 0.24567522
vt 0.6361489 0.22394313
vt 0.92969126 0.29901245
vt 0.9886726 0.31532228
vt 0.99859834 0.13050559
vt 0.9472174 0.15478246
vt 0.9472174 0.15478246
vt 0.99859834 0.13050559
vt 0.85082746 0.027214263
vt 0.82026076 0.08848258
vt 0.82026076 0.08848258
vt 0.85082746 0.027214263
vt 0.7023815 0.0014016434
vt 0.71402 0.035187807
vt 0.6424184 0.40673977
vt 0.60459554 0.44352174
vt 0.77711433 0.521967
vt 0.77737117 0.45193022
vt 0.6361489 0.22394313
vt 0.56942976 0.24567522
vt 0.60459554 0.44352174
vt 0.6424184 0.40673977
vt 0.71402 0.035187807
vt 0.7023815 0.0014016434
vt 0.56764656 0.16452609
vt 0.59997344 0.16796632
vt 0.9464865 0.40739492
vt 0.99859786 0.44534117
vt 0.9886726 0.31532228
vt 0.92969126 0.29901245
vt 0.77737117 0.45193022
vt 0.77711433 0.521967
vt 0.99859786 0.44534117
vt 0.9464865 0.40739492
vt 0.22366408 0.36957535
vt 0.22667912 0.37238428
vt 0.22823773 0.37011895
vt 0.11696237 0.08303194
vt 0.0014016434 0.1331303
vt 0.042515572 0.36595997
vt 0.13726552 0.14594892
vt 0.08898534 0.3333738
vt 0.3381623 0.35107985
vt 0.39394802 0.20879894
vt 0.3141826 0.1931534
vt 0.28557476 0.32823756
vt 0.28846616 0.23555838
vt 0.5648433 0.5072207
vt 0.33796722 0.4006606
vt 0.25031632 0.4382831
vt 0.19274244 0.52807343
vt 0.5422158 0.58781874
vt 0.2824758 0.13513882
vt 0.22332083 0.17444408
vt 0.28846616 0.23555838
vt 0.3141826 0.1931534
vt 0.39394802 0.20879894
vt 0.40702695 0.19104594
vt 0.30162802 0.09084123
vt 0.3141826 0.1931534
vt 0.2824758 0.13513882
vt 0.33796722 0.4006606
vt 0.3381623 0.35107985
vt 0.28557476 0.32823756
vt 0.22823773 0.37011895
vt 0.25031632 0.4382831
vt 0.22667912 0.37238428
vt 0.30162802 0.09084123
vt 0.40702695 0.19104594
vt 0.5648428 0.1398274
vt 0.2887197 0.020967333
vt 0.45325264 0.0014016434
vt 0.11696237 0.08303194
vt 0.13726552 0.14594892
vt 0.22332083 0.17444408
vt 0.2824758 0.13513882
vt 0.2887197 0.020967333
vt 0.30162802 0.09084123
vt 0.22366408 0.36957535
vt 0.22823773 0.37011895
vt 0.28557476 0.32823756
vt 0.08898534 0.3333738
vt 0.28846616 0.23555838
vt 0.13726552 0.14594892
vt 0.22332083 0.17444408
vt 0.6412962 0.9124942
vt 0.76930404 0.88817596
vt 0.75645196 0.8110724
vt 0.61331564 0.7521435
vt 0.56764656 0.80320966
vt 0.19274244 0.52807343
vt 0.25031632 0.4382831
vt 0.22667912 0.37238428
vt 0.042515572 0.36595997
vt 0.22366408 0.36957535
vt 0.08898534 0.3333738
vt 0.3381623 0.35107985
vt 0.33796722 0.4006606
vt 0.5648433 0.5072207
vt 0.39394802 0.20879894
vt 0.5648428 0.1398274
vt 0.40702695 0.19104594
vt 0.75645196 0.8110724
vt 0.84381205 0.6510749
vt 0.6894959 0.5247703
vt 0.61331564 0.7521435
vt 0.5911534 0.61451817
vt 0.76930404 0.88817596
vt 0.88936925 0.86470765
vt 0.8893687 0.6647839
vt 0.84381205 0.6510749
vt 0.75645196 0.8110724
vn -0.11538533 0.68581825 0.71856767
vn -0.11538533 0.68581825 0.71856767
vn -0.11538533 0.68581825 0.71856767
vn -0.11538533 0.68581825 0.71856767
vn -0.3649276 0.92134565 0.13397795
vn -0.3649276 0.92134565 0.13397795
vn -0.3649276 0.92134565 0.13397795
vn -0.3649276 0.92134565 0.13397795
vn -0.3649276 0.92134565 0.13397795
vn -0.009748683 0.59179276 -0.80603117
vn -0.009748683 0.59179276 -0.80603117
vn -0.009748683 0.59179276 -0.80603117
vn -0.009748683 0.59179276 -0.80603117
vn -0.009748683 0.59179276 -0.80603117
vn 0.12493902 0.9851483 0.11778348
vn 0.12493902 0.9851483 0.11778348
vn 0.12493902 0.9851483 0.11778348
vn 0.12493902 0.9851483 0.11778348
vn 0.12493902 0.9851483 0.11778348
vn 0.97675246 -0.026882987 -0.21267821
vn 0.97675246 -0.026882987 -0.21267821
vn 0.97675246 -0.026882987 -0.21267821
vn 0.97675246 -0.026882987 -0.21267821
vn -0.6845372 -0.12961918 0.7173616
vn -0.6845372 -0.12961918 0.7173616
vn -0.6845372 -0.12961918 0.7173616
vn -0.6845372 -0.12961918 0.7173616
vn -0.92530483 -0.14958636 -0.3484751
vn -0.92530483 -0.14958636 -0.3484751
vn -0.92530483 -0.14958636 -0.3484751
vn -0.92530483 -0.14958636 -0.3484751
vn -0.89100766 -0.28581417 -0.35272595
vn -0.89100766 -0.28581417 -0.35272595
vn -0.89100766 -0.28581417 -0.35272595
vn -0.89100766 -0.28581417 -0.35272595
vn 0.7155218 -0.15421984 0.6813551
vn 0.7155218 -0.15421984 0.6813551
vn 0.7155218 -0.15421984 0.6813551
vn 0.7155218 -0.15421984 0.6813551
vn 0.88115686 -0.08797109 -0.46456814
vn 0.88115686 -0.08797109 -0.46456814
vn 0.88115686 -0.08797109 -0.46456814
vn 0.88115686 -0.08797109 -0.46456814
vn 0.28530723 -0.75513047 -0.59023523
vn 0.28530723 -0.75513047 -0.59023523
vn 0.28530723 -0.75513047 -0.59023523
vn 0.28530723 -0.75513047 -0.59023523
vn -0.9047256 -0.19711329 0.37764767
vn -0.9047256 -0.19711329 0.37764767
vn -0.9047256 -0.19711329 0.37764767
vn -0.9047256 -0.19711329 0.37764767
vn 0.18542613 -0.43587828 0.8806971
vn 0.18542613 -0.43587828 0.8806971
vn 0.18542613 -0.43587828 0.8806971
vn 0.18542613 -0.43587828 0.8806971
vn 0.35047182 -0.44700724 0.8230152
vn 0.35047182 -0.44700724 0.8230152
vn 0.35047182 -0.44700724 0.8230152
vn -0.09879285 0.6294491 0.7707359
vn -0.09879285 0.6294491 0.7707359
vn -0.09879285 0.6294491 0.7707359
vn -0.09879285 0.6294491 0.7707359
vn -0.09879285 0.6294491 0.7707359
vn -0.010152117 -0.9999449 0.0026841974
vn -0.010152117 -0.9999449 0.0026841974
vn -0.010152117 -0.9999449 0.0026841974
vn -0.010152117 -0.9999449 0.0026841974
vn -0.010152117 -0.9999449 0.0026841974
vn 0.8521306 0.37714675 -0.36281353
vn 0.8521306 0.37714675 -0.36281353
vn 0.8521306 0.37714675 -0.36281353
vn 0.8521306 0.37714675 -0.36281353
vn 0.8521306 0.37714675 -0.36281353
vn -0.27265295 -0.761349 0.5882245
vn -0.27265295 -0.761349 0.5882245
vn -0.27265295 -0.761349 0.5882245
vn -0.27265295 -0.761349 0.5882245
vn -0.71251637 -0.68791485 -0.13817924
vn -0.71251637 -0.68791485 -0.13817924
vn -0.71251637 -0.68791485 -0.13817924
vn -0.71251637 -0.68791485 -0.13817924
vn -0.71251637 -0.68791485 -0.13817924
vn 0.74033254 -0.5763884 0.3459541
vn 0.74033254 -0.5763884 0.3459541
vn 0.74033254 -0.5763884 0.3459541
vn 0.74033254 -0.5763884 0.3459541
vn 0.74033254 -0.5763884 0.3459541
vn 0.74033254 -0.5763884 0.3459541
vn -0.86284477 -0.051242564 -0.50286496
vn -0.86284477 -0.051242564 -0.50286496
vn -0.86284477 -0.051242564 -0.50286496
vn -0.86284477 -0.051242564 -0.50286496
vn -0.86284477 -0.051242564 -0.50286496
vn -0.6304568 0.12942216 0.76535887
vn -0.6304568 0.12942216 0.76535887
vn -0.6304568 0.12942216 0.76535887
vn -0.6304568 0.12942216 0.76535887
vn -0.6304568 0.12942216 0.76535887
vn -0.6304568 0.12942216 0.76535887
vn 0.01981566 -0.48115015 0.8764142
vn 0.01981566 -0.48115015 0.8764142
vn 0.01981566 -0.48115015 0.8764142
vn 0.01981566 -0.48115015 0.8764142
vn 0.01981566 -0.48115015 0.8764142
vn 0.01981566 -0.48115015 0.8764142
vn 0.01981566 -0.48115015 0.8764142
vn -0.3464071 0.9326511 0.100817636
vn -0.3464071 0.9326511 0.100817636
vn -0.3464071 0.9326511 0.100817636
vn -0.3464071 0.9326511 0.100817636
vn -0.3464071 0.9326511 0.100817636
vn 0.60862756 0.18637198 0.77125746
vn 0.60862756 0.18637198 0.77125746
vn 0.60862756 0.18637198 0.77125746
vn 0.60862756 0.18637198 0.77125746
vn 0.60862756 0.18637198 0.77125746
vn 0.60862756 0.18637198 0.77125746
vn 0.22954808 -0.41397852 -0.8808686
vn 0.22954808 -0.41397852 -0.8808686
vn 0.22954808 -0.41397852 -0.8808686
vn 0.22954808 -0.41397852 -0.8808686
vn 0.22954808 -0.41397852 -0.8808686
vn 0.22954808 -0.41397852 -0.8808686
vn 0.10643926 0.9937861 0.03255375
vn 0.10643926 0.9937861 0.03255375
vn 0.10643926 0.9937861 0.03255375
vn 0.10643926 0.9937861 0.03255375
vn 0.10643926 0.9937861 0.03255375
vn -0.06645999 0.6692123 -0.7400933
vn -0.06645999 0.6692123 -0.7400933
vn -0.06645999 0.6692123 -0.7400933
vn -0.06645999 0.6692123 -0.7400933
vn -0.06645999 0.6692123 -0.7400933
g stone-snow_0
f 3/3/3 2/2/2 1/1/1
f 4/4/4 3/3/3 1/1/1
f 7/7/7 6/6/6 5/5/5
f 5/5/5 8/8/8 7/7/7
f 5/5/5 9/9/9 8/8/8
f 12/12/12 11/11/11 10/10/10
f 10/10/10 13/13/13 12/12/12
f 13/13/13 14/14/14 12/12/12
f 17/17/17 16/16/16 15/15/15
f 15/15/15 18/18/18 17/17/17
f 18/18/18 19/19/19 17/17/17
f 22/22/22 21/21/21 20/20/20
f 23/23/23 22/22/22 20/20/20
f 26/26/26 25/25/25 24/24/24
f 27/27/27 26/26/26 24/24/24
f 30/30/30 29/29/29 28/28/28
f 31/31/31 30/30/30 28/28/28
f 34/34/34 33/33/33 32/32/32
f 35/35/35 34/34/34 32/32/32
f 38/38/38 37/37/37 36/36/36
f 39/39/39 38/38/38 36/36/36
f 42/42/42 41/41/41 40/40/40
f 43/43/43 42/42/42 40/40/40
f 46/46/46 45/45/45 44/44/44
f 47/47/47 46/46/46 44/44/44
f 50/50/50 49/49/49 48/48/48
f 51/51/51 50/50/50 48/48/48
f 54/54/54 53/53/53 52/52/52
f 55/55/55 54/54/54 52/52/52
g stone-snow_1
f 58/58/58 57/57/57 56/56/56
f 61/61/61 60/60/60 59/59/59
f 59/59/59 62/62/62 61/61/61
f 62/62/62 63/63/63 61/61/61
f 66/66/66 65/65/65 64/64/64
f 64/64/64 67/67/67 66/66/66
f 67/67/67 68/68/68 66/66/66
f 71/71/71 70/70/70 69/69/69
f 69/69/69 72/72/72 71/71/71
f 69/69/69 73/73/73 72/72/72
f 76/76/76 75/75/75 74/74/74
f 77/77/77 76/76/76 74/74/74
f 80/80/80 79/79/79 78/78/78
f 78/78/78 81/81/81 80/80/80
f 81/81/81 82/82/82 80/80/80
f 85/85/85 84/84/84 83/83/83
f 83/83/83 86/86/86 85/85/85
f 83/83/83 87/87/87 86/86/86
f 87/87/87 88/88/88 86/86/86
f 91/91/91 90/90/90 89/89/89
f 89/89/89 92/92/92 91/91/91
f 92/92/92 93/93/93 91/91/91
f 96/96/96 95/95/95 94/94/94
f 94/94/94 97/97/97 96/96/96
f 94/94/94 98/98/98 97/97/97
f 98/98/98 99/99/99 97/97/97
f 102/102/102 101/101/101 100/100/100
f 100/100/100 103/103/103 102/102/102
f 103/103/103 104/104/104 102/102/102
f 103/103/103 105/105/105 104/104/104
f 105/105/105 106/106/106 104/104/104
f 109/109/109 108/108/108 107/107/107
f 107/107/107 110/110/110 109/109/109
f 107/107/107 111/111/111 110/110/110
f 114/114/114 113/113/113 112/112/112
f 112/112/112 115/115/115 114/114/114
f 115/115/115 116/116/116 114/114/114
f 115/115/115 117/117/117 116/116/116
f 120/120/120 119/119/119 118/118/118
f 118/118/118 121/121/121 120/120/120
f 121/121/121 122/122/122 120/120/120
f 121/121/121 123/123/123 122/122/122
f 126/126/126 125/125/125 124/124/124
f 124/124/124 127/127/127 126/126/126
f 127/127/127 128/128/128 126/126/126
f 131/131/131 130/130/130 129/129/129
f 129/129/129 132/132/132 131/131/131
f 129/129/129 133/133/133 132/132/132
