g stone-oval
v 0.26467913 -0.08113442 0.2394212
v 0.2722764 -0.083358236 0.23428808
v 0.26891434 -0.08827899 0.23289928
v -0.22874112 0.26304883 0.15527973
v 0.19140644 0.21124016 0.19210817
v 0.08051549 0.024623243 0.3485142
v -0.15846059 0.0050316164 0.35239547
v -0.31903818 0.16032445 0.23079947
v 0.2921461 -0.22751755 -0.078432925
v -0.23939858 -0.28930193 -0.21912032
v -0.2796451 -0.30468163 0.033614244
v 0.21308883 -0.2253577 0.10866756
v -0.131073 -0.2826528 0.10916987
v 0.36037365 0.1138379 -0.23841138
v 0.49610236 -0.0060837045 -0.13686334
v 0.48398563 0.06926039 0.015763134
v 0.40453392 0.16727933 0.042752206
v 0.3521313 0.15295556 -0.15939666
v -0.43609858 -0.16157058 0.14882627
v -0.26525846 -0.10278893 0.27488333
v -0.131073 -0.2826528 0.10916987
v -0.2796451 -0.30468163 0.033614244
v -0.43609858 -0.16157058 0.14882627
v -0.2796451 -0.30468163 0.033614244
v -0.23939858 -0.28930193 -0.21912032
v -0.27040195 -0.24990535 -0.24817146
v -0.52281445 -0.042763904 0.08209148
v 0.49610236 -0.0060837045 -0.13686334
v 0.2921461 -0.22751755 -0.078432925
v 0.21308883 -0.2253577 0.10866756
v 0.26891434 -0.08827899 0.23289928
v 0.2722764 -0.083358236 0.23428808
v 0.48398563 0.06926039 0.015763134
v 0.2921461 -0.22751755 -0.078432925
v 0.49610236 -0.0060837045 -0.13686334
v 0.36037365 0.1138379 -0.23841138
v 0.020287244 0.13102522 -0.34154046
v -0.23939858 -0.28930193 -0.21912032
v -0.25106364 0.0053113964 -0.3597302
v -0.27040195 -0.24990535 -0.24817146
v -0.52281445 -0.042763904 0.08209148
v -0.27040195 -0.24990535 -0.24817146
v -0.25106364 0.0053113964 -0.3597302
v -0.5389791 0.071354106 0.06775091
v -0.46640056 0.19908673 -0.0901473
v -0.06451493 0.19937006 -0.24308334
v 0.020287244 0.13102522 -0.34154046
v 0.36037365 0.1138379 -0.23841138
v 0.3521313 0.15295556 -0.15939666
v -0.31903818 0.16032445 0.23079947
v -0.15846059 0.0050316164 0.35239547
v -0.26525846 -0.10278893 0.27488333
v -0.43609858 -0.16157058 0.14882627
v -0.5389791 0.071354106 0.06775091
v -0.52281445 -0.042763904 0.08209148
v 0.26467913 -0.08113442 0.2394212
v 0.26891434 -0.08827899 0.23289928
v 0.21308883 -0.2253577 0.10866756
v 0.08051549 0.024623243 0.3485142
v -0.131073 -0.2826528 0.10916987
v -0.15846059 0.0050316164 0.35239547
v -0.26525846 -0.10278893 0.27488333
v -0.25106364 0.0053113964 -0.3597302
v 0.020287244 0.13102522 -0.34154046
v -0.06451493 0.19937006 -0.24308334
v -0.37311488 0.2586864 -0.06804383
v -0.46640056 0.19908673 -0.0901473
v -0.5389791 0.071354106 0.06775091
v -0.46640056 0.19908673 -0.0901473
v -0.37311488 0.2586864 -0.06804383
v -0.22874112 0.26304883 0.15527973
v -0.31903818 0.16032445 0.23079947
v 0.40453392 0.16727933 0.042752206
v 0.48398563 0.06926039 0.015763134
v 0.2722764 -0.083358236 0.23428808
v 0.19140644 0.21124016 0.19210817
v 0.26467913 -0.08113442 0.2394212
v 0.08051549 0.024623243 0.3485142
v -0.37311488 0.2586864 -0.06804383
v -0.06451493 0.19937006 -0.24308334
v 0.3521313 0.15295556 -0.15939666
v 0.40453392 0.16727933 0.042752206
v -0.22874112 0.26304883 0.15527973
v 0.19140644 0.21124016 0.19210817
vt 0.29225785 0.40734577
vt 0.28624362 0.40597454
vt 0.28669554 0.41019097
vt 0.500787 0.327497
vt 0.36857578 0.29258868
vt 0.3904702 0.38790518
vt 0.45879033 0.41128063
vt 0.51409096 0.3678592
vt 0.14004144 0.7258242
vt 0.449724 0.78324217
vt 0.46312222 0.63791776
vt 0.17666449 0.6161493
vt 0.37470967 0.6012771
vt 0.23146814 0.009986984
vt 0.045986366 0.1651274
vt 0.18533246 0.24320936
vt 0.25619933 0.23219177
vt 0.2546451 0.091884136
vt 0.57797927 0.45216092
vt 0.50300014 0.45570722
vt 0.48040885 0.5989882
vt 0.6215457 0.5911621
vt 0.57797927 0.45216092
vt 0.6215457 0.5911621
vt 0.8441587 0.5492344
vt 0.85839456 0.5000592
vt 0.5890546 0.4047976
vt 0.045986366 0.1651274
vt 0.0011444624 0.5277482
vt 0.23107114 0.5430921
vt 0.28669554 0.41019097
vt 0.28624362 0.40597454
vt 0.18533246 0.24320936
vt 0.14004144 0.7258242
vt 0.0011444624 0.8315613
vt 0.065438226 0.9307423
vt 0.25616837 0.9988555
vt 0.449724 0.78324217
vt 0.42378208 0.9673682
vt 0.46312222 0.81338215
vt 0.5890546 0.4047976
vt 0.85839456 0.5000592
vt 0.85839456 0.2191117
vt 0.5766798 0.37770692
vt 0.5955348 0.33045906
vt 0.57938707 0.13730605
vt 0.5879804 0.0011444624
vt 0.23146814 0.009986984
vt 0.2546451 0.091884136
vt 0.51409096 0.3678592
vt 0.45879033 0.41128063
vt 0.50300014 0.45570722
vt 0.57797927 0.45216092
vt 0.5766798 0.37770692
vt 0.5890546 0.4047976
vt 0.29225785 0.40734577
vt 0.28669554 0.41019097
vt 0.23107114 0.5430921
vt 0.3904702 0.38790518
vt 0.48040885 0.5989882
vt 0.45879033 0.41128063
vt 0.50300014 0.45570722
vt 0.85839456 0.2191117
vt 0.5879804 0.0011444624
vt 0.57938707 0.13730605
vt 0.56931835 0.31176883
vt 0.5955348 0.33045906
vt 0.5766798 0.37770692
vt 0.5955348 0.33045906
vt 0.56931835 0.31176883
vt 0.500787 0.327497
vt 0.51409096 0.3678592
vt 0.25619933 0.23219177
vt 0.18533246 0.24320936
vt 0.28624362 0.40597454
vt 0.36857578 0.29258868
vt 0.29225785 0.40734577
vt 0.3904702 0.38790518
vt 0.56931835 0.31176883
vt 0.57938707 0.13730605
vt 0.2546451 0.091884136
vt 0.25619933 0.23219177
vt 0.500787 0.327497
vt 0.36857578 0.29258868
vn 0.387269 -0.48576033 0.78361964
vn 0.387269 -0.48576033 0.78361964
vn 0.387269 -0.48576033 0.78361964
vn -0.010569926 0.619578 0.7848639
vn -0.010569926 0.619578 0.7848639
vn -0.010569926 0.619578 0.7848639
vn -0.010569926 0.619578 0.7848639
vn -0.010569926 0.619578 0.7848639
vn 0.13794746 -0.9904359 0.0026840926
vn 0.13794746 -0.9904359 0.0026840926
vn 0.13794746 -0.9904359 0.0026840926
vn 0.13794746 -0.9904359 0.0026840926
vn 0.13794746 -0.9904359 0.0026840926
vn 0.73137987 0.63737917 -0.24255154
vn 0.73137987 0.63737917 -0.24255154
vn 0.73137987 0.63737917 -0.24255154
vn 0.73137987 0.63737917 -0.24255154
vn 0.73137987 0.63737917 -0.24255154
vn -0.21249624 -0.74312603 0.63451475
vn -0.21249624 -0.74312603 0.63451475
vn -0.21249624 -0.74312603 0.63451475
vn -0.21249624 -0.74312603 0.63451475
vn -0.7361201 -0.65726596 -0.16164367
vn -0.7361201 -0.65726596 -0.16164367
vn -0.7361201 -0.65726596 -0.16164367
vn -0.7361201 -0.65726596 -0.16164367
vn -0.7361201 -0.65726596 -0.16164367
vn 0.7426179 -0.5854052 0.32529902
vn 0.7426179 -0.5854052 0.32529902
vn 0.7426179 -0.5854052 0.32529902
vn 0.7426179 -0.5854052 0.32529902
vn 0.7426179 -0.5854052 0.32529902
vn 0.7426179 -0.5854052 0.32529902
vn 0.25921264 -0.43050408 -0.86456645
vn 0.25921264 -0.43050408 -0.86456645
vn 0.25921264 -0.43050408 -0.86456645
vn 0.25921264 -0.43050408 -0.86456645
vn 0.25921264 -0.43050408 -0.86456645
vn 0.25921264 -0.43050408 -0.86456645
vn 0.25921264 -0.43050408 -0.86456645
vn -0.8297283 -0.17645803 -0.52954084
vn -0.8297283 -0.17645803 -0.52954084
vn -0.8297283 -0.17645803 -0.52954084
vn -0.8297283 -0.17645803 -0.52954084
vn -0.8297283 -0.17645803 -0.52954084
vn 0.18206042 0.88049334 -0.43770474
vn 0.18206042 0.88049334 -0.43770474
vn 0.18206042 0.88049334 -0.43770474
vn 0.18206042 0.88049334 -0.43770474
vn -0.59732556 0.01340425 0.80188674
vn -0.59732556 0.01340425 0.80188674
vn -0.59732556 0.01340425 0.80188674
vn -0.59732556 0.01340425 0.80188674
vn -0.59732556 0.01340425 0.80188674
vn -0.59732556 0.01340425 0.80188674
vn 0.08388302 -0.653031 0.75267136
vn 0.08388302 -0.653031 0.75267136
vn 0.08388302 -0.653031 0.75267136
vn 0.08388302 -0.653031 0.75267136
vn 0.08388302 -0.653031 0.75267136
vn 0.08388302 -0.653031 0.75267136
vn 0.08388302 -0.653031 0.75267136
vn -0.26423776 0.6706414 -0.6931222
vn -0.26423776 0.6706414 -0.6931222
vn -0.26423776 0.6706414 -0.6931222
vn -0.26423776 0.6706414 -0.6931222
vn -0.26423776 0.6706414 -0.6931222
vn -0.56188303 0.75018114 0.34859106
vn -0.56188303 0.75018114 0.34859106
vn -0.56188303 0.75018114 0.34859106
vn -0.56188303 0.75018114 0.34859106
vn -0.56188303 0.75018114 0.34859106
vn 0.59367937 0.2709615 0.7577102
vn 0.59367937 0.2709615 0.7577102
vn 0.59367937 0.2709615 0.7577102
vn 0.59367937 0.2709615 0.7577102
vn 0.59367937 0.2709615 0.7577102
vn 0.59367937 0.2709615 0.7577102
vn 0.13067551 0.98598284 -0.103739105
vn 0.13067551 0.98598284 -0.103739105
vn 0.13067551 0.98598284 -0.103739105
vn 0.13067551 0.98598284 -0.103739105
vn 0.13067551 0.98598284 -0.103739105
vn 0.13067551 0.98598284 -0.103739105
g stone-oval_0
f 3/3/3 2/2/2 1/1/1
f 6/6/6 5/5/5 4/4/4
f 4/4/4 7/7/7 6/6/6
f 4/4/4 8/8/8 7/7/7
f 11/11/11 10/10/10 9/9/9
f 9/9/9 12/12/12 11/11/11
f 12/12/12 13/13/13 11/11/11
f 16/16/16 15/15/15 14/14/14
f 14/14/14 17/17/17 16/16/16
f 14/14/14 18/18/18 17/17/17
f 21/21/21 20/20/20 19/19/19
f 22/22/22 21/21/21 19/19/19
f 25/25/25 24/24/24 23/23/23
f 23/23/23 26/26/26 25/25/25
f 23/23/23 27/27/27 26/26/26
f 30/30/30 29/29/29 28/28/28
f 28/28/28 31/31/31 30/30/30
f 28/28/28 32/32/32 31/31/31
f 28/28/28 33/33/33 32/32/32
f 36/36/36 35/35/35 34/34/34
f 34/34/34 37/37/37 36/36/36
f 34/34/34 38/38/38 37/37/37
f 38/38/38 39/39/39 37/37/37
f 38/38/38 40/40/40 39/39/39
f 43/43/43 42/42/42 41/41/41
f 41/41/41 44/44/44 43/43/43
f 44/44/44 45/45/45 43/43/43
f 48/48/48 47/47/47 46/46/46
f 49/49/49 48/48/48 46/46/46
f 52/52/52 51/51/51 50/50/50
f 50/50/50 53/53/53 52/52/52
f 50/50/50 54/54/54 53/53/53
f 54/54/54 55/55/55 53/53/53
f 58/58/58 57/57/57 56/56/56
f 56/56/56 59/59/59 58/58/58
f 59/59/59 60/60/60 58/58/58
f 59/59/59 61/61/61 60/60/60
f 61/61/61 62/62/62 60/60/60
f 65/65/65 64/64/64 63/63/63
f 63/63/63 66/66/66 65/65/65
f 63/63/63 67/67/67 66/66/66
f 70/70/70 69/69/69 68/68/68
f 68/68/68 71/71/71 70/70/70
f 68/68/68 72/72/72 71/71/71
f 75/75/75 74/74/74 73/73/73
f 73/73/73 76/76/76 75/75/75
f 76/76/76 77/77/77 75/75/75
f 76/76/76 78/78/78 77/77/77
f 81/81/81 80/80/80 79/79/79
f 79/79/79 82/82/82 81/81/81
f 79/79/79 83/83/83 82/82/82
f 83/83/83 84/84/84 82/82/82
