g sunscreen-closed
v -0.0015598681 0.80976516 0.40077025
v -0.28518084 0.80976516 0.2832906
v -0.032172035 2.152426 0.03118721
v -3.033463E-08 2.152426 0.04451332
v -0.0015599732 0.80976516 -0.40143088
v 0.28206104 0.80976516 -0.28395137
v 0.03217197 2.152426 -0.033156805
v -4.219197E-08 2.152426 -0.04648294
v -0.40266043 0.8097652 -0.00033032315
v -0.2851809 0.80976516 -0.28395128
v -0.032172043 2.152426 -0.033156797
v -0.045498155 2.152426 -0.0009848032
v 0.39954078 0.8097652 -0.0003304172
v 0.2820611 0.8097652 0.28329057
v 0.032171976 2.152426 0.031187205
v 0.045498088 2.152426 -0.0009848111
v -0.28518084 0.80976516 0.2832906
v -0.0015598681 0.80976516 0.40077025
v -0.027554788 0.774448 0.39000282
v -0.2591859 0.774448 0.29405805
v -0.2851809 0.80976516 -0.28395128
v -0.40266043 0.8097652 -0.00033032315
v -0.391893 0.7744479 -0.026325246
v -0.29594836 0.77444786 -0.2579563
v 0.28206104 0.80976516 -0.28395137
v -0.0015599732 0.80976516 -0.40143088
v 0.024434954 0.77444786 -0.39066344
v 0.25606605 0.77444786 -0.29471883
v 0.2820611 0.8097652 0.28329057
v 0.39954078 0.8097652 -0.0003304172
v 0.38877326 0.7744479 0.02566452
v 0.29282853 0.774448 0.25729564
v -0.0015598681 0.80976516 0.40077025
v -0.28518084 0.80976516 0.2832906
v -0.032172035 2.152426 0.03118721
v -3.033463E-08 2.152426 0.04451332
v -0.0015599732 0.80976516 -0.40143088
v 0.28206104 0.80976516 -0.28395137
v 0.03217197 2.152426 -0.033156805
v -4.219197E-08 2.152426 -0.04648294
v -0.40266043 0.8097652 -0.00033032315
v -0.2851809 0.80976516 -0.28395128
v -0.032172043 2.152426 -0.033156797
v -0.045498155 2.152426 -0.0009848032
v 0.39954078 0.8097652 -0.0003304172
v 0.2820611 0.8097652 0.28329057
v 0.032171976 2.152426 0.031187205
v 0.045498088 2.152426 -0.0009848111
v -0.28518084 0.80976516 0.2832906
v -0.0015598681 0.80976516 0.40077025
v -0.027554788 0.774448 0.39000282
v -0.2591859 0.774448 0.29405805
v -0.2851809 0.80976516 -0.28395128
v -0.40266043 0.8097652 -0.00033032315
v -0.391893 0.7744479 -0.026325246
v -0.29594836 0.77444786 -0.2579563
v 0.28206104 0.80976516 -0.28395137
v -0.0015599732 0.80976516 -0.40143088
v 0.024434954 0.77444786 -0.39066344
v 0.25606605 0.77444786 -0.29471883
v 0.2820611 0.8097652 0.28329057
v 0.39954078 0.8097652 -0.0003304172
v 0.38877326 0.7744479 0.02566452
v 0.29282853 0.774448 0.25729564
v 0.2820611 0.8097652 0.28329057
v -0.0015598681 0.80976516 0.40077025
v -3.033463E-08 2.152426 0.04451332
v 0.032171976 2.152426 0.031187205
v -0.28518084 0.80976516 0.2832906
v -0.40266043 0.8097652 -0.00033032315
v -0.045498155 2.152426 -0.0009848032
v -0.032172035 2.152426 0.03118721
v 0.28206104 0.80976516 -0.28395137
v 0.39954078 0.8097652 -0.0003304172
v 0.045498088 2.152426 -0.0009848111
v 0.03217197 2.152426 -0.033156805
v -0.40266043 0.8097652 -0.00033032315
v -0.28518084 0.80976516 0.2832906
v -0.2959483 0.774448 0.2572957
v -0.391893 0.7744479 0.025664613
v -0.0015599732 0.80976516 -0.40143088
v -0.2851809 0.80976516 -0.28395128
v -0.25918597 0.77444786 -0.29471868
v -0.027554903 0.77444786 -0.39066344
v 0.39954078 0.8097652 -0.0003304172
v 0.28206104 0.80976516 -0.28395137
v 0.29282847 0.77444786 -0.2579564
v 0.38877326 0.7744479 -0.026325338
v -0.0015598681 0.80976516 0.40077025
v 0.2820611 0.8097652 0.28329057
v 0.2560661 0.774448 0.2940581
v 0.02443506 0.774448 0.39000282
v -0.2851809 0.80976516 -0.28395128
v -0.0015599732 0.80976516 -0.40143088
v -4.219197E-08 2.152426 -0.04648294
v -0.032172043 2.152426 -0.033156797
v 0.2820611 0.8097652 0.28329057
v -0.0015598681 0.80976516 0.40077025
v -3.033463E-08 2.152426 0.04451332
v 0.032171976 2.152426 0.031187205
v -0.28518084 0.80976516 0.2832906
v -0.40266043 0.8097652 -0.00033032315
v -0.045498155 2.152426 -0.0009848032
v -0.032172035 2.152426 0.03118721
v 0.28206104 0.80976516 -0.28395137
v 0.39954078 0.8097652 -0.0003304172
v 0.045498088 2.152426 -0.0009848111
v 0.03217197 2.152426 -0.033156805
v -0.40266043 0.8097652 -0.00033032315
v -0.28518084 0.80976516 0.2832906
v -0.2959483 0.774448 0.2572957
v -0.391893 0.7744479 0.025664613
v -0.0015599732 0.80976516 -0.40143088
v -0.2851809 0.80976516 -0.28395128
v -0.25918597 0.77444786 -0.29471868
v -0.027554903 0.77444786 -0.39066344
v 0.39954078 0.8097652 -0.0003304172
v 0.28206104 0.80976516 -0.28395137
v 0.29282847 0.77444786 -0.2579564
v 0.38877326 0.7744479 -0.026325338
v -0.0015598681 0.80976516 0.40077025
v 0.2820611 0.8097652 0.28329057
v 0.2560661 0.774448 0.2940581
v 0.02443506 0.774448 0.39000282
v -0.2851809 0.80976516 -0.28395128
v -0.0015599732 0.80976516 -0.40143088
v -4.219197E-08 2.152426 -0.04648294
v -0.032172043 2.152426 -0.033156797
v 0.024607662 2.1896448 0.014206761
v -2.360968E-09 2.2094972 -6.511701E-07
v 0.024607671 2.1896448 -0.014207825
v -6.0829786E-09 2.1896448 -0.028415028
v -2.360968E-09 2.2094972 -6.511701E-07
v -0.024607677 2.1896448 -0.01420782
v -0.024607658 2.1896448 0.014206764
v -2.360968E-09 2.2094972 -6.511701E-07
v 1.2025718E-09 2.1896448 0.028413946
v 1.2025718E-09 2.1896448 0.028413946
v -2.360968E-09 2.2094972 -6.511701E-07
v 0.024607662 2.1896448 0.014206761
v 0.024607671 2.1896448 -0.014207825
v -2.360968E-09 2.2094972 -6.511701E-07
v -6.0829786E-09 2.1896448 -0.028415028
v -0.024607677 2.1896448 -0.01420782
v -2.360968E-09 2.2094972 -6.511701E-07
v -0.024607658 2.1896448 0.014206764
v -0.035297334 2.1605165 -0.0203794
v -0.035292197 -2.4173823E-07 -0.020375984
v -8.267838E-09 -2.450579E-07 -0.04075194
v -8.246731E-09 2.1605165 -0.04075838
v 0.03529734 2.1605165 -0.020379411
v 0.035292197 -2.4173823E-07 -0.020375995
v 0.03529219 -2.3509888E-07 0.020375917
v 0.035297334 2.1605165 0.020378355
v -0.035297334 2.1605165 0.020378362
v -0.03529219 -2.3509888E-07 0.020375924
v -0.035292197 -2.4173823E-07 -0.020375984
v -0.035297334 2.1605165 -0.0203794
v -8.246731E-09 2.1605165 -0.04075838
v -8.267838E-09 -2.450579E-07 -0.04075194
v 0.035292197 -2.4173823E-07 -0.020375995
v 0.03529734 2.1605165 -0.020379411
v 0.035297334 2.1605165 0.020378355
v 0.03529219 -2.3509888E-07 0.020375917
v 2.1656639E-09 -2.3177921E-07 0.040751938
v 2.166133E-09 2.1605165 0.04075732
v 2.166133E-09 2.1605165 0.04075732
v 2.1656639E-09 -2.3177921E-07 0.040751938
v -0.03529219 -2.3509888E-07 0.020375924
v -0.035297334 2.1605165 0.020378362
v -0.035297334 2.1605165 0.020378362
v -0.024607658 2.1896448 0.014206764
v 1.2025718E-09 2.1896448 0.028413946
v 2.166133E-09 2.1605165 0.04075732
v 0.035297334 2.1605165 0.020378355
v 0.024607662 2.1896448 0.014206761
v 0.024607671 2.1896448 -0.014207825
v 0.03529734 2.1605165 -0.020379411
v -0.035297334 2.1605165 -0.0203794
v -0.024607677 2.1896448 -0.01420782
v -0.024607658 2.1896448 0.014206764
v -0.035297334 2.1605165 0.020378362
v -8.246731E-09 2.1605165 -0.04075838
v -6.0829786E-09 2.1896448 -0.028415028
v -0.024607677 2.1896448 -0.01420782
v -0.035297334 2.1605165 -0.0203794
v 2.166133E-09 2.1605165 0.04075732
v 1.2025718E-09 2.1896448 0.028413946
v 0.024607662 2.1896448 0.014206761
v 0.035297334 2.1605165 0.020378355
v 0.03529734 2.1605165 -0.020379411
v 0.024607671 2.1896448 -0.014207825
v -6.0829786E-09 2.1896448 -0.028415028
v -8.246731E-09 2.1605165 -0.04075838
vt 0.7453282 0.720954
vt 0.7987099 0.72356933
vt 0.7987099 0.3450094
vt 0.7926548 0.3447122
vt 0.8640192 0.7208551
vt 0.91741085 0.7233377
vt 0.91741085 0.34499428
vt 0.9113542 0.3447122
vt 0.4687692 0.7186931
vt 0.535224 0.72415173
vt 0.535224 0.34533155
vt 0.52768636 0.3447122
vt 0.61358523 0.71854216
vt 0.6800286 0.7240648
vt 0.6800288 0.34533882
vt 0.6724916 0.3447122
vt 0.7987099 0.72356933
vt 0.7453282 0.720954
vt 0.74799895 0.73051864
vt 0.79159516 0.73265463
vt 0.535224 0.72415173
vt 0.4687692 0.7186931
vt 0.47292084 0.72856945
vt 0.5271935 0.73302776
vt 0.91741085 0.7233377
vt 0.8640192 0.7208551
vt 0.8667114 0.73041296
vt 0.9103161 0.73243964
vt 0.6800286 0.7240648
vt 0.61358523 0.71854216
vt 0.6177305 0.7284248
vt 0.67199457 0.7329346
vt 0.6859876 0.720954
vt 0.73936933 0.72356933
vt 0.73936933 0.3450094
vt 0.7333142 0.3447122
vt 0.8046688 0.7208551
vt 0.8580604 0.7233377
vt 0.8580604 0.34499428
vt 0.85200375 0.3447122
vt 0.3963555 0.7186931
vt 0.46281037 0.72415173
vt 0.46281037 0.34533155
vt 0.4552727 0.3447122
vt 0.5411829 0.71854216
vt 0.60762626 0.7240648
vt 0.60762644 0.34533882
vt 0.60008925 0.3447122
vt 0.73936933 0.72356933
vt 0.6859876 0.720954
vt 0.6886584 0.73051864
vt 0.73225456 0.73265463
vt 0.46281037 0.72415173
vt 0.3963555 0.7186931
vt 0.40050715 0.72856945
vt 0.4547798 0.73302776
vt 0.8580604 0.7233377
vt 0.8046688 0.7208551
vt 0.8073609 0.73041296
vt 0.8509657 0.73243964
vt 0.60762626 0.7240648
vt 0.5411829 0.71854216
vt 0.54532814 0.7284248
vt 0.5995922 0.7329346
vt 0.38067332 0.16788489
vt 0.38067228 0.08841158
vt 0.0029799428 0.12226435
vt 0.0029794222 0.13127936
vt 0.38082373 0.42289943
vt 0.3808227 0.3447122
vt 0.0029794222 0.3685366
vt 0.0029794222 0.3774064
vt 0.3806629 0.6753376
vt 0.38066134 0.5971504
vt 0.0029794222 0.6211205
vt 0.0029794222 0.6299898
vt 0.3808227 0.3447122
vt 0.38082373 0.42289943
vt 0.39039668 0.41558737
vt 0.39039668 0.35173175
vt 0.3806603 0.25927797
vt 0.38066238 0.33875337
vt 0.3902447 0.33165783
vt 0.39024523 0.26675084
vt 0.38066134 0.5971504
vt 0.3806629 0.6753376
vt 0.39023742 0.6680266
vt 0.39023742 0.604172
vt 0.38067228 0.08841158
vt 0.38067332 0.16788489
vt 0.3902572 0.16078675
vt 0.39025667 0.09588185
vt 0.38066238 0.33875337
vt 0.3806603 0.25927797
vt 0.0029794222 0.2921512
vt 0.0029794222 0.30116624
vt 0.38067332 0.08245273
vt 0.38067228 0.0029794222
vt 0.0029799428 0.03683219
vt 0.0029794222 0.045847207
vt 0.38082373 0.5070455
vt 0.3808227 0.42885825
vt 0.0029794222 0.45268264
vt 0.0029794222 0.46155247
vt 0.3806629 0.59119153
vt 0.38066134 0.5130043
vt 0.0029794222 0.53697443
vt 0.0029794222 0.5458437
vt 0.3808227 0.42885825
vt 0.38082373 0.5070455
vt 0.39039668 0.49973345
vt 0.39039668 0.4358778
vt 0.3806603 0.17384373
vt 0.38066238 0.2533191
vt 0.3902447 0.24622357
vt 0.39024523 0.1813166
vt 0.38066134 0.5130043
vt 0.3806629 0.59119153
vt 0.39023742 0.58388054
vt 0.39023742 0.52002597
vt 0.38067228 0.0029794222
vt 0.38067332 0.08245273
vt 0.3902572 0.07535459
vt 0.39025667 0.010449693
vt 0.38066238 0.2533191
vt 0.3806603 0.17384373
vt 0.0029794222 0.20671697
vt 0.0029794222 0.215732
vt 0.9254838 0.939759
vt 0.9303507 0.9460244
vt 0.932707 0.939529
vt 0.9956064 0.35113475
vt 0.9923514 0.3447122
vt 0.9882554 0.3510593
vt 0.95467544 0.3512118
vt 0.9570325 0.3447122
vt 0.9498084 0.35033065
vt 0.9791028 0.3511358
vt 0.9758478 0.3447122
vt 0.9717517 0.35105982
vt 0.932707 0.939529
vt 0.9303507 0.9460244
vt 0.9375743 0.94040596
vt 0.96189886 0.35098124
vt 0.9570325 0.3447122
vt 0.95467544 0.3512118
vt 0.9864759 0.35938418
vt 0.98647743 0.9460109
vt 0.99702054 0.94611967
vt 0.99702054 0.35949242
vt 0.9337312 0.9311417
vt 0.9337317 0.3447122
vt 0.9233718 0.34504166
vt 0.9233697 0.93147165
vt 0.95365155 0.35960016
vt 0.9536531 0.9459755
vt 0.96401304 0.94564396
vt 0.96401304 0.35926914
vt 0.9407122 0.93239963
vt 0.9407122 0.34597015
vt 0.9337317 0.3447122
vt 0.9337312 0.9311417
vt 0.96997184 0.35938418
vt 0.9699734 0.9460109
vt 0.980517 0.94611967
vt 0.980517 0.35949242
vt 0.94667107 0.358337
vt 0.9466731 0.94471234
vt 0.9536531 0.9459755
vt 0.95365155 0.35960016
vt 0.95365155 0.35960016
vt 0.95467544 0.3512118
vt 0.9498084 0.35033065
vt 0.94667107 0.358337
vt 0.9233697 0.93147165
vt 0.9254838 0.939759
vt 0.932707 0.939529
vt 0.9337312 0.9311417
vt 0.96401304 0.35926914
vt 0.96189886 0.35098124
vt 0.95467544 0.3512118
vt 0.95365155 0.35960016
vt 0.99702054 0.35949242
vt 0.9956064 0.35113475
vt 0.9882554 0.3510593
vt 0.9864759 0.35938418
vt 0.980517 0.35949242
vt 0.9791028 0.3511358
vt 0.9717517 0.35105982
vt 0.96997184 0.35938418
vt 0.9337312 0.9311417
vt 0.932707 0.939529
vt 0.9375743 0.94040596
vt 0.9407122 0.93239963
vn -0.37164047 0.23849684 0.89721936
vn -0.37164047 0.23849684 0.89721936
vn -0.37164047 0.23849684 0.89721936
vn -0.37164047 0.23849684 0.89721936
vn 0.37179384 0.23685648 -0.89759034
vn 0.37179384 0.23685648 -0.89759034
vn 0.37179384 0.23685648 -0.89759034
vn 0.37179384 0.23685648 -0.89759034
vn -0.8972211 0.23848942 -0.37164104
vn -0.8972211 0.23848942 -0.37164104
vn -0.8972211 0.23848942 -0.37164104
vn -0.8972211 0.23848942 -0.37164104
vn 0.8975885 0.23686396 0.37179336
vn 0.8975885 0.23686396 0.37179336
vn 0.8975885 0.23686396 0.37179336
vn 0.8975885 0.23686396 0.37179336
vn -0.38268343 1.0402372E-06 0.9238795
vn -0.38268343 1.0402372E-06 0.9238795
vn -0.38268343 1.0402372E-06 0.9238795
vn -0.38268343 1.0402372E-06 0.9238795
vn -0.9238795 -3.959982E-07 -0.38268328
vn -0.9238795 -3.959982E-07 -0.38268328
vn -0.9238795 -3.959982E-07 -0.38268328
vn -0.9238795 -3.959982E-07 -0.38268328
vn 0.38268238 -1.891335E-07 -0.92388004
vn 0.38268238 -1.891335E-07 -0.92388004
vn 0.38268238 -1.891335E-07 -0.92388004
vn 0.38268238 -1.891335E-07 -0.92388004
vn 0.92387974 -1.174694E-06 0.38268286
vn 0.92387974 -1.174694E-06 0.38268286
vn 0.92387974 -1.174694E-06 0.38268286
vn 0.92387974 -1.174694E-06 0.38268286
vn -0.37164047 0.23849684 0.89721936
vn -0.37164047 0.23849684 0.89721936
vn -0.37164047 0.23849684 0.89721936
vn -0.37164047 0.23849684 0.89721936
vn 0.37179384 0.23685648 -0.89759034
vn 0.37179384 0.23685648 -0.89759034
vn 0.37179384 0.23685648 -0.89759034
vn 0.37179384 0.23685648 -0.89759034
vn -0.8972211 0.23848942 -0.37164104
vn -0.8972211 0.23848942 -0.37164104
vn -0.8972211 0.23848942 -0.37164104
vn -0.8972211 0.23848942 -0.37164104
vn 0.8975885 0.23686396 0.37179336
vn 0.8975885 0.23686396 0.37179336
vn 0.8975885 0.23686396 0.37179336
vn 0.8975885 0.23686396 0.37179336
vn -0.38268343 1.0402372E-06 0.9238795
vn -0.38268343 1.0402372E-06 0.9238795
vn -0.38268343 1.0402372E-06 0.9238795
vn -0.38268343 1.0402372E-06 0.9238795
vn -0.9238795 -3.959982E-07 -0.38268328
vn -0.9238795 -3.959982E-07 -0.38268328
vn -0.9238795 -3.959982E-07 -0.38268328
vn -0.9238795 -3.959982E-07 -0.38268328
vn 0.38268238 -1.891335E-07 -0.92388004
vn 0.38268238 -1.891335E-07 -0.92388004
vn 0.38268238 -1.891335E-07 -0.92388004
vn 0.38268238 -1.891335E-07 -0.92388004
vn 0.92387974 -1.174694E-06 0.38268286
vn 0.92387974 -1.174694E-06 0.38268286
vn 0.92387974 -1.174694E-06 0.38268286
vn 0.92387974 -1.174694E-06 0.38268286
vn 0.37171707 0.23768216 0.89740384
vn 0.37171707 0.23768216 0.89740384
vn 0.37171707 0.23768216 0.89740384
vn 0.37171707 0.23768216 0.89740384
vn -0.8971435 0.23883107 0.37160912
vn -0.8971435 0.23883107 0.37160912
vn -0.8971435 0.23883107 0.37160912
vn -0.8971435 0.23883107 0.37160912
vn 0.89766544 0.23652187 -0.37182558
vn 0.89766544 0.23652187 -0.37182558
vn 0.89766544 0.23652187 -0.37182558
vn 0.89766544 0.23652187 -0.37182558
vn -0.9238798 0 0.38268268
vn -0.9238798 0 0.38268268
vn -0.9238798 0 0.38268268
vn -0.9238798 0 0.38268268
vn -0.38268316 -7.092504E-07 -0.9238796
vn -0.38268316 -7.092504E-07 -0.9238796
vn -0.38268316 -7.092504E-07 -0.9238796
vn -0.38268316 -7.092504E-07 -0.9238796
vn 0.92387944 -1.4894265E-06 -0.38268387
vn 0.92387944 -1.4894265E-06 -0.38268387
vn 0.92387944 -1.4894265E-06 -0.38268387
vn 0.92387944 -1.4894265E-06 -0.38268387
vn 0.38268378 1.7967702E-06 0.92387944
vn 0.38268378 1.7967702E-06 0.92387944
vn 0.38268378 1.7967702E-06 0.92387944
vn 0.38268378 1.7967702E-06 0.92387944
vn -0.3717181 0.23767164 -0.8974062
vn -0.3717181 0.23767164 -0.8974062
vn -0.3717181 0.23767164 -0.8974062
vn -0.3717181 0.23767164 -0.8974062
vn 0.37171707 0.23768216 0.89740384
vn 0.37171707 0.23768216 0.89740384
vn 0.37171707 0.23768216 0.89740384
vn 0.37171707 0.23768216 0.89740384
vn -0.8971435 0.23883107 0.37160912
vn -0.8971435 0.23883107 0.37160912
vn -0.8971435 0.23883107 0.37160912
vn -0.8971435 0.23883107 0.37160912
vn 0.89766544 0.23652187 -0.37182558
vn 0.89766544 0.23652187 -0.37182558
vn 0.89766544 0.23652187 -0.37182558
vn 0.89766544 0.23652187 -0.37182558
vn -0.9238798 0 0.38268268
vn -0.9238798 0 0.38268268
vn -0.9238798 0 0.38268268
vn -0.9238798 0 0.38268268
vn -0.38268316 -7.092504E-07 -0.9238796
vn -0.38268316 -7.092504E-07 -0.9238796
vn -0.38268316 -7.092504E-07 -0.9238796
vn -0.38268316 -7.092504E-07 -0.9238796
vn 0.92387944 -1.4894265E-06 -0.38268387
vn 0.92387944 -1.4894265E-06 -0.38268387
vn 0.92387944 -1.4894265E-06 -0.38268387
vn 0.92387944 -1.4894265E-06 -0.38268387
vn 0.38268378 1.7967702E-06 0.92387944
vn 0.38268378 1.7967702E-06 0.92387944
vn 0.38268378 1.7967702E-06 0.92387944
vn 0.38268378 1.7967702E-06 0.92387944
vn -0.3717181 0.23767164 -0.8974062
vn -0.3717181 0.23767164 -0.8974062
vn -0.3717181 0.23767164 -0.8974062
vn -0.3717181 0.23767164 -0.8974062
vn 0.62790674 0.7782886 2.5916063E-07
vn 0.62790674 0.7782886 2.5916063E-07
vn 0.62790674 0.7782886 2.5916063E-07
vn -0.3139501 0.77829546 -0.5437751
vn -0.3139501 0.77829546 -0.5437751
vn -0.3139501 0.77829546 -0.5437751
vn -0.31395626 0.77829576 0.5437712
vn -0.31395626 0.77829576 0.5437712
vn -0.31395626 0.77829576 0.5437712
vn 0.31394872 0.77829784 0.5437725
vn 0.31394872 0.77829784 0.5437725
vn 0.31394872 0.77829784 0.5437725
vn 0.31394258 0.7782975 -0.54377663
vn 0.31394258 0.7782975 -0.54377663
vn 0.31394258 0.7782975 -0.54377663
vn -0.62790173 0.7782926 3.8874296E-07
vn -0.62790173 0.7782926 3.8874296E-07
vn -0.62790173 0.7782926 3.8874296E-07
vn -0.5000006 -2.5702127E-06 -0.8660251
vn -0.5000006 -2.5702127E-06 -0.8660251
vn -0.5000006 -2.5702127E-06 -0.8660251
vn -0.5000006 -2.5702127E-06 -0.8660251
vn 1 -2.381202E-06 1.665712E-07
vn 1 -2.381202E-06 1.665712E-07
vn 1 -2.381202E-06 1.665712E-07
vn 1 -2.381202E-06 1.665712E-07
vn -1 -2.3794778E-06 0
vn -1 -2.3794778E-06 0
vn -1 -2.3794778E-06 0
vn -1 -2.3794778E-06 0
vn 0.5000001 -2.5702118E-06 -0.8660253
vn 0.5000001 -2.5702118E-06 -0.8660253
vn 0.5000001 -2.5702118E-06 -0.8660253
vn 0.5000001 -2.5702118E-06 -0.8660253
vn 0.5000011 -2.162997E-06 0.8660248
vn 0.5000011 -2.162997E-06 0.8660248
vn 0.5000011 -2.162997E-06 0.8660248
vn 0.5000011 -2.162997E-06 0.8660248
vn -0.5000008 -2.162997E-06 0.866025
vn -0.5000008 -2.162997E-06 0.866025
vn -0.5000008 -2.162997E-06 0.866025
vn -0.5000008 -2.162997E-06 0.866025
vn -0.46939167 0.34451726 0.8130064
vn -0.46939167 0.34451726 0.8130064
vn -0.46939167 0.34451726 0.8130064
vn -0.46939167 0.34451726 0.8130064
vn 0.9387792 0.34451944 2.7120456E-07
vn 0.9387792 0.34451944 2.7120456E-07
vn 0.9387792 0.34451944 2.7120456E-07
vn 0.9387792 0.34451944 2.7120456E-07
vn -0.9387796 0.34451813 2.7120367E-07
vn -0.9387796 0.34451813 2.7120367E-07
vn -0.9387796 0.34451813 2.7120367E-07
vn -0.9387796 0.34451813 2.7120367E-07
vn -0.46939176 0.3445167 -0.8130065
vn -0.46939176 0.3445167 -0.8130065
vn -0.46939176 0.3445167 -0.8130065
vn -0.46939176 0.3445167 -0.8130065
vn 0.4693904 0.34451735 0.8130071
vn 0.4693904 0.34451735 0.8130071
vn 0.4693904 0.34451735 0.8130071
vn 0.4693904 0.34451735 0.8130071
vn 0.46939296 0.34451643 -0.813006
vn 0.46939296 0.34451643 -0.813006
vn 0.46939296 0.34451643 -0.813006
vn 0.46939296 0.34451643 -0.813006
g sunscreen-closed_0
f 3/3/3 2/2/2 1/1/1
f 4/4/4 3/3/3 1/1/1
f 7/7/7 6/6/6 5/5/5
f 8/8/8 7/7/7 5/5/5
f 11/11/11 10/10/10 9/9/9
f 12/12/12 11/11/11 9/9/9
f 15/15/15 14/14/14 13/13/13
f 16/16/16 15/15/15 13/13/13
f 19/19/19 18/18/18 17/17/17
f 20/20/20 19/19/19 17/17/17
f 23/23/23 22/22/22 21/21/21
f 24/24/24 23/23/23 21/21/21
f 27/27/27 26/26/26 25/25/25
f 28/28/28 27/27/27 25/25/25
f 31/31/31 30/30/30 29/29/29
f 32/32/32 31/31/31 29/29/29
f 35/35/35 34/34/34 33/33/33
f 36/36/36 35/35/35 33/33/33
f 39/39/39 38/38/38 37/37/37
f 40/40/40 39/39/39 37/37/37
f 43/43/43 42/42/42 41/41/41
f 44/44/44 43/43/43 41/41/41
f 47/47/47 46/46/46 45/45/45
f 48/48/48 47/47/47 45/45/45
f 51/51/51 50/50/50 49/49/49
f 52/52/52 51/51/51 49/49/49
f 55/55/55 54/54/54 53/53/53
f 56/56/56 55/55/55 53/53/53
f 59/59/59 58/58/58 57/57/57
f 60/60/60 59/59/59 57/57/57
f 63/63/63 62/62/62 61/61/61
f 64/64/64 63/63/63 61/61/61
g sunscreen-closed_1
f 67/67/67 66/66/66 65/65/65
f 68/68/68 67/67/67 65/65/65
f 71/71/71 70/70/70 69/69/69
f 72/72/72 71/71/71 69/69/69
f 75/75/75 74/74/74 73/73/73
f 76/76/76 75/75/75 73/73/73
f 79/79/79 78/78/78 77/77/77
f 80/80/80 79/79/79 77/77/77
f 83/83/83 82/82/82 81/81/81
f 84/84/84 83/83/83 81/81/81
f 87/87/87 86/86/86 85/85/85
f 88/88/88 87/87/87 85/85/85
f 91/91/91 90/90/90 89/89/89
f 92/92/92 91/91/91 89/89/89
f 95/95/95 94/94/94 93/93/93
f 96/96/96 95/95/95 93/93/93
f 99/99/99 98/98/98 97/97/97
f 100/100/100 99/99/99 97/97/97
f 103/103/103 102/102/102 101/101/101
f 104/104/104 103/103/103 101/101/101
f 107/107/107 106/106/106 105/105/105
f 108/108/108 107/107/107 105/105/105
f 111/111/111 110/110/110 109/109/109
f 112/112/112 111/111/111 109/109/109
f 115/115/115 114/114/114 113/113/113
f 116/116/116 115/115/115 113/113/113
f 119/119/119 118/118/118 117/117/117
f 120/120/120 119/119/119 117/117/117
f 123/123/123 122/122/122 121/121/121
f 124/124/124 123/123/123 121/121/121
f 127/127/127 126/126/126 125/125/125
f 128/128/128 127/127/127 125/125/125
g sunscreen-closed_2
f 131/131/131 130/130/130 129/129/129
f 134/134/134 133/133/133 132/132/132
f 137/137/137 136/136/136 135/135/135
f 140/140/140 139/139/139 138/138/138
f 143/143/143 142/142/142 141/141/141
f 146/146/146 145/145/145 144/144/144
f 149/149/149 148/148/148 147/147/147
f 150/150/150 149/149/149 147/147/147
f 153/153/153 152/152/152 151/151/151
f 154/154/154 153/153/153 151/151/151
f 157/157/157 156/156/156 155/155/155
f 158/158/158 157/157/157 155/155/155
f 161/161/161 160/160/160 159/159/159
f 162/162/162 161/161/161 159/159/159
f 165/165/165 164/164/164 163/163/163
f 166/166/166 165/165/165 163/163/163
f 169/169/169 168/168/168 167/167/167
f 170/170/170 169/169/169 167/167/167
f 173/173/173 172/172/172 171/171/171
f 174/174/174 173/173/173 171/171/171
f 177/177/177 176/176/176 175/175/175
f 178/178/178 177/177/177 175/175/175
f 181/181/181 180/180/180 179/179/179
f 182/182/182 181/181/181 179/179/179
f 185/185/185 184/184/184 183/183/183
f 186/186/186 185/185/185 183/183/183
f 189/189/189 188/188/188 187/187/187
f 190/190/190 189/189/189 187/187/187
f 193/193/193 192/192/192 191/191/191
f 194/194/194 193/193/193 191/191/191
