g terrain-world-valley2
v -3.0103674 -0.8986904 -3.0102348
v 2.9896407 -2.6789 -3.010236
v 2.9896417 -0.97719204 2.9897635
v 2.9897215 -4.334701 -14.999945
v 8.989736 -5.4457874 -14.999945
v 8.989647 -4.911948 -9.010235
v 2.9896393 -3.4162207 -9.010233
v 8.989647 -4.911948 -9.010235
v 8.989649 -3.240632 -3.0102367
v -9.010324 0.22689901 15.000066
v -14.999992 -5.12594E-06 15.000063
v -14.999992 0.13312846 9.000052
v -9.010361 0.021005698 8.989763
v -3.010364 -0.17496292 8.989761
v -3.0103219 0.4500767 15.000064
v 2.9896436 -0.019893337 8.989761
v 8.98965 -0.5124692 8.989759
v 8.999993 0.07541071 15.000053
v -9.010282 -0.56130105 -14.999945
v -3.0102792 -2.172481 -14.999945
v -3.0103676 -1.406609 -9.010233
v 2.9896417 -0.97719204 2.9897635
v 8.989649 -1.7316651 2.9897623
v 8.98965 -0.5124692 8.989759
v 8.989649 -3.240632 -3.0102367
v 14.999985 -4.3346972 -3.0000536
v 14.999985 -2.1724758 2.9999588
v -9.010361 0.021005698 8.989763
v -14.999992 0.13312846 9.000052
v -14.999992 0.4041462 3.0000668
v 8.989647 -4.911948 -9.010235
v 14.999985 -5.445781 -9.000046
v 14.999985 -4.3346972 -3.0000536
v 2.9896436 -0.019893337 8.989761
v 2.9896798 0.14941177 15.000066
v -3.0103219 0.4500767 15.000064
v 2.9896436 -0.019893337 8.989761
v 8.999993 0.07541071 15.000053
v -3.0103662 -0.37240618 2.989765
v -3.010364 -0.17496292 8.989761
v -9.010361 -0.2871377 2.9897668
v -9.010361 0.021005698 8.989763
v -9.010324 0.22689901 15.000066
v -14.999992 0.13312846 9.000052
v -3.0103676 -1.406609 -9.010233
v 2.9896407 -2.6789 -3.010236
v -3.0103674 -0.8986904 -3.0102348
v 2.9897215 -4.334701 -14.999945
v 8.989647 -4.911948 -9.010235
v 2.9896393 -3.4162207 -9.010233
v 2.9896393 -3.4162207 -9.010233
v 8.989649 -3.240632 -3.0102367
v 2.9896407 -2.6789 -3.010236
v -9.010361 0.021005698 8.989763
v -3.0103219 0.4500767 15.000064
v -9.010324 0.22689901 15.000066
v 8.989647 -4.911948 -9.010235
v 14.999985 -4.3346972 -3.0000536
v 8.989649 -3.240632 -3.0102367
v 2.9896436 -0.019893337 8.989761
v -3.0103219 0.4500767 15.000064
v -3.010364 -0.17496292 8.989761
v 8.989649 -1.7316651 2.9897623
v 14.999985 -0.5613018 8.999966
v 8.98965 -0.5124692 8.989759
v -3.0103676 -1.406609 -9.010233
v 2.9896393 -3.4162207 -9.010233
v 2.9896407 -2.6789 -3.010236
v -3.0102792 -2.172481 -14.999945
v 2.9897215 -4.334701 -14.999945
v 8.98965 -0.5124692 8.989759
v 14.999985 -0.5613018 8.999966
v 14.999985 -5.1259376E-06 15.000064
v 8.999993 0.07541071 15.000053
v -9.010362 -0.28107554 -9.010232
v -3.0103676 -1.406609 -9.010233
v -3.0103674 -0.8986904 -3.0102348
v -9.010282 -0.56130105 -14.999945
v -9.010361 -0.2871377 2.9897668
v -14.999992 0.4041462 3.0000668
v -14.999992 0.038761593 -2.9895873
v -9.010361 0.021005698 8.989763
v -3.0103662 -0.37240618 2.989765
v 2.9896417 -0.97719204 2.9897635
v 2.9896436 -0.019893337 8.989761
v 8.98965 -0.5124692 8.989759
v -9.010361 -0.17207217 -3.0102344
v -14.999992 0.038761593 -2.9895873
v -14.999992 0.3506819 -8.989584
v -9.010361 -0.2871377 2.9897668
v -3.0103662 -0.37240618 2.989765
v 8.989736 -5.4457874 -14.999945
v 14.999985 -5.999978 -14.999945
v 14.999985 -5.445781 -9.000046
v 8.989647 -4.911948 -9.010235
v -9.010361 -0.17207217 -3.0102344
v -3.0103674 -0.8986904 -3.0102348
v -3.0103662 -0.37240618 2.989765
v 2.9896417 -0.97719204 2.9897635
v 8.989649 -1.7316651 2.9897623
v 14.999985 -2.1724758 2.9999588
v 14.999985 -0.5613018 8.999966
v 8.989649 -3.240632 -3.0102367
v 2.9896407 -2.6789 -3.010236
v 2.9896417 -0.97719204 2.9897635
v -9.010362 -0.28107554 -9.010232
v -14.999993 1.6568403E-05 -14.999945
v -9.010282 -0.56130105 -14.999945
v -14.999992 0.3506819 -8.989584
v -9.010361 -0.17207217 -3.0102344
v -3.0103674 -0.8986904 -3.0102348
v 14.999985 -5.999978 -14.999945
v 14.999985 -8.00001 -14.999945
v 14.999985 -7.4458294 -8.989592
v 14.999985 -5.445781 -9.000046
v 14.999985 -6.3347454 -2.989595
v 14.999985 -4.3346972 -3.0000536
v 14.999985 -4.172524 2.9897606
v 14.999985 -2.1724758 2.9999588
v 14.999985 -2.5613437 8.9897585
v 14.999985 -0.5613018 8.999966
v 14.999985 -2.0000048 15.000064
v 14.999985 -5.1259376E-06 15.000064
v 8.989736 -5.4457874 -14.999945
v 8.989633 -7.0082164 -14.999945
v 14.999985 -8.00001 -14.999945
v 14.999985 -5.999978 -14.999945
v 2.9896798 0.14941177 15.000066
v -3.0103235 -1.9612397 15.000064
v -3.0103219 0.4500767 15.000064
v 2.9896798 -1.5958532 15.000064
v 8.999993 0.07541071 15.000053
v 8.989668 -1.8668709 15.000066
v 14.999985 -5.1259376E-06 15.000064
v 14.999985 -2.0000048 15.000064
v 2.9897215 -4.334701 -14.999945
v 2.98963 -5.594051 -14.999945
v 8.989633 -7.0082164 -14.999945
v 8.989736 -5.4457874 -14.999945
v -3.0103219 0.4500767 15.000064
v -3.0103235 -1.9612397 15.000064
v -9.0103245 -1.6493187 15.000066
v -9.010324 0.22689901 15.000066
v -14.999992 -1.9999957 15.000063
v -14.999992 -5.12594E-06 15.000063
v -14.999992 -5.12594E-06 15.000063
v -14.999992 -1.9999957 15.000063
v -14.999992 -1.7731047 9.010409
v -14.999992 0.13312846 9.000052
v -14.999992 -1.5499243 3.0104125
v -14.999992 0.4041462 3.0000668
v -14.999992 -1.8505901 -2.9895868
v -14.999992 0.038761593 -2.9895873
v -14.999992 -1.9245906 -8.989584
v -14.999992 0.3506819 -8.989584
v -14.999993 -1.9999981 -14.999945
v -14.999993 1.6568403E-05 -14.999945
v -3.0102792 -2.172481 -14.999945
v 2.98963 -5.594051 -14.999945
v 2.9897215 -4.334701 -14.999945
v -3.0103722 -3.9024506 -14.999945
v -9.010282 -0.56130105 -14.999945
v -9.010376 -2.0270305 -14.999945
v -3.0102792 -2.172481 -14.999945
v -14.999993 1.6568403E-05 -14.999945
v -14.999993 -1.9999981 -14.999945
v -9.010376 -2.0270305 -14.999945
v -9.010282 -0.56130105 -14.999945
v 14.999985 -2.5613437 8.9897585
v 14.999985 -6.000005 15.000064
v 14.999985 -2.0000048 15.000064
v 14.999985 -6.5613437 8.989758
v 14.999985 -4.172524 2.9897606
v 14.999985 -8.172523 2.9897616
v 14.999985 -6.3347454 -2.989595
v 14.999985 -10.334744 -2.989594
v 14.999985 -7.4458294 -8.989592
v 14.999985 -11.445831 -8.989591
v 14.999985 -8.00001 -14.999945
v 14.999985 -12.00001 -14.999945
v -14.999993 -1.9999981 -14.999945
v -14.999993 -5.999998 -14.999945
v -9.010373 -6.027033 -14.999945
v -9.010376 -2.0270305 -14.999945
v -3.0103722 -7.902452 -14.999945
v -3.0103722 -3.9024506 -14.999945
v 2.9896288 -9.594049 -14.999945
v 2.98963 -5.594051 -14.999945
v 8.989634 -11.008216 -14.999945
v 8.989633 -7.0082164 -14.999945
v 14.999985 -12.00001 -14.999945
v 14.999985 -8.00001 -14.999945
v -14.999992 -1.9245906 -8.989584
v -14.999993 -5.999998 -14.999945
v -14.999993 -1.9999981 -14.999945
v -14.999992 -5.924589 -8.989584
v -14.999992 -1.8505901 -2.9895868
v -14.999992 -5.850588 -2.9895873
v -14.999992 -1.5499243 3.0104125
v -14.999992 -5.549921 3.0104134
v -14.999992 -1.7731047 9.010409
v -14.999992 -5.7731037 9.01041
v -14.999992 -1.9999957 15.000063
v -14.999992 -5.999996 15.000064
v -9.0103245 -1.6493187 15.000066
v -14.999992 -5.999996 15.000064
v -14.999992 -1.9999957 15.000063
v -9.0103245 -5.6493235 15.000064
v -3.0103235 -1.9612397 15.000064
v -3.0103235 -5.961239 15.000064
v 2.9896798 -1.5958532 15.000064
v 2.9896784 -5.595854 15.000066
v 8.989668 -1.8668709 15.000066
v 8.989668 -5.86687 15.000064
v 14.999985 -2.0000048 15.000064
v 14.999985 -6.000005 15.000064
vt 0.4465432 0.428398
vt 0.42666718 0.42821476
vt 0.4268713 0.44806433
vt 0.4267849 0.38880706
vt 0.40690684 0.38863036
vt 0.40679798 0.4083476
vt 0.42663828 0.4085112
vt 0.40679798 0.4083476
vt 0.40696114 0.42824525
vt 0.4662772 0.48737234
vt 0.48589307 0.48742568
vt 0.48587036 0.4677621
vt 0.46623504 0.4677058
vt 0.44658864 0.4677509
vt 0.44661355 0.48752826
vt 0.42694786 0.4677623
vt 0.40732938 0.467787
vt 0.40736577 0.48750228
vt 0.46635118 0.38943133
vt 0.4466768 0.3890563
vt 0.4465818 0.40871724
vt 0.4268713 0.44806433
vt 0.40718457 0.44807795
vt 0.40732938 0.467787
vt 0.40696114 0.42824525
vt 0.38710102 0.42827347
vt 0.3875814 0.44821537
vt 0.46623504 0.4677058
vt 0.48587036 0.4677621
vt 0.48581338 0.44816715
vt 0.40679798 0.4083476
vt 0.38704628 0.40836564
vt 0.38710102 0.42827347
vt 0.42694786 0.4677623
vt 0.42695513 0.4874196
vt 0.44661355 0.48752826
vt 0.42694786 0.4677623
vt 0.40736577 0.48750228
vt 0.44655833 0.4480859
vt 0.44658864 0.4677509
vt 0.46619585 0.44808295
vt 0.46623504 0.4677058
vt 0.4662772 0.48737234
vt 0.48587036 0.4677621
vt 0.4465818 0.40871724
vt 0.42666718 0.42821476
vt 0.4465432 0.428398
vt 0.4267849 0.38880706
vt 0.40679798 0.4083476
vt 0.42663828 0.4085112
vt 0.42663828 0.4085112
vt 0.40696114 0.42824525
vt 0.42666718 0.42821476
vt 0.46623504 0.4677058
vt 0.44661355 0.48752826
vt 0.4662772 0.48737234
vt 0.40679798 0.4083476
vt 0.38710102 0.42827347
vt 0.40696114 0.42824525
vt 0.42694786 0.4677623
vt 0.44661355 0.48752826
vt 0.44658864 0.4677509
vt 0.40718457 0.44807795
vt 0.3878116 0.4678586
vt 0.40732938 0.467787
vt 0.4465818 0.40871724
vt 0.42663828 0.4085112
vt 0.42666718 0.42821476
vt 0.4466768 0.3890563
vt 0.4267849 0.38880706
vt 0.40732938 0.467787
vt 0.3878116 0.4678586
vt 0.38771844 0.48748988
vt 0.40736577 0.48750228
vt 0.46626732 0.40885994
vt 0.4465818 0.40871724
vt 0.4465432 0.428398
vt 0.46635118 0.38943133
vt 0.46619585 0.44808295
vt 0.48581338 0.44816715
vt 0.48588672 0.42855313
vt 0.46623504 0.4677058
vt 0.44655833 0.4480859
vt 0.4268713 0.44806433
vt 0.42694786 0.4677623
vt 0.40732938 0.467787
vt 0.46623108 0.42846006
vt 0.48588672 0.42855313
vt 0.48586556 0.40890026
vt 0.46619585 0.44808295
vt 0.44655833 0.4480859
vt 0.40690684 0.38863036
vt 0.38713175 0.38856256
vt 0.38704628 0.40836564
vt 0.40679798 0.4083476
vt 0.46623108 0.42846006
vt 0.4465432 0.428398
vt 0.44655833 0.4480859
vt 0.4268713 0.44806433
vt 0.40718457 0.44807795
vt 0.3875814 0.44821537
vt 0.3878116 0.4678586
vt 0.40696114 0.42824525
vt 0.42666718 0.42821476
vt 0.4268713 0.44806433
vt 0.46626732 0.40885994
vt 0.48579368 0.3892531
vt 0.46635118 0.38943133
vt 0.48586556 0.40890026
vt 0.46623108 0.42846006
vt 0.4465432 0.428398
vt 0.38713175 0.38856256
vt 0.37980428 0.3881846
vt 0.37969545 0.4078383
vt 0.38704628 0.40836564
vt 0.37975112 0.42738566
vt 0.38710102 0.42827347
vt 0.38030827 0.44721213
vt 0.3875814 0.44821537
vt 0.38051045 0.46719867
vt 0.3878116 0.4678586
vt 0.3803084 0.48707762
vt 0.38771844 0.48748988
vt 0.40690684 0.38863036
vt 0.40621474 0.3812793
vt 0.38653797 0.3812287
vt 0.38713175 0.38856256
vt 0.42695513 0.4874196
vt 0.4466381 0.4949494
vt 0.44661355 0.48752826
vt 0.4269699 0.49474764
vt 0.40736577 0.48750228
vt 0.40726566 0.494882
vt 0.38771844 0.48748988
vt 0.3876261 0.49485368
vt 0.4267849 0.38880706
vt 0.4259184 0.38148296
vt 0.40621474 0.3812793
vt 0.40690684 0.38863036
vt 0.44661355 0.48752826
vt 0.4466381 0.4949494
vt 0.46631527 0.49471006
vt 0.4662772 0.48737234
vt 0.48607042 0.4948326
vt 0.48589307 0.48742568
vt 0.48589307 0.48742568
vt 0.49327135 0.4875578
vt 0.49325162 0.46787572
vt 0.48587036 0.4677621
vt 0.49315625 0.44814909
vt 0.48581338 0.44816715
vt 0.49327135 0.42845452
vt 0.48588672 0.42855313
vt 0.49322107 0.40883207
vt 0.48586556 0.40890026
vt 0.49315006 0.38918036
vt 0.48579368 0.3892531
vt 0.4466768 0.3890563
vt 0.4259184 0.38148296
vt 0.4267849 0.38880706
vt 0.44572762 0.38171828
vt 0.46635118 0.38943133
vt 0.465784 0.3821807
vt 0.4466768 0.3890563
vt 0.48579368 0.3892531
vt 0.48563805 0.38180813
vt 0.465784 0.3821807
vt 0.46635118 0.38943133
vt 0.060064815 0.8518149
vt 0.039349884 0.87181896
vt 0.058593072 0.8739994
vt 0.0408215 0.84963447
vt 0.059603848 0.82948804
vt 0.04036057 0.8273077
vt 0.058124453 0.80712247
vt 0.03888118 0.804942
vt 0.05857995 0.7848995
vt 0.03933673 0.7827192
vt 0.060064815 0.7627164
vt 0.0408215 0.76053613
vt 0.019580841 0.8737614
vt 0.038842615 0.87175167
vt 0.036595352 0.8497332
vt 0.017333586 0.85174286
vt 0.037738934 0.82736063
vt 0.018477123 0.82937044
vt 0.03854523 0.8050235
vt 0.01928341 0.80703324
vt 0.038842615 0.7827393
vt 0.01958076 0.7847491
vt 0.038365185 0.76053613
vt 0.019103367 0.7625459
vt 0.06079445 0.782707
vt 0.08029995 0.76053613
vt 0.06093356 0.76053613
vt 0.08016085 0.782707
vt 0.060658045 0.8048399
vt 0.0800244 0.8048399
vt 0.060103387 0.8269728
vt 0.07946978 0.8269728
vt 0.060515128 0.8491059
vt 0.07988144 0.8491059
vt 0.06093356 0.8712388
vt 0.08029995 0.8712388
vt 0.08043715 0.782669
vt 0.100450255 0.76053613
vt 0.081083946 0.76053613
vt 0.09980347 0.782669
vt 0.08101239 0.80480206
vt 0.10037879 0.80480206
vt 0.080338515 0.82693505
vt 0.09970484 0.82693505
vt 0.08083839 0.8490679
vt 0.10020474 0.8490679
vt 0.081083946 0.8712009
vt 0.100450255 0.8712009
vn 0.2744798 0.9251051 -0.26237655
vn 0.2744798 0.9251051 -0.26237655
vn 0.2744798 0.9251051 -0.26237655
vn 0.18138988 0.9795288 -0.087298796
vn 0.18138988 0.9795288 -0.087298796
vn 0.18138988 0.9795288 -0.087298796
vn 0.23350625 0.9366943 -0.2609189
vn 0.23350625 0.9366943 -0.2609189
vn 0.23350625 0.9366943 -0.2609189
vn -0.03784614 0.9990376 0.022167535
vn -0.03784614 0.9990376 0.022167535
vn -0.03784614 0.9990376 0.022167535
vn 0.0324691 0.9941116 -0.103382565
vn 0.0324691 0.9941116 -0.103382565
vn 0.0324691 0.9941116 -0.103382565
vn 0.081433445 0.9919314 -0.09716308
vn 0.081433445 0.9919314 -0.09716308
vn 0.081433445 0.9919314 -0.09716308
vn 0.25738725 0.95850515 -0.12255509
vn 0.25738725 0.95850515 -0.12255509
vn 0.25738725 0.95850515 -0.12255509
vn 0.12230198 0.9726164 -0.19763513
vn 0.12230198 0.9726164 -0.19763513
vn 0.12230198 0.9726164 -0.19763513
vn 0.16934289 0.9271891 -0.33413076
vn 0.16934289 0.9271891 -0.33413076
vn 0.16934289 0.9271891 -0.33413076
vn 0.01877462 0.9988054 0.04511576
vn 0.01877462 0.9988054 0.04511576
vn 0.01877462 0.9988054 0.04511576
vn 0.08730838 0.97952795 -0.18138993
vn 0.08730838 0.97952795 -0.18138993
vn 0.08730838 0.97952795 -0.18138993
vn 0.050028227 0.9983518 -0.028123021
vn 0.050028227 0.9983518 -0.028123021
vn 0.050028227 0.9983518 -0.028123021
vn -0.0258223 0.9991258 -0.032878455
vn 0.012306477 0.9995278 -0.028155921
vn 0.014202299 0.99935824 -0.03288612
vn 0.014202299 0.99935824 -0.03288612
vn 0.014202299 0.99935824 -0.03288612
vn 0.03260111 0.9981529 -0.05126239
vn 0.018646443 0.99924004 -0.034230802
vn 0.018646443 0.99924004 -0.034230802
vn 0.283513 0.95555073 -0.08089037
vn 0.283513 0.95555073 -0.08089037
vn 0.283513 0.95555073 -0.08089037
vn 0.2392511 0.95974004 -0.14716609
vn 0.2392511 0.95974004 -0.14716609
vn 0.2392511 0.95974004 -0.14716609
vn 0.09252419 0.9882763 -0.121446155
vn 0.09252419 0.9882763 -0.121446155
vn 0.09252419 0.9882763 -0.121446155
vn -0.037148822 0.9987239 -0.034212776
vn -0.037148822 0.9987239 -0.034212776
vn -0.037148822 0.9987239 -0.034212776
vn 0.17315356 0.94877386 -0.2642837
vn 0.17315356 0.94877386 -0.2642837
vn 0.17315356 0.94877386 -0.2642837
vn -0.025697771 0.9943076 -0.1034025
vn -0.025697771 0.9943076 -0.1034025
vn -0.025697771 0.9943076 -0.1034025
vn 0.008299933 0.97993934 -0.19912316
vn 0.008299933 0.97993934 -0.19912316
vn 0.008299933 0.97993934 -0.19912316
vn 0.3154598 0.94185406 -0.11574151
vn 0.3154598 0.94185406 -0.11574151
vn 0.3154598 0.94185406 -0.11574151
vn 0.33555427 0.93113774 -0.14277886
vn 0.33555427 0.93113774 -0.14277886
vn 0.0082473485 0.995619 -0.09313804
vn 0.0082473485 0.995619 -0.09313804
vn 0.0082473485 0.995619 -0.09313804
vn 0.0125088105 0.9951704 -0.09736135
vn 0.18373828 0.9794719 -0.082915395
vn 0.18373828 0.9794719 -0.082915395
vn 0.18373828 0.9794719 -0.082915395
vn 0.18417859 0.98181903 -0.045931395
vn 0.11433974 0.99159837 -0.06049008
vn 0.11433974 0.99159837 -0.06049008
vn 0.11433974 0.99159837 -0.06049008
vn 0.11441695 0.99212533 -0.05095286
vn 0.099049024 0.9826538 -0.15678228
vn 0.099049024 0.9826538 -0.15678228
vn 0.099049024 0.9826538 -0.15678228
vn 0.08080534 0.9842806 -0.15704188
vn 0.035309248 0.9980287 0.051884267
vn 0.035309248 0.9980287 0.051884267
vn 0.035309248 0.9980287 0.051884267
vn 0.03523751 0.9991953 0.019162133
vn 0.01420739 0.99971527 0.019172123
vn 0.09143215 0.9915903 -0.09159089
vn 0.09143215 0.9915903 -0.09159089
vn 0.09143215 0.9915903 -0.09159089
vn 0.08827299 0.99216366 -0.08842633
vn 0.119771525 0.9890042 -0.08674956
vn 0.119771525 0.9890042 -0.08674956
vn 0.119771525 0.9890042 -0.08674956
vn 0.099909544 0.99119085 -0.086941384
vn 0.09042257 0.96582776 -0.24290034
vn 0.07109233 0.963342 -0.25868505
vn 0.07109233 0.963342 -0.25868505
vn 0.09042257 0.96582776 -0.24290034
vn 0.09042257 0.96582776 -0.24290034
vn 0.12009827 0.95509154 -0.27088124
vn 0.1045197 0.99283445 -0.057925466
vn 0.1045197 0.99283445 -0.057925466
vn 0.09320376 0.9945592 -0.046528704
vn 0.1045197 0.99283445 -0.057925466
vn 0.12020522 0.99258524 -0.018032553
vn 0.12020522 0.99258524 -0.018032553
vn 1 0 -3.1753717E-07
vn 1 0 -3.1753717E-07
vn 1 0 -3.1753717E-07
vn 1 0 -3.1753717E-07
vn 1 0 0
vn 1 0 0
vn 1 0 0
vn 1 0 0
vn 1 0 0
vn 1 0 0
vn 1 0 2.3826638E-07
vn 1 0 2.3826638E-07
vn -1.13765566E-07 0 -1
vn -1.13765566E-07 0 -1
vn -1.13765566E-07 0 -1
vn -1.13765566E-07 0 -1
vn 1.0419245E-06 3.445035E-06 1
vn -0 0 1
vn -0 0 1
vn 1.0419245E-06 3.445035E-06 1
vn 1.0419245E-06 3.445035E-06 1
vn 1.0419245E-06 3.445035E-06 1
vn -8.188065E-07 3.222542E-06 1
vn -8.188065E-07 3.222542E-06 1
vn 1.5059196E-07 -9.0123683E-07 -1
vn 1.5059196E-07 -9.0123683E-07 -1
vn 1.5059196E-07 -9.0123683E-07 -1
vn 1.5059196E-07 -9.0123683E-07 -1
vn 1.5894565E-07 0 1
vn 1.5894565E-07 0 1
vn 1.5894565E-07 0 1
vn 1.5894565E-07 0 1
vn -4.776597E-07 0 1
vn -4.776597E-07 0 1
vn -1 0 -1.8327916E-07
vn -1 0 -1.8327916E-07
vn -1 0 0
vn -1 0 0
vn -1 0 1.2415427E-07
vn -1 0 1.2415427E-07
vn -1 0 1.2415427E-07
vn -1 0 1.2415427E-07
vn -1 0 2.2268219E-07
vn -1 0 2.2268219E-07
vn -1 0 2.2268219E-07
vn -1 0 2.2268219E-07
vn -0 0 -1
vn -0 0 -1
vn -0 0 -1
vn -0 0 -1
vn -1.6617714E-07 0 -1
vn -1.6617714E-07 0 -1
vn -1.6617714E-07 0 -1
vn -0 0 -1
vn -0 0 -1
vn -0 0 -1
vn -0 0 -1
vn 1 0 1.1900486E-07
vn 1 0 1.1900486E-07
vn 1 0 1.1900486E-07
vn 1 0 1.1900486E-07
vn 1 0 0
vn 1 0 0
vn 1 0 1.5949446E-07
vn 1 0 1.5949446E-07
vn 1 0 0
vn 1 0 0
vn 1 0 0
vn 1 0 0
vn -0 0 -1
vn -0 0 -1
vn -0 3.1789122E-07 -1
vn -0 3.1789122E-07 -1
vn -0 3.1789122E-07 -1
vn -0 3.1789122E-07 -1
vn -0 0 -1
vn -0 0 -1
vn -0 3.173439E-07 -1
vn -0 3.173439E-07 -1
vn -0 3.173439E-07 -1
vn -0 3.173439E-07 -1
vn -1 0 3.371774E-07
vn -1 0 3.371774E-07
vn -1 0 3.371774E-07
vn -1 0 3.371774E-07
vn -1 0 -1.3411059E-07
vn -1 0 -1.3411059E-07
vn -1 0 0
vn -1 0 0
vn -1 0 0
vn -1 0 0
vn -1 0 0
vn -1 0 0
vn -0 0 1
vn -2.458091E-07 0 1
vn -2.458091E-07 0 1
vn -0 0 1
vn -0 0 1
vn -0 0 1
vn -0 -3.1789205E-07 1
vn -0 -3.1789205E-07 1
vn -0 -3.1789205E-07 1
vn -0 -3.1789205E-07 1
vn -0 0 1
vn -0 0 1
g terrain-world-valley2_0
f 3/3/3 2/2/2 1/1/1
f 6/6/6 5/5/5 4/4/4
f 9/9/9 8/8/8 7/7/7
f 12/12/12 11/11/11 10/10/10
f 15/15/15 14/14/14 13/13/13
f 18/18/18 17/17/17 16/16/16
f 21/21/21 20/20/20 19/19/19
f 24/24/24 23/23/23 22/22/22
f 27/27/27 26/26/26 25/25/25
f 30/30/30 29/29/29 28/28/28
f 33/33/33 32/32/32 31/31/31
f 36/36/36 35/35/35 34/34/34
f 35/35/35 38/38/38 37/37/37
f 40/40/40 37/37/37 39/39/39
f 40/40/40 39/39/39 41/41/41
f 42/42/42 40/40/40 41/41/41
f 42/42/42 44/44/44 43/43/43
f 47/47/47 46/46/46 45/45/45
f 50/50/50 49/49/49 48/48/48
f 53/53/53 52/52/52 51/51/51
f 56/56/56 55/55/55 54/54/54
f 59/59/59 58/58/58 57/57/57
f 62/62/62 61/61/61 60/60/60
f 65/65/65 64/64/64 63/63/63
f 68/68/68 67/67/67 66/66/66
f 66/66/66 67/67/67 69/69/69
f 67/67/67 70/70/70 69/69/69
f 73/73/73 72/72/72 71/71/71
f 74/74/74 73/73/73 71/71/71
f 77/77/77 76/76/76 75/75/75
f 75/75/75 76/76/76 78/78/78
f 81/81/81 80/80/80 79/79/79
f 79/79/79 80/80/80 82/82/82
f 85/85/85 84/84/84 83/83/83
f 85/85/85 86/86/86 84/84/84
f 89/89/89 88/88/88 87/87/87
f 87/87/87 88/88/88 90/90/90
f 90/90/90 91/91/91 87/87/87
f 94/94/94 93/93/93 92/92/92
f 95/95/95 94/94/94 92/92/92
f 98/98/98 97/97/97 96/96/96
f 98/98/98 99/99/99 97/97/97
f 102/102/102 101/101/101 100/100/100
f 100/100/100 101/101/101 103/103/103
f 100/100/100 103/103/103 104/104/104
f 105/105/105 100/100/100 104/104/104
f 108/108/108 107/107/107 106/106/106
f 107/107/107 109/109/109 106/106/106
f 106/106/106 109/109/109 110/110/110
f 110/110/110 111/111/111 106/106/106
f 114/114/114 113/113/113 112/112/112
f 115/115/115 114/114/114 112/112/112
f 116/116/116 114/114/114 115/115/115
f 117/117/117 116/116/116 115/115/115
f 118/118/118 116/116/116 117/117/117
f 119/119/119 118/118/118 117/117/117
f 120/120/120 118/118/118 119/119/119
f 121/121/121 120/120/120 119/119/119
f 122/122/122 120/120/120 121/121/121
f 123/123/123 122/122/122 121/121/121
f 126/126/126 125/125/125 124/124/124
f 127/127/127 126/126/126 124/124/124
f 130/130/130 129/129/129 128/128/128
f 129/129/129 131/131/131 128/128/128
f 128/128/128 131/131/131 132/132/132
f 131/131/131 133/133/133 132/132/132
f 132/132/132 133/133/133 134/134/134
f 133/133/133 135/135/135 134/134/134
f 138/138/138 137/137/137 136/136/136
f 139/139/139 138/138/138 136/136/136
f 142/142/142 141/141/141 140/140/140
f 143/143/143 142/142/142 140/140/140
f 144/144/144 142/142/142 143/143/143
f 145/145/145 144/144/144 143/143/143
f 148/148/148 147/147/147 146/146/146
f 149/149/149 148/148/148 146/146/146
f 150/150/150 148/148/148 149/149/149
f 151/151/151 150/150/150 149/149/149
f 152/152/152 150/150/150 151/151/151
f 153/153/153 152/152/152 151/151/151
f 154/154/154 152/152/152 153/153/153
f 155/155/155 154/154/154 153/153/153
f 156/156/156 154/154/154 155/155/155
f 157/157/157 156/156/156 155/155/155
f 160/160/160 159/159/159 158/158/158
f 159/159/159 161/161/161 158/158/158
f 161/161/161 163/163/163 162/162/162
f 164/164/164 161/161/161 162/162/162
f 167/167/167 166/166/166 165/165/165
f 168/168/168 167/167/167 165/165/165
f 171/171/171 170/170/170 169/169/169
f 170/170/170 172/172/172 169/169/169
f 169/169/169 172/172/172 173/173/173
f 172/172/172 174/174/174 173/173/173
f 173/173/173 174/174/174 175/175/175
f 174/174/174 176/176/176 175/175/175
f 175/175/175 176/176/176 177/177/177
f 176/176/176 178/178/178 177/177/177
f 177/177/177 178/178/178 179/179/179
f 178/178/178 180/180/180 179/179/179
f 183/183/183 182/182/182 181/181/181
f 184/184/184 183/183/183 181/181/181
f 185/185/185 183/183/183 184/184/184
f 186/186/186 185/185/185 184/184/184
f 187/187/187 185/185/185 186/186/186
f 188/188/188 187/187/187 186/186/186
f 189/189/189 187/187/187 188/188/188
f 190/190/190 189/189/189 188/188/188
f 191/191/191 189/189/189 190/190/190
f 192/192/192 191/191/191 190/190/190
f 195/195/195 194/194/194 193/193/193
f 194/194/194 196/196/196 193/193/193
f 193/193/193 196/196/196 197/197/197
f 196/196/196 198/198/198 197/197/197
f 197/197/197 198/198/198 199/199/199
f 198/198/198 200/200/200 199/199/199
f 199/199/199 200/200/200 201/201/201
f 200/200/200 202/202/202 201/201/201
f 201/201/201 202/202/202 203/203/203
f 202/202/202 204/204/204 203/203/203
f 207/207/207 206/206/206 205/205/205
f 206/206/206 208/208/208 205/205/205
f 205/205/205 208/208/208 209/209/209
f 208/208/208 210/210/210 209/209/209
f 209/209/209 210/210/210 211/211/211
f 210/210/210 212/212/212 211/211/211
f 211/211/211 212/212/212 213/213/213
f 212/212/212 214/214/214 213/213/213
f 213/213/213 214/214/214 215/215/215
f 214/214/214 216/216/216 215/215/215
