g torche
v -0.038573302 0.70512235 0.02192991
v -0.04135512 1.4100353 -0.024216771
v -0.041355107 1.4100353 0.023535842
v -0.03857331 0.70512235 -0.022610668
v -0.026392791 0.00020958188 0.014897561
v -0.026392788 0.0002095732 -0.015578151
v -1.882478E-08 0.70512235 -0.044880994
v 0.04135504 1.4100353 -0.024216898
v -1.9105597E-08 1.4100353 -0.048093207
v 0.038573246 0.70512235 -0.022610676
v -1.7595186E-08 0.00020956698 -0.030816065
v 0.026392726 0.00020956948 -0.015578189
v 0.038573254 0.70512235 0.021929905
v -1.0756246E-08 1.4100353 0.047412265
v 0.041355055 1.4100353 0.023535835
v -1.1037052E-08 0.70512235 0.044200223
v 0.026392732 0.00020957815 0.01489756
v -1.9717216E-08 0.00020958064 0.030135421
v -1.1037052E-08 0.70512235 0.044200223
v -0.041355107 1.4100353 0.023535842
v -1.0756246E-08 1.4100353 0.047412265
v -0.038573302 0.70512235 0.02192991
v -1.9717216E-08 0.00020958064 0.030135421
v -0.026392791 0.00020958188 0.014897561
v -0.03857331 0.70512235 -0.022610668
v -1.9105597E-08 1.4100353 -0.048093207
v -0.04135512 1.4100353 -0.024216771
v -1.882478E-08 0.70512235 -0.044880994
v -0.026392788 0.0002095732 -0.015578151
v -1.7595186E-08 0.00020956698 -0.030816065
v 0.038573246 0.70512235 -0.022610676
v 0.041355055 1.4100353 0.023535835
v 0.04135504 1.4100353 -0.024216898
v 0.038573254 0.70512235 0.021929905
v 0.026392726 0.00020956948 -0.015578189
v 0.026392732 0.00020957815 0.01489756
v 0.026392726 0.00020956948 -0.015578189
v -1.7595186E-08 0.00020956698 -0.030816065
v -0.026392788 0.0002095732 -0.015578151
v -0.026392791 0.00020958188 0.014897561
v 0.026392732 0.00020957815 0.01489756
v -1.9717216E-08 0.00020958064 0.030135421
v -1.0756246E-08 1.4100353 0.047412265
v -8.636741E-09 1.4435176 0.07165656
v 0.062351234 1.4435176 0.0356581
v 0.041355055 1.4100353 0.023535835
v -0.041355107 1.4100353 0.023535842
v -0.062351294 1.4435176 0.03565799
v -8.636741E-09 1.4435176 0.07165656
v -1.0756246E-08 1.4100353 0.047412265
v -1.9105597E-08 1.4100353 -0.048093207
v -1.3774522E-08 1.4435176 -0.072337516
v -0.0623513 1.4435176 -0.03633893
v -0.04135512 1.4100353 -0.024216771
v 0.041355055 1.4100353 0.023535835
v 0.062351234 1.4435176 0.0356581
v 0.062351216 1.4435176 -0.03633906
v 0.04135504 1.4100353 -0.024216898
v -0.04135512 1.4100353 -0.024216771
v -0.0623513 1.4435176 -0.03633893
v -0.062351294 1.4435176 0.03565799
v -0.041355107 1.4100353 0.023535842
v 0.04135504 1.4100353 -0.024216898
v 0.062351216 1.4435176 -0.03633906
v -1.3774522E-08 1.4435176 -0.072337516
v -1.9105597E-08 1.4100353 -0.048093207
v -0.062351294 1.4435176 0.03565799
v -0.062351294 1.7592356 0.03565806
v -8.636745E-09 1.7592356 0.07165652
v -8.636741E-09 1.4435176 0.07165656
v -1.3774522E-08 1.4435176 -0.072337516
v -1.3774526E-08 1.7592356 -0.07233756
v -0.0623513 1.7592356 -0.036338978
v -0.0623513 1.4435176 -0.03633893
v 0.062351234 1.4435176 0.0356581
v 0.062351234 1.7592356 0.03565805
v 0.062351216 1.7592356 -0.03633899
v 0.062351216 1.4435176 -0.03633906
v -0.0623513 1.4435176 -0.03633893
v -0.0623513 1.7592356 -0.036338978
v -0.062351294 1.7592356 0.03565806
v -0.062351294 1.4435176 0.03565799
v 0.062351216 1.4435176 -0.03633906
v 0.062351216 1.7592356 -0.03633899
v -1.3774526E-08 1.7592356 -0.07233756
v -1.3774522E-08 1.4435176 -0.072337516
v -8.636741E-09 1.4435176 0.07165656
v -8.636745E-09 1.7592356 0.07165652
v 0.062351234 1.7592356 0.03565805
v 0.062351234 1.4435176 0.0356581
v -0.0623513 1.7592356 -0.036338978
v -2.2381506E-08 1.7592356 -0.0003405275
v -0.062351294 1.7592356 0.03565806
v -1.3774526E-08 1.7592356 -0.07233756
v -8.636745E-09 1.7592356 0.07165652
v 0.062351216 1.7592356 -0.03633899
v 0.062351234 1.7592356 0.03565805
v -0.04294559 1.7601978 -0.0003405239
v -0.0228146 1.9183198 -0.00034055143
v -0.10186715 1.9649258 -0.0003405521
v 7.420814E-09 1.7601978 -0.00034052765
v 7.4208115E-09 1.9649258 -0.000340561
v 0.042945612 1.7601978 -0.00034053138
v -0.0228146 2.0326097 -0.00034057006
v -0.065268405 2.05993 -0.00034057075
v 7.4208097E-09 2.182874 -0.00034059654
v 0.022814615 1.9183198 -0.00034055542
v 0.10186716 1.9649258 -0.0003405699
v 0.022814615 2.0326097 -0.00034057404
v 0.06526843 2.05993 -0.0003405822
v 3.72466E-09 1.7601978 0.042605095
v 8.875745E-09 1.9649258 0.10152663
v 9.415331E-09 1.9183198 0.022474078
v -2.9765745E-11 1.7601978 -0.00034052765
v 7.4208115E-09 1.9649258 -0.000340561
v -3.784191E-09 1.7601978 -0.043286145
v 9.4153405E-09 2.0326097 0.022474179
v 5.6761853E-09 2.05993 0.064927936
v 7.4208097E-09 2.182874 -0.00034059654
v 1.2876885E-08 1.9183198 -0.023155062
v 5.96589E-09 1.9649258 -0.10220763
v 1.2876884E-08 2.0326097 -0.02315508
v 9.165436E-09 2.05993 -0.06560908
v -0.04294559 1.7601978 -0.0003405239
v -0.10186715 1.9649258 -0.0003405521
v -0.0228146 1.9183198 -0.00034055143
v 7.420814E-09 1.7601978 -0.00034052765
v 7.4208115E-09 1.9649258 -0.000340561
v 0.042945612 1.7601978 -0.00034053138
v -0.0228146 2.0326097 -0.00034057006
v -0.065268405 2.05993 -0.00034057075
v 7.4208097E-09 2.182874 -0.00034059654
v 0.022814615 1.9183198 -0.00034055542
v 0.10186716 1.9649258 -0.0003405699
v 0.022814615 2.0326097 -0.00034057404
v 0.06526843 2.05993 -0.0003405822
v 3.72466E-09 1.7601978 0.042605095
v 9.415331E-09 1.9183198 0.022474078
v 8.875745E-09 1.9649258 0.10152663
v -2.9765745E-11 1.7601978 -0.00034052765
v 7.4208115E-09 1.9649258 -0.000340561
v -3.784191E-09 1.7601978 -0.043286145
v 9.4153405E-09 2.0326097 0.022474179
v 5.6761853E-09 2.05993 0.064927936
v 7.4208097E-09 2.182874 -0.00034059654
v 1.2876885E-08 1.9183198 -0.023155062
v 5.96589E-09 1.9649258 -0.10220763
v 1.2876884E-08 2.0326097 -0.02315508
v 9.165436E-09 2.05993 -0.06560908
vt 0.51856667 0.13554382
vt 0.9984329 0.16469811
vt 0.99827915 0.13206765
vt 0.5183843 0.16583131
vt 0.03873405 0.13198394
vt 0.038372394 0.15279306
vt 0.5155701 0.014449671
vt 0.9968543 0.034189716
vt 0.99605817 0.0015664336
vt 0.51687664 0.044761416
vt 0.0360786 0.048828315
vt 0.03735777 0.069568045
vt 0.51781225 0.075031765
vt 0.9979654 0.099440634
vt 0.99749047 0.06681455
vt 0.5183762 0.10528531
vt 0.03822736 0.09036722
vt 0.038684875 0.11117355
vt 0.5183762 0.10528531
vt 0.99827915 0.13206765
vt 0.9979654 0.099440634
vt 0.51856667 0.13554382
vt 0.038684875 0.11117355
vt 0.03873405 0.13198394
vt 0.5183843 0.16583131
vt 0.99843353 0.19725572
vt 0.9984329 0.16469811
vt 0.5178253 0.19617169
vt 0.038372394 0.15279306
vt 0.037601776 0.17359723
vt 0.51687664 0.044761416
vt 0.99749047 0.06681455
vt 0.9968543 0.034189716
vt 0.51781225 0.075031765
vt 0.03735777 0.069568045
vt 0.03822736 0.09036722
vt 0.019197864 0.18333203
vt 0.037601776 0.17359723
vt 0.038372394 0.15279306
vt 0.020741586 0.14172246
vt 0.0015664336 0.17226048
vt 0.0023376725 0.15145631
vt 0.21770474 0.23102555
vt 0.2145644 0.26112223
vt 0.2587743 0.2634434
vt 0.2587323 0.23052259
vt 0.17917705 0.22718304
vt 0.17281073 0.25491995
vt 0.2145644 0.26112223
vt 0.21770474 0.23102555
vt 0.113305196 0.20038858
vt 0.09077743 0.22089891
vt 0.1326092 0.24322562
vt 0.14358644 0.21832033
vt 0.2587323 0.23052259
vt 0.2587743 0.2634434
vt 0.30390516 0.2605505
vt 0.29912212 0.23166077
vt 0.14358644 0.21832033
vt 0.1326092 0.24322562
vt 0.17281073 0.25491995
vt 0.17917705 0.22718304
vt 0.29912212 0.23166077
vt 0.30390516 0.2605505
vt 0.3542125 0.24830808
vt 0.33543321 0.21890919
vt 0.17281073 0.25491995
vt 0.14383169 0.4563702
vt 0.19693296 0.4630219
vt 0.2145644 0.26112223
vt 0.09077743 0.22089891
vt 0.03826751 0.4350326
vt 0.09101272 0.44695786
vt 0.1326092 0.24322562
vt 0.2587743 0.2634434
vt 0.2503937 0.4668675
vt 0.3040673 0.4682027
vt 0.30390516 0.2605505
vt 0.1326092 0.24322562
vt 0.09101272 0.44695786
vt 0.14383169 0.4563702
vt 0.17281073 0.25491995
vt 0.30390516 0.2605505
vt 0.3040673 0.4682027
vt 0.35421216 0.46820208
vt 0.3542125 0.24830808
vt 0.2145644 0.26112223
vt 0.19693296 0.4630219
vt 0.2503937 0.4668675
vt 0.2587743 0.2634434
vt 0.09101272 0.44695786
vt 0.054312266 0.48667324
vt 0.107056856 0.4985991
vt 0.03826751 0.4350326
vt 0.07035734 0.5383145
vt 0.0015664336 0.47474858
vt 0.017612435 0.52638924
vt 0.70749176 0.7730886
vt 0.69087964 0.66578615
vt 0.63034976 0.65017027
vt 0.7356042 0.7649977
vt 0.6970331 0.63097763
vt 0.7637182 0.7569075
vt 0.6693462 0.59097034
vt 0.63640845 0.58108366
vt 0.65597206 0.4883053
vt 0.7207496 0.65718985
vt 0.7637182 0.6117863
vt 0.6992173 0.58237344
vt 0.7218607 0.55649054
vt 0.4344887 0.20038858
vt 0.35734537 0.32330748
vt 0.41787565 0.3076916
vt 0.4626019 0.2084813
vt 0.42402968 0.3425007
vt 0.4907146 0.21657088
vt 0.39634258 0.38250804
vt 0.36340478 0.3923941
vt 0.38296726 0.4851737
vt 0.44774544 0.31628853
vt 0.49071476 0.36169204
vt 0.42621252 0.39110497
vt 0.44885686 0.41698846
vt 0.570991 0.20038858
vt 0.49384764 0.32330748
vt 0.5543778 0.3076916
vt 0.5991033 0.20848005
vt 0.5605307 0.3425007
vt 0.6272169 0.21657088
vt 0.53284484 0.38250804
vt 0.49990693 0.39239472
vt 0.5194686 0.48517245
vt 0.5842477 0.31628853
vt 0.6272169 0.36169264
vt 0.56271464 0.39110497
vt 0.58535916 0.41698846
vt 0.76371807 0.21657026
vt 0.72074956 0.3162879
vt 0.76371825 0.3616908
vt 0.7356057 0.20847943
vt 0.69703424 0.34250006
vt 0.70749205 0.20038858
vt 0.6992174 0.39110434
vt 0.7218608 0.4169872
vt 0.65597326 0.48517245
vt 0.69087976 0.30769098
vt 0.63034976 0.32330748
vt 0.66934747 0.3825074
vt 0.6364097 0.3923941
vn -0.99999225 -0.003946285 1.7178012E-07
vn -0.99999225 -0.003946285 1.7178012E-07
vn -0.99999225 -0.003946285 1.7178012E-07
vn -0.99999225 -0.003946285 1.7178012E-07
vn -0.99985075 -0.017276885 0
vn -0.99985075 -0.017276885 0
vn 0.49999607 -0.0039464044 -0.8660187
vn 0.49999607 -0.0039464044 -0.8660187
vn 0.49999607 -0.0039464044 -0.8660187
vn 0.49999607 -0.0039464044 -0.8660187
vn 0.49992585 -0.017276973 -0.8658958
vn 0.49992585 -0.017276973 -0.8658958
vn 0.49999696 -0.00394612 0.8660182
vn 0.49999696 -0.00394612 0.8660182
vn 0.49999696 -0.00394612 0.8660182
vn 0.49999696 -0.00394612 0.8660182
vn 0.49992573 -0.017276812 0.865896
vn 0.49992573 -0.017276812 0.865896
vn -0.49999657 -0.0039461227 0.8660185
vn -0.49999657 -0.0039461227 0.8660185
vn -0.49999657 -0.0039461227 0.8660185
vn -0.49999657 -0.0039461227 0.8660185
vn -0.49992546 -0.017276809 0.86589617
vn -0.49992546 -0.017276809 0.86589617
vn -0.4999968 -0.003946336 -0.8660183
vn -0.4999968 -0.003946336 -0.8660183
vn -0.4999968 -0.003946336 -0.8660183
vn -0.4999968 -0.003946336 -0.8660183
vn -0.4999261 -0.017276997 -0.8658958
vn -0.4999261 -0.017276997 -0.8658958
vn 0.99999225 -0.0039462727 -1.7177994E-07
vn 0.99999225 -0.0039462727 -1.7177994E-07
vn 0.99999225 -0.0039462727 -1.7177994E-07
vn 0.99999225 -0.0039462727 -1.7177994E-07
vn 0.99985075 -0.017276889 -1.4087504E-07
vn 0.99985075 -0.017276889 -1.4087504E-07
vn -0 -1 2.8522177E-07
vn -0 -1 2.8522177E-07
vn -0 -1 2.8522177E-07
vn -0 -1 2.8522177E-07
vn -0 -1 2.0341149E-07
vn -0 -1 2.0341149E-07
vn 0.42360204 -0.53126806 0.7336999
vn 0.42360204 -0.53126806 0.7336999
vn 0.42360204 -0.53126806 0.7336999
vn 0.42360204 -0.53126806 0.7336999
vn -0.42360207 -0.5312672 0.73370045
vn -0.42360207 -0.5312672 0.73370045
vn -0.42360207 -0.5312672 0.73370045
vn -0.42360207 -0.5312672 0.73370045
vn -0.42360204 -0.5312675 -0.73370034
vn -0.42360204 -0.5312675 -0.73370034
vn -0.42360204 -0.5312675 -0.73370034
vn -0.42360204 -0.5312675 -0.73370034
vn 0.847205 -0.53126603 -1.4759037E-07
vn 0.847205 -0.53126603 -1.4759037E-07
vn 0.847205 -0.53126603 -1.4759037E-07
vn 0.847205 -0.53126603 -1.4759037E-07
vn -0.84720486 -0.53126645 0
vn -0.84720486 -0.53126645 0
vn -0.84720486 -0.53126645 0
vn -0.84720486 -0.53126645 0
vn 0.42359978 -0.53126776 -0.73370135
vn 0.42359978 -0.53126776 -0.73370135
vn 0.42359978 -0.53126776 -0.73370135
vn 0.42359978 -0.53126776 -0.73370135
vn -0.49999973 0 0.8660255
vn -0.49999973 0 0.8660255
vn -0.49999973 0 0.8660255
vn -0.49999973 0 0.8660255
vn -0.50000066 -1.2291554E-07 -0.8660251
vn -0.50000066 -1.2291554E-07 -0.8660251
vn -0.50000066 -1.2291554E-07 -0.8660251
vn -0.50000066 -1.2291554E-07 -0.8660251
vn 1 0 -1.6388739E-07
vn 1 0 -1.6388739E-07
vn 1 0 -1.6388739E-07
vn 1 0 -1.6388739E-07
vn -1 0 1.6388762E-07
vn -1 0 1.6388762E-07
vn -1 0 1.6388762E-07
vn -1 0 1.6388762E-07
vn 0.50000024 0 -0.86602527
vn 0.50000024 0 -0.86602527
vn 0.50000024 0 -0.86602527
vn 0.50000024 0 -0.86602527
vn 0.4999997 1.2291574E-07 0.8660256
vn 0.4999997 1.2291574E-07 0.8660256
vn 0.4999997 1.2291574E-07 0.8660256
vn 0.4999997 1.2291574E-07 0.8660256
vn -0 1 0
vn -0 1 0
vn -0 1 0
vn -0 1 0
vn -0 1 0
vn -0 1 0
vn -0 1 0
vn -0 -1.6324393E-07 -1
vn -0 -1.6318373E-07 -1
vn -0 -1.6324393E-07 -1
vn -0 -1.6267279E-07 -1
vn -0 -1.6318373E-07 -1
vn -0 -1.6267279E-07 -1
vn -0 -1.6318373E-07 -1
vn -0 -1.6307789E-07 -1
vn -0 -1.6318373E-07 -1
vn -0 -1.6318373E-07 -1
vn -0 -1.627025E-07 -1
vn -0 -1.6318373E-07 -1
vn -0 -1.6270293E-07 -1
vn 1 0 0
vn 1 0 0
vn 1 0 0
vn 1 0 0
vn 1 0 2.391492E-07
vn 1 0 0
vn 1 0 0
vn 1 0 0
vn 1 0 2.391492E-07
vn 1 0 2.391492E-07
vn 1 0 -1.3910295E-07
vn 1 0 2.391492E-07
vn 1 0 0
vn -0 1.6324393E-07 1
vn -0 1.6324393E-07 1
vn -0 1.6318373E-07 1
vn -0 1.6267279E-07 1
vn -0 1.6318373E-07 1
vn -0 1.6267279E-07 1
vn -0 1.6318373E-07 1
vn -0 1.6307789E-07 1
vn -0 1.6318373E-07 1
vn -0 1.6318373E-07 1
vn -0 1.627025E-07 1
vn -0 1.6318373E-07 1
vn -0 1.6270293E-07 1
vn -1 0 0
vn -1 0 0
vn -1 0 0
vn -1 0 0
vn -1 0 -2.3914913E-07
vn -1 0 0
vn -1 0 0
vn -1 0 0
vn -1 0 -2.3914913E-07
vn -1 0 -2.3914913E-07
vn -1 0 1.3910295E-07
vn -1 0 -2.3914913E-07
vn -1 0 0
g torche_0
f 3/3/3 2/2/2 1/1/1
f 2/2/2 4/4/4 1/1/1
f 1/1/1 4/4/4 5/5/5
f 4/4/4 6/6/6 5/5/5
f 9/9/9 8/8/8 7/7/7
f 8/8/8 10/10/10 7/7/7
f 7/7/7 10/10/10 11/11/11
f 10/10/10 12/12/12 11/11/11
f 15/15/15 14/14/14 13/13/13
f 14/14/14 16/16/16 13/13/13
f 13/13/13 16/16/16 17/17/17
f 16/16/16 18/18/18 17/17/17
f 21/21/21 20/20/20 19/19/19
f 20/20/20 22/22/22 19/19/19
f 19/19/19 22/22/22 23/23/23
f 22/22/22 24/24/24 23/23/23
f 27/27/27 26/26/26 25/25/25
f 26/26/26 28/28/28 25/25/25
f 25/25/25 28/28/28 29/29/29
f 28/28/28 30/30/30 29/29/29
f 33/33/33 32/32/32 31/31/31
f 32/32/32 34/34/34 31/31/31
f 31/31/31 34/34/34 35/35/35
f 34/34/34 36/36/36 35/35/35
f 39/39/39 38/38/38 37/37/37
f 40/40/40 39/39/39 37/37/37
f 40/40/40 37/37/37 41/41/41
f 42/42/42 40/40/40 41/41/41
g torche_1
f 45/45/45 44/44/44 43/43/43
f 46/46/46 45/45/45 43/43/43
f 49/49/49 48/48/48 47/47/47
f 50/50/50 49/49/49 47/47/47
f 53/53/53 52/52/52 51/51/51
f 54/54/54 53/53/53 51/51/51
f 57/57/57 56/56/56 55/55/55
f 58/58/58 57/57/57 55/55/55
f 61/61/61 60/60/60 59/59/59
f 62/62/62 61/61/61 59/59/59
f 65/65/65 64/64/64 63/63/63
f 66/66/66 65/65/65 63/63/63
f 69/69/69 68/68/68 67/67/67
f 70/70/70 69/69/69 67/67/67
f 73/73/73 72/72/72 71/71/71
f 74/74/74 73/73/73 71/71/71
f 77/77/77 76/76/76 75/75/75
f 78/78/78 77/77/77 75/75/75
f 81/81/81 80/80/80 79/79/79
f 82/82/82 81/81/81 79/79/79
f 85/85/85 84/84/84 83/83/83
f 86/86/86 85/85/85 83/83/83
f 89/89/89 88/88/88 87/87/87
f 90/90/90 89/89/89 87/87/87
f 93/93/93 92/92/92 91/91/91
f 91/91/91 92/92/92 94/94/94
f 95/95/95 92/92/92 93/93/93
f 94/94/94 92/92/92 96/96/96
f 97/97/97 92/92/92 95/95/95
f 96/96/96 92/92/92 97/97/97
g torche_2
f 100/100/100 99/99/99 98/98/98
f 98/98/98 99/99/99 101/101/101
f 99/99/99 102/102/102 101/101/101
f 101/101/101 102/102/102 103/103/103
f 99/99/99 104/104/104 102/102/102
f 105/105/105 104/104/104 99/99/99
f 104/104/104 106/106/106 102/102/102
f 102/102/102 107/107/107 103/103/103
f 102/102/102 106/106/106 107/107/107
f 107/107/107 108/108/108 103/103/103
f 106/106/106 109/109/109 107/107/107
f 109/109/109 110/110/110 107/107/107
f 113/113/113 112/112/112 111/111/111
f 113/113/113 111/111/111 114/114/114
f 115/115/115 113/113/113 114/114/114
f 115/115/115 114/114/114 116/116/116
f 117/117/117 113/113/113 115/115/115
f 117/117/117 118/118/118 113/113/113
f 119/119/119 117/117/117 115/115/115
f 120/120/120 115/115/115 116/116/116
f 119/119/119 115/115/115 120/120/120
f 121/121/121 120/120/120 116/116/116
f 122/122/122 119/119/119 120/120/120
f 123/123/123 122/122/122 120/120/120
f 126/126/126 125/125/125 124/124/124
f 126/126/126 124/124/124 127/127/127
f 128/128/128 126/126/126 127/127/127
f 128/128/128 127/127/127 129/129/129
f 130/130/130 126/126/126 128/128/128
f 130/130/130 131/131/131 126/126/126
f 132/132/132 130/130/130 128/128/128
f 133/133/133 128/128/128 129/129/129
f 132/132/132 128/128/128 133/133/133
f 134/134/134 133/133/133 129/129/129
f 135/135/135 132/132/132 133/133/133
f 136/136/136 135/135/135 133/133/133
f 139/139/139 138/138/138 137/137/137
f 137/137/137 138/138/138 140/140/140
f 138/138/138 141/141/141 140/140/140
f 140/140/140 141/141/141 142/142/142
f 138/138/138 143/143/143 141/141/141
f 144/144/144 143/143/143 138/138/138
f 143/143/143 145/145/145 141/141/141
f 141/141/141 146/146/146 142/142/142
f 141/141/141 145/145/145 146/146/146
f 146/146/146 147/147/147 142/142/142
f 145/145/145 148/148/148 146/146/146
f 148/148/148 149/149/149 146/146/146
