g tractor-wheel_FL
v 0.0063420534 -0.04661947 -0.122498214
v 0.006342113 -0.13186574 -0.05451661
v 0.006342113 -0.13186574 0.05451727
v 0.006342113 -0.04661947 0.12249887
v 0.0063420534 0.05968082 -0.0982359
v 0.006342113 0.05968091 0.09823656
v 0.006342113 0.10698888 3.5762787E-07
v 0.006342113 0.05968091 0.09823656
v 0.094580464 0.13220686 0.18918109
v 0.094580464 0.22331142 2.9802322E-07
v 0.006342113 0.10698888 3.5762787E-07
v 0.006342113 -0.04661947 0.12249887
v 0.094580464 -0.072503686 0.23590492
v 0.094580464 0.13220686 0.18918109
v 0.006342113 0.05968091 0.09823656
v 0.006342113 -0.13186574 0.05451727
v 0.094580464 -0.23666875 0.10498773
v 0.094580464 -0.072503686 0.23590492
v 0.006342113 -0.04661947 0.12249887
v 0.006342113 -0.13186574 -0.05451661
v 0.09458041 -0.23666874 -0.104987144
v 0.094580464 -0.23666875 0.10498773
v 0.006342113 -0.13186574 0.05451727
v 0.0063420534 -0.04661947 -0.122498214
v 0.09458041 -0.072503716 -0.23590438
v 0.09458041 -0.23666874 -0.104987144
v 0.006342113 -0.13186574 -0.05451661
v 0.0063420534 0.05968082 -0.0982359
v 0.09458041 0.13220674 -0.1891806
v 0.09458041 -0.072503716 -0.23590438
v 0.0063420534 -0.04661947 -0.122498214
v 0.006342113 0.10698888 3.5762787E-07
v 0.094580464 0.22331142 2.9802322E-07
v 0.09458041 0.13220674 -0.1891806
v 0.0063420534 0.05968082 -0.0982359
v -0.09459159 -0.07271823 0.23684502
v -0.09459162 -0.23753752 0.105406165
v -0.09459165 -0.23753747 -0.10540551
v -0.09459167 -0.07271826 -0.23684442
v -0.09459167 0.13280791 -0.18993449
v -0.09459162 0.13280803 0.18993509
v -0.09459165 0.2242757 3.5762787E-07
v 0.094580464 0.13220686 0.18918109
v 0.09458053 0.21630256 0.29463398
v 0.094580464 0.35819066 2.9802322E-07
v 0.094580464 0.22331142 2.9802322E-07
v 0.094580464 -0.072503686 0.23590492
v 0.09458053 -0.10251713 0.3674024
v 0.09458053 0.21630256 0.29463398
v 0.094580464 0.13220686 0.18918109
v 0.094580464 -0.23666875 0.10498773
v 0.094580464 -0.3581907 0.16350959
v 0.09458053 -0.10251713 0.3674024
v 0.094580464 -0.072503686 0.23590492
v 0.09458041 -0.23666874 -0.104987144
v 0.09458041 -0.35819066 -0.16350906
v 0.094580464 -0.3581907 0.16350959
v 0.094580464 -0.23666875 0.10498773
v 0.09458041 -0.072503716 -0.23590438
v 0.09458041 -0.35819066 -0.16350906
v 0.09458041 -0.23666874 -0.104987144
v 0.09458041 -0.10251716 -0.36740187
v 0.09458041 0.13220674 -0.1891806
v 0.09458041 0.2163025 -0.2946334
v 0.094580464 0.22331142 2.9802322E-07
v 0.094580464 0.35819066 2.9802322E-07
v 0.09458041 0.2163025 -0.2946334
v 0.09458041 0.13220674 -0.1891806
v -5.6624413E-06 0.22887367 -0.3117569
v -0.09459167 0.2163025 -0.29463333
v -0.0945917 -0.10251716 -0.36740184
v -5.6624413E-06 -0.10847526 -0.3887546
v -5.6624413E-06 -0.37900802 -0.17301184
v -0.09459165 -0.35819066 -0.163509
v -0.09459162 -0.3581907 0.16350959
v -5.6028366E-06 -0.37900808 0.1730125
v -5.543232E-06 -0.10847524 0.38875505
v -0.09459159 -0.10251713 0.3674024
v -0.09459159 0.21630256 0.29463398
v -5.543232E-06 0.22887373 0.31175756
v -5.6028366E-06 0.37900805 3.5762787E-07
v -0.09459165 0.35819066 3.5762787E-07
v -0.09459167 0.2163025 -0.29463333
v -5.6624413E-06 0.22887367 -0.3117569
v -5.6624413E-06 -0.10847526 -0.3887546
v -0.0945917 -0.10251716 -0.36740184
v -0.09459165 -0.35819066 -0.163509
v -5.6624413E-06 -0.37900802 -0.17301184
v -5.6028366E-06 -0.37900808 0.1730125
v -0.09459162 -0.3581907 0.16350959
v -0.09459159 -0.10251713 0.3674024
v -5.543232E-06 -0.10847524 0.38875505
v -0.09459165 0.2242757 3.5762787E-07
v -0.09459165 0.35819066 3.5762787E-07
v -0.09459159 0.21630256 0.29463398
v -0.09459162 0.13280803 0.18993509
v -0.09459162 0.13280803 0.18993509
v -0.09459159 0.21630256 0.29463398
v -0.09459159 -0.10251713 0.3674024
v -0.09459159 -0.07271823 0.23684502
v -0.09459159 -0.07271823 0.23684502
v -0.09459159 -0.10251713 0.3674024
v -0.09459162 -0.3581907 0.16350959
v -0.09459162 -0.23753752 0.105406165
v -0.09459162 -0.23753752 0.105406165
v -0.09459162 -0.3581907 0.16350959
v -0.09459165 -0.35819066 -0.163509
v -0.09459165 -0.23753747 -0.10540551
v -0.09459165 -0.23753747 -0.10540551
v -0.09459165 -0.35819066 -0.163509
v -0.0945917 -0.10251716 -0.36740184
v -0.09459167 -0.07271826 -0.23684442
v -0.09459167 -0.07271826 -0.23684442
v -0.0945917 -0.10251716 -0.36740184
v -0.09459167 0.2163025 -0.29463333
v -0.09459167 0.13280791 -0.18993449
v -0.09459167 0.13280791 -0.18993449
v -0.09459167 0.2163025 -0.29463333
v -0.09459165 0.35819066 3.5762787E-07
v -0.09459165 0.2242757 3.5762787E-07
v -5.543232E-06 0.22887373 0.31175756
v -0.09459159 0.21630256 0.29463398
v -0.09459165 0.35819066 3.5762787E-07
v -5.6028366E-06 0.37900805 3.5762787E-07
v 0.09458053 0.21630256 0.29463398
v -5.543232E-06 0.22887373 0.31175756
v -5.6028366E-06 0.37900805 3.5762787E-07
v 0.094580464 0.35819066 2.9802322E-07
v 0.094580464 -0.3581907 0.16350959
v -5.6028366E-06 -0.37900808 0.1730125
v -5.543232E-06 -0.10847524 0.38875505
v 0.09458053 -0.10251713 0.3674024
v 0.09458041 -0.10251716 -0.36740187
v -5.6624413E-06 -0.10847526 -0.3887546
v -5.6624413E-06 -0.37900802 -0.17301184
v 0.09458041 -0.35819066 -0.16350906
v 0.094580464 0.35819066 2.9802322E-07
v -5.6028366E-06 0.37900805 3.5762787E-07
v -5.6624413E-06 0.22887367 -0.3117569
v 0.09458041 0.2163025 -0.2946334
v 0.09458053 -0.10251713 0.3674024
v -5.543232E-06 -0.10847524 0.38875505
v -5.543232E-06 0.22887373 0.31175756
v 0.09458053 0.21630256 0.29463398
v 0.09458041 -0.35819066 -0.16350906
v -5.6624413E-06 -0.37900802 -0.17301184
v -5.6028366E-06 -0.37900808 0.1730125
v 0.094580464 -0.3581907 0.16350959
v 0.09458041 0.2163025 -0.2946334
v -5.6624413E-06 0.22887367 -0.3117569
v -5.6624413E-06 -0.10847526 -0.3887546
v 0.09458041 -0.10251716 -0.36740187
vt 0.97422177 0.34620905
vt 0.9712501 0.33151025
vt 0.9580081 0.32436633
vt 0.9443384 0.33024248
vt 0.964508 0.3574839
vt 0.9405843 0.34471908
vt 0.9495319 0.35685447
vt 0.9405843 0.34471908
vt 0.9193281 0.35026994
vt 0.94053805 0.37689403
vt 0.9495319 0.35685447
vt 0.9443384 0.33024248
vt 0.9268098 0.31722254
vt 0.9193281 0.35026994
vt 0.9405843 0.34471908
vt 0.9580081 0.32436633
vt 0.9574219 0.30248952
vt 0.9268098 0.31722254
vt 0.9443384 0.33024248
vt 0.9712501 0.33151025
vt 0.9880367 0.31733885
vt 0.9574219 0.30248952
vt 0.9580081 0.32436633
vt 0.97422177 0.34620905
vt 0.99566 0.35028845
vt 0.9880367 0.31733885
vt 0.9712501 0.33151025
vt 0.964508 0.3574839
vt 0.97457993 0.37689403
vt 0.99566 0.35028845
vt 0.97422177 0.34620905
vt 0.9495319 0.35685447
vt 0.94053805 0.37689403
vt 0.97457993 0.37689403
vt 0.964508 0.3574839
vt 0.49259007 0.8830434
vt 0.5203526 0.8964132
vt 0.5481151 0.8830434
vt 0.5549719 0.85300195
vt 0.53575957 0.8289105
vt 0.48573327 0.8530019
vt 0.5049455 0.8289105
vt 0.7039736 0.7599138
vt 0.7025916 0.779886
vt 0.7402034 0.7790464
vt 0.7416014 0.75882155
vt 0.666952 0.7607822
vt 0.6652153 0.7801837
vt 0.7025916 0.779886
vt 0.7039736 0.7599138
vt 0.630533 0.7602343
vt 0.6268444 0.7788031
vt 0.6652153 0.7801837
vt 0.666952 0.7607822
vt 0.59352124 0.75045204
vt 0.5775443 0.769146
vt 0.6268444 0.7788031
vt 0.630533 0.7602343
vt 0.81790024 0.75661975
vt 0.8712123 0.77542436
vt 0.8580225 0.750453
vt 0.81771463 0.7784786
vt 0.779553 0.7580894
vt 0.778213 0.7786988
vt 0.7416014 0.75882155
vt 0.7402034 0.7790464
vt 0.778213 0.7786988
vt 0.779553 0.7580894
vt 0.77867275 0.7905187
vt 0.77831227 0.80225754
vt 0.81692994 0.80340797
vt 0.8181943 0.79104894
vt 0.5725169 0.7872822
vt 0.5729756 0.805845
vt 0.62624913 0.8035861
vt 0.6259746 0.7911575
vt 0.6648039 0.7917916
vt 0.66525555 0.80347985
vt 0.70293427 0.8030804
vt 0.7024354 0.7914762
vt 0.74040896 0.7909012
vt 0.74058175 0.80274135
vt 0.77831227 0.80225754
vt 0.77867275 0.7905187
vt 0.8181943 0.79104894
vt 0.81692994 0.80340797
vt 0.86794174 0.81184685
vt 0.8720966 0.794011
vt 0.6259746 0.7911575
vt 0.62624913 0.8035861
vt 0.66525555 0.80347985
vt 0.6648039 0.7917916
vt 0.73912114 0.8225593
vt 0.74058175 0.80274135
vt 0.70293427 0.8030804
vt 0.7014559 0.82305616
vt 0.7014559 0.82305616
vt 0.70293427 0.8030804
vt 0.66525555 0.80347985
vt 0.6638961 0.8236951
vt 0.6638961 0.8236951
vt 0.66525555 0.80347985
vt 0.62624913 0.8035861
vt 0.6258537 0.82506496
vt 0.6258537 0.82506496
vt 0.62624913 0.8035861
vt 0.5729756 0.805845
vt 0.5857038 0.8306776
vt 0.85204756 0.83134776
vt 0.86794174 0.81184685
vt 0.81692994 0.80340797
vt 0.8135328 0.8221243
vt 0.8135328 0.8221243
vt 0.81692994 0.80340797
vt 0.77831227 0.80225754
vt 0.77661854 0.8217474
vt 0.77661854 0.8217474
vt 0.77831227 0.80225754
vt 0.74058175 0.80274135
vt 0.73912114 0.8225593
vt 0.7024354 0.7914762
vt 0.70293427 0.8030804
vt 0.74058175 0.80274135
vt 0.74040896 0.7909012
vt 0.7025916 0.779886
vt 0.7024354 0.7914762
vt 0.74040896 0.7909012
vt 0.7402034 0.7790464
vt 0.6268444 0.7788031
vt 0.6259746 0.7911575
vt 0.6648039 0.7917916
vt 0.6652153 0.7801837
vt 0.81771463 0.7784786
vt 0.8181943 0.79104894
vt 0.8720966 0.794011
vt 0.8712123 0.77542436
vt 0.7402034 0.7790464
vt 0.74040896 0.7909012
vt 0.77867275 0.7905187
vt 0.778213 0.7786988
vt 0.6652153 0.7801837
vt 0.6648039 0.7917916
vt 0.7024354 0.7914762
vt 0.7025916 0.779886
vt 0.5775443 0.769146
vt 0.5725169 0.7872822
vt 0.6259746 0.7911575
vt 0.6268444 0.7788031
vt 0.778213 0.7786988
vt 0.77867275 0.7905187
vt 0.8181943 0.79104894
vt 0.81771463 0.7784786
vn 1 0 -2.3780804E-07
vn 1 0 -2.3780804E-07
vn 1 0 -2.3780804E-07
vn 1 0 -2.3780804E-07
vn 1 0 -2.3780804E-07
vn 1 0 -2.3780804E-07
vn 1 0 -2.3780804E-07
vn 0.76497155 -0.58028185 -0.2794486
vn 0.76497155 -0.58028185 -0.2794486
vn 0.76497155 -0.58028185 -0.2794486
vn 0.76497155 -0.58028185 -0.2794486
vn 0.76497144 -0.14331762 -0.6279162
vn 0.76497144 -0.14331762 -0.6279162
vn 0.76497144 -0.14331762 -0.6279162
vn 0.76497144 -0.14331762 -0.6279162
vn 0.7649717 0.40156716 -0.5035496
vn 0.7649717 0.40156716 -0.5035496
vn 0.7649717 0.40156716 -0.5035496
vn 0.7649717 0.40156716 -0.5035496
vn 0.76497173 0.6440639 -1.0598023E-07
vn 0.76497173 0.6440639 -1.0598023E-07
vn 0.76497173 0.6440639 -1.0598023E-07
vn 0.76497173 0.6440639 -1.0598023E-07
vn 0.76497203 0.40156716 0.50354916
vn 0.76497203 0.40156716 0.50354916
vn 0.76497203 0.40156716 0.50354916
vn 0.76497203 0.40156716 0.50354916
vn 0.7649718 -0.14331752 0.6279158
vn 0.7649718 -0.14331752 0.6279158
vn 0.7649718 -0.14331752 0.6279158
vn 0.7649718 -0.14331752 0.6279158
vn 0.7649717 -0.58028173 0.27944845
vn 0.7649717 -0.58028173 0.27944845
vn 0.7649717 -0.58028173 0.27944845
vn 0.7649717 -0.58028173 0.27944845
vn -1 0 1.6723776E-07
vn -1 0 1.6723776E-07
vn -1 0 1.6723776E-07
vn -1 0 1.6723776E-07
vn -1 0 1.6723776E-07
vn -1 0 1.6723776E-07
vn -1 0 1.6723776E-07
vn 1 -1.7279588E-07 -2.2834755E-07
vn 1 -1.7279588E-07 -2.2834755E-07
vn 1 -1.7279588E-07 -2.2834755E-07
vn 1 -1.7279588E-07 -2.2834755E-07
vn 1 -1.0914298E-07 -5.137815E-07
vn 1 -1.0914298E-07 -5.137815E-07
vn 1 -1.0914298E-07 -5.137815E-07
vn 1 -1.0914298E-07 -5.137815E-07
vn 1 0 -2.8543437E-07
vn 1 0 -2.8543437E-07
vn 1 0 -2.8543437E-07
vn 1 0 -2.8543437E-07
vn 1 0 -2.2758906E-07
vn 1 0 -2.2758906E-07
vn 1 0 -2.2758906E-07
vn 1 0 -2.2758906E-07
vn 1 0 0
vn 1 0 0
vn 1 0 0
vn 1 0 0
vn 1 0 0
vn 1 0 0
vn 1 0 -1.9980399E-07
vn 1 0 -1.9980399E-07
vn 1 0 -1.9980399E-07
vn 1 0 -1.9980399E-07
vn -0.20183183 0.21794152 -0.9548641
vn -0.20183183 0.21794152 -0.9548641
vn -0.20183183 0.21794152 -0.9548641
vn -0.20183183 0.21794152 -0.9548641
vn -0.21494538 -0.9766261 -1.00782685E-07
vn -0.21494538 -0.9766261 -1.00782685E-07
vn -0.21494538 -0.9766261 -1.00782685E-07
vn -0.21494538 -0.9766261 -1.00782685E-07
vn -0.20183122 0.21794112 0.9548643
vn -0.20183122 0.21794112 0.9548643
vn -0.20183122 0.21794112 0.9548643
vn -0.20183122 0.21794112 0.9548643
vn -0.19450656 0.88376147 -0.4255971
vn -0.19450656 0.88376147 -0.4255971
vn -0.19450656 0.88376147 -0.4255971
vn -0.19450656 0.88376147 -0.4255971
vn -0.21091844 -0.6094637 -0.764243
vn -0.21091844 -0.6094637 -0.764243
vn -0.21091844 -0.6094637 -0.764243
vn -0.21091844 -0.6094637 -0.764243
vn -0.2109182 -0.6094634 0.76424336
vn -0.2109182 -0.6094634 0.76424336
vn -0.2109182 -0.6094634 0.76424336
vn -0.2109182 -0.6094634 0.76424336
vn -1 0 2.2963398E-07
vn -1 0 2.2963398E-07
vn -1 0 2.2963398E-07
vn -1 0 2.2963398E-07
vn -1 0 1.1481694E-07
vn -1 0 1.1481694E-07
vn -1 0 1.1481694E-07
vn -1 0 1.1481694E-07
vn -1 0 0
vn -1 0 0
vn -1 0 0
vn -1 0 0
vn -1 0 1.1559009E-07
vn -1 0 1.1559009E-07
vn -1 0 1.1559009E-07
vn -1 0 1.1559009E-07
vn -1 0 1.7222541E-07
vn -1 0 1.7222541E-07
vn -1 0 1.7222541E-07
vn -1 0 1.7222541E-07
vn -1 0 1.1481697E-07
vn -1 0 1.1481697E-07
vn -1 0 1.1481697E-07
vn -1 0 1.1481697E-07
vn -1 0 0
vn -1 0 0
vn -1 0 0
vn -1 0 0
vn -0.19450678 0.88376147 0.425597
vn -0.19450678 0.88376147 0.425597
vn -0.19450678 0.88376147 0.425597
vn -0.19450678 0.88376147 0.425597
vn 0.19450672 0.88376147 0.425597
vn 0.19450672 0.88376147 0.425597
vn 0.19450672 0.88376147 0.425597
vn 0.19450672 0.88376147 0.425597
vn 0.2109181 -0.60946345 0.7642433
vn 0.2109181 -0.60946345 0.7642433
vn 0.2109181 -0.60946345 0.7642433
vn 0.2109181 -0.60946345 0.7642433
vn 0.21091777 -0.60946375 -0.7642431
vn 0.21091777 -0.60946375 -0.7642431
vn 0.21091777 -0.60946375 -0.7642431
vn 0.21091777 -0.60946375 -0.7642431
vn 0.19450624 0.88376147 -0.4255972
vn 0.19450624 0.88376147 -0.4255972
vn 0.19450624 0.88376147 -0.4255972
vn 0.19450624 0.88376147 -0.4255972
vn 0.20183116 0.21794112 0.9548643
vn 0.20183116 0.21794112 0.9548643
vn 0.20183116 0.21794112 0.9548643
vn 0.20183116 0.21794112 0.9548643
vn 0.21494544 -0.9766261 -1.6788928E-07
vn 0.21494544 -0.9766261 -1.6788928E-07
vn 0.21494544 -0.9766261 -1.6788928E-07
vn 0.21494544 -0.9766261 -1.6788928E-07
vn 0.20183113 0.21794155 -0.9548642
vn 0.20183113 0.21794155 -0.9548642
vn 0.20183113 0.21794155 -0.9548642
vn 0.20183113 0.21794155 -0.9548642
g tractor-wheel_FL_0
f 3/3/3 2/2/2 1/1/1
f 1/1/1 4/4/4 3/3/3
f 1/1/1 5/5/5 4/4/4
f 5/5/5 6/6/6 4/4/4
f 5/5/5 7/7/7 6/6/6
f 10/10/10 9/9/9 8/8/8
f 11/11/11 10/10/10 8/8/8
f 14/14/14 13/13/13 12/12/12
f 15/15/15 14/14/14 12/12/12
f 18/18/18 17/17/17 16/16/16
f 19/19/19 18/18/18 16/16/16
f 22/22/22 21/21/21 20/20/20
f 23/23/23 22/22/22 20/20/20
f 26/26/26 25/25/25 24/24/24
f 27/27/27 26/26/26 24/24/24
f 30/30/30 29/29/29 28/28/28
f 31/31/31 30/30/30 28/28/28
f 34/34/34 33/33/33 32/32/32
f 35/35/35 34/34/34 32/32/32
f 38/38/38 37/37/37 36/36/36
f 36/36/36 39/39/39 38/38/38
f 36/36/36 40/40/40 39/39/39
f 36/36/36 41/41/41 40/40/40
f 41/41/41 42/42/42 40/40/40
g tractor-wheel_FL_1
f 45/45/45 44/44/44 43/43/43
f 46/46/46 45/45/45 43/43/43
f 49/49/49 48/48/48 47/47/47
f 50/50/50 49/49/49 47/47/47
f 53/53/53 52/52/52 51/51/51
f 54/54/54 53/53/53 51/51/51
f 57/57/57 56/56/56 55/55/55
f 58/58/58 57/57/57 55/55/55
f 61/61/61 60/60/60 59/59/59
f 60/60/60 62/62/62 59/59/59
f 59/59/59 62/62/62 63/63/63
f 62/62/62 64/64/64 63/63/63
f 67/67/67 66/66/66 65/65/65
f 68/68/68 67/67/67 65/65/65
f 71/71/71 70/70/70 69/69/69
f 72/72/72 71/71/71 69/69/69
f 75/75/75 74/74/74 73/73/73
f 76/76/76 75/75/75 73/73/73
f 79/79/79 78/78/78 77/77/77
f 80/80/80 79/79/79 77/77/77
f 83/83/83 82/82/82 81/81/81
f 84/84/84 83/83/83 81/81/81
f 87/87/87 86/86/86 85/85/85
f 88/88/88 87/87/87 85/85/85
f 91/91/91 90/90/90 89/89/89
f 92/92/92 91/91/91 89/89/89
f 95/95/95 94/94/94 93/93/93
f 96/96/96 95/95/95 93/93/93
f 99/99/99 98/98/98 97/97/97
f 100/100/100 99/99/99 97/97/97
f 103/103/103 102/102/102 101/101/101
f 104/104/104 103/103/103 101/101/101
f 107/107/107 106/106/106 105/105/105
f 108/108/108 107/107/107 105/105/105
f 111/111/111 110/110/110 109/109/109
f 112/112/112 111/111/111 109/109/109
f 115/115/115 114/114/114 113/113/113
f 116/116/116 115/115/115 113/113/113
f 119/119/119 118/118/118 117/117/117
f 120/120/120 119/119/119 117/117/117
f 123/123/123 122/122/122 121/121/121
f 124/124/124 123/123/123 121/121/121
f 127/127/127 126/126/126 125/125/125
f 128/128/128 127/127/127 125/125/125
f 131/131/131 130/130/130 129/129/129
f 132/132/132 131/131/131 129/129/129
f 135/135/135 134/134/134 133/133/133
f 136/136/136 135/135/135 133/133/133
f 139/139/139 138/138/138 137/137/137
f 140/140/140 139/139/139 137/137/137
f 143/143/143 142/142/142 141/141/141
f 144/144/144 143/143/143 141/141/141
f 147/147/147 146/146/146 145/145/145
f 148/148/148 147/147/147 145/145/145
f 151/151/151 150/150/150 149/149/149
f 152/152/152 151/151/151 149/149/149
