g tree-triangle
v 0.12429973 2.4150106E-07 -0.027907163
v 0.07682148 2.258006E-07 0.118216015
v 0.07682148 3.0937026 0.118216395
v 0.12429973 3.0937026 -0.02790678
v -0.076821364 2.258006E-07 0.118216045
v -0.12429973 2.4150106E-07 -0.027907096
v -0.12429967 3.0937026 -0.027906736
v -0.07682135 3.0937026 0.11821642
v 7.645495E-09 2.5103654E-07 -0.11821626
v 0.12429973 2.4150106E-07 -0.027907163
v 0.12429973 3.0937026 -0.02790678
v 1.2302183E-08 3.0937026 -0.1182159
v 0.07682148 2.258006E-07 0.118216015
v -0.076821364 2.258006E-07 0.118216045
v -0.07682135 3.0937026 0.11821642
v 0.07682148 3.0937026 0.118216395
v -0.12429973 2.4150106E-07 -0.027907096
v 7.645495E-09 2.5103654E-07 -0.11821626
v 1.2302183E-08 3.0937026 -0.1182159
v -0.12429967 3.0937026 -0.027906736
v 0.98976195 1.1044067 0.98976153
v 4.721508E-10 4.8172464 6.874057E-07
v 0.9897615 1.1044073 -0.989762
v -0.98976195 1.1044073 -0.9897614
v 4.721508E-10 4.8172464 6.874057E-07
v -0.9897615 1.1044067 0.98976207
v 0.9897615 1.1044073 -0.989762
v 4.721508E-10 4.8172464 6.874057E-07
v -0.98976195 1.1044073 -0.9897614
v -0.9897615 1.1044067 0.98976207
v 4.721508E-10 4.8172464 6.874057E-07
v 0.98976195 1.1044067 0.98976153
v 0.12429973 2.4150106E-07 -0.027907163
v 7.645495E-09 2.5103654E-07 -0.11821626
v -0.12429973 2.4150106E-07 -0.027907096
v 0.07682148 2.258006E-07 0.118216015
v -0.076821364 2.258006E-07 0.118216045
v 0.98976195 1.1044067 0.98976153
v 0.9897615 1.1044073 -0.989762
v -0.98976195 1.1044073 -0.9897614
v -0.9897615 1.1044067 0.98976207
vt 0.8516613 0.99898446
vt 0.8516613 0.9567372
vt 0.0010155813 0.9567371
vt 0.0010155813 0.99898195
vt 0.8516613 0.914492
vt 0.8516613 0.87224466
vt 0.0010155813 0.87224454
vt 0.0010155813 0.91449195
vt 0.8516613 0.8299997
vt 0.8516613 0.7877522
vt 0.0010155813 0.78775454
vt 0.0010155813 0.82999957
vt 0.8516613 0.9567372
vt 0.8516613 0.914492
vt 0.0010155813 0.91449195
vt 0.0010155813 0.9567371
vt 0.8516613 0.87224466
vt 0.8516613 0.8299997
vt 0.0010155813 0.82999957
vt 0.0010155813 0.87224454
vt 0.21218218 0.2500369
vt 0.41019818 0.60890776
vt 0.41019818 0.19903137
vt 0.0010155813 0.58507454
vt 0.41019818 0.60890776
vt 0.0634491 0.39035925
vt 0.040420674 0.78572106
vt 0.41019818 0.60890776
vt 0.0010155813 0.58507454
vt 0.0634491 0.39035925
vt 0.41019818 0.60890776
vt 0.21218218 0.2500369
vt 0.42155835 0.0010155813
vt 0.41222933 0.013855317
vt 0.42155835 0.026695713
vt 0.43665257 0.0059204535
vt 0.43665257 0.021791503
vt 0.21218218 0.2500369
vt 0.41019818 0.19903137
vt 0.3591926 0.0010155813
vt 0.16117685 0.052021135
vn 0.95105654 0 0.30901664
vn 0.95105654 0 0.30901664
vn 0.95105654 0 0.30901664
vn 0.95105654 0 0.30901664
vn -0.9510565 0 0.30901724
vn -0.9510565 0 0.30901724
vn -0.9510565 0 0.30901724
vn -0.9510565 0 0.30901724
vn 0.5877856 0 -0.80901676
vn 0.5877856 0 -0.80901676
vn 0.5877856 0 -0.80901676
vn 0.5877856 0 -0.80901676
vn 1.4547867E-07 -1.2126627E-07 1
vn 1.4547867E-07 -1.2126627E-07 1
vn 1.4547867E-07 -1.2126627E-07 1
vn 1.4547867E-07 -1.2126627E-07 1
vn -0.5877859 1.0108428E-07 -0.8090165
vn -0.5877859 1.0108428E-07 -0.8090165
vn -0.5877859 1.0108428E-07 -0.8090165
vn -0.5877859 1.0108428E-07 -0.8090165
vn 0.96625626 0.25758275 -1.2537923E-07
vn 0.96625626 0.25758275 -1.2537923E-07
vn 0.96625626 0.25758275 -1.2537923E-07
vn -0.96625626 0.25758275 3.1344806E-07
vn -0.96625626 0.25758275 3.1344806E-07
vn -0.96625626 0.25758275 3.1344806E-07
vn -3.1344806E-07 0.25758296 -0.96625614
vn -3.1344806E-07 0.25758296 -0.96625614
vn -3.1344806E-07 0.25758296 -0.96625614
vn 3.1344803E-07 0.2575826 0.96625626
vn 3.1344803E-07 0.2575826 0.96625626
vn 3.1344803E-07 0.2575826 0.96625626
vn -0 -1 -1.0693271E-07
vn -0 -1 -1.0693271E-07
vn -0 -1 -1.0693271E-07
vn -0 -1 -1.0693271E-07
vn -0 -1 -1.0693271E-07
vn -0 -1 -3.01106E-07
vn -0 -1 -3.01106E-07
vn -0 -1 -3.01106E-07
vn -0 -1 -3.01106E-07
g tree-triangle_0
f 3/3/3 2/2/2 1/1/1
f 4/4/4 3/3/3 1/1/1
f 7/7/7 6/6/6 5/5/5
f 8/8/8 7/7/7 5/5/5
f 11/11/11 10/10/10 9/9/9
f 12/12/12 11/11/11 9/9/9
f 15/15/15 14/14/14 13/13/13
f 16/16/16 15/15/15 13/13/13
f 19/19/19 18/18/18 17/17/17
f 20/20/20 19/19/19 17/17/17
g tree-triangle_1
f 23/23/23 22/22/22 21/21/21
f 26/26/26 25/25/25 24/24/24
f 29/29/29 28/28/28 27/27/27
f 32/32/32 31/31/31 30/30/30
f 35/35/35 34/34/34 33/33/33
f 33/33/33 36/36/36 35/35/35
f 36/36/36 37/37/37 35/35/35
f 40/40/40 39/39/39 38/38/38
f 41/41/41 40/40/40 38/38/38
