g buoy
v 1.8820106E-08 -0.18565856 5.174873E-06
v -0.09229628 -0.13052674 -0.0922911
v -0.13052665 -0.13052675 5.192203E-06
v 1.8820106E-08 -0.18565856 5.174873E-06
v -4.4103325E-09 -0.13052672 -0.1305215
v -0.09229628 -0.13052674 -0.0922911
v 1.8820106E-08 -0.18565856 5.174873E-06
v 0.09229628 -0.13052674 -0.09229113
v -4.4103325E-09 -0.13052672 -0.1305215
v 1.8820106E-08 -0.18565856 5.174873E-06
v 0.13052665 -0.13052675 5.1470292E-06
v 0.09229628 -0.13052674 -0.09229113
v 1.8820106E-08 -0.18565856 5.174873E-06
v 0.09229631 -0.13052677 0.09230145
v 0.13052665 -0.13052675 5.1470292E-06
v 1.8820106E-08 -0.18565856 5.174873E-06
v 4.1233683E-08 -0.13052678 0.13053183
v 0.09229631 -0.13052677 0.09230145
v 1.8820106E-08 -0.18565856 5.174873E-06
v -0.092296235 -0.13052677 0.09230148
v 4.1233683E-08 -0.13052678 0.13053183
v 1.8820106E-08 -0.18565856 5.174873E-06
v -0.13052665 -0.13052675 5.192203E-06
v -0.092296235 -0.13052677 0.09230148
v -0.13200246 0.12696366 5.236063E-06
v -0.09333983 0.12696366 -0.09333465
v -0.06494092 0.15894584 -0.06493573
v -0.09184035 0.15894583 5.219891E-06
v -0.13052665 -0.13052675 5.192203E-06
v -0.09229628 -0.13052674 -0.0922911
v -0.13052665 -9.39078E-08 -0.13052145
v -0.18459256 -1.06169914E-07 5.22223E-06
v -0.09333983 0.12696366 -0.09333465
v -4.818528E-09 0.12696368 -0.13199726
v 1.8355983E-10 0.15894584 -0.091835134
v -0.06494092 0.15894584 -0.06493573
v -0.09229628 -0.13052674 -0.0922911
v -4.4103325E-09 -0.13052672 -0.1305215
v -1.9364801E-08 -8.408981E-08 -0.1845874
v -0.13052665 -9.39078E-08 -0.13052145
v -4.818528E-09 0.12696368 -0.13199726
v 0.09333982 0.12696366 -0.09333465
v 0.06494093 0.15894584 -0.06493574
v 1.8355983E-10 0.15894584 -0.091835134
v -4.4103325E-09 -0.13052672 -0.1305215
v 0.09229628 -0.13052674 -0.09229113
v 0.13052665 -9.39078E-08 -0.1305215
v -1.9364801E-08 -8.408981E-08 -0.1845874
v 0.09333982 0.12696366 -0.09333465
v 0.13200246 0.12696366 5.1831807E-06
v 0.09184037 0.15894583 5.1852066E-06
v 0.06494093 0.15894584 -0.06493574
v 0.09229628 -0.13052674 -0.09229113
v 0.13052665 -0.13052675 5.1470292E-06
v 0.18459256 -1.06169914E-07 5.160153E-06
v 0.13052665 -9.39078E-08 -0.1305215
v 0.13200246 0.12696366 5.1831807E-06
v 0.09333984 0.12696365 0.093345
v 0.06494095 0.15894583 0.06494613
v 0.09184037 0.15894583 5.1852066E-06
v 0.13052665 -0.13052675 5.1470292E-06
v 0.09229631 -0.13052677 0.09230145
v 0.13052665 -1.2029467E-07 0.13053185
v 0.18459256 -1.06169914E-07 5.160153E-06
v 0.09333984 0.12696365 0.093345
v 4.1341558E-08 0.12696365 0.13200766
v 3.2299308E-08 0.15894581 0.09184553
v 0.06494095 0.15894583 0.06494613
v 0.09229631 -0.13052677 0.09230145
v 4.1233683E-08 -0.13052678 0.13053183
v 4.5185583E-08 -1.3011268E-07 0.18459778
v 0.13052665 -1.2029467E-07 0.13053185
v 4.1233683E-08 -0.13052678 0.13053183
v -0.092296235 -0.13052677 0.09230148
v -0.1305266 -1.2029467E-07 0.13053188
v 4.5185583E-08 -1.3011268E-07 0.18459778
v 4.1341558E-08 0.12696365 0.13200766
v -0.0933398 0.12696365 0.093345046
v -0.06494088 0.15894583 0.06494614
v 3.2299308E-08 0.15894581 0.09184553
v -0.092296235 -0.13052677 0.09230148
v -0.13052665 -0.13052675 5.192203E-06
v -0.18459256 -1.06169914E-07 5.22223E-06
v -0.1305266 -1.2029467E-07 0.13053188
v -0.0933398 0.12696365 0.093345046
v -0.13200246 0.12696366 5.236063E-06
v -0.09184035 0.15894583 5.219891E-06
v -0.06494088 0.15894583 0.06494614
v -0.1305266 -1.2029467E-07 0.13053188
v -0.18459256 -1.06169914E-07 5.22223E-06
v -0.13200246 0.12696366 5.236063E-06
v -0.0933398 0.12696365 0.093345046
v 4.5185583E-08 -1.3011268E-07 0.18459778
v -0.1305266 -1.2029467E-07 0.13053188
v -0.0933398 0.12696365 0.093345046
v 4.1341558E-08 0.12696365 0.13200766
v 0.13052665 -1.2029467E-07 0.13053185
v 4.5185583E-08 -1.3011268E-07 0.18459778
v 4.1341558E-08 0.12696365 0.13200766
v 0.09333984 0.12696365 0.093345
v 0.18459256 -1.06169914E-07 5.160153E-06
v 0.13052665 -1.2029467E-07 0.13053185
v 0.09333984 0.12696365 0.093345
v 0.13200246 0.12696366 5.1831807E-06
v 0.13052665 -9.39078E-08 -0.1305215
v 0.18459256 -1.06169914E-07 5.160153E-06
v 0.13200246 0.12696366 5.1831807E-06
v 0.09333982 0.12696366 -0.09333465
v -1.9364801E-08 -8.408981E-08 -0.1845874
v 0.13052665 -9.39078E-08 -0.1305215
v 0.09333982 0.12696366 -0.09333465
v -4.818528E-09 0.12696368 -0.13199726
v -0.13052665 -9.39078E-08 -0.13052145
v -1.9364801E-08 -8.408981E-08 -0.1845874
v -4.818528E-09 0.12696368 -0.13199726
v -0.09333983 0.12696366 -0.09333465
v -0.18459256 -1.06169914E-07 5.22223E-06
v -0.13052665 -9.39078E-08 -0.13052145
v -0.09333983 0.12696366 -0.09333465
v -0.13200246 0.12696366 5.236063E-06
v -0.09184035 0.15894583 5.219891E-06
v -0.06494092 0.15894584 -0.06493573
v 7.4091115E-09 0.2470167 5.231041E-06
v -0.06494092 0.15894584 -0.06493573
v 1.8355983E-10 0.15894584 -0.091835134
v 7.4091115E-09 0.2470167 5.231041E-06
v 1.8355983E-10 0.15894584 -0.091835134
v 0.06494093 0.15894584 -0.06493574
v 7.4091115E-09 0.2470167 5.231041E-06
v 0.06494093 0.15894584 -0.06493574
v 0.09184037 0.15894583 5.1852066E-06
v 7.4091115E-09 0.2470167 5.231041E-06
v 0.09184037 0.15894583 5.1852066E-06
v 0.06494095 0.15894583 0.06494613
v 7.4091115E-09 0.2470167 5.231041E-06
v 0.06494095 0.15894583 0.06494613
v 3.2299308E-08 0.15894581 0.09184553
v 7.4091115E-09 0.2470167 5.231041E-06
v 3.2299308E-08 0.15894581 0.09184553
v -0.06494088 0.15894583 0.06494614
v 7.4091115E-09 0.2470167 5.231041E-06
v -0.06494088 0.15894583 0.06494614
v -0.09184035 0.15894583 5.219891E-06
v 7.4091115E-09 0.2470167 5.231041E-06
vt 0.07201225 0.5697219
vt 0.25249794 0.4986615
vt 0.21805833 0.4300591
vt 0.07201225 0.5697219
vt 0.26318505 0.56480277
vt 0.25249794 0.4986615
vt 0.07201225 0.5697219
vt 0.25485224 0.6289456
vt 0.26318505 0.56480277
vt 0.07201225 0.5697219
vt 0.22691698 0.69275683
vt 0.25485224 0.6289456
vt 0.07201225 0.5697219
vt 0.1701093 0.7598989
vt 0.22691698 0.69275683
vt 0.07201225 0.5697219
vt 0.04085991 0.83708584
vt 0.1701093 0.7598989
vt 0.07201225 0.5697219
vt 0.1462327 0.3607073
vt 0.0009996527 0.3061159
vt 0.07201225 0.5697219
vt 0.21805833 0.4300591
vt 0.1462327 0.3607073
vt 0.46298632 0.35069174
vt 0.47144058 0.4710913
vt 0.5474521 0.4678669
vt 0.5476865 0.33984345
vt 0.21805833 0.4300591
vt 0.25249794 0.4986615
vt 0.34506175 0.48092645
vt 0.31866774 0.38215095
vt 0.47144058 0.4710913
vt 0.46560857 0.5781214
vt 0.5345336 0.5831608
vt 0.5474521 0.4678669
vt 0.25249794 0.4986615
vt 0.26318505 0.56480277
vt 0.35063893 0.5694397
vt 0.34506175 0.48092645
vt 0.46560857 0.5781214
vt 0.44819045 0.6763464
vt 0.51127887 0.6869865
vt 0.5345336 0.5831608
vt 0.26318505 0.56480277
vt 0.25485224 0.6289456
vt 0.34013298 0.65347177
vt 0.35063893 0.5694397
vt 0.44819045 0.6763464
vt 0.4241793 0.7709276
vt 0.48400438 0.7822339
vt 0.51127887 0.6869865
vt 0.25485224 0.6289456
vt 0.22691698 0.69275683
vt 0.31537935 0.7392525
vt 0.34013298 0.65347177
vt 0.4241793 0.7709276
vt 0.4025302 0.8712899
vt 0.46322998 0.8745467
vt 0.48400438 0.7822339
vt 0.22691698 0.69275683
vt 0.1701093 0.7598989
vt 0.27509657 0.8399818
vt 0.31537935 0.7392525
vt 0.4025302 0.8712899
vt 0.40477 0.9932778
vt 0.46906623 0.9686375
vt 0.46322998 0.8745467
vt 0.1701093 0.7598989
vt 0.04085991 0.83708584
vt 0.2079861 0.9990003
vt 0.27509657 0.8399818
vt 0.0009996527 0.3061159
vt 0.1462327 0.3607073
vt 0.25971738 0.2605239
vt 0.12674552 0.06548942
vt 0.42942184 0.0009996527
vt 0.44172812 0.20661406
vt 0.5400719 0.19708733
vt 0.5476865 0.035962384
vt 0.1462327 0.3607073
vt 0.21805833 0.4300591
vt 0.31866774 0.38215095
vt 0.25971738 0.2605239
vt 0.44172812 0.20661406
vt 0.46298632 0.35069174
vt 0.5476865 0.33984345
vt 0.5400719 0.19708733
vt 0.25971738 0.2605239
vt 0.31866774 0.38215095
vt 0.46298632 0.35069174
vt 0.44172812 0.20661406
vt 0.12674552 0.06548942
vt 0.25971738 0.2605239
vt 0.44172812 0.20661406
vt 0.42942184 0.0009996527
vt 0.27509657 0.8399818
vt 0.2079861 0.9990003
vt 0.40477 0.9932778
vt 0.4025302 0.8712899
vt 0.31537935 0.7392525
vt 0.27509657 0.8399818
vt 0.4025302 0.8712899
vt 0.4241793 0.7709276
vt 0.34013298 0.65347177
vt 0.31537935 0.7392525
vt 0.4241793 0.7709276
vt 0.44819045 0.6763464
vt 0.35063893 0.5694397
vt 0.34013298 0.65347177
vt 0.44819045 0.6763464
vt 0.46560857 0.5781214
vt 0.34506175 0.48092645
vt 0.35063893 0.5694397
vt 0.46560857 0.5781214
vt 0.47144058 0.4710913
vt 0.31866774 0.38215095
vt 0.34506175 0.48092645
vt 0.47144058 0.4710913
vt 0.46298632 0.35069174
vt 0.6316911 0.014718242
vt 0.5718809 0.06837863
vt 0.6951446 0.1456072
vt 0.5718809 0.06837863
vt 0.5496858 0.14560643
vt 0.6951446 0.1456072
vt 0.5496858 0.14560643
vt 0.5718798 0.22283442
vt 0.6951446 0.1456072
vt 0.5718798 0.22283442
vt 0.63169014 0.2764954
vt 0.6951446 0.1456072
vt 0.63169014 0.2764954
vt 0.710864 0.29021418
vt 0.6951446 0.1456072
vt 0.710864 0.29021418
vt 0.7852406 0.2598049
vt 0.6951446 0.1456072
vt 0.78524065 0.031410467
vt 0.7108643 0.0009996527
vt 0.6951446 0.1456072
vt 0.7108643 0.0009996527
vt 0.6316911 0.014718242
vt 0.6951446 0.1456072
vn -0.38413802 -0.90946156 -0.15911536
vn -0.38413802 -0.90946156 -0.15911536
vn -0.38413802 -0.90946156 -0.15911536
vn -0.15911537 -0.9094614 -0.38413826
vn -0.15911537 -0.9094614 -0.38413826
vn -0.15911537 -0.9094614 -0.38413826
vn 0.15911521 -0.9094615 -0.3841383
vn 0.15911521 -0.9094615 -0.3841383
vn 0.15911521 -0.9094615 -0.3841383
vn 0.38413802 -0.90946156 -0.15911536
vn 0.38413802 -0.90946156 -0.15911536
vn 0.38413802 -0.90946156 -0.15911536
vn 0.38413846 -0.9094614 0.15911497
vn 0.38413846 -0.9094614 0.15911497
vn 0.38413846 -0.9094614 0.15911497
vn 0.15911524 -0.90946156 0.38413796
vn 0.15911524 -0.90946156 0.38413796
vn 0.15911524 -0.90946156 0.38413796
vn -0.1591151 -0.90946156 0.38413796
vn -0.1591151 -0.90946156 0.38413796
vn -0.1591151 -0.90946156 0.38413796
vn -0.38413826 -0.9094614 0.15911525
vn -0.38413826 -0.9094614 0.15911525
vn -0.38413826 -0.9094614 0.15911525
vn -0.6031849 0.7574591 -0.24984731
vn -0.6031849 0.7574591 -0.24984731
vn -0.6031849 0.7574591 -0.24984731
vn -0.6031849 0.7574591 -0.24984731
vn -0.8628562 -0.35740677 -0.35740656
vn -0.8628562 -0.35740677 -0.35740656
vn -0.8628562 -0.35740677 -0.35740656
vn -0.8628562 -0.35740677 -0.35740656
vn -0.24984737 0.757459 -0.60318506
vn -0.24984737 0.757459 -0.60318506
vn -0.24984737 0.757459 -0.60318506
vn -0.24984737 0.757459 -0.60318506
vn -0.35740694 -0.35740662 -0.86285615
vn -0.35740694 -0.35740662 -0.86285615
vn -0.35740694 -0.35740662 -0.86285615
vn -0.35740694 -0.35740662 -0.86285615
vn 0.24984738 0.757459 -0.6031851
vn 0.24984738 0.757459 -0.6031851
vn 0.24984738 0.757459 -0.6031851
vn 0.24984738 0.757459 -0.6031851
vn 0.35740668 -0.35740662 -0.8628563
vn 0.35740668 -0.35740662 -0.8628563
vn 0.35740668 -0.35740662 -0.8628563
vn 0.35740668 -0.35740662 -0.8628563
vn 0.60318506 0.75745887 -0.24984755
vn 0.60318506 0.75745887 -0.24984755
vn 0.60318506 0.75745887 -0.24984755
vn 0.60318506 0.75745887 -0.24984755
vn 0.86285615 -0.35740674 -0.35740677
vn 0.86285615 -0.35740674 -0.35740677
vn 0.86285615 -0.35740674 -0.35740677
vn 0.86285615 -0.35740674 -0.35740677
vn 0.60318536 0.7574587 0.24984756
vn 0.60318536 0.7574587 0.24984756
vn 0.60318536 0.7574587 0.24984756
vn 0.60318536 0.7574587 0.24984756
vn 0.8628562 -0.35740677 0.3574067
vn 0.8628562 -0.35740677 0.3574067
vn 0.8628562 -0.35740677 0.3574067
vn 0.8628562 -0.35740677 0.3574067
vn 0.24984762 0.75745887 0.603185
vn 0.24984762 0.75745887 0.603185
vn 0.24984762 0.75745887 0.603185
vn 0.24984762 0.75745887 0.603185
vn 0.35740694 -0.3574069 0.86285603
vn 0.35740694 -0.3574069 0.86285603
vn 0.35740694 -0.3574069 0.86285603
vn 0.35740694 -0.3574069 0.86285603
vn -0.3574067 -0.3574068 0.86285615
vn -0.3574067 -0.3574068 0.86285615
vn -0.3574067 -0.3574068 0.86285615
vn -0.3574067 -0.3574068 0.86285615
vn -0.2498474 0.7574591 0.6031849
vn -0.2498474 0.7574591 0.6031849
vn -0.2498474 0.7574591 0.6031849
vn -0.2498474 0.7574591 0.6031849
vn -0.86285603 -0.3574069 0.3574069
vn -0.86285603 -0.3574069 0.3574069
vn -0.86285603 -0.3574069 0.3574069
vn -0.86285603 -0.3574069 0.3574069
vn -0.6031848 0.75745904 0.24984778
vn -0.6031848 0.75745904 0.24984778
vn -0.6031848 0.75745904 0.24984778
vn -0.6031848 0.75745904 0.24984778
vn -0.86285615 0.3574067 0.35740703
vn -0.86285615 0.3574067 0.35740703
vn -0.86285615 0.3574067 0.35740703
vn -0.86285615 0.3574067 0.35740703
vn -0.3574066 0.3574067 0.8628563
vn -0.3574066 0.3574067 0.8628563
vn -0.3574066 0.3574067 0.8628563
vn -0.3574066 0.3574067 0.8628563
vn 0.35740694 0.35740685 0.86285615
vn 0.35740694 0.35740685 0.86285615
vn 0.35740694 0.35740685 0.86285615
vn 0.35740694 0.35740685 0.86285615
vn 0.8628562 0.35740677 0.35740665
vn 0.8628562 0.35740677 0.35740665
vn 0.8628562 0.35740677 0.35740665
vn 0.8628562 0.35740677 0.35740665
vn 0.86285615 0.3574069 -0.35740662
vn 0.86285615 0.3574069 -0.35740662
vn 0.86285615 0.3574069 -0.35740662
vn 0.86285615 0.3574069 -0.35740662
vn 0.35740662 0.3574069 -0.86285615
vn 0.35740662 0.3574069 -0.86285615
vn 0.35740662 0.3574069 -0.86285615
vn 0.35740662 0.3574069 -0.86285615
vn -0.35740694 0.35740685 -0.86285615
vn -0.35740694 0.35740685 -0.86285615
vn -0.35740694 0.35740685 -0.86285615
vn -0.35740694 0.35740685 -0.86285615
vn -0.8628562 0.35740674 -0.35740656
vn -0.8628562 0.35740674 -0.35740656
vn -0.8628562 0.35740674 -0.35740656
vn -0.8628562 0.35740674 -0.35740656
vn -0.66533655 0.69381326 -0.27559116
vn -0.66533655 0.69381326 -0.27559116
vn -0.66533655 0.69381326 -0.27559116
vn -0.27559128 0.69381344 -0.66533625
vn -0.27559128 0.69381344 -0.66533625
vn -0.27559128 0.69381344 -0.66533625
vn 0.27559105 0.69381344 -0.66533643
vn 0.27559105 0.69381344 -0.66533643
vn 0.27559105 0.69381344 -0.66533643
vn 0.66533625 0.69381344 -0.27559155
vn 0.66533625 0.69381344 -0.27559155
vn 0.66533625 0.69381344 -0.27559155
vn 0.66533655 0.6938132 0.27559137
vn 0.66533655 0.6938132 0.27559137
vn 0.66533655 0.6938132 0.27559137
vn 0.27559134 0.693813 0.6653366
vn 0.27559134 0.693813 0.6653366
vn 0.27559134 0.693813 0.6653366
vn -0.27559143 0.69381297 0.6653368
vn -0.27559143 0.69381297 0.6653368
vn -0.27559143 0.69381297 0.6653368
vn -0.6653364 0.693813 0.27559188
vn -0.6653364 0.693813 0.27559188
vn -0.6653364 0.693813 0.27559188
g buoy_0
f 3/3/3 2/2/2 1/1/1
f 6/6/6 5/5/5 4/4/4
f 9/9/9 8/8/8 7/7/7
f 12/12/12 11/11/11 10/10/10
f 15/15/15 14/14/14 13/13/13
f 18/18/18 17/17/17 16/16/16
f 21/21/21 20/20/20 19/19/19
f 24/24/24 23/23/23 22/22/22
f 27/27/27 26/26/26 25/25/25
f 28/28/28 27/27/27 25/25/25
f 31/31/31 30/30/30 29/29/29
f 32/32/32 31/31/31 29/29/29
f 35/35/35 34/34/34 33/33/33
f 36/36/36 35/35/35 33/33/33
f 39/39/39 38/38/38 37/37/37
f 40/40/40 39/39/39 37/37/37
f 43/43/43 42/42/42 41/41/41
f 44/44/44 43/43/43 41/41/41
f 47/47/47 46/46/46 45/45/45
f 48/48/48 47/47/47 45/45/45
f 51/51/51 50/50/50 49/49/49
f 52/52/52 51/51/51 49/49/49
f 55/55/55 54/54/54 53/53/53
f 56/56/56 55/55/55 53/53/53
f 59/59/59 58/58/58 57/57/57
f 60/60/60 59/59/59 57/57/57
f 63/63/63 62/62/62 61/61/61
f 64/64/64 63/63/63 61/61/61
f 67/67/67 66/66/66 65/65/65
f 68/68/68 67/67/67 65/65/65
f 71/71/71 70/70/70 69/69/69
f 72/72/72 71/71/71 69/69/69
f 75/75/75 74/74/74 73/73/73
f 76/76/76 75/75/75 73/73/73
f 79/79/79 78/78/78 77/77/77
f 80/80/80 79/79/79 77/77/77
f 83/83/83 82/82/82 81/81/81
f 84/84/84 83/83/83 81/81/81
f 87/87/87 86/86/86 85/85/85
f 88/88/88 87/87/87 85/85/85
f 91/91/91 90/90/90 89/89/89
f 92/92/92 91/91/91 89/89/89
f 95/95/95 94/94/94 93/93/93
f 96/96/96 95/95/95 93/93/93
f 99/99/99 98/98/98 97/97/97
f 100/100/100 99/99/99 97/97/97
f 103/103/103 102/102/102 101/101/101
f 104/104/104 103/103/103 101/101/101
f 107/107/107 106/106/106 105/105/105
f 108/108/108 107/107/107 105/105/105
f 111/111/111 110/110/110 109/109/109
f 112/112/112 111/111/111 109/109/109
f 115/115/115 114/114/114 113/113/113
f 116/116/116 115/115/115 113/113/113
f 119/119/119 118/118/118 117/117/117
f 120/120/120 119/119/119 117/117/117
g buoy_1
f 123/123/123 122/122/122 121/121/121
f 126/126/126 125/125/125 124/124/124
f 129/129/129 128/128/128 127/127/127
f 132/132/132 131/131/131 130/130/130
f 135/135/135 134/134/134 133/133/133
f 138/138/138 137/137/137 136/136/136
f 141/141/141 140/140/140 139/139/139
f 144/144/144 143/143/143 142/142/142
