g cabin-beach
v 0.74755615 1.9165379 0.7223634
v 1.2275565E-07 2.6582718 0.72236335
v 1.0946467E-07 2.6582718 -0.4523641
v 0.747556 1.9165378 -0.45236403
v -0.045651782 2.6122615 0.72236335
v 0.7019044 1.8705282 0.7223634
v 0.70190436 1.8705279 -0.452364
v -0.04565183 2.6122615 -0.45236403
v 1.2275565E-07 2.6582718 0.72236335
v -0.045651782 2.6122615 0.72236335
v -0.04565183 2.6122615 -0.45236403
v 1.0946467E-07 2.6582718 -0.4523641
v 0.74755615 1.9165379 0.7223634
v 0.7019044 1.8705282 0.7223634
v -0.045651782 2.6122615 0.72236335
v 1.2275565E-07 2.6582718 0.72236335
v 1.0946467E-07 2.6582718 -0.4523641
v -0.04565183 2.6122615 -0.45236403
v 0.70190436 1.8705279 -0.452364
v 0.747556 1.9165378 -0.45236403
v 0.747556 1.9165378 -0.45236403
v 0.70190436 1.8705279 -0.452364
v 0.7019044 1.8705282 0.7223634
v 0.74755615 1.9165379 0.7223634
v 0.54 2.0475168 0.55499965
v 0.54 0.0017654722 0.5549999
v 0.54 0.0017654866 0.6749998
v 0.54 2.0475168 0.67499954
v 0.45 1.9696411 0.67499954
v 0.54 0.0017654866 0.6749998
v 0.45 0.0017655204 0.6749998
v 0.54 2.0475168 0.67499954
v -0.45 1.9696412 0.6749996
v -0.54 2.0475168 0.6749996
v -0.5399999 0.0017655339 0.6749999
v -0.44999987 0.0017655002 0.6749999
v 0.35941795 1.8917651 0.68883526
v 0.35780528 1.8917651 0.72891915
v -0.36161265 1.8917652 0.6999749
v -0.35999998 1.8917652 0.65989095
v 0.35780528 1.8917651 0.72891915
v 0.35941795 1.8917651 0.68883526
v 0.35941795 0.0017655425 0.68883544
v 0.35780528 0.0017655492 0.72891927
v 0.53999996 2.0475168 -0.4050002
v 0.53999996 0.0017653578 -0.405
v 0.53999996 0.0017653721 -0.28500003
v 0.54 2.0475168 -0.28500026
v 0.54 2.0475168 -0.16500026
v 0.53999996 0.0017653864 -0.16500002
v 0.53999996 0.0017654008 -0.04500006
v 0.54 2.0475168 -0.04500027
v 0.53999996 2.0475168 0.07499972
v 0.53999996 0.0017654151 0.074999936
v 0.53999996 0.0017654294 0.19499992
v 0.53999996 2.0475168 0.19499965
v 0.53999996 2.0475168 0.31499964
v 0.53999996 0.0017654436 0.3149999
v 0.54 0.0017654579 0.4349999
v 0.54 2.0475168 0.43499964
v -0.747556 1.9165378 -0.4523639
v -0.74755585 1.9165379 0.7223634
v -0.7019041 1.8705282 0.7223634
v -0.7019043 1.8705279 -0.4523639
v -0.054831184 2.6038675 -0.45236403
v -0.747556 1.9165378 -0.4523639
v -0.7019043 1.8705279 -0.4523639
v -0.009179511 2.5578575 -0.45236403
v -0.74755585 1.9165379 0.7223634
v -0.747556 1.9165378 -0.4523639
v -0.054831184 2.6038675 -0.45236403
v -0.054831136 2.6038675 0.72236335
v -0.74755585 1.9165379 0.7223634
v -0.054831136 2.6038675 0.72236335
v -0.009179468 2.5578575 0.72236335
v -0.7019041 1.8705282 0.7223634
v -0.054831136 2.6038675 0.72236335
v -0.054831184 2.6038675 -0.45236403
v -0.009179511 2.5578575 -0.45236403
v -0.009179468 2.5578575 0.72236335
v -0.009179468 2.5578575 0.72236335
v -0.009179511 2.5578575 -0.45236403
v -0.7019043 1.8705279 -0.4523639
v -0.7019041 1.8705282 0.7223634
v -0.53999996 2.0475168 0.5549997
v -0.54 2.0475168 0.6749996
v -0.5399999 0.0017655339 0.6749999
v -0.53999996 0.0017655196 0.55499995
v -0.36161265 1.8917652 0.6999749
v -0.36161253 0.0017654849 0.6999752
v -0.35999984 0.0017654784 0.65989125
v -0.35999998 1.8917652 0.65989095
v -0.5400001 2.0475168 -0.4050002
v -0.54 2.0475168 -0.28500023
v -0.53999996 0.0017654194 -0.28499994
v -0.54 0.0017654051 -0.4049999
v -0.54 2.0475168 -0.16500023
v -0.54 2.0475168 -0.045000236
v -0.53999996 0.001765448 -0.045000024
v -0.53999996 0.0017654337 -0.16499996
v -0.5400001 2.0475168 0.07499976
v -0.54000014 2.0475168 0.19499972
v -0.53999996 0.0017654765 0.19499996
v -0.54 0.0017654622 0.074999966
v -0.54000014 2.0475168 0.3149997
v -0.5400001 2.0475168 0.43499967
v -0.53999996 0.0017655052 0.43499994
v -0.54 0.0017654909 0.31499997
v -0.42 0.00176537 -0.40499994
v -0.41999996 2.0475168 -0.4050002
v -0.5400001 2.0475168 -0.4050002
v -0.54 0.0017654051 -0.4049999
v 0.53999996 0.0017653578 -0.405
v 0.53999996 2.0475168 -0.4050002
v 0.42 2.0475168 -0.4050002
v 0.42 0.0017653928 -0.40499994
v 0.29999998 0.0017653683 -0.405
v 0.29999998 2.0475168 -0.4050002
v 0.17999999 2.0475168 -0.4050002
v 0.17999999 0.0017653884 -0.405
v 0.059999987 0.0017653824 -0.40499994
v 0.060000017 2.0475168 -0.4050002
v -0.060000096 2.0475168 -0.4050002
v -0.060000002 0.0017653803 -0.40499994
v -0.17999999 0.0017653743 -0.40499994
v -0.17999998 2.0475168 -0.4050002
v -0.30000007 2.0475168 -0.40500018
v -0.3 0.0017653945 -0.4049999
v -0.36161265 1.8917652 0.6999749
v 0.35780528 1.8917651 0.72891915
v 0.35780528 0.0017655492 0.72891927
v -0.36161253 0.0017654849 0.6999752
v 0.54706824 2.0475168 -0.44732547
v 8.010285E-08 2.5946627 -0.4473255
v 8.010285E-08 2.0475168 -0.44732544
v -0.5470685 2.0475168 -0.44732544
v 0.5470683 2.0475168 0.6950976
v 1.2037201E-07 2.5946627 0.6950976
v 8.010285E-08 2.5946627 -0.4473255
v 0.54706824 2.0475168 -0.44732547
v 0.5470683 2.0475168 0.6950976
v 1.2037201E-07 2.0475168 0.6950976
v 1.2037201E-07 2.5946627 0.6950976
v -0.5470684 2.0475168 0.69509774
v 0.54 2.0475168 -0.28500026
v 0.53999996 0.0017653721 -0.28500003
v 0.53999996 0.0017653864 -0.16500002
v 0.54 2.0475168 -0.16500026
v 0.54 2.0475168 -0.04500027
v 0.53999996 0.0017654008 -0.04500006
v 0.53999996 0.0017654151 0.074999936
v 0.53999996 2.0475168 0.07499972
v 0.53999996 2.0475168 0.19499965
v 0.53999996 0.0017654294 0.19499992
v 0.53999996 0.0017654436 0.3149999
v 0.53999996 2.0475168 0.31499964
v 0.54 2.0475168 0.43499964
v 0.54 0.0017654579 0.4349999
v 0.54 0.0017654722 0.5549999
v 0.54 2.0475168 0.55499965
v -0.5470684 2.0475168 0.69509774
v -0.5470685 2.0475168 -0.44732544
v 8.010285E-08 2.5946627 -0.4473255
v 1.2037201E-07 2.5946627 0.6950976
v -0.54 2.0475168 -0.28500023
v -0.54 2.0475168 -0.16500023
v -0.53999996 0.0017654337 -0.16499996
v -0.53999996 0.0017654194 -0.28499994
v -0.54 2.0475168 -0.045000236
v -0.5400001 2.0475168 0.07499976
v -0.54 0.0017654622 0.074999966
v -0.53999996 0.001765448 -0.045000024
v -0.54000014 2.0475168 0.19499972
v -0.54000014 2.0475168 0.3149997
v -0.54 0.0017654909 0.31499997
v -0.53999996 0.0017654765 0.19499996
v -0.5400001 2.0475168 0.43499967
v -0.53999996 2.0475168 0.5549997
v -0.53999996 0.0017655196 0.55499995
v -0.53999996 0.0017655052 0.43499994
v 0.42 0.0017653928 -0.40499994
v 0.42 2.0475168 -0.4050002
v 0.29999998 2.0475168 -0.4050002
v 0.29999998 0.0017653683 -0.405
v 0.17999999 0.0017653884 -0.405
v 0.17999999 2.0475168 -0.4050002
v 0.060000017 2.0475168 -0.4050002
v 0.059999987 0.0017653824 -0.40499994
v -0.060000002 0.0017653803 -0.40499994
v -0.060000096 2.0475168 -0.4050002
v -0.17999998 2.0475168 -0.4050002
v -0.17999999 0.0017653743 -0.40499994
v -0.3 0.0017653945 -0.4049999
v -0.30000007 2.0475168 -0.40500018
v -0.41999996 2.0475168 -0.4050002
v -0.42 0.00176537 -0.40499994
v -0.35999998 1.8917652 0.6749996
v -0.35999984 0.0017654962 0.6749999
v -0.44999987 0.0017655002 0.6749999
v -0.45 1.9696412 0.6749996
v 0.35999998 1.8917651 0.67499954
v 0.45 1.9696411 0.67499954
v 0.45 0.0017655204 0.6749998
v 0.35999998 0.0017655244 0.67499965
v -0.35999998 1.8917652 0.6749996
v -0.35999998 1.8917652 0.5549997
v -0.35999984 0.0017654818 0.555
v -0.35999984 0.0017654962 0.6749999
v 0.35999998 1.8917651 0.67499954
v 0.35999998 1.8917651 0.55499965
v -0.35999998 1.8917652 0.5549997
v -0.35999998 1.8917652 0.6749996
v 0.35999998 0.0017655244 0.67499965
v 0.35999998 0.0017655101 0.5549998
v 0.35999998 1.8917651 0.55499965
v 0.35999998 1.8917651 0.67499954
v 0.35999998 1.8917651 0.55499965
v 0.35999998 0.0017655101 0.5549998
v -0.35999984 0.0017654818 0.555
v -0.35999998 1.8917652 0.5549997
vt 0.005020854 0.57462215
vt 0.12911701 0.57462215
vt 0.12911701 0.38685244
vt 0.005020854 0.38685292
vt 0.6581674 0.3721392
vt 0.53407216 0.3721392
vt 0.53407216 0.55990887
vt 0.6581674 0.55990887
vt 0.07524505 0.9302381
vt 0.082882926 0.93026495
vt 0.082882926 0.74249667
vt 0.07524505 0.74247026
vt 0.89292896 0.87750256
vt 0.903688 0.87750256
vt 0.903688 0.7091752
vt 0.89292896 0.7091752
vt 0.84376407 0.7091752
vt 0.83300406 0.7091752
vt 0.83300453 0.87750304
vt 0.84376407 0.87750304
vt 0.005020854 0.9302654
vt 0.012658267 0.93023854
vt 0.012658267 0.74247026
vt 0.005020854 0.74249715
vt 0.852986 0.3320156
vt 0.852986 0.005020854
vt 0.8330662 0.005020854
vt 0.8330662 0.3320156
vt 0.35128406 0.3195679
vt 0.36622402 0.005020854
vt 0.35128406 0.005020854
vt 0.36622402 0.3320156
vt 0.20188254 0.31956813
vt 0.18694302 0.33201584
vt 0.18694302 0.005021086
vt 0.201883 0.005021086
vt 0.37626573 0.8701195
vt 0.38292494 0.8701195
vt 0.38292494 0.755034
vt 0.37626573 0.755034
vt 0.16124283 0.8867631
vt 0.1678979 0.8867631
vt 0.1678979 0.58466387
vt 0.16124283 0.58466387
vt 0.36622402 0.89493173
vt 0.36622402 0.567937
vt 0.3463042 0.567937
vt 0.3463042 0.89493173
vt 0.8829475 0.3320156
vt 0.8829475 0.005020854
vt 0.8630277 0.005020854
vt 0.8630277 0.3320156
vt 0.7331386 0.3320156
vt 0.7331386 0.005020854
vt 0.71321833 0.005020854
vt 0.71321833 0.3320156
vt 0.20841736 0.66905236
vt 0.20841736 0.34205756
vt 0.18849708 0.34205756
vt 0.18849708 0.66905236
vt 0.118242554 0.93023854
vt 0.118242554 0.74247026
vt 0.11060421 0.74249715
vt 0.11060467 0.93026495
vt 0.06520335 0.8984514
vt 0.06520335 0.74247026
vt 0.054444272 0.74247026
vt 0.05444381 0.8984514
vt 0.6490655 0.75771976
vt 0.6490655 0.5699506
vt 0.53407216 0.5699506
vt 0.53407216 0.75771976
vt 0.033459052 0.8984514
vt 0.033459052 0.74247026
vt 0.022699976 0.74247074
vt 0.022699976 0.8984514
vt 0.100562505 0.9302654
vt 0.100562505 0.74249715
vt 0.09292463 0.74247026
vt 0.09292463 0.93023854
vt 0.33345285 0.75570714
vt 0.33345285 0.567937
vt 0.21845905 0.5679375
vt 0.21845952 0.75570714
vt 0.87988925 0.3721392
vt 0.85996944 0.3721392
vt 0.85996944 0.699134
vt 0.87988925 0.699134
vt 0.9858107 0.65549934
vt 0.9858107 0.95759857
vt 0.9924653 0.95759857
vt 0.9924653 0.65549934
vt 0.8499277 0.3721392
vt 0.8300075 0.3721392
vt 0.8300075 0.6991335
vt 0.8499277 0.6991335
vt 0.8230245 0.005020854
vt 0.8031042 0.005020854
vt 0.8031042 0.33201516
vt 0.8230245 0.33201516
vt 0.91290903 0.005020854
vt 0.8929892 0.005020854
vt 0.8929892 0.33201516
vt 0.91290903 0.33201516
vt 0.8199658 0.3721392
vt 0.8000455 0.3721392
vt 0.8000455 0.6991335
vt 0.8199658 0.6991335
vt 0.6532944 0.005020854
vt 0.6532944 0.3320156
vt 0.6732147 0.3320156
vt 0.6732147 0.005020854
vt 0.7431803 0.005020854
vt 0.7431803 0.3320156
vt 0.76310056 0.3320156
vt 0.76310056 0.005020854
vt 0.7731423 0.005020854
vt 0.7731423 0.3320156
vt 0.7930625 0.3320156
vt 0.7930625 0.005020854
vt 0.88993096 0.3721392
vt 0.88993096 0.699134
vt 0.9098508 0.699134
vt 0.9098508 0.3721392
vt 0.6832564 0.005020854
vt 0.6832564 0.3320156
vt 0.7031766 0.3320156
vt 0.7031766 0.005020854
vt 0.5238126 0.30712038
vt 0.6432527 0.30712014
vt 0.6432527 0.005020854
vt 0.5238126 0.005021549
vt 0.37626573 0.74338627
vt 0.52323157 0.74499226
vt 0.44974884 0.67070186
vt 0.5232315 0.5980182
vt 0.36622378 0.34205756
vt 0.21845905 0.342058
vt 0.2184593 0.5578953
vt 0.36622402 0.5578953
vt 0.15120113 0.58466387
vt 0.07811099 0.65853596
vt 0.15120113 0.7324285
vt 0.005020854 0.7324079
vt 0.18549955 0.6790941
vt 0.18549955 0.95241195
vt 0.20841736 0.95241195
vt 0.20841736 0.6790941
vt 0.8000455 0.7091752
vt 0.8000455 0.98249316
vt 0.8229624 0.98249316
vt 0.8229624 0.7091752
vt 0.97576904 0.92881775
vt 0.97576904 0.65549934
vt 0.9528522 0.65549934
vt 0.9528522 0.92881775
vt 0.9428105 0.6454576
vt 0.94281024 0.3721392
vt 0.91989243 0.3721392
vt 0.91989267 0.6454576
vt 0.37626573 0.3721392
vt 0.37626573 0.5879765
vt 0.52403045 0.5879765
vt 0.52403045 0.3721392
vt 0.9528524 0.6454572
vt 0.9757693 0.6454572
vt 0.97576904 0.3721392
vt 0.9528522 0.3721392
vt 0.92295074 0.2783393
vt 0.9458685 0.2783393
vt 0.9458685 0.005020854
vt 0.92295074 0.005020854
vt 0.94281024 0.65549934
vt 0.91989243 0.65549934
vt 0.91989243 0.92881775
vt 0.94281024 0.92881775
vt 0.9559102 0.2783393
vt 0.97882706 0.2783393
vt 0.97882706 0.005020854
vt 0.9559102 0.005020854
vt 0.7900038 0.7586424
vt 0.7900038 0.3721392
vt 0.7670869 0.3721392
vt 0.7670869 0.7586424
vt 0.7240864 0.7586424
vt 0.7240864 0.3721392
vt 0.7011686 0.3721392
vt 0.7011686 0.7586424
vt 0.7570452 0.7586419
vt 0.757045 0.3721392
vt 0.7341281 0.3721392
vt 0.73412836 0.7586419
vt 0.69112694 0.7586424
vt 0.69112694 0.3721392
vt 0.66820914 0.3721392
vt 0.66820914 0.7586424
vt 0.02220874 0.3620977
vt 0.022208508 0.005021086
vt 0.005020854 0.005021086
vt 0.005021086 0.37681073
vt 0.15971367 0.36209747
vt 0.17690133 0.3768105
vt 0.1769011 0.005020854
vt 0.15971251 0.005020854
vt 0.85996944 0.961685
vt 0.88288724 0.961685
vt 0.88288724 0.7091752
vt 0.85996944 0.7091752
vt 0.15398353 0.5228823
vt 0.17690133 0.5228823
vt 0.17690133 0.38685244
vt 0.15398353 0.38685244
vt 0.12828426 0.9949792
vt 0.15120113 0.9949792
vt 0.15120113 0.74247026
vt 0.12828426 0.74247026
vt 0.5137709 0.36209747
vt 0.51377064 0.005020854
vt 0.37626573 0.005020854
vt 0.37626594 0.36209747
vn 0.7043371 0.70986557 -1.2045238E-07
vn 0.7043371 0.70986557 -1.2045238E-07
vn 0.7043371 0.70986557 -1.2045238E-07
vn 0.7043371 0.70986557 -1.2045238E-07
vn -0.7043368 -0.7098659 1.2322847E-07
vn -0.7043368 -0.7098659 1.2322847E-07
vn -0.7043368 -0.7098659 1.2322847E-07
vn -0.7043368 -0.7098659 1.2322847E-07
vn -0.70986396 0.70433885 0
vn -0.70986396 0.70433885 0
vn -0.70986396 0.70433885 0
vn -0.70986396 0.70433885 0
vn -0 0 1
vn -0 0 1
vn -0 0 1
vn -0 0 1
vn -2.8368007E-07 -4.3662268E-07 -1
vn -2.8368007E-07 -4.3662268E-07 -1
vn -2.8368007E-07 -4.3662268E-07 -1
vn -2.8368007E-07 -4.3662268E-07 -1
vn 0.70986277 -0.70434 0
vn 0.70986277 -0.70434 0
vn 0.70986277 -0.70434 0
vn 0.70986277 -0.70434 0
vn 1 0 0
vn 1 0 0
vn 1 0 0
vn 1 0 0
vn -0 1.4438044E-07 1
vn -0 1.4438044E-07 1
vn -0 1.4438044E-07 1
vn -0 1.4438044E-07 1
vn -0 -7.731138E-07 1
vn -0 -7.731138E-07 1
vn 3.889616E-07 1.4438048E-07 1
vn 3.889616E-07 1.4438048E-07 1
vn -1.2897542E-07 1 0
vn -1.2897542E-07 1 0
vn -1.2897542E-07 1 0
vn -1.2897542E-07 1 0
vn 0.9991917 0 0.040199827
vn 0.9991917 0 0.040199827
vn 0.9991917 0 0.040199827
vn 0.9991917 0 0.040199827
vn 1 0 4.540997E-07
vn 1 0 4.540997E-07
vn 1 0 4.540997E-07
vn 1 0 4.540997E-07
vn 1 0 0
vn 1 0 0
vn 1 0 0
vn 1 0 0
vn 1 0 0
vn 1 0 0
vn 1 0 0
vn 1 0 0
vn 1 0 -5.1709446E-07
vn 1 0 -5.1709446E-07
vn 1 0 -5.1709446E-07
vn 1 0 -5.1709446E-07
vn -0.70986277 -0.70434 2.4463503E-07
vn -0.70986277 -0.70434 2.4463503E-07
vn -0.70986277 -0.70434 2.4463503E-07
vn -0.70986277 -0.70434 2.4463503E-07
vn -0 1.4724476E-07 -1
vn -0 1.4724476E-07 -1
vn -0 1.4724476E-07 -1
vn -0 1.4724476E-07 -1
vn -0.7043372 0.7098655 0
vn -0.7043372 0.7098655 0
vn -0.7043372 0.7098655 0
vn -0.7043372 0.7098655 0
vn -0 1.7669385E-07 1
vn -0 1.7669385E-07 1
vn -0 1.7669385E-07 1
vn -0 1.7669385E-07 1
vn 0.70986587 0.7043368 0
vn 0.70986587 0.7043368 0
vn 0.70986587 0.7043368 0
vn 0.70986587 0.7043368 0
vn 0.704337 -0.70986575 0
vn 0.704337 -0.70986575 0
vn 0.704337 -0.70986575 0
vn 0.704337 -0.70986575 0
vn -1 0 0
vn -1 0 0
vn -1 0 0
vn -1 0 0
vn -0.9991916 0 -0.040200632
vn -0.9991916 0 -0.040200632
vn -0.9991916 0 -0.040200632
vn -0.9991916 0 -0.040200632
vn -1 0 9.71194E-07
vn -1 0 9.71194E-07
vn -1 0 9.71194E-07
vn -1 0 9.71194E-07
vn -1 0 0
vn -1 0 0
vn -1 0 0
vn -1 0 0
vn -1 0 0
vn -1 0 0
vn -1 0 0
vn -1 0 0
vn -1 0 4.85597E-07
vn -1 0 4.85597E-07
vn -1 0 4.85597E-07
vn -1 0 4.85597E-07
vn -1.2417637E-07 -1.3657404E-07 -1
vn -1.2417637E-07 -1.3657404E-07 -1
vn -1.2417637E-07 -1.3657404E-07 -1
vn -1.2417637E-07 -1.3657404E-07 -1
vn -2.4835273E-07 -1.06224306E-07 -1
vn -2.4835273E-07 -1.06224306E-07 -1
vn -2.4835273E-07 -1.06224306E-07 -1
vn -2.4835273E-07 -1.06224306E-07 -1
vn -0 -1.2139924E-07 -1
vn -0 -1.2139924E-07 -1
vn -0 -1.2139924E-07 -1
vn -0 -1.2139924E-07 -1
vn -0 -1.213992E-07 -1
vn -0 -1.213992E-07 -1
vn -0 -1.213992E-07 -1
vn -0 -1.213992E-07 -1
vn -2.4835262E-07 -1.2139921E-07 -1
vn -2.4835262E-07 -1.2139921E-07 -1
vn -2.4835262E-07 -1.2139921E-07 -1
vn -2.4835262E-07 -1.2139921E-07 -1
vn -0.04020027 1.3140357E-07 0.9991917
vn -0.04020027 1.3140357E-07 0.9991917
vn -0.04020027 1.3140357E-07 0.9991917
vn -0.04020027 1.3140357E-07 0.9991917
vn -0 0 -1
vn -0 0 -1
vn -0 0 -1
vn -0 0 -1
vn 0.7071571 0.70705646 0
vn 0.7071571 0.70705646 0
vn 0.7071571 0.70705646 0
vn 0.7071571 0.70705646 0
vn 1.0895282E-07 1.9912939E-07 1
vn 1.0895282E-07 1.9912939E-07 1
vn 1.0895282E-07 1.9912939E-07 1
vn 1.08952754E-07 0 1
vn 1 0 0
vn 1 0 0
vn 1 0 0
vn 1 0 0
vn 1 0 0
vn 1 0 0
vn 1 0 0
vn 1 0 0
vn 1 0 0
vn 1 0 0
vn 1 0 0
vn 1 0 0
vn 1 0 0
vn 1 0 0
vn 1 0 0
vn 1 0 0
vn -0.70715684 0.70705664 0
vn -0.70715684 0.70705664 0
vn -0.70715684 0.70705664 0
vn -0.70715684 0.70705664 0
vn -1 0 0
vn -1 0 0
vn -1 0 0
vn -1 0 0
vn -1 0 -9.711941E-07
vn -1 0 -9.711941E-07
vn -1 0 -9.711941E-07
vn -1 0 -9.711941E-07
vn -1 0 0
vn -1 0 0
vn -1 0 0
vn -1 0 0
vn -1 0 4.8559707E-07
vn -1 0 4.8559707E-07
vn -1 0 4.8559707E-07
vn -1 0 4.8559707E-07
vn 2.4835285E-07 -1.0622436E-07 -1
vn 2.4835285E-07 -1.0622436E-07 -1
vn 2.4835285E-07 -1.0622436E-07 -1
vn 2.4835285E-07 -1.0622436E-07 -1
vn -2.4835273E-07 -1.0622436E-07 -1
vn -2.4835273E-07 -1.0622436E-07 -1
vn -2.4835273E-07 -1.0622436E-07 -1
vn -2.4835273E-07 -1.0622436E-07 -1
vn -0 -1.062244E-07 -1
vn -0 -1.062244E-07 -1
vn -0 -1.062244E-07 -1
vn -0 -1.062244E-07 -1
vn 3.725293E-07 0 -1
vn 3.725293E-07 0 -1
vn 3.725293E-07 0 -1
vn 3.725293E-07 0 -1
vn -0 1.5020943E-07 1
vn -0 1.5020943E-07 1
vn -0 1.5020943E-07 1
vn -0 1.5020943E-07 1
vn -3.7792773E-07 0 1
vn -3.7792773E-07 0 1
vn -3.7792773E-07 0 1
vn -3.7792773E-07 0 1
vn 1 0 0
vn 1 0 0
vn 1 0 0
vn 1 0 0
vn -0 -1 0
vn -0 -1 0
vn -0 -1 0
vn -0 -1 0
vn -1 0 0
vn -1 0 0
vn -1 0 0
vn -1 0 0
vn 1.655685E-07 1.3140358E-07 1
vn 1.655685E-07 1.3140358E-07 1
vn 1.655685E-07 1.3140358E-07 1
vn 1.655685E-07 1.3140358E-07 1
g cabin-beach_0
f 3/3/3 2/2/2 1/1/1
f 4/4/4 3/3/3 1/1/1
f 7/7/7 6/6/6 5/5/5
f 8/8/8 7/7/7 5/5/5
f 11/11/11 10/10/10 9/9/9
f 12/12/12 11/11/11 9/9/9
f 15/15/15 14/14/14 13/13/13
f 16/16/16 15/15/15 13/13/13
f 19/19/19 18/18/18 17/17/17
f 20/20/20 19/19/19 17/17/17
f 23/23/23 22/22/22 21/21/21
f 24/24/24 23/23/23 21/21/21
f 27/27/27 26/26/26 25/25/25
f 28/28/28 27/27/27 25/25/25
f 31/31/31 30/30/30 29/29/29
f 30/30/30 32/32/32 29/29/29
f 33/33/33 29/29/29 32/32/32
f 34/34/34 33/33/33 32/32/32
f 34/34/34 35/35/35 33/33/33
f 35/35/35 36/36/36 33/33/33
f 39/39/39 38/38/38 37/37/37
f 40/40/40 39/39/39 37/37/37
f 43/43/43 42/42/42 41/41/41
f 44/44/44 43/43/43 41/41/41
f 47/47/47 46/46/46 45/45/45
f 48/48/48 47/47/47 45/45/45
f 51/51/51 50/50/50 49/49/49
f 52/52/52 51/51/51 49/49/49
f 55/55/55 54/54/54 53/53/53
f 56/56/56 55/55/55 53/53/53
f 59/59/59 58/58/58 57/57/57
f 60/60/60 59/59/59 57/57/57
f 63/63/63 62/62/62 61/61/61
f 64/64/64 63/63/63 61/61/61
f 67/67/67 66/66/66 65/65/65
f 68/68/68 67/67/67 65/65/65
f 71/71/71 70/70/70 69/69/69
f 72/72/72 71/71/71 69/69/69
f 75/75/75 74/74/74 73/73/73
f 76/76/76 75/75/75 73/73/73
f 79/79/79 78/78/78 77/77/77
f 80/80/80 79/79/79 77/77/77
f 83/83/83 82/82/82 81/81/81
f 84/84/84 83/83/83 81/81/81
f 87/87/87 86/86/86 85/85/85
f 88/88/88 87/87/87 85/85/85
f 91/91/91 90/90/90 89/89/89
f 92/92/92 91/91/91 89/89/89
f 95/95/95 94/94/94 93/93/93
f 96/96/96 95/95/95 93/93/93
f 99/99/99 98/98/98 97/97/97
f 100/100/100 99/99/99 97/97/97
f 103/103/103 102/102/102 101/101/101
f 104/104/104 103/103/103 101/101/101
f 107/107/107 106/106/106 105/105/105
f 108/108/108 107/107/107 105/105/105
f 111/111/111 110/110/110 109/109/109
f 112/112/112 111/111/111 109/109/109
f 115/115/115 114/114/114 113/113/113
f 116/116/116 115/115/115 113/113/113
f 119/119/119 118/118/118 117/117/117
f 120/120/120 119/119/119 117/117/117
f 123/123/123 122/122/122 121/121/121
f 124/124/124 123/123/123 121/121/121
f 127/127/127 126/126/126 125/125/125
f 128/128/128 127/127/127 125/125/125
f 131/131/131 130/130/130 129/129/129
f 132/132/132 131/131/131 129/129/129
g cabin-beach_1
f 135/135/135 134/134/134 133/133/133
f 134/134/134 135/135/135 136/136/136
f 139/139/139 138/138/138 137/137/137
f 140/140/140 139/139/139 137/137/137
f 143/143/143 142/142/142 141/141/141
f 142/142/142 143/143/143 144/144/144
f 147/147/147 146/146/146 145/145/145
f 148/148/148 147/147/147 145/145/145
f 151/151/151 150/150/150 149/149/149
f 152/152/152 151/151/151 149/149/149
f 155/155/155 154/154/154 153/153/153
f 156/156/156 155/155/155 153/153/153
f 159/159/159 158/158/158 157/157/157
f 160/160/160 159/159/159 157/157/157
f 163/163/163 162/162/162 161/161/161
f 164/164/164 163/163/163 161/161/161
f 167/167/167 166/166/166 165/165/165
f 168/168/168 167/167/167 165/165/165
f 171/171/171 170/170/170 169/169/169
f 172/172/172 171/171/171 169/169/169
f 175/175/175 174/174/174 173/173/173
f 176/176/176 175/175/175 173/173/173
f 179/179/179 178/178/178 177/177/177
f 180/180/180 179/179/179 177/177/177
f 183/183/183 182/182/182 181/181/181
f 184/184/184 183/183/183 181/181/181
f 187/187/187 186/186/186 185/185/185
f 188/188/188 187/187/187 185/185/185
f 191/191/191 190/190/190 189/189/189
f 192/192/192 191/191/191 189/189/189
f 195/195/195 194/194/194 193/193/193
f 196/196/196 195/195/195 193/193/193
f 199/199/199 198/198/198 197/197/197
f 200/200/200 199/199/199 197/197/197
f 200/200/200 197/197/197 201/201/201
f 202/202/202 200/200/200 201/201/201
f 203/203/203 202/202/202 201/201/201
f 204/204/204 203/203/203 201/201/201
f 207/207/207 206/206/206 205/205/205
f 208/208/208 207/207/207 205/205/205
f 211/211/211 210/210/210 209/209/209
f 212/212/212 211/211/211 209/209/209
f 215/215/215 214/214/214 213/213/213
f 216/216/216 215/215/215 213/213/213
f 219/219/219 218/218/218 217/217/217
f 220/220/220 219/219/219 217/217/217
