g fence
v -0.050590605 0.23594247 0.11089908
v -0.050590366 0.38823774 0.11089904
v -1.1192417 0.3925356 0.056762118
v -1.1192418 0.24024029 0.05676213
v -0.050590545 0.23594248 0.17115591
v -1.1192418 0.24024026 0.11701898
v -1.1192417 0.39253563 0.11701897
v -0.050590336 0.38823768 0.17115588
v -0.050590605 0.23594247 0.11089908
v 1.1107785 0.24024019 0.11701888
v 1.1107785 0.2402402 0.056762047
v -0.050590545 0.23594248 0.17115591
v -1.1192418 0.24024029 0.05676213
v -1.1192418 0.24024026 0.11701898
v -0.050590366 0.38823774 0.11089904
v -1.1192417 0.39253563 0.11701897
v -1.1192417 0.3925356 0.056762118
v -0.050590336 0.38823768 0.17115588
v 1.1107785 0.39253545 0.056762025
v 1.1107785 0.3925355 0.117018856
v -0.04368058 0.8207988 0.04017855
v -1.1186123 0.9559032 0.05676204
v -1.1186123 0.8036078 0.05676205
v -0.0436804 0.97309417 0.040178537
v 1.140569 0.8036077 0.056762
v 1.1405691 0.95590305 0.05676192
v -0.04368055 0.8207988 0.100435376
v -1.1186123 0.8036078 0.117018886
v -1.1186123 0.9559032 0.11701888
v -0.04368037 0.97309417 0.10043538
v 1.140569 0.8036077 0.11701882
v 1.1405691 0.95590305 0.11701883
v -0.04368058 0.8207988 0.04017855
v 1.140569 0.8036077 0.11701882
v 1.140569 0.8036077 0.056762
v -0.04368055 0.8207988 0.100435376
v -1.1186123 0.8036078 0.05676205
v -1.1186123 0.8036078 0.117018886
v -0.0436804 0.97309417 0.040178537
v -1.1186123 0.9559032 0.11701888
v -1.1186123 0.9559032 0.05676204
v -0.04368037 0.97309417 0.10043538
v 1.1405691 0.95590305 0.05676192
v 1.1405691 0.95590305 0.11701883
v -0.12842241 0.52273804 0.05676204
v -1.1174242 0.67503345 0.05676206
v -1.1174245 0.5227381 0.056762103
v -0.12842214 0.6750334 0.056762062
v 1.142134 0.54133403 0.05676201
v 1.1341561 0.6935126 0.056762
v -0.1284224 0.52273804 0.11701891
v -1.1174245 0.5227381 0.117018946
v -1.1174242 0.67503345 0.11701895
v -0.12842213 0.6750334 0.11701889
v 1.142134 0.54133403 0.11701884
v 1.1341561 0.6935126 0.117018834
v -0.12842241 0.52273804 0.05676204
v 1.142134 0.54133403 0.11701884
v 1.142134 0.54133403 0.05676201
v -0.1284224 0.52273804 0.11701891
v -1.1174245 0.5227381 0.056762103
v -1.1174245 0.5227381 0.117018946
v -0.12842214 0.6750334 0.056762062
v -1.1174242 0.67503345 0.11701895
v -1.1174242 0.67503345 0.05676206
v -0.12842213 0.6750334 0.11701889
v 1.1341561 0.6935126 0.056762
v 1.1341561 0.6935126 0.117018834
v 1.1107785 0.24024019 0.11701888
v -0.050590545 0.23594248 0.17115591
v -0.050590336 0.38823768 0.17115588
v 1.1107785 0.3925355 0.117018856
v 1.1107785 0.2402402 0.056762047
v 1.1107785 0.39253545 0.056762025
v -0.050590366 0.38823774 0.11089904
v -0.050590605 0.23594247 0.11089908
v -0.91302294 0.50127846 0.04031626
v -0.9266309 1.1110905 0.042236615
v -0.9266309 1.1110905 -0.04223687
v -0.91302294 0.5012786 -0.04031636
v -1.0523815 0.5011695 0.0401449
v -1.0722758 1.0961632 0.042279173
v -0.9994177 1.1036408 0.084509425
v -0.9828509 0.5012266 0.08045998
v -1.0698643 -0.00059507106 0.04032725
v -1.0000124 -7.63822E-06 0.08046025
v -0.9828509 0.50122654 -0.08046009
v -0.9994177 1.1036408 -0.084509544
v -1.0722758 1.0961632 -0.042279307
v -1.0523815 0.5011695 -0.04014499
v -1.0000124 -7.65782E-06 -0.08046022
v -1.0698643 -0.00059508084 -0.040327203
v -0.91302294 0.5012786 -0.04031636
v -0.9266309 1.1110905 -0.04223687
v -0.9994177 1.1036408 -0.084509544
v -0.9828509 0.50122654 -0.08046009
v -0.9304876 0.00059125264 -0.040138397
v -1.0000124 -7.65782E-06 -0.08046022
v -0.9828509 0.5012266 0.08045998
v -0.9994177 1.1036408 0.084509425
v -0.9266309 1.1110905 0.042236615
v -0.91302294 0.50127846 0.04031626
v -1.0000124 -7.63822E-06 0.08046025
v -0.9304876 0.0005912624 0.040138435
v -1.0523815 0.5011695 -0.04014499
v -1.0722758 1.0961632 -0.042279307
v -1.0722758 1.0961632 0.042279173
v -1.0523815 0.5011695 0.0401449
v -1.0698643 -0.00059508084 -0.040327203
v -1.0523815 0.5011695 -0.04014499
v -1.0523815 0.5011695 0.0401449
v -1.0698643 -0.00059507106 0.04032725
v -0.9304876 0.0005912624 0.040138435
v -0.91302294 0.50127846 0.04031626
v -0.91302294 0.5012786 -0.04031636
v -0.9304876 0.00059125264 -0.040138397
v 1.0580261 0.5011642 0.04019649
v 1.0697892 1.085004 0.04232626
v 1.0697892 1.085004 -0.042326514
v 1.0580261 0.50116426 -0.04019655
v 1.0701864 -0.00041316514 0.040296722
v 1.0701864 -0.00041317497 -0.0402967
v 0.9186963 0.5012405 0.040314205
v 0.9279914 1.122352 0.04218178
v 0.9987941 1.103821 0.084449336
v 0.9884646 0.5012171 0.080459446
v 0.93081856 0.00041133093 0.04016553
v 1.0003889 -3.6819627E-06 0.08045962
v 0.9884646 0.50121707 -0.08045955
v 0.9987941 1.103821 -0.08444959
v 0.9279914 1.122352 -0.042182032
v 0.9186963 0.50124055 -0.040314272
v 1.0003889 -3.7015623E-06 -0.0804596
v 0.93081856 0.00041132115 -0.040165484
v 1.0580261 0.50116426 -0.04019655
v 1.0697892 1.085004 -0.042326514
v 0.9987941 1.103821 -0.08444959
v 0.9884646 0.50121707 -0.08045955
v 0.9884646 0.5012171 0.080459446
v 0.9987941 1.103821 0.084449336
v 1.0697892 1.085004 0.04232626
v 1.0580261 0.5011642 0.04019649
v 1.0003889 -3.6819627E-06 0.08045962
v 1.0701864 -0.00041316514 0.040296722
v 0.9186963 0.50124055 -0.040314272
v 0.9279914 1.122352 -0.042182032
v 0.9279914 1.122352 0.04218178
v 0.9186963 0.5012405 0.040314205
v 0.93081856 0.00041132115 -0.040165484
v 0.93081856 0.00041133093 0.04016553
v 1.0701864 -0.00041317497 -0.0402967
v 1.0580261 0.50116426 -0.04019655
v 0.9884646 0.50121707 -0.08045955
v 1.0003889 -3.7015623E-06 -0.0804596
v -1.0722758 1.0961632 0.042279173
v -0.9266309 1.1110905 0.042236615
v -0.9994177 1.1036408 0.084509425
v -0.9266309 1.1110905 -0.04223687
v -1.0722758 1.0961632 -0.042279307
v -0.9994177 1.1036408 -0.084509544
v 0.9987941 1.103821 -0.08444959
v 1.0697892 1.085004 -0.042326514
v 1.0697892 1.085004 0.04232626
v 0.9987941 1.103821 0.084449336
v 0.9279914 1.122352 -0.042182032
v 0.9279914 1.122352 0.04218178
v -1.1192417 0.3925356 0.056762118
v -1.1192417 0.39253563 0.11701897
v -1.1192418 0.24024026 0.11701898
v -1.1192418 0.24024029 0.05676213
v 1.1107785 0.2402402 0.056762047
v 1.1107785 0.24024019 0.11701888
v 1.1107785 0.3925355 0.117018856
v 1.1107785 0.39253545 0.056762025
v -1.1186123 0.9559032 0.05676204
v -1.1186123 0.9559032 0.11701888
v -1.1186123 0.8036078 0.117018886
v -1.1186123 0.8036078 0.05676205
v 1.140569 0.8036077 0.056762
v 1.140569 0.8036077 0.11701882
v 1.1405691 0.95590305 0.11701883
v 1.1405691 0.95590305 0.05676192
v -1.1174242 0.67503345 0.05676206
v -1.1174242 0.67503345 0.11701895
v -1.1174245 0.5227381 0.117018946
v -1.1174245 0.5227381 0.056762103
v 1.142134 0.54133403 0.05676201
v 1.142134 0.54133403 0.11701884
v 1.1341561 0.6935126 0.117018834
v 1.1341561 0.6935126 0.056762
v -1.0000124 -7.65782E-06 -0.08046022
v -0.9304876 0.0005912624 0.040138435
v -0.9304876 0.00059125264 -0.040138397
v -1.0000124 -7.63822E-06 0.08046025
v -1.0698643 -0.00059508084 -0.040327203
v -1.0698643 -0.00059507106 0.04032725
v 1.0003889 -3.7015623E-06 -0.0804596
v 1.0701864 -0.00041316514 0.040296722
v 1.0701864 -0.00041317497 -0.0402967
v 1.0003889 -3.6819627E-06 0.08045962
v 0.93081856 0.00041132115 -0.040165484
v 0.93081856 0.00041133093 0.04016553
vt 0.3557391 0.44580024
vt 0.41911867 0.44578993
vt 0.4182111 0.00045651605
vt 0.35579455 0.0007625121
vt 0.50704265 0.44585127
vt 0.5072318 0.0018049714
vt 0.44286093 0.0016438732
vt 0.44414258 0.4458384
vt 0.5320562 0.44579986
vt 0.5072339 0.92828834
vt 0.5322733 0.9294442
vt 0.50704265 0.44585127
vt 0.5322733 0.00054858654
vt 0.5072318 0.0018049714
vt 0.41911867 0.44578993
vt 0.44286093 0.0016438732
vt 0.4182111 0.00045651605
vt 0.44414258 0.4458384
vt 0.41823873 0.9295354
vt 0.4428867 0.92844117
vt 0.17724852 0.4934816
vt 0.11368525 0.9396539
vt 0.17702237 0.9406986
vt 0.11397397 0.49341458
vt 0.17724851 0.0008277664
vt 0.11391246 0.0017470123
vt 0.025542026 0.49346027
vt 0.02590608 0.941029
vt 0.08865282 0.9400228
vt 0.08895857 0.49342647
vt 0.026136233 0.00045651605
vt 0.08887975 0.001400314
vt 0.00045651605 0.49343783
vt 0.026136233 0.00045651605
vt 0.0013013508 0.00076809665
vt 0.025542026 0.49346027
vt 0.0010703696 0.940673
vt 0.02590608 0.941029
vt 0.11397397 0.49341458
vt 0.08865282 0.9400228
vt 0.11368525 0.9396539
vt 0.08895857 0.49342647
vt 0.11391246 0.0017470123
vt 0.08887975 0.001400314
vt 0.3548261 0.5281498
vt 0.29141423 0.9385157
vt 0.35448977 0.93854994
vt 0.2915491 0.52765775
vt 0.35482606 0.00047181084
vt 0.2915897 0.0028595559
vt 0.20322756 0.5281095
vt 0.20336965 0.93851835
vt 0.2664469 0.9385103
vt 0.26650283 0.52764946
vt 0.20323986 0.00045651605
vt 0.2666101 0.0028564364
vt 0.17821418 0.5281156
vt 0.20323986 0.00045651605
vt 0.17816156 0.00045782415
vt 0.20322756 0.5281095
vt 0.17836441 0.9385276
vt 0.20336965 0.93851835
vt 0.2915491 0.52765775
vt 0.2664469 0.9385103
vt 0.29141423 0.9385157
vt 0.26650283 0.52764946
vt 0.2915897 0.0028595559
vt 0.2666101 0.0028564364
vt 0.5072339 0.92828834
vt 0.50704265 0.44585127
vt 0.44414258 0.4458384
vt 0.4428867 0.92844117
vt 0.35584414 0.92925966
vt 0.41823873 0.9295354
vt 0.41911867 0.44578993
vt 0.3557391 0.44580024
vt 0.66672283 0.21002588
vt 0.6630919 0.46258163
vt 0.69844365 0.46293962
vt 0.69996846 0.21025597
vt 0.60013384 0.20901816
vt 0.592867 0.4564888
vt 0.6278422 0.45966747
vt 0.6334647 0.20957288
vt 0.60004 0.0004595101
vt 0.6334828 0.0016926703
vt 0.5331864 0.2099907
vt 0.5380635 0.46089303
vt 0.5731332 0.45781425
vt 0.56667256 0.20953324
vt 0.533638 0.0016429723
vt 0.56680983 0.00045651605
vt 0.69996846 0.21025597
vt 0.69844365 0.46293962
vt 0.73374176 0.4607517
vt 0.7333148 0.21017988
vt 0.7003673 0.0029662254
vt 0.73374176 0.0017974211
vt 0.6334647 0.20957288
vt 0.6278422 0.45966747
vt 0.6630919 0.46258163
vt 0.66672283 0.21002588
vt 0.6334828 0.0016926703
vt 0.6668073 0.0029327378
vt 0.56667256 0.20953324
vt 0.5731332 0.45781425
vt 0.6083277 0.45677656
vt 0.60013384 0.20901816
vt 0.56680983 0.00045651605
vt 0.56667256 0.20953324
vt 0.60013384 0.20901816
vt 0.60004 0.0004595101
vt 0.6668073 0.0029327378
vt 0.66672283 0.21002588
vt 0.69996846 0.21025597
vt 0.7003673 0.0029662254
vt 0.79069006 0.6599104
vt 0.5473683 0.6596488
vt 0.5474227 0.69461244
vt 0.79069006 0.6934859
vt 0.99954355 0.6609508
vt 0.9993956 0.69419146
vt 0.7908281 0.5930088
vt 0.5331864 0.59070647
vt 0.5401158 0.6252755
vt 0.79070663 0.6264048
vt 0.9982429 0.5944387
vt 0.9988742 0.6277419
vt 0.791683 0.5263144
vt 0.54143095 0.52112705
vt 0.5336295 0.5555134
vt 0.79116994 0.55965155
vt 0.99954355 0.5276707
vt 0.9984681 0.5609862
vt 0.79069006 0.6934859
vt 0.5474227 0.69461244
vt 0.540288 0.7290504
vt 0.7906287 0.7269363
vt 0.79070663 0.6264048
vt 0.5401158 0.6252755
vt 0.5473683 0.6596488
vt 0.79069006 0.6599104
vt 0.9988742 0.6277419
vt 0.99954355 0.6609508
vt 0.79116994 0.55965155
vt 0.5336295 0.5555134
vt 0.5331864 0.59070647
vt 0.7908281 0.5930088
vt 0.9984681 0.5609862
vt 0.9982429 0.5944387
vt 0.9993956 0.69419146
vt 0.79069006 0.6934859
vt 0.7906287 0.7269363
vt 0.99844164 0.7273824
vt 0.592867 0.4564888
vt 0.6425779 0.4915262
vt 0.6278422 0.45966747
vt 0.62237054 0.520214
vt 0.57263935 0.4852054
vt 0.5874103 0.51706743
vt 0.7650491 0.07059917
vt 0.795551 0.053105723
vt 0.795551 0.017949982
vt 0.7650491 0.00045651605
vt 0.7346547 0.053045724
vt 0.7346547 0.018009963
vt 0.660594 0.7549878
vt 0.660594 0.7299635
vt 0.59734666 0.7299635
vt 0.59734666 0.7549878
vt 0.7346547 0.46276292
vt 0.759679 0.46276292
vt 0.759679 0.39951563
vt 0.7346547 0.39951566
vt 0.759679 0.33535528
vt 0.7346547 0.33535528
vt 0.7346547 0.3986026
vt 0.759679 0.3986026
vt 0.59643364 0.7549878
vt 0.59643364 0.7299635
vt 0.5331864 0.7299635
vt 0.5331864 0.75498784
vt 0.7346547 0.33444223
vt 0.7596791 0.33444226
vt 0.7596791 0.27119493
vt 0.7346547 0.27119493
vt 0.7346547 0.2702819
vt 0.759679 0.2702819
vt 0.759679 0.20699628
vt 0.7346547 0.20699628
vt 0.763529 0.13834146
vt 0.7346547 0.088257596
vt 0.7346547 0.12159605
vt 0.76352906 0.0715122
vt 0.7925391 0.12167448
vt 0.7925391 0.088179186
vt 0.7636417 0.20608324
vt 0.7346547 0.1559339
vt 0.7346547 0.18940383
vt 0.7636417 0.1392545
vt 0.79253435 0.18934935
vt 0.79253435 0.15598838
vn 0.050594248 0 -0.99871933
vn 0.050594248 0 -0.99871933
vn 0.050594248 0 -0.99871933
vn 0.050594248 0 -0.99871933
vn -0.050594233 0 0.99871933
vn -0.050594233 0 0.99871933
vn -0.050594233 0 0.99871933
vn -0.050594233 0 0.99871933
vn 0.003700516 -0.9999932 0
vn 0.003700516 -0.9999932 0
vn 0.003700516 -0.9999932 0
vn 0.003700516 -0.9999932 0
vn -0.0040216735 -0.9999919 0
vn -0.0040216735 -0.9999919 0
vn 0.0040217442 0.9999919 0
vn 0.0040217442 0.9999919 0
vn 0.0040217442 0.9999919 0
vn 0.0040217442 0.9999919 0
vn -0.0037005688 0.9999932 0
vn -0.0037005688 0.9999932 0
vn -0.015425652 0 -0.999881
vn -0.015425652 0 -0.999881
vn -0.015425652 0 -0.999881
vn -0.015425652 0 -0.999881
vn 0.01400194 0 -0.999902
vn 0.01400194 0 -0.999902
vn 0.015425651 0 0.999881
vn 0.015425651 0 0.999881
vn 0.015425651 0 0.999881
vn 0.015425651 0 0.999881
vn -0.014001959 0 0.999902
vn -0.014001959 0 0.999902
vn -0.014514924 -0.9998946 0
vn -0.014514924 -0.9998946 0
vn -0.014514924 -0.9998946 0
vn -0.014514924 -0.9998946 0
vn 0.015990552 -0.9998722 0
vn 0.015990552 -0.9998722 0
vn -0.01599056 0.9998722 0
vn -0.01599056 0.9998722 0
vn -0.01599056 0.9998722 0
vn -0.01599056 0.9998722 0
vn 0.014514872 0.9998946 0
vn 0.014514872 0.9998946 0
vn -0 0 -1
vn -0 0 -1
vn -0 0 -1
vn -0 0 -1
vn -0 0 -1
vn -0 0 -1
vn -0 0 1
vn -0 0 1
vn -0 0 1
vn -0 0 1
vn -0 0 1
vn -0 0 1
vn 0.014634534 -0.99989295 0
vn 0.014634534 -0.99989295 0
vn 0.014634534 -0.99989295 0
vn 0.014634534 -0.99989295 0
vn -0 -1 0
vn -0 -1 0
vn -0 1 0
vn -0 1 0
vn -0 1 0
vn -0 1 0
vn -0.014634545 0.99989295 0
vn -0.014634545 0.99989295 0
vn 0.046564274 0 0.9989153
vn 0.046564274 0 0.9989153
vn 0.046564274 0 0.9989153
vn 0.046564274 0 0.9989153
vn -0.046564262 0 -0.9989153
vn -0.046564262 0 -0.9989153
vn -0.046564262 0 -0.9989153
vn -0.046564262 0 -0.9989153
vn 0.99975115 0.022309484 0
vn 0.99975115 0.022309484 0
vn 0.99975115 0.022309484 0
vn 0.99975115 0.022309484 0
vn -0.5006577 -0.01971428 0.86542094
vn -0.5006577 -0.01971428 0.86542094
vn -0.5006577 -0.01971428 0.86542094
vn -0.5006577 -0.01971428 0.86542094
vn -0.49987012 0.0174235 0.865925
vn -0.49987012 0.0174235 0.865925
vn -0.5006576 -0.019714313 -0.86542094
vn -0.5006576 -0.019714313 -0.86542094
vn -0.5006576 -0.019714313 -0.86542094
vn -0.5006576 -0.019714313 -0.86542094
vn -0.49986997 0.017423268 -0.8659252
vn -0.49986997 0.017423268 -0.8659252
vn 0.5000149 0.008181621 -0.8659781
vn 0.5000149 0.008181621 -0.8659781
vn 0.5000149 0.008181621 -0.8659781
vn 0.5000149 0.008181621 -0.8659781
vn 0.5000328 -0.017434673 -0.8658309
vn 0.5000328 -0.017434673 -0.8658309
vn 0.5000149 0.00818174 0.8659781
vn 0.5000149 0.00818174 0.8659781
vn 0.5000149 0.00818174 0.8659781
vn 0.5000149 0.00818174 0.8659781
vn 0.50003237 -0.017434407 0.86583126
vn 0.50003237 -0.017434407 0.86583126
vn -0.99944144 -0.033417385 0
vn -0.99944144 -0.033417385 0
vn -0.99944144 -0.033417385 0
vn -0.99944144 -0.033417385 0
vn -0.9993936 0.034821425 0
vn -0.9993936 0.034821425 0
vn -0.9993936 0.034821425 0
vn -0.9993936 0.034821425 0
vn 0.9993923 -0.034860134 0
vn 0.9993923 -0.034860134 0
vn 0.9993923 -0.034860134 0
vn 0.9993923 -0.034860134 0
vn 0.99979717 -0.020143727 0
vn 0.99979717 -0.020143727 0
vn 0.99979717 -0.020143727 0
vn 0.99979717 -0.020143727 0
vn 0.9997062 0.024236996 0
vn 0.9997062 0.024236996 0
vn -0.50536716 0.0039741606 0.8628953
vn -0.50536716 0.0039741606 0.8628953
vn -0.50536716 0.0039741606 0.8628953
vn -0.50536716 0.0039741606 0.8628953
vn -0.49995524 -0.012125937 0.8659663
vn -0.49995524 -0.012125937 0.8659663
vn -0.50536734 0.0039739273 -0.8628952
vn -0.50536734 0.0039739273 -0.8628952
vn -0.50536734 0.0039739273 -0.8628952
vn -0.50536734 0.0039739273 -0.8628952
vn -0.49995533 -0.012126137 -0.86596626
vn -0.49995533 -0.012126137 -0.86596626
vn 0.50424546 -0.013843375 -0.8634494
vn 0.50424546 -0.013843375 -0.8634494
vn 0.50424546 -0.013843375 -0.8634494
vn 0.50424546 -0.013843375 -0.8634494
vn 0.5042453 -0.013843126 0.8634495
vn 0.5042453 -0.013843126 0.8634495
vn 0.5042453 -0.013843126 0.8634495
vn 0.5042453 -0.013843126 0.8634495
vn 0.49983904 0.0120915305 0.8660339
vn 0.49983904 0.0120915305 0.8660339
vn -0.99988806 0.014963603 0
vn -0.99988806 0.014963603 0
vn -0.99988806 0.014963603 0
vn -0.99988806 0.014963603 0
vn -0.99970716 -0.02419732 0
vn -0.99970716 -0.02419732 0
vn 0.499839 0.012091347 -0.8660339
vn 0.499839 0.012091347 -0.8660339
vn 0.499839 0.012091347 -0.8660339
vn 0.499839 0.012091347 -0.8660339
vn -0.10195833 0.99478865 -8.076618E-05
vn -0.10195833 0.99478865 -8.076618E-05
vn -0.10195833 0.99478865 -8.076618E-05
vn -0.10195833 0.99478865 -8.076618E-05
vn -0.10195867 0.99478865 8.071209E-05
vn -0.10195867 0.99478865 8.071209E-05
vn 0.2562018 0.96662337 0
vn 0.2562018 0.96662337 0
vn 0.2562018 0.96662337 0
vn 0.2562018 0.96662337 0
vn 0.2531972 0.96741474 0
vn 0.2531972 0.96741474 0
vn -1 0 0
vn -1 0 0
vn -1 0 0
vn -1 0 0
vn 1 0 0
vn 1 0 0
vn 1 0 0
vn 1 0 0
vn -1 0 0
vn -1 0 0
vn -1 0 0
vn -1 0 0
vn 1 0 0
vn 1 0 0
vn 1 0 0
vn 1 0 0
vn -1 0 0
vn -1 0 0
vn -1 0 0
vn -1 0 0
vn 0.99862874 0.052352328 0
vn 0.99862874 0.052352328 0
vn 0.99862874 0.052352328 0
vn 0.99862874 0.052352328 0
vn 0.00861395 -0.9999629 0
vn 0.00861395 -0.9999629 0
vn 0.00861395 -0.9999629 0
vn 0.00861395 -0.9999629 0
vn 0.008409325 -0.9999647 0
vn 0.008409325 -0.9999647 0
vn -0.0058665588 -0.99998283 0
vn -0.0058665588 -0.99998283 0
vn -0.0058665588 -0.99998283 0
vn -0.0058665588 -0.99998283 0
vn -0.005965339 -0.99998224 0
vn -0.005965339 -0.99998224 0
g fence_0
f 3/3/3 2/2/2 1/1/1
f 4/4/4 3/3/3 1/1/1
f 7/7/7 6/6/6 5/5/5
f 8/8/8 7/7/7 5/5/5
f 11/11/11 10/10/10 9/9/9
f 10/10/10 12/12/12 9/9/9
f 9/9/9 12/12/12 13/13/13
f 12/12/12 14/14/14 13/13/13
f 17/17/17 16/16/16 15/15/15
f 16/16/16 18/18/18 15/15/15
f 15/15/15 18/18/18 19/19/19
f 18/18/18 20/20/20 19/19/19
f 23/23/23 22/22/22 21/21/21
f 22/22/22 24/24/24 21/21/21
f 21/21/21 24/24/24 25/25/25
f 24/24/24 26/26/26 25/25/25
f 29/29/29 28/28/28 27/27/27
f 30/30/30 29/29/29 27/27/27
f 30/30/30 27/27/27 31/31/31
f 32/32/32 30/30/30 31/31/31
f 35/35/35 34/34/34 33/33/33
f 34/34/34 36/36/36 33/33/33
f 33/33/33 36/36/36 37/37/37
f 36/36/36 38/38/38 37/37/37
f 41/41/41 40/40/40 39/39/39
f 40/40/40 42/42/42 39/39/39
f 39/39/39 42/42/42 43/43/43
f 42/42/42 44/44/44 43/43/43
f 47/47/47 46/46/46 45/45/45
f 46/46/46 48/48/48 45/45/45
f 45/45/45 48/48/48 49/49/49
f 48/48/48 50/50/50 49/49/49
f 53/53/53 52/52/52 51/51/51
f 54/54/54 53/53/53 51/51/51
f 54/54/54 51/51/51 55/55/55
f 56/56/56 54/54/54 55/55/55
f 59/59/59 58/58/58 57/57/57
f 58/58/58 60/60/60 57/57/57
f 57/57/57 60/60/60 61/61/61
f 60/60/60 62/62/62 61/61/61
f 65/65/65 64/64/64 63/63/63
f 64/64/64 66/66/66 63/63/63
f 63/63/63 66/66/66 67/67/67
f 66/66/66 68/68/68 67/67/67
f 71/71/71 70/70/70 69/69/69
f 72/72/72 71/71/71 69/69/69
f 75/75/75 74/74/74 73/73/73
f 76/76/76 75/75/75 73/73/73
g fence_1
f 79/79/79 78/78/78 77/77/77
f 80/80/80 79/79/79 77/77/77
f 83/83/83 82/82/82 81/81/81
f 84/84/84 83/83/83 81/81/81
f 84/84/84 81/81/81 85/85/85
f 86/86/86 84/84/84 85/85/85
f 89/89/89 88/88/88 87/87/87
f 90/90/90 89/89/89 87/87/87
f 90/90/90 87/87/87 91/91/91
f 92/92/92 90/90/90 91/91/91
f 95/95/95 94/94/94 93/93/93
f 96/96/96 95/95/95 93/93/93
f 96/96/96 93/93/93 97/97/97
f 98/98/98 96/96/96 97/97/97
f 101/101/101 100/100/100 99/99/99
f 102/102/102 101/101/101 99/99/99
f 102/102/102 99/99/99 103/103/103
f 104/104/104 102/102/102 103/103/103
f 107/107/107 106/106/106 105/105/105
f 108/108/108 107/107/107 105/105/105
f 111/111/111 110/110/110 109/109/109
f 112/112/112 111/111/111 109/109/109
f 115/115/115 114/114/114 113/113/113
f 116/116/116 115/115/115 113/113/113
f 119/119/119 118/118/118 117/117/117
f 120/120/120 119/119/119 117/117/117
f 120/120/120 117/117/117 121/121/121
f 122/122/122 120/120/120 121/121/121
f 125/125/125 124/124/124 123/123/123
f 126/126/126 125/125/125 123/123/123
f 126/126/126 123/123/123 127/127/127
f 128/128/128 126/126/126 127/127/127
f 131/131/131 130/130/130 129/129/129
f 132/132/132 131/131/131 129/129/129
f 132/132/132 129/129/129 133/133/133
f 134/134/134 132/132/132 133/133/133
f 137/137/137 136/136/136 135/135/135
f 138/138/138 137/137/137 135/135/135
f 141/141/141 140/140/140 139/139/139
f 142/142/142 141/141/141 139/139/139
f 142/142/142 139/139/139 143/143/143
f 144/144/144 142/142/142 143/143/143
f 147/147/147 146/146/146 145/145/145
f 148/148/148 147/147/147 145/145/145
f 148/148/148 145/145/145 149/149/149
f 150/150/150 148/148/148 149/149/149
f 153/153/153 152/152/152 151/151/151
f 154/154/154 153/153/153 151/151/151
g fence_2
f 157/157/157 156/156/156 155/155/155
f 156/156/156 158/158/158 155/155/155
f 155/155/155 158/158/158 159/159/159
f 158/158/158 160/160/160 159/159/159
f 163/163/163 162/162/162 161/161/161
f 164/164/164 163/163/163 161/161/161
f 164/164/164 161/161/161 165/165/165
f 166/166/166 164/164/164 165/165/165
f 169/169/169 168/168/168 167/167/167
f 170/170/170 169/169/169 167/167/167
f 173/173/173 172/172/172 171/171/171
f 174/174/174 173/173/173 171/171/171
f 177/177/177 176/176/176 175/175/175
f 178/178/178 177/177/177 175/175/175
f 181/181/181 180/180/180 179/179/179
f 182/182/182 181/181/181 179/179/179
f 185/185/185 184/184/184 183/183/183
f 186/186/186 185/185/185 183/183/183
f 189/189/189 188/188/188 187/187/187
f 190/190/190 189/189/189 187/187/187
f 193/193/193 192/192/192 191/191/191
f 192/192/192 194/194/194 191/191/191
f 191/191/191 194/194/194 195/195/195
f 194/194/194 196/196/196 195/195/195
f 199/199/199 198/198/198 197/197/197
f 198/198/198 200/200/200 197/197/197
f 197/197/197 200/200/200 201/201/201
f 200/200/200 202/202/202 201/201/201
