g lantern
v 0.04270549 0.3971202 -0.04270549
v -0 0.40570047 0
v -0.04270549 0.3971202 -0.04270549
v -0.04270549 0.3971202 0.04270549
v -0 0.40570047 0
v 0.04270549 0.3971202 0.04270549
v 0.04270549 0.3971202 0.04270549
v -0 0.40570047 0
v 0.04270549 0.3971202 -0.04270549
v -0.04270549 0.3971202 -0.04270549
v -0 0.40570047 0
v -0.04270549 0.3971202 0.04270549
v -0.099999905 0 0.099999905
v 0.099999905 0 0.099999905
v 0.099999905 0 -0.099999905
v -0.099999905 0 -0.099999905
v 0.07253181 0.33085173 0.07253181
v 0.04270549 0.3971202 0.04270549
v 0.04270549 0.3971202 -0.04270549
v 0.07253181 0.33085173 -0.07253181
v -0.07253181 0.33085173 -0.07253181
v -0.04270549 0.3971202 -0.04270549
v -0.04270549 0.3971202 0.04270549
v -0.07253181 0.33085173 0.07253181
v 0.07253181 0.33085173 -0.07253181
v 0.04270549 0.3971202 -0.04270549
v -0.04270549 0.3971202 -0.04270549
v -0.07253181 0.33085173 -0.07253181
v -0.07253181 0.33085173 0.07253181
v -0.04270549 0.3971202 0.04270549
v 0.04270549 0.3971202 0.04270549
v 0.07253181 0.33085173 0.07253181
v -0.10618834 0.30080044 0.10618834
v -0.07253181 0.33085173 0.07253181
v 0.07253181 0.33085173 0.07253181
v 0.10618834 0.30080044 0.10618834
v 0.10618834 0.30080044 -0.10618834
v 0.07253181 0.33085173 -0.07253181
v -0.07253181 0.33085173 -0.07253181
v -0.10618834 0.30080044 -0.10618834
v -0.10618834 0.30080044 -0.10618834
v -0.07253181 0.33085173 -0.07253181
v -0.07253181 0.33085173 0.07253181
v -0.10618834 0.30080044 0.10618834
v 0.10618834 0.30080044 0.10618834
v 0.07253181 0.33085173 0.07253181
v 0.07253181 0.33085173 -0.07253181
v 0.10618834 0.30080044 -0.10618834
v 0.099999905 0.28 0.099999905
v 0.10618834 0.30080044 0.10618834
v 0.10618834 0.30080044 -0.10618834
v 0.099999905 0.28 -0.099999905
v -0.099999905 0.28 -0.099999905
v -0.10618834 0.30080044 -0.10618834
v -0.10618834 0.30080044 0.10618834
v -0.099999905 0.28 0.099999905
v 0.099999905 0.28 -0.099999905
v 0.10618834 0.30080044 -0.10618834
v -0.10618834 0.30080044 -0.10618834
v -0.099999905 0.28 -0.099999905
v -0.099999905 0.28 0.099999905
v -0.10618834 0.30080044 0.10618834
v 0.10618834 0.30080044 0.10618834
v 0.099999905 0.28 0.099999905
v -0.017100839 0.45656058 -0.006208989
v -0 0.4828189 -0.0062089884
v -0.031290755 0.46475315 -0.006208989
v -0 0.46643373 -0.006208989
v 0.017100839 0.45656058 -0.006208989
v 0.031290755 0.46475315 -0.006208989
v -0 0.4828189 -0.0062089884
v 0.017100839 0.45656058 -0.006208989
v 0.031290755 0.42862165 -0.006208991
v 0.017100839 0.43681425 -0.006208991
v -5.0172093E-09 0.42694107 -0.006208991
v 3.1587117E-09 0.4105559 -0.006208993
v 0.031290755 0.42862165 -0.006208991
v -0.017100839 0.45656058 0.0067338934
v -0.031290755 0.46475315 0.0067338934
v -0 0.4828189 0.0067338953
v -0 0.46643373 0.0067338934
v -0 0.4828189 0.0067338953
v 0.031290755 0.46475315 0.0067338934
v 0.017100839 0.45656058 0.0067338934
v 0.017100839 0.45656058 0.0067338934
v 0.031290755 0.42862165 0.006733891
v 0.017100839 0.43681425 0.006733892
v 0.031290755 0.42862165 0.006733891
v 3.1587117E-09 0.4105559 0.0067338906
v -5.0172093E-09 0.42694107 0.006733891
v -0.017100839 0.43681422 0.006733892
v -0.031290755 0.42862165 0.006733891
v -0.031290755 0.46475315 0.0067338934
v -0.017100839 0.45656058 0.0067338934
v -5.0172093E-09 0.42694107 0.006733891
v 3.1587117E-09 0.4105559 0.0067338906
v -0.031290755 0.42862165 0.006733891
v -0.017100839 0.43681422 0.006733892
v -0.017100839 0.43681422 -0.006208991
v -0.017100839 0.45656058 -0.006208989
v -0.031290755 0.46475315 -0.006208989
v -0.031290755 0.42862165 -0.006208991
v -5.0172093E-09 0.42694107 -0.006208991
v -0.017100839 0.43681422 -0.006208991
v -0.031290755 0.42862165 -0.006208991
v 3.1587117E-09 0.4105559 -0.006208993
v 0.017100839 0.43681425 0.006733892
v -5.0172093E-09 0.42694107 0.006733891
v -5.0172093E-09 0.42694107 -0.006208991
v 0.017100839 0.43681425 -0.006208991
v 0.031290755 0.42862165 0.006733891
v 0.031290755 0.46475315 0.0067338934
v 0.031290755 0.46475315 -0.006208989
v 0.031290755 0.42862165 -0.006208991
v -0.017100839 0.45656058 0.0067338934
v -0 0.46643373 0.0067338934
v -0 0.46643373 -0.006208989
v -0.017100839 0.45656058 -0.006208989
v -0.031290755 0.46475315 0.0067338934
v -0.031290755 0.42862165 0.006733891
v -0.031290755 0.42862165 -0.006208991
v -0.031290755 0.46475315 -0.006208989
v 0.017100839 0.45656058 0.0067338934
v 0.017100839 0.43681425 0.006733892
v 0.017100839 0.43681425 -0.006208991
v 0.017100839 0.45656058 -0.006208989
v 0.031290755 0.46475315 0.0067338934
v -0 0.4828189 0.0067338953
v -0 0.4828189 -0.0062089884
v 0.031290755 0.46475315 -0.006208989
v -0.017100839 0.43681422 0.006733892
v -0.017100839 0.45656058 0.0067338934
v -0.017100839 0.45656058 -0.006208989
v -0.017100839 0.43681422 -0.006208991
v -0.031290755 0.42862165 0.006733891
v 3.1587117E-09 0.4105559 0.0067338906
v 3.1587117E-09 0.4105559 -0.006208993
v -0.031290755 0.42862165 -0.006208991
v -0 0.46643373 0.0067338934
v 0.017100839 0.45656058 0.0067338934
v 0.017100839 0.45656058 -0.006208989
v -0 0.46643373 -0.006208989
v -5.0172093E-09 0.42694107 0.006733891
v -0.017100839 0.43681422 0.006733892
v -0.017100839 0.43681422 -0.006208991
v -5.0172093E-09 0.42694107 -0.006208991
v 3.1587117E-09 0.4105559 0.0067338906
v 0.031290755 0.42862165 0.006733891
v 0.031290755 0.42862165 -0.006208991
v 3.1587117E-09 0.4105559 -0.006208993
v -0 0.4828189 0.0067338953
v -0.031290755 0.46475315 0.0067338934
v -0.031290755 0.46475315 -0.006208989
v -0 0.4828189 -0.0062089884
v 0.018905692 0.383183 0.018905692
v 0.006990952 0.4336167 0.006990952
v 0.006990952 0.4336167 -0.006990952
v 0.018905692 0.383183 -0.018905692
v -0.018905692 0.383183 -0.018905692
v -0.006990952 0.4336167 -0.006990952
v -0.006990952 0.4336167 0.006990952
v -0.018905692 0.383183 0.018905692
v 0.018905692 0.383183 -0.018905692
v 0.006990952 0.4336167 -0.006990952
v -0.006990952 0.4336167 -0.006990952
v -0.018905692 0.383183 -0.018905692
v -0.018905692 0.383183 0.018905692
v -0.006990952 0.4336167 0.006990952
v 0.006990952 0.4336167 0.006990952
v 0.018905692 0.383183 0.018905692
v -0.006990952 0.4336167 -0.006990952
v 0.006990952 0.4336167 -0.006990952
v 0.006990952 0.4336167 0.006990952
v -0.006990952 0.4336167 0.006990952
v -0.099999905 0.28 -0.099999905
v 0.07599991 0.256 -0.099999905
v 0.099999905 0.28 -0.099999905
v -0.07599991 0.256 -0.099999905
v 0.07599991 0.04 -0.099999905
v -0.099999905 0 -0.099999905
v 0.099999905 0 -0.099999905
v -0.07599991 0.04 -0.099999905
v 0.099999905 0 0.099999905
v 0.07599991 0.256 0.099999905
v 0.099999905 0.28 0.099999905
v 0.07599991 0.04 0.099999905
v -0.07599991 0.256 0.099999905
v -0.099999905 0 0.099999905
v -0.099999905 0.28 0.099999905
v -0.07599991 0.04 0.099999905
v -0.099999905 0 -0.099999905
v -0.099999905 0.04 -0.07599991
v -0.099999905 0.04 0.07599991
v -0.099999905 0 0.099999905
v -0.099999905 0.28 -0.099999905
v -0.099999905 0.256 0.07599991
v -0.099999905 0.256 -0.07599991
v -0.099999905 0.28 0.099999905
v 0.099999905 0 0.099999905
v 0.099999905 0.04 0.07599991
v 0.099999905 0.04 -0.07599991
v 0.099999905 0 -0.099999905
v 0.099999905 0.28 0.099999905
v 0.099999905 0.256 -0.07599991
v 0.099999905 0.256 0.07599991
v 0.099999905 0.28 -0.099999905
v -0.07599991 0.04 0.099999905
v -0.07599991 0.256 0.099999905
v 0.07599991 0.256 0.099999905
v 0.07599991 0.04 0.099999905
v 0.07599991 0.04 -0.099999905
v 0.07599991 0.256 -0.099999905
v -0.07599991 0.256 -0.099999905
v -0.07599991 0.04 -0.099999905
v -0.099999905 0.04 -0.07599991
v -0.099999905 0.256 -0.07599991
v -0.099999905 0.256 0.07599991
v -0.099999905 0.04 0.07599991
v 0.099999905 0.04 0.07599991
v 0.099999905 0.256 0.07599991
v 0.099999905 0.256 -0.07599991
v 0.099999905 0.04 -0.07599991
vt 0.37168705 0.91992825
vt 0.32101142 0.9474905
vt 0.34857365 0.99816614
vt 0.2703358 0.9750527
vt 0.32101142 0.9474905
vt 0.29344913 0.8968149
vt 0.29344913 0.8968149
vt 0.32101142 0.9474905
vt 0.37168705 0.91992825
vt 0.34857365 0.99816614
vt 0.32101142 0.9474905
vt 0.2703358 0.9750527
vt 0.26579353 0.19037637
vt 0.26579365 0.3789187
vt 0.45433593 0.37891856
vt 0.4543358 0.19037625
vt 0.29487216 0.8245076
vt 0.29344913 0.8968149
vt 0.37168705 0.91992825
vt 0.41755372 0.8602961
vt 0.08638555 0.9805924
vt 0.16566944 0.998166
vt 0.21515402 0.92551637
vt 0.17323758 0.8642753
vt 0.41755372 0.8602961
vt 0.37168705 0.91992825
vt 0.42070904 0.993972
vt 0.5008275 0.97811866
vt 0.17323758 0.8642753
vt 0.21515402 0.92551637
vt 0.29344913 0.8968149
vt 0.29487216 0.8245076
vt 0.14851506 0.8229035
vt 0.17323758 0.8642753
vt 0.29487216 0.8245076
vt 0.29746374 0.7806838
vt 0.4408444 0.8294562
vt 0.41755372 0.8602961
vt 0.5008275 0.97811866
vt 0.55577254 0.9802348
vt 0.013519115 0.9728574
vt 0.08638555 0.9805924
vt 0.17323758 0.8642753
vt 0.14851506 0.8229035
vt 0.29746374 0.7806838
vt 0.29487216 0.8245076
vt 0.41755372 0.8602961
vt 0.4408444 0.8294562
vt 0.29607382 0.75967145
vt 0.29746374 0.7806838
vt 0.4408444 0.8294562
vt 0.45296884 0.8105564
vt 0.0018338391 0.9535701
vt 0.013519115 0.9728574
vt 0.14851506 0.8229035
vt 0.13781707 0.8071021
vt 0.45296884 0.8105564
vt 0.4408444 0.8294562
vt 0.55577254 0.9802348
vt 0.5730097 0.957498
vt 0.13781707 0.8071021
vt 0.14851506 0.8229035
vt 0.29746374 0.7806838
vt 0.29607382 0.75967145
vt 0.6224466 0.25222254
vt 0.6339697 0.2755359
vt 0.6362394 0.25295165
vt 0.6159761 0.2748426
vt 0.62052613 0.29820812
vt 0.63383836 0.29858938
vt 0.6339697 0.2755359
vt 0.62052613 0.29820812
vt 0.6323448 0.3226949
vt 0.6147697 0.32108256
vt 0.6049636 0.34850115
vt 0.62595356 0.36634192
vt 0.6323448 0.3226949
vt 0.65735215 0.25627482
vt 0.64439976 0.25424197
vt 0.643199 0.27651054
vt 0.65916574 0.27715203
vt 0.643199 0.27651054
vt 0.6431304 0.29939842
vt 0.6557959 0.29929662
vt 0.6557959 0.29929662
vt 0.64298004 0.32386252
vt 0.6606288 0.32377398
vt 0.64298004 0.32386252
vt 0.64678186 0.36634192
vt 0.66776764 0.3501435
vt 0.6567351 0.23712993
vt 0.6460585 0.23470403
vt 0.64439976 0.25424197
vt 0.65735215 0.25627482
vt 0.65979177 0.21906888
vt 0.6500727 0.20997965
vt 0.6460585 0.23470403
vt 0.6567351 0.23712993
vt 0.6270726 0.23385732
vt 0.6224466 0.25222254
vt 0.6362394 0.25295165
vt 0.63831097 0.2335535
vt 0.62625945 0.216792
vt 0.6270726 0.23385732
vt 0.63831097 0.2335535
vt 0.6381854 0.20912752
vt 0.6606288 0.32377398
vt 0.66776764 0.3501435
vt 0.68436044 0.34500402
vt 0.6765194 0.31968936
vt 0.64298004 0.32386252
vt 0.6431304 0.29939842
vt 0.63383836 0.29858938
vt 0.6323448 0.3226949
vt 0.65735215 0.25627482
vt 0.65916574 0.27715203
vt 0.67201686 0.27658147
vt 0.6700293 0.25521997
vt 0.64439976 0.25424197
vt 0.6460585 0.23470403
vt 0.63831097 0.2335535
vt 0.6362394 0.25295165
vt 0.6557959 0.29929662
vt 0.6606288 0.32377398
vt 0.6765194 0.31968936
vt 0.6713436 0.29748437
vt 0.6431304 0.29939842
vt 0.643199 0.27651054
vt 0.6339697 0.2755359
vt 0.63383836 0.29858938
vt 0.6567351 0.23712993
vt 0.65735215 0.25627482
vt 0.6700293 0.25521997
vt 0.6687016 0.23703063
vt 0.6460585 0.23470403
vt 0.6500727 0.20997965
vt 0.6381854 0.20912752
vt 0.63831097 0.2335535
vt 0.65916574 0.27715203
vt 0.6557959 0.29929662
vt 0.6713436 0.29748437
vt 0.67201686 0.27658147
vt 0.65979177 0.21906888
vt 0.6567351 0.23712993
vt 0.6687016 0.23703063
vt 0.6701324 0.22030143
vt 0.64678186 0.36634192
vt 0.64298004 0.32386252
vt 0.6323448 0.3226949
vt 0.62595356 0.36634192
vt 0.643199 0.27651054
vt 0.64439976 0.25424197
vt 0.6362394 0.25295165
vt 0.6339697 0.2755359
vt 0.54762876 0.6294535
vt 0.522229 0.676445
vt 0.53277457 0.68572265
vt 0.5761472 0.654543
vt 0.4679569 0.64910996
vt 0.50441915 0.6709327
vt 0.5132854 0.66757625
vt 0.5026602 0.6237149
vt 0.4580036 0.68265015
vt 0.50710815 0.6857226
vt 0.50441915 0.6709327
vt 0.4679569 0.64910996
vt 0.5026602 0.6237149
vt 0.5132854 0.66757625
vt 0.522229 0.676445
vt 0.54762876 0.6294535
vt 0.50441915 0.6709327
vt 0.50710815 0.6857226
vt 0.522229 0.676445
vt 0.5132854 0.66757625
vt 0.0018345806 0.7560038
vt 0.024459422 0.59008634
vt 0.0018342905 0.5674613
vt 0.024459599 0.7333786
vt 0.22808547 0.59008616
vt 0.26579416 0.7560033
vt 0.26579386 0.567461
vt 0.2280856 0.73337835
vt 0.26579365 0.3789187
vt 0.024459083 0.35629368
vt 0.0018340326 0.3789188
vt 0.2280851 0.3562936
vt 0.024459051 0.21300147
vt 0.26579353 0.19037637
vt 0.0018339036 0.19037634
vt 0.22808513 0.21300144
vt 0.2657935 0.0018340003
vt 0.22808509 0.024459068
vt 0.22808501 0.16775125
vt 0.26579353 0.19037637
vt 0.0018338391 0.0018338391
vt 0.02445897 0.16775121
vt 0.024459003 0.024459003
vt 0.0018339036 0.19037634
vt 0.26579365 0.3789187
vt 0.22808525 0.4015438
vt 0.22808531 0.544836
vt 0.26579386 0.567461
vt 0.0018340326 0.3789188
vt 0.02445931 0.5448361
vt 0.024459196 0.4015439
vt 0.0018342905 0.5674613
vt 0.4580036 0.4164212
vt 0.4580037 0.6200472
vt 0.6012959 0.6200472
vt 0.6012959 0.41642118
vt 0.6049636 0.0018338391
vt 0.6049636 0.20545983
vt 0.74825585 0.20545983
vt 0.7482558 0.0018338391
vt 0.4580036 0.20912755
vt 0.4580037 0.41275352
vt 0.6012959 0.41275352
vt 0.6012959 0.20912752
vt 0.4580036 0.0018338552
vt 0.4580037 0.20545985
vt 0.6012959 0.20545985
vt 0.6012959 0.0018338391
vn -0 0.9804073 -0.19698136
vn -0 0.9804073 -0.19698136
vn -0 0.9804073 -0.19698136
vn -0 0.9804073 0.19698136
vn -0 0.9804073 0.19698136
vn -0 0.9804073 0.19698136
vn 0.19698197 0.98040706 0
vn 0.19698197 0.98040706 0
vn 0.19698197 0.98040706 0
vn -0.19698197 0.98040706 0
vn -0.19698197 0.98040706 0
vn -0.19698197 0.98040706 0
vn -0 -1 0
vn -0 -1 0
vn -0 -1 0
vn -0 -1 0
vn 0.9118931 0.41042772 0
vn 0.9118931 0.41042772 0
vn 0.9118931 0.41042772 0
vn 0.9118931 0.41042772 0
vn -0.9118931 0.41042772 0
vn -0.9118931 0.41042772 0
vn -0.9118931 0.41042772 0
vn -0.9118931 0.41042772 0
vn -0 0.41042784 -0.911893
vn -0 0.41042784 -0.911893
vn -0 0.41042784 -0.911893
vn -0 0.41042784 -0.911893
vn -0 0.41042784 0.911893
vn -0 0.41042784 0.911893
vn -0 0.41042784 0.911893
vn -0 0.41042784 0.911893
vn -0 0.7459283 0.66602623
vn -0 0.7459283 0.66602623
vn -0 0.7459283 0.66602623
vn -0 0.7459283 0.66602623
vn -0 0.7459283 -0.66602623
vn -0 0.7459283 -0.66602623
vn -0 0.7459283 -0.66602623
vn -0 0.7459283 -0.66602623
vn -0.6660259 0.7459286 0
vn -0.6660259 0.7459286 0
vn -0.6660259 0.7459286 0
vn -0.6660259 0.7459286 0
vn 0.6660259 0.7459286 0
vn 0.6660259 0.7459286 0
vn 0.6660259 0.7459286 0
vn 0.6660259 0.7459286 0
vn 0.9584794 -0.2851618 0
vn 0.9584794 -0.2851618 0
vn 0.9584794 -0.2851618 0
vn 0.9584794 -0.2851618 0
vn -0.9584794 -0.2851618 0
vn -0.9584794 -0.2851618 0
vn -0.9584794 -0.2851618 0
vn -0.9584794 -0.2851618 0
vn -0 -0.28516164 -0.9584794
vn -0 -0.28516164 -0.9584794
vn -0 -0.28516164 -0.9584794
vn -0 -0.28516164 -0.9584794
vn -0 -0.28516164 0.9584794
vn -0 -0.28516164 0.9584794
vn -0 -0.28516164 0.9584794
vn -0 -0.28516164 0.9584794
vn -0 0 -1
vn -0 0 -1
vn -0 0 -1
vn -0 0 -1
vn -0 0 -1
vn -0 0 -1
vn -0 0 -1
vn -0 0 -1
vn -0 0 -1
vn -0 0 -1
vn -0 0 -1
vn -0 0 -1
vn -0 0 -1
vn -0 0 1
vn -0 0 1
vn -0 0 1
vn -0 0 1
vn -0 0 1
vn -0 0 1
vn -0 0 1
vn -0 0 1
vn -0 0 1
vn -0 0 1
vn -0 0 1
vn -0 0 1
vn -0 0 1
vn -0 0 1
vn -0 0 1
vn -0 0 1
vn -0 0 1
vn -0 0 1
vn -0 0 1
vn -0 0 1
vn -0 0 1
vn -0 0 -1
vn -0 0 -1
vn -0 0 -1
vn -0 0 -1
vn -0 1.1011641E-07 -1
vn -0 1.1011641E-07 -1
vn -0 1.1011641E-07 -1
vn -0 1.1011641E-07 -1
vn -0.5000023 0.8660241 0
vn -0.5000023 0.8660241 0
vn -0.5000023 0.8660241 0
vn -0.5000023 0.8660241 0
vn 1 0 0
vn 1 0 0
vn 1 0 0
vn 1 0 0
vn 0.5000011 -0.8660248 0
vn 0.5000011 -0.8660248 0
vn 0.5000011 -0.8660248 0
vn 0.5000011 -0.8660248 0
vn -1 0 0
vn -1 0 0
vn -1 0 0
vn -1 0 0
vn -1 0 0
vn -1 0 0
vn -1 0 0
vn -1 0 0
vn 0.5000014 0.8660246 0
vn 0.5000014 0.8660246 0
vn 0.5000014 0.8660246 0
vn 0.5000014 0.8660246 0
vn 1 0 0
vn 1 0 0
vn 1 0 0
vn 1 0 0
vn -0.49999985 -0.8660255 0
vn -0.49999985 -0.8660255 0
vn -0.49999985 -0.8660255 0
vn -0.49999985 -0.8660255 0
vn -0.5000011 -0.8660248 0
vn -0.5000011 -0.8660248 0
vn -0.5000011 -0.8660248 0
vn -0.5000011 -0.8660248 0
vn 0.5000012 0.86602473 0
vn 0.5000012 0.86602473 0
vn 0.5000012 0.86602473 0
vn 0.5000012 0.86602473 0
vn 0.4999999 -0.86602545 0
vn 0.4999999 -0.86602545 0
vn 0.4999999 -0.86602545 0
vn 0.4999999 -0.86602545 0
vn -0.5000014 0.8660246 0
vn -0.5000014 0.8660246 0
vn -0.5000014 0.8660246 0
vn -0.5000014 0.8660246 0
vn 0.97321033 0.22991675 0
vn 0.97321033 0.22991675 0
vn 0.97321033 0.22991675 0
vn 0.97321033 0.22991675 0
vn -0.97321033 0.22991675 0
vn -0.97321033 0.22991675 0
vn -0.97321033 0.22991675 0
vn -0.97321033 0.22991675 0
vn -0 0.22991668 -0.97321033
vn -0 0.22991668 -0.97321033
vn -0 0.22991668 -0.97321033
vn -0 0.22991668 -0.97321033
vn -0 0.22991668 0.97321033
vn -0 0.22991668 0.97321033
vn -0 0.22991668 0.97321033
vn -0 0.22991668 0.97321033
vn -0 1 0
vn -0 1 0
vn -0 1 0
vn -0 1 0
vn -0 0 -1
vn -0 0 -1
vn -0 0 -1
vn -0 0 -1
vn -0 0 -1
vn -0 0 -1
vn -0 0 -1
vn -0 0 -1
vn -0 0 1
vn -0 0 1
vn -0 0 1
vn -0 0 1
vn -0 0 1
vn -0 0 1
vn -0 0 1
vn -0 0 1
vn -1 0 0
vn -1 0 0
vn -1 0 0
vn -1 0 0
vn -1 0 0
vn -1 0 0
vn -1 0 0
vn -1 0 0
vn 1 0 0
vn 1 0 0
vn 1 0 0
vn 1 0 0
vn 1 0 0
vn 1 0 0
vn 1 0 0
vn 1 0 0
vn -0 0 1
vn -0 0 1
vn -0 0 1
vn -0 0 1
vn -0 0 -1
vn -0 0 -1
vn -0 0 -1
vn -0 0 -1
vn -1 0 0
vn -1 0 0
vn -1 0 0
vn -1 0 0
vn 1 0 0
vn 1 0 0
vn 1 0 0
vn 1 0 0
g lantern_0
f 3/3/3 2/2/2 1/1/1
f 6/6/6 5/5/5 4/4/4
f 9/9/9 8/8/8 7/7/7
f 12/12/12 11/11/11 10/10/10
f 15/15/15 14/14/14 13/13/13
f 16/16/16 15/15/15 13/13/13
f 19/19/19 18/18/18 17/17/17
f 20/20/20 19/19/19 17/17/17
f 23/23/23 22/22/22 21/21/21
f 24/24/24 23/23/23 21/21/21
f 27/27/27 26/26/26 25/25/25
f 28/28/28 27/27/27 25/25/25
f 31/31/31 30/30/30 29/29/29
f 32/32/32 31/31/31 29/29/29
f 35/35/35 34/34/34 33/33/33
f 36/36/36 35/35/35 33/33/33
f 39/39/39 38/38/38 37/37/37
f 40/40/40 39/39/39 37/37/37
f 43/43/43 42/42/42 41/41/41
f 44/44/44 43/43/43 41/41/41
f 47/47/47 46/46/46 45/45/45
f 48/48/48 47/47/47 45/45/45
f 51/51/51 50/50/50 49/49/49
f 52/52/52 51/51/51 49/49/49
f 55/55/55 54/54/54 53/53/53
f 56/56/56 55/55/55 53/53/53
f 59/59/59 58/58/58 57/57/57
f 60/60/60 59/59/59 57/57/57
f 63/63/63 62/62/62 61/61/61
f 64/64/64 63/63/63 61/61/61
f 67/67/67 66/66/66 65/65/65
f 66/66/66 68/68/68 65/65/65
f 70/70/70 69/69/69 68/68/68
f 71/71/71 70/70/70 68/68/68
f 70/70/70 73/73/73 72/72/72
f 73/73/73 74/74/74 72/72/72
f 76/76/76 75/75/75 74/74/74
f 77/77/77 76/76/76 74/74/74
f 80/80/80 79/79/79 78/78/78
f 81/81/81 80/80/80 78/78/78
f 83/83/83 82/82/82 81/81/81
f 84/84/84 83/83/83 81/81/81
f 86/86/86 83/83/83 85/85/85
f 87/87/87 86/86/86 85/85/85
f 89/89/89 88/88/88 87/87/87
f 90/90/90 89/89/89 87/87/87
f 93/93/93 92/92/92 91/91/91
f 94/94/94 93/93/93 91/91/91
f 97/97/97 96/96/96 95/95/95
f 98/98/98 97/97/97 95/95/95
f 101/101/101 100/100/100 99/99/99
f 102/102/102 101/101/101 99/99/99
f 105/105/105 104/104/104 103/103/103
f 106/106/106 105/105/105 103/103/103
f 109/109/109 108/108/108 107/107/107
f 110/110/110 109/109/109 107/107/107
f 113/113/113 112/112/112 111/111/111
f 114/114/114 113/113/113 111/111/111
f 117/117/117 116/116/116 115/115/115
f 118/118/118 117/117/117 115/115/115
f 121/121/121 120/120/120 119/119/119
f 122/122/122 121/121/121 119/119/119
f 125/125/125 124/124/124 123/123/123
f 126/126/126 125/125/125 123/123/123
f 129/129/129 128/128/128 127/127/127
f 130/130/130 129/129/129 127/127/127
f 133/133/133 132/132/132 131/131/131
f 134/134/134 133/133/133 131/131/131
f 137/137/137 136/136/136 135/135/135
f 138/138/138 137/137/137 135/135/135
f 141/141/141 140/140/140 139/139/139
f 142/142/142 141/141/141 139/139/139
f 145/145/145 144/144/144 143/143/143
f 146/146/146 145/145/145 143/143/143
f 149/149/149 148/148/148 147/147/147
f 150/150/150 149/149/149 147/147/147
f 153/153/153 152/152/152 151/151/151
f 154/154/154 153/153/153 151/151/151
f 157/157/157 156/156/156 155/155/155
f 158/158/158 157/157/157 155/155/155
f 161/161/161 160/160/160 159/159/159
f 162/162/162 161/161/161 159/159/159
f 165/165/165 164/164/164 163/163/163
f 166/166/166 165/165/165 163/163/163
f 169/169/169 168/168/168 167/167/167
f 170/170/170 169/169/169 167/167/167
f 173/173/173 172/172/172 171/171/171
f 174/174/174 173/173/173 171/171/171
f 177/177/177 176/176/176 175/175/175
f 176/176/176 178/178/178 175/175/175
f 179/179/179 176/176/176 177/177/177
f 175/175/175 178/178/178 180/180/180
f 181/181/181 179/179/179 177/177/177
f 178/178/178 182/182/182 180/180/180
f 182/182/182 179/179/179 181/181/181
f 180/180/180 182/182/182 181/181/181
f 185/185/185 184/184/184 183/183/183
f 184/184/184 186/186/186 183/183/183
f 187/187/187 184/184/184 185/185/185
f 183/183/183 186/186/186 188/188/188
f 189/189/189 187/187/187 185/185/185
f 186/186/186 190/190/190 188/188/188
f 190/190/190 187/187/187 189/189/189
f 188/188/188 190/190/190 189/189/189
f 193/193/193 192/192/192 191/191/191
f 194/194/194 193/193/193 191/191/191
f 191/191/191 192/192/192 195/195/195
f 196/196/196 193/193/193 194/194/194
f 192/192/192 197/197/197 195/195/195
f 198/198/198 196/196/196 194/194/194
f 195/195/195 197/197/197 198/198/198
f 197/197/197 196/196/196 198/198/198
f 201/201/201 200/200/200 199/199/199
f 202/202/202 201/201/201 199/199/199
f 199/199/199 200/200/200 203/203/203
f 204/204/204 201/201/201 202/202/202
f 200/200/200 205/205/205 203/203/203
f 206/206/206 204/204/204 202/202/202
f 203/203/203 205/205/205 206/206/206
f 205/205/205 204/204/204 206/206/206
g lantern_1
f 209/209/209 208/208/208 207/207/207
f 210/210/210 209/209/209 207/207/207
f 213/213/213 212/212/212 211/211/211
f 214/214/214 213/213/213 211/211/211
f 217/217/217 216/216/216 215/215/215
f 218/218/218 217/217/217 215/215/215
f 221/221/221 220/220/220 219/219/219
f 222/222/222 221/221/221 219/219/219
