g log-post
v 0.08108394 -0.0019516551 -0.046831146
v 6.9137386E-08 -0.00197689 -0.0936452
v -0.08108389 -0.0019516365 -0.04683113
v 0.081083804 -0.0019012506 0.046796363
v -0.08108388 -0.0019012394 0.046796348
v 6.4808674E-08 -0.0018759447 0.09361005
v -0.08108362 1.7370486 -0.04789812
v 2.59181E-07 1.7370232 -0.09471202
v 0.08108403 1.7370486 -0.04789813
v 0.08108408 1.7370989 0.045729373
v -0.08108379 1.7370989 0.045729358
v 2.5398637E-07 1.7371241 0.09254323
v -0.02102896 1.4598508 0.11984653
v 1.6219307E-07 1.4683816 0.111207634
v 0.021029254 1.4598508 0.11984653
v -0.021029003 1.4427885 0.13712412
v 0.021029271 1.4427885 0.13712412
v 1.6207056E-07 1.4342576 0.14576302
v 0.08391142 1.1618737 0.028251465
v 2.5398637E-07 1.7371241 0.09254323
v 0.08108408 1.7370989 0.045729373
v 0.009662043 1.1540624 0.08170827
v 0.081083804 -0.0019012506 0.046796363
v 6.4808674E-08 -0.0018759447 0.09361005
v -0.009661671 1.1804539 -0.09900321
v 0.08108403 1.7370486 -0.04789813
v 2.59181E-07 1.7370232 -0.09471202
v 0.074249595 1.1750696 -0.06210413
v 6.9137386E-08 -0.00197689 -0.0936452
v 0.08108394 -0.0019516551 -0.046831146
v -0.08391115 1.1726422 -0.045546282
v 2.59181E-07 1.7370232 -0.09471202
v -0.08108362 1.7370486 -0.04789812
v -0.009661671 1.1804539 -0.09900321
v -0.08108389 -0.0019516365 -0.04683113
v 6.9137386E-08 -0.00197689 -0.0936452
v 0.009662043 1.1540624 0.08170827
v -0.08108379 1.7370989 0.045729358
v 2.5398637E-07 1.7371241 0.09254323
v -0.0742494 1.1594466 0.044809323
v 6.4808674E-08 -0.0018759447 0.09361005
v -0.08108388 -0.0019012394 0.046796348
v 0.074249595 1.1750696 -0.06210413
v 0.08108408 1.7370989 0.045729373
v 0.08108403 1.7370486 -0.04789813
v 0.08391142 1.1618737 0.028251465
v 0.08108394 -0.0019516551 -0.046831146
v 0.081083804 -0.0019012506 0.046796363
v -0.0742494 1.1594466 0.044809323
v -0.08108362 1.7370486 -0.04789812
v -0.08108379 1.7370989 0.045729358
v -0.08391115 1.1726422 -0.045546282
v -0.08108388 -0.0019012394 0.046796348
v -0.08108389 -0.0019516365 -0.04683113
v -0.02102896 1.4598508 0.11984653
v -0.021029003 1.4427885 0.13712412
v -0.020886073 1.3857564 0.07759876
v -0.020886028 1.4031826 0.060926512
v 1.6207056E-07 1.4342576 0.14576302
v 0.021029271 1.4427885 0.13712412
v 0.020886349 1.3857564 0.07759876
v 1.6715336E-07 1.3770432 0.08593502
v 0.021029254 1.4598508 0.11984653
v 1.6219307E-07 1.4683816 0.111207634
v 1.6718971E-07 1.4118959 0.052590273
v 0.02088633 1.4031826 0.060926512
v 1.6219307E-07 1.4683816 0.111207634
v -0.02102896 1.4598508 0.11984653
v -0.020886028 1.4031826 0.060926512
v 1.6718971E-07 1.4118959 0.052590273
v -0.021029003 1.4427885 0.13712412
v 1.6207056E-07 1.4342576 0.14576302
v 1.6715336E-07 1.3770432 0.08593502
v -0.020886073 1.3857564 0.07759876
v 0.021029271 1.4427885 0.13712412
v 0.021029254 1.4598508 0.11984653
v 0.02088633 1.4031826 0.060926512
v 0.020886349 1.3857564 0.07759876
vt 0.47504634 0.12990522
vt 0.475046 0.043963328
vt 0.4006198 0.0009923795
vt 0.40061948 0.17287423
vt 0.32619232 0.04396204
vt 0.32619232 0.12990393
vt 0.475046 0.21782994
vt 0.40062076 0.17485899
vt 0.32619298 0.21782672
vt 0.32619232 0.3037686
vt 0.475046 0.3037712
vt 0.4006182 0.34674022
vt 0.39503497 0.348725
vt 0.37573335 0.3598689
vt 0.37573335 0.38215905
vt 0.41433787 0.3598699
vt 0.3950369 0.39330173
vt 0.41433787 0.38215777
vt 0.26280597 0.3311698
vt 0.32420757 0.0012368362
vt 0.27059639 0.0010392109
vt 0.3152977 0.33570924
vt 0.27049276 0.9989531
vt 0.32420757 0.9988825
vt 0.15816821 0.3205777
vt 0.21683845 0.0013916534
vt 0.16303417 0.0015894396
vt 0.21069469 0.32365137
vt 0.1631198 0.9986341
vt 0.21688803 0.99875015
vt 0.10573056 0.3250185
vt 0.16303417 0.0015894396
vt 0.109231174 0.0013702493
vt 0.15816821 0.3205777
vt 0.109378584 0.99877316
vt 0.1631198 0.9986341
vt 0.0009923795 0.33573338
vt 0.05550027 0.0009923795
vt 0.0019219265 0.00116329
vt 0.05359354 0.33254805
vt 0.0020899402 0.99896985
vt 0.055804107 0.99900764
vt 0.21069469 0.32365137
vt 0.27059639 0.0010392109
vt 0.21683845 0.0013916534
vt 0.26280597 0.3311698
vt 0.21688803 0.99875015
vt 0.27049276 0.9989531
vt 0.05359354 0.33254805
vt 0.109231174 0.0013702493
vt 0.05550027 0.0009923795
vt 0.10573056 0.3250185
vt 0.055804107 0.99900764
vt 0.109378584 0.99877316
vt 0.32680386 0.36265063
vt 0.32639188 0.37657213
vt 0.37367582 0.376665
vt 0.37369257 0.36283168
vt 0.32619232 0.39049762
vt 0.32639188 0.40442392
vt 0.37367582 0.4043311
vt 0.3736739 0.39049762
vt 0.32680386 0.41834572
vt 0.32705814 0.43227124
vt 0.37374857 0.431997
vt 0.37369257 0.41816357
vt 0.32705814 0.348725
vt 0.32680386 0.36265063
vt 0.37369257 0.36283168
vt 0.37374857 0.3489992
vt 0.32639188 0.37657213
vt 0.32619232 0.39049762
vt 0.3736739 0.39049762
vt 0.37367582 0.376665
vt 0.32639188 0.40442392
vt 0.32680386 0.41834572
vt 0.37369257 0.41816357
vt 0.37367582 0.4043311
vn -0 -0.9999999 0.000538823
vn -0 -0.9999999 0.000538823
vn -0 -0.9999999 0.000538823
vn -0 -0.9999999 0.000538823
vn -0 -0.9999999 0.000538823
vn -0 -0.9999999 0.000538823
vn -3.2713766E-07 0.9999999 -0.0005381512
vn -3.2713766E-07 0.9999999 -0.0005381512
vn -3.2713766E-07 0.9999999 -0.0005381512
vn -3.2713766E-07 0.9999999 -0.0005381512
vn -3.2713766E-07 0.9999999 -0.0005381512
vn -3.2713766E-07 0.9999999 -0.0005381512
vn -0 0.7115322 0.70265347
vn -0 0.7115322 0.70265347
vn -0 0.7115322 0.70265347
vn -0 0.7115322 0.70265347
vn -0 0.7115322 0.70265347
vn -0 0.7115322 0.70265347
vn 0.5428004 -0.014673549 0.83973354
vn 0.5428004 -0.014673549 0.83973354
vn 0.5428004 -0.014673549 0.83973354
vn 0.5428004 -0.014673549 0.83973354
vn 0.5420342 0.008110955 0.84031725
vn 0.5420342 0.008110955 0.84031725
vn 0.45265514 0.008069247 -0.8916492
vn 0.45265514 0.008069247 -0.8916492
vn 0.45265514 0.008069247 -0.8916492
vn 0.45265514 0.008069247 -0.8916492
vn 0.4523373 -0.004635672 -0.8918349
vn 0.4523373 -0.004635672 -0.8918349
vn -0.54258984 0.007498491 -0.83996433
vn -0.54258984 0.007498491 -0.83996433
vn -0.54258984 0.007498491 -0.83996433
vn -0.54258984 0.007498491 -0.83996433
vn -0.542182 -0.004324847 -0.8402499
vn -0.542182 -0.004324847 -0.8402499
vn -0.45280507 -0.015463612 0.8914755
vn -0.45280507 -0.015463612 0.8914755
vn -0.45280507 -0.015463612 0.8914755
vn -0.45280507 -0.015463612 0.8914755
vn -0.45222136 0.008564753 0.8918646
vn -0.45222136 0.008564753 0.8918646
vn 0.9986142 -0.0020535598 -0.052588955
vn 0.9986142 -0.0020535598 -0.052588955
vn 0.9986142 -0.0020535598 -0.052588955
vn 0.9986142 -0.0020535598 -0.052588955
vn 0.99862707 0.0009526908 -0.05237388
vn 0.99862707 0.0009526908 -0.05237388
vn -0.99863094 -0.0034382145 0.052195903
vn -0.99863094 -0.0034382145 0.052195903
vn -0.99863094 -0.0034382145 0.052195903
vn -0.99863094 -0.0034382145 0.052195903
vn -0.998616 0.0017288894 0.052565314
vn -0.998616 0.0017288894 0.052565314
vn -0.99999857 -0.0012202023 -0.0012420648
vn -0.99999857 -0.0012202023 -0.0012420648
vn -0.99999857 -0.0012202023 -0.0012420648
vn -0.99999857 -0.0012202023 -0.0012420648
vn 0.49992722 -0.6259395 0.5985588
vn 0.49992722 -0.6259395 0.5985588
vn 0.49992722 -0.6259395 0.5985588
vn 0.49992722 -0.6259395 0.5985588
vn 0.49994624 0.62361425 -0.6009651
vn 0.49994624 0.62361425 -0.6009651
vn 0.49994624 0.62361425 -0.6009651
vn 0.49994624 0.62361425 -0.6009651
vn -0.49994567 0.6236145 -0.6009653
vn -0.49994567 0.6236145 -0.6009653
vn -0.49994567 0.6236145 -0.6009653
vn -0.49994567 0.6236145 -0.6009653
vn -0.4999262 -0.62593997 0.59855914
vn -0.4999262 -0.62593997 0.59855914
vn -0.4999262 -0.62593997 0.59855914
vn -0.4999262 -0.62593997 0.59855914
vn 0.99999857 -0.0012209313 -0.0012412982
vn 0.99999857 -0.0012209313 -0.0012412982
vn 0.99999857 -0.0012209313 -0.0012412982
vn 0.99999857 -0.0012209313 -0.0012412982
g log-post_0
f 3/3/3 2/2/2 1/1/1
f 1/1/1 4/4/4 3/3/3
f 4/4/4 5/5/5 3/3/3
f 4/4/4 6/6/6 5/5/5
f 9/9/9 8/8/8 7/7/7
f 7/7/7 10/10/10 9/9/9
f 7/7/7 11/11/11 10/10/10
f 11/11/11 12/12/12 10/10/10
f 15/15/15 14/14/14 13/13/13
f 13/13/13 16/16/16 15/15/15
f 16/16/16 17/17/17 15/15/15
f 16/16/16 18/18/18 17/17/17
g log-post_1
f 21/21/21 20/20/20 19/19/19
f 20/20/20 22/22/22 19/19/19
f 19/19/19 22/22/22 23/23/23
f 22/22/22 24/24/24 23/23/23
f 27/27/27 26/26/26 25/25/25
f 26/26/26 28/28/28 25/25/25
f 25/25/25 28/28/28 29/29/29
f 28/28/28 30/30/30 29/29/29
f 33/33/33 32/32/32 31/31/31
f 32/32/32 34/34/34 31/31/31
f 31/31/31 34/34/34 35/35/35
f 34/34/34 36/36/36 35/35/35
f 39/39/39 38/38/38 37/37/37
f 38/38/38 40/40/40 37/37/37
f 37/37/37 40/40/40 41/41/41
f 40/40/40 42/42/42 41/41/41
f 45/45/45 44/44/44 43/43/43
f 44/44/44 46/46/46 43/43/43
f 43/43/43 46/46/46 47/47/47
f 46/46/46 48/48/48 47/47/47
f 51/51/51 50/50/50 49/49/49
f 50/50/50 52/52/52 49/49/49
f 49/49/49 52/52/52 53/53/53
f 52/52/52 54/54/54 53/53/53
f 57/57/57 56/56/56 55/55/55
f 58/58/58 57/57/57 55/55/55
f 61/61/61 60/60/60 59/59/59
f 62/62/62 61/61/61 59/59/59
f 65/65/65 64/64/64 63/63/63
f 66/66/66 65/65/65 63/63/63
f 69/69/69 68/68/68 67/67/67
f 70/70/70 69/69/69 67/67/67
f 73/73/73 72/72/72 71/71/71
f 74/74/74 73/73/73 71/71/71
f 77/77/77 76/76/76 75/75/75
f 78/78/78 77/77/77 75/75/75
