g scifi-neon-screen
v 0.93008417 -0.42749998 0.07000277
v 0.93008417 0.42749998 0.07000273
v 0.95000005 0.45 0.099999666
v 0.95000005 -0.45 0.09999971
v -0.93008417 0.42749998 0.07000334
v -0.93008417 -0.42749998 0.070003375
v -0.9499999 -0.45 0.10000034
v -0.9499999 0.45 0.10000029
v 1 0.45 -3.455115E-07
v 1 -0.45 -3.0617124E-07
v 1 -0.45 0.099999696
v 1 0.45 0.09999965
v 1 0.45 0.09999965
v 0.95000005 -0.45 0.09999971
v 0.95000005 0.45 0.099999666
v 1 -0.45 0.099999696
v 0.95000005 -0.5 0.09999971
v -0.9499999 -0.45 0.10000034
v -0.9499999 -0.5 0.10000034
v -0.99999994 -0.45 0.10000035
v -0.99999994 -0.45 0.10000035
v -0.9499999 0.45 0.10000029
v -0.9499999 -0.45 0.10000034
v -0.99999994 0.45 0.10000031
v -0.9499999 0.5 0.10000029
v 0.95000005 0.45 0.099999666
v 0.95000005 0.5 0.099999666
v 1 0.45 0.09999965
v -1 0.45 3.0617124E-07
v 0.95 0.5 -3.31405E-07
v -0.95 0.5 2.876936E-07
v 1 0.45 -3.455115E-07
v 1 -0.45 -3.0617124E-07
v -1 -0.45 3.455115E-07
v -0.95 -0.5 3.31405E-07
v 0.95 -0.5 -2.876936E-07
v 0.93008417 0.42749998 0.07000273
v -0.93008417 0.42749998 0.07000334
v -0.9499999 0.45 0.10000029
v 0.95000005 0.45 0.099999666
v -0.93008417 -0.42749998 0.070003375
v 0.93008417 -0.42749998 0.07000277
v 0.95000005 -0.45 0.09999971
v -0.9499999 -0.45 0.10000034
v -1 -0.45 3.455115E-07
v -1 0.45 3.0617124E-07
v -0.99999994 0.45 0.10000031
v -0.99999994 -0.45 0.10000035
v -0.95 0.5 2.876936E-07
v 0.95 0.5 -3.31405E-07
v 0.95000005 0.5 0.099999666
v -0.9499999 0.5 0.10000029
v 0.95000005 -0.5 0.09999971
v 1 -0.45 0.099999696
v 1 -0.45 -3.0617124E-07
v 0.95 -0.5 -2.876936E-07
v -0.95 -0.5 3.31405E-07
v -1 -0.45 3.455115E-07
v -0.99999994 -0.45 0.10000035
v -0.9499999 -0.5 0.10000034
v 1 0.45 0.09999965
v 0.95000005 0.5 0.099999666
v 0.95 0.5 -3.31405E-07
v 1 0.45 -3.455115E-07
v -0.9499999 0.5 0.10000029
v -0.99999994 0.45 0.10000031
v -1 0.45 3.0617124E-07
v -0.95 0.5 2.876936E-07
v 0.95 -0.5 -2.876936E-07
v -0.95 -0.5 3.31405E-07
v -0.9499999 -0.5 0.10000034
v 0.95000005 -0.5 0.09999971
v 0.93008417 0.42749998 0.07000273
v 0.93008417 -0.42749998 0.07000277
v -0.93008417 -0.42749998 0.070003375
v -0.93008417 0.42749998 0.07000334
vt 0.33239016 0.64714205
vt 0.06615936 0.6451342
vt 0.05383744 0.6559366
vt 0.34375095 0.6591549
vt 0.06443408 0.06759618
vt 0.3306651 0.06960401
vt 0.34298718 0.058801595
vt 0.053073283 0.055583384
vt 0.026842637 0.7079071
vt 0.36506808 0.71334654
vt 0.3442562 0.6751758
vt 0.05383999 0.6729724
vt 0.05383999 0.6729724
vt 0.34375095 0.6591549
vt 0.05383744 0.6559366
vt 0.3442562 0.6751758
vt 0.36079884 0.6594478
vt 0.34298718 0.058801595
vt 0.35891956 0.057893056
vt 0.34298462 0.041765813
vt 0.34298462 0.041765813
vt 0.053073283 0.055583384
vt 0.34298718 0.058801595
vt 0.05256805 0.039562397
vt 0.036025394 0.05529044
vt 0.05383744 0.6559366
vt 0.03790505 0.65684515
vt 0.05383999 0.6729724
vt 0.41432387 0.6457133
vt 0.39821577 0.01750034
vt 0.39821577 0.62960523
vt 0.4143246 0.0013915515
vt 0.7042694 0.0013918722
vt 0.70426863 0.6457136
vt 0.7203775 0.6296048
vt 0.7203775 0.017499998
vt 0.06615936 0.6451342
vt 0.06443408 0.06759618
vt 0.053073283 0.055583384
vt 0.05383744 0.6559366
vt 0.3306651 0.06960401
vt 0.33239016 0.64714205
vt 0.34375095 0.6591549
vt 0.34298718 0.058801595
vt 0.369982 0.0068309987
vt 0.031756144 0.0013915515
vt 0.05256805 0.039562397
vt 0.34298462 0.041765813
vt 0.0013915515 0.0269418
vt 0.0013919723 0.67845327
vt 0.03790505 0.65684515
vt 0.036025394 0.05529044
vt 0.36079884 0.6594478
vt 0.3442562 0.6751758
vt 0.36506808 0.71334654
vt 0.39543262 0.68779635
vt 0.39543265 0.036284838
vt 0.369982 0.0068309987
vt 0.34298462 0.041765813
vt 0.35891956 0.057893056
vt 0.05383999 0.6729724
vt 0.03790505 0.65684515
vt 0.0013919723 0.67845327
vt 0.026842637 0.7079071
vt 0.036025394 0.05529044
vt 0.05256805 0.039562397
vt 0.031756144 0.0013915515
vt 0.0013915515 0.0269418
vt 0.39543262 0.68779635
vt 0.39543265 0.036284838
vt 0.35891956 0.057893056
vt 0.36079884 0.6594478
vt 0.7231605 0.60066575
vt 0.99860847 0.60066575
vt 0.99860847 0.0013915515
vt 0.7231606 0.0013915915
vn -0.8331008 0 0.5531212
vn -0.8331008 0 0.5531212
vn -0.8331008 0 0.5531212
vn -0.8331008 0 0.5531212
vn 0.83310264 0 0.5531184
vn 0.83310264 0 0.5531184
vn 0.83310264 0 0.5531184
vn 0.83310264 0 0.5531184
vn 1 0 0
vn 1 0 0
vn 1 0 0
vn 1 0 0
vn -0 0 1
vn -0 0 1
vn -0 0 1
vn -0 0 1
vn -0 0 1
vn -0 0 1
vn -0 0 1
vn -0 0 1
vn -0 0 1
vn -0 0 1
vn -0 0 1
vn -0 0 1
vn -0 0 1
vn -0 0 1
vn -0 0 1
vn -0 0 1
vn -0 0 -1
vn -0 0 -1
vn -0 0 -1
vn -0 0 -1
vn -0 0 -1
vn -0 0 -1
vn -0 0 -1
vn -0 0 -1
vn -0 -0.79997057 0.60003924
vn -0 -0.79997057 0.60003924
vn -0 -0.79997057 0.60003924
vn -0 -0.79997057 0.60003924
vn -0 0.79997057 0.60003924
vn -0 0.79997057 0.60003924
vn -0 0.79997057 0.60003924
vn -0 0.79997057 0.60003924
vn -1 0 0
vn -1 0 0
vn -1 0 0
vn -1 0 0
vn -0 1 0
vn -0 1 0
vn -0 1 0
vn -0 1 0
vn 0.70710707 -0.7071064 0
vn 0.70710707 -0.7071064 0
vn 0.70710707 -0.7071064 0
vn 0.70710707 -0.7071064 0
vn -0.7071069 -0.70710665 0
vn -0.7071069 -0.70710665 0
vn -0.7071069 -0.70710665 0
vn -0.7071069 -0.70710665 0
vn 0.7071071 0.70710635 0
vn 0.7071071 0.70710635 0
vn 0.7071071 0.70710635 0
vn 0.7071071 0.70710635 0
vn -0.7071069 0.70710665 0
vn -0.7071069 0.70710665 0
vn -0.7071069 0.70710665 0
vn -0.7071069 0.70710665 0
vn -0 -1 0
vn -0 -1 0
vn -0 -1 0
vn -0 -1 0
vn -0 0 1
vn -0 0 1
vn -0 0 1
vn -0 0 1
g scifi-neon-screen_0
f 3/3/3 2/2/2 1/1/1
f 4/4/4 3/3/3 1/1/1
f 7/7/7 6/6/6 5/5/5
f 8/8/8 7/7/7 5/5/5
f 11/11/11 10/10/10 9/9/9
f 12/12/12 11/11/11 9/9/9
f 15/15/15 14/14/14 13/13/13
f 14/14/14 16/16/16 13/13/13
f 16/16/16 14/14/14 17/17/17
f 14/14/14 18/18/18 17/17/17
f 18/18/18 19/19/19 17/17/17
f 19/19/19 18/18/18 20/20/20
f 23/23/23 22/22/22 21/21/21
f 22/22/22 24/24/24 21/21/21
f 24/24/24 22/22/22 25/25/25
f 22/22/22 26/26/26 25/25/25
f 26/26/26 27/27/27 25/25/25
f 27/27/27 26/26/26 28/28/28
f 31/31/31 30/30/30 29/29/29
f 30/30/30 32/32/32 29/29/29
f 32/32/32 33/33/33 29/29/29
f 33/33/33 34/34/34 29/29/29
f 35/35/35 34/34/34 33/33/33
f 36/36/36 35/35/35 33/33/33
f 39/39/39 38/38/38 37/37/37
f 40/40/40 39/39/39 37/37/37
f 43/43/43 42/42/42 41/41/41
f 44/44/44 43/43/43 41/41/41
f 47/47/47 46/46/46 45/45/45
f 48/48/48 47/47/47 45/45/45
f 51/51/51 50/50/50 49/49/49
f 52/52/52 51/51/51 49/49/49
f 55/55/55 54/54/54 53/53/53
f 56/56/56 55/55/55 53/53/53
f 59/59/59 58/58/58 57/57/57
f 60/60/60 59/59/59 57/57/57
f 63/63/63 62/62/62 61/61/61
f 64/64/64 63/63/63 61/61/61
f 67/67/67 66/66/66 65/65/65
f 68/68/68 67/67/67 65/65/65
f 71/71/71 70/70/70 69/69/69
f 72/72/72 71/71/71 69/69/69
g scifi-neon-screen_1
f 75/75/75 74/74/74 73/73/73
f 76/76/76 75/75/75 73/73/73
