g torche-wall
v -0.03731682 -0.14510734 0.15417047
v -0.03731682 -0.13224076 0.113046624
v -0.049626146 0.08395803 0.1732436
v -0.049626134 0.066847116 0.22793242
v -2.1139948E-08 -0.12580745 0.09248466
v 0.037316747 -0.13224076 0.11304661
v 0.049626052 0.08395803 0.17324346
v -2.2382547E-08 0.092513494 0.14589906
v 0.037316754 -0.14510734 0.15417047
v -1.9093374E-08 -0.15154079 0.17473237
v -1.2363324E-08 0.05829151 0.25527698
v 0.049626067 0.066847116 0.22793241
v -1.9093374E-08 -0.15154079 0.17473237
v -0.03731682 -0.14510734 0.15417047
v -0.049626134 0.066847116 0.22793242
v -1.2363324E-08 0.05829151 0.25527698
v -0.03731682 -0.13224076 0.113046624
v -2.1139948E-08 -0.12580745 0.09248466
v -2.2382547E-08 0.092513494 0.14589906
v -0.049626146 0.08395803 0.1732436
v 0.037316747 -0.13224076 0.11304661
v 0.037316754 -0.14510734 0.15417047
v 0.049626067 0.066847116 0.22793241
v 0.049626052 0.08395803 0.17324346
v 0.019848887 -0.1995456 0.102555655
v 0.019848889 -0.20638946 0.12442958
v 0.037316754 -0.14510734 0.15417047
v 0.037316747 -0.13224076 0.11304661
v -0.019848956 -0.1995456 0.10255567
v -2.6038123E-08 -0.19612369 0.09161869
v -2.1139948E-08 -0.12580745 0.09248466
v -0.03731682 -0.13224076 0.113046624
v -2.7634018E-08 -0.20981137 0.13536653
v -0.01984896 -0.20638946 0.12442958
v -0.03731682 -0.14510734 0.15417047
v -1.9093374E-08 -0.15154079 0.17473237
v 0.019848889 -0.20638946 0.12442958
v -2.7634018E-08 -0.20981137 0.13536653
v -1.9093374E-08 -0.15154079 0.17473237
v 0.037316754 -0.14510734 0.15417047
v -2.6038123E-08 -0.19612369 0.09161869
v 0.019848887 -0.1995456 0.102555655
v 0.037316747 -0.13224076 0.11304661
v -2.1139948E-08 -0.12580745 0.09248466
v -0.01984896 -0.20638946 0.12442958
v -0.019848956 -0.1995456 0.10255567
v -0.03731682 -0.13224076 0.113046624
v -0.03731682 -0.14510734 0.15417047
v 0.019848887 -0.1995456 0.102555655
v -2.6038123E-08 -0.19612369 0.09161869
v -0.019848956 -0.1995456 0.10255567
v -0.01984896 -0.20638946 0.12442958
v 0.019848889 -0.20638946 0.12442958
v -2.7634018E-08 -0.20981137 0.13536653
v -0.07482156 0.19654542 0.19322759
v -2.6313636E-08 0.18805133 0.23583317
v -0.074821554 0.17074716 0.27568242
v 0.07482146 0.19654542 0.19322757
v -2.6313636E-08 0.18805133 0.23583317
v -1.5985261E-08 0.2094445 0.15200011
v -9.8199235E-09 0.15784796 0.31690973
v -2.6313636E-08 0.18805133 0.23583317
v 0.07482149 0.17074716 0.2756824
v -0.074821554 0.17074716 0.27568242
v -2.6313636E-08 0.18805133 0.23583317
v -9.8199235E-09 0.15784796 0.31690973
v -1.5985261E-08 0.2094445 0.15200011
v -2.6313636E-08 0.18805133 0.23583317
v -0.07482156 0.19654542 0.19322759
v 0.07482149 0.17074716 0.2756824
v -2.6313636E-08 0.18805133 0.23583317
v 0.07482146 0.19654542 0.19322757
v -1.2363324E-08 0.05829151 0.25527698
v -9.819919E-09 0.08795002 0.2950403
v 0.07482149 0.100849085 0.25381297
v 0.049626067 0.066847116 0.22793241
v -0.049626134 0.066847116 0.22793242
v -0.074821554 0.100849085 0.25381285
v -9.819919E-09 0.08795002 0.2950403
v -1.2363324E-08 0.05829151 0.25527698
v -2.2382547E-08 0.092513494 0.14589906
v -1.5985258E-08 0.13954657 0.1301307
v -0.07482156 0.12664737 0.17135818
v -0.049626146 0.08395803 0.1732436
v 0.049626067 0.066847116 0.22793241
v 0.07482149 0.100849085 0.25381297
v 0.07482146 0.12664737 0.171358
v 0.049626052 0.08395803 0.17324346
v -0.049626146 0.08395803 0.1732436
v -0.07482156 0.12664737 0.17135818
v -0.074821554 0.100849085 0.25381285
v -0.049626134 0.066847116 0.22793242
v 0.049626052 0.08395803 0.17324346
v 0.07482146 0.12664737 0.171358
v -1.5985258E-08 0.13954657 0.1301307
v -2.2382547E-08 0.092513494 0.14589906
v -0.074821554 0.100849085 0.25381285
v -0.074821554 0.17074716 0.27568242
v -9.8199235E-09 0.15784796 0.31690973
v -9.819919E-09 0.08795002 0.2950403
v -1.5985258E-08 0.13954657 0.1301307
v -1.5985261E-08 0.2094445 0.15200011
v -0.07482156 0.19654542 0.19322759
v -0.07482156 0.12664737 0.17135818
v 0.07482149 0.100849085 0.25381297
v 0.07482149 0.17074716 0.2756824
v 0.07482146 0.19654542 0.19322757
v 0.07482146 0.12664737 0.171358
v -0.07482156 0.12664737 0.17135818
v -0.07482156 0.19654542 0.19322759
v -0.074821554 0.17074716 0.27568242
v -0.074821554 0.100849085 0.25381285
v 0.07482146 0.12664737 0.171358
v 0.07482146 0.19654542 0.19322757
v -1.5985261E-08 0.2094445 0.15200011
v -1.5985258E-08 0.13954657 0.1301307
v -9.819919E-09 0.08795002 0.2950403
v -9.8199235E-09 0.15784796 0.31690973
v 0.07482149 0.17074716 0.2756824
v 0.07482149 0.100849085 0.25381297
v 0.11158652 0.13954657 0.04965918
v 0.11158652 0.1706971 -0.010366921
v 0.11158652 -0.16650666 -0.010366921
v 0.11158652 -0.1061113 0.04965918
v -0.10840968 0.13954657 0.04965918
v -0.10840968 -0.1061113 0.04965918
v -0.10840968 -0.16650666 -0.010366921
v -0.10840968 0.1706971 -0.010366921
v 0.11158652 -0.1061113 0.04965918
v 0.11158652 -0.16650666 -0.010366921
v -0.10840968 -0.16650666 -0.010366921
v -0.10840968 -0.1061113 0.04965918
v 0.11158652 0.13954657 0.04965918
v 0.11158652 -0.1061113 0.04965918
v -0.10840968 -0.1061113 0.04965918
v -0.10840968 0.13954657 0.04965918
v 0.11158652 0.1706971 -0.010366921
v 0.11158652 0.13954657 0.04965918
v -0.10840968 0.13954657 0.04965918
v -0.10840968 0.1706971 -0.010366921
v 0.0015930182 0.049413756 0.035843458
v 0.029908763 0.033065725 0.035843458
v 0.029908763 0.033065725 0.17167206
v 0.0015930182 0.049413756 0.17167206
v 0.029908763 0.00036938267 0.035843458
v 0.0015930217 -0.015978646 0.035843458
v 0.0015930217 -0.015978646 0.17167206
v 0.029908763 0.00036938267 0.17167206
v -0.02672273 0.00036938267 0.035843458
v -0.02672273 0.033065725 0.035843458
v -0.02672273 0.033065725 0.17167206
v -0.02672273 0.00036938267 0.17167206
v 0.029908763 0.033065725 0.035843458
v 0.029908763 0.00036938267 0.035843458
v 0.029908763 0.00036938267 0.17167206
v 0.029908763 0.033065725 0.17167206
v 0.0015930217 -0.015978646 0.035843458
v -0.02672273 0.00036938267 0.035843458
v -0.02672273 0.00036938267 0.17167206
v 0.0015930217 -0.015978646 0.17167206
v -0.02672273 0.033065725 0.035843458
v 0.0015930182 0.049413756 0.035843458
v 0.0015930182 0.049413756 0.17167206
v -0.02672273 0.033065725 0.17167206
v 0.11158652 -0.16650666 -0.010366921
v 0.11158652 0.1706971 -0.010366921
v -0.10840968 0.1706971 -0.010366921
v -0.10840968 -0.16650666 -0.010366921
v -0.05153471 0.18595119 0.2351761
v -0.059058446 0.34160233 0.28387567
v -0.089559436 0.30611405 0.2727722
v 9.449148E-09 0.18595119 0.23517606
v 9.462541E-09 0.34809414 0.28590682
v 0.05153474 0.18595119 0.23517606
v -0.037112758 0.41572642 0.30706742
v -0.061560903 0.3979689 0.30151153
v 9.467005E-09 0.45313227 0.31877083
v 0.05905846 0.34160233 0.28387564
v 0.089559466 0.30611405 0.2727722
v 0.03711278 0.41572642 0.30706742
v 0.061560925 0.3979689 0.30151153
v 5.013762E-09 0.17056277 0.2843597
v 1.0561798E-08 0.2793712 0.35824576
v 1.1907264E-08 0.32396728 0.34023973
v 5.084515E-10 0.18595119 0.23517606
v 1.0860176E-08 0.34809414 0.28590685
v -3.996859E-09 0.20133965 0.18599246
v 1.1195962E-08 0.40464437 0.3424871
v 1.0349266E-08 0.3795867 0.360264
v 1.0939265E-08 0.45313227 0.3187709
v 1.6211436E-08 0.35923734 0.22751175
v 8.923389E-09 0.3328566 0.18729877
v 1.554418E-08 0.42680842 0.2716479
v 1.584144E-08 0.41635138 0.24275924
v -0.05153471 0.18595119 0.2351761
v -0.089559436 0.30611405 0.2727722
v -0.059058446 0.34160233 0.28387567
v 9.449148E-09 0.18595119 0.23517606
v 9.462541E-09 0.34809414 0.28590682
v 0.05153474 0.18595119 0.23517606
v -0.037112758 0.41572642 0.30706742
v -0.061560903 0.3979689 0.30151153
v 9.467005E-09 0.45313227 0.31877083
v 0.05905846 0.34160233 0.28387564
v 0.089559466 0.30611405 0.2727722
v 0.03711278 0.41572642 0.30706742
v 0.061560925 0.3979689 0.30151153
v 5.013762E-09 0.17056277 0.2843597
v 1.1907264E-08 0.32396728 0.34023973
v 1.0561798E-08 0.2793712 0.35824576
v 5.084515E-10 0.18595119 0.23517606
v 1.0860176E-08 0.34809414 0.28590685
v -3.996859E-09 0.20133965 0.18599246
v 1.1195962E-08 0.40464437 0.3424871
v 1.0349266E-08 0.3795867 0.360264
v 1.0939265E-08 0.45313227 0.3187709
v 1.6211436E-08 0.35923734 0.22751175
v 8.923389E-09 0.3328566 0.18729877
v 1.554418E-08 0.42680842 0.2716479
v 1.584144E-08 0.41635138 0.24275924
vt 0.64264655 0.12167121
vt 0.61499435 0.0895007
vt 0.44664854 0.24503775
vt 0.49104115 0.28871167
vt 0.79039866 0.19604573
vt 0.74625564 0.18553872
vt 0.6462127 0.39349988
vt 0.7038532 0.4188486
vt 0.7074846 0.16966802
vt 0.67348796 0.14777195
vt 0.53934205 0.32838896
vt 0.5912381 0.3632392
vt 0.67348796 0.14777195
vt 0.64264655 0.12167121
vt 0.49104115 0.28871167
vt 0.53934205 0.32838896
vt 0.61499435 0.0895007
vt 0.59072566 0.049642738
vt 0.4069986 0.19942668
vt 0.44664854 0.24503775
vt 0.74625564 0.18553872
vt 0.7074846 0.16966802
vt 0.5912381 0.3632392
vt 0.6462127 0.39349988
vt 0.7645158 0.1120527
vt 0.7397593 0.10216611
vt 0.7074846 0.16966802
vt 0.74625564 0.18553872
vt 0.6821939 0.049379356
vt 0.6711668 0.024452418
vt 0.59072566 0.049642738
vt 0.61499435 0.0895007
vt 0.7168888 0.089180924
vt 0.69780856 0.07104442
vt 0.64264655 0.12167121
vt 0.67348796 0.14777195
vt 0.7397593 0.10216611
vt 0.7168888 0.089180924
vt 0.67348796 0.14777195
vt 0.7074846 0.16966802
vt 0.7903985 0.11580321
vt 0.7645158 0.1120527
vt 0.74625564 0.18553872
vt 0.79039866 0.19604573
vt 0.69780856 0.07104442
vt 0.6821939 0.049379356
vt 0.61499435 0.0895007
vt 0.64264655 0.12167121
vt 0.6872407 0.002439199
vt 0.6711668 0.024452418
vt 0.6821939 0.049379356
vt 0.70929486 0.052293424
vt 0.71434176 0.005352744
vt 0.7253688 0.030280031
vt 0.18868943 0.89270204
vt 0.09556426 0.9088421
vt 0.1561047 0.98142046
vt 0.035023898 0.8362637
vt 0.09556426 0.9088421
vt 0.12814899 0.8201232
vt 0.062979646 0.9975608
vt 0.09556426 0.9088421
vt 0.002439199 0.9249821
vt 0.1561047 0.98142046
vt 0.09556426 0.9088421
vt 0.062979646 0.9975608
vt 0.12814899 0.8201232
vt 0.09556426 0.9088421
vt 0.18868943 0.89270204
vt 0.002439199 0.9249821
vt 0.09556426 0.9088421
vt 0.035023898 0.8362637
vt 0.3848429 0.86442083
vt 0.37244114 0.9141431
vt 0.45120293 0.92321223
vt 0.45047712 0.8694367
vt 0.32476065 0.84274304
vt 0.3010679 0.8850985
vt 0.37244114 0.9141431
vt 0.3848429 0.86442083
vt 0.2425475 0.75724965
vt 0.19253688 0.77070254
vt 0.23957153 0.840769
vt 0.27434602 0.8079236
vt 0.45047712 0.8694367
vt 0.45120293 0.92321223
vt 0.52844393 0.91102886
vt 0.5145076 0.8644093
vt 0.27434602 0.8079236
vt 0.23957153 0.840769
vt 0.3010679 0.8850985
vt 0.32476065 0.84274304
vt 0.5145076 0.8644093
vt 0.52844393 0.91102886
vt 0.607918 0.8763605
vt 0.56976354 0.8346258
vt 0.3010679 0.8850985
vt 0.26322266 0.9540437
vt 0.35729733 0.9893236
vt 0.37244114 0.9141431
vt 0.19253688 0.77070254
vt 0.12814899 0.8201232
vt 0.18868943 0.89270204
vt 0.23957153 0.840769
vt 0.45120293 0.92321223
vt 0.45586362 0.9975608
vt 0.54912376 0.98040175
vt 0.52844393 0.91102886
vt 0.23957153 0.840769
vt 0.18868943 0.89270204
vt 0.26322266 0.9540437
vt 0.3010679 0.8850985
vt 0.52844393 0.91102886
vt 0.54912376 0.98040175
vt 0.6346527 0.94886434
vt 0.607918 0.8763605
vt 0.37244114 0.9141431
vt 0.35729733 0.9893236
vt 0.45586362 0.9975608
vt 0.45120293 0.92321223
vt 0.27979025 0.3396948
vt 0.31144398 0.39402717
vt 0.40212017 0.049406163
vt 0.3367969 0.09821541
vt 0.11246533 0.3244863
vt 0.06373299 0.09821541
vt 0.002439199 0.048789233
vt 0.07765555 0.38456044
vt 0.3367969 0.09821541
vt 0.3367969 0.002439199
vt 0.063732974 0.002439373
vt 0.06373299 0.09821541
vt 0.27979025 0.3396948
vt 0.3367969 0.09821541
vt 0.06373299 0.09821541
vt 0.11246533 0.3244863
vt 0.31144398 0.39402717
vt 0.27979025 0.3396948
vt 0.11246533 0.3244863
vt 0.07765555 0.38456044
vt 0.93107796 0.8221467
vt 0.93107796 0.78811014
vt 0.78968054 0.78811014
vt 0.78968054 0.8221467
vt 0.93107796 0.75407314
vt 0.93107796 0.7200365
vt 0.78968054 0.7200365
vt 0.78968054 0.75407314
vt 0.93107796 0.89022034
vt 0.93107796 0.85618335
vt 0.78968054 0.85618335
vt 0.78968054 0.89022034
vt 0.93107796 0.78811014
vt 0.93107796 0.75407314
vt 0.78968054 0.75407314
vt 0.78968054 0.78811014
vt 0.93107796 0.9242569
vt 0.93107796 0.89022034
vt 0.78968054 0.89022034
vt 0.78968054 0.9242569
vt 0.93107796 0.85618335
vt 0.93107796 0.8221467
vt 0.78968054 0.8221467
vt 0.78968054 0.85618335
vt 0.2969332 0.75237125
vt 0.31144398 0.39402717
vt 0.07765555 0.38456044
vt 0.06314481 0.74290437
vt 0.9365595 0.423727
vt 0.9443916 0.5935056
vt 0.9761431 0.5547964
vt 0.8829119 0.423727
vt 0.8829118 0.6005864
vt 0.82926434 0.423727
vt 0.9215462 0.67435724
vt 0.9469967 0.65498805
vt 0.88291174 0.71515816
vt 0.82143205 0.5935056
vt 0.78968054 0.5547962
vt 0.8442774 0.67435724
vt 0.8188269 0.65498805
vt 0.8348607 0.002439373
vt 0.79527706 0.13350818
vt 0.8270286 0.17221758
vt 0.8885084 0.002439199
vt 0.8885084 0.17929855
vt 0.942156 0.002439199
vt 0.8498741 0.2530692
vt 0.8244235 0.23370022
vt 0.88850844 0.29387012
vt 0.9499881 0.17221758
vt 0.98173964 0.13350818
vt 0.92714274 0.25306937
vt 0.95259327 0.23370056
vt 0.6379233 0.423727
vt 0.59833956 0.55479604
vt 0.630091 0.59350544
vt 0.69157094 0.423727
vt 0.6915708 0.60058624
vt 0.7452185 0.423727
vt 0.65293646 0.67435706
vt 0.62748593 0.6549879
vt 0.6915708 0.71515816
vt 0.7530506 0.59350544
vt 0.7848022 0.5547962
vt 0.73020524 0.67435706
vt 0.7556557 0.65498805
vt 0.55387765 0.42372718
vt 0.56170964 0.59350544
vt 0.5934612 0.55479604
vt 0.50023 0.42372718
vt 0.50022984 0.6005864
vt 0.44658238 0.423727
vt 0.53886414 0.67435724
vt 0.5643147 0.65498805
vt 0.50022966 0.71515816
vt 0.43875006 0.59350544
vt 0.4069986 0.55479586
vt 0.46159536 0.67435724
vt 0.43614483 0.65498805
vn -0.9984976 -0.05229411 -0.016361417
vn -0.9984976 -0.05229411 -0.016361417
vn -0.9984976 -0.05229411 -0.016361417
vn -0.9984976 -0.05229411 -0.016361417
vn 0.49924842 0.2059143 -0.8416354
vn 0.49924842 0.2059143 -0.8416354
vn 0.49924842 0.2059143 -0.8416354
vn 0.49924842 0.2059143 -0.8416354
vn 0.4992502 -0.31050226 0.8089113
vn 0.4992502 -0.31050226 0.8089113
vn 0.4992502 -0.31050226 0.8089113
vn 0.4992502 -0.31050226 0.8089113
vn -0.49924967 -0.31050247 0.80891156
vn -0.49924967 -0.31050247 0.80891156
vn -0.49924967 -0.31050247 0.80891156
vn -0.49924967 -0.31050247 0.80891156
vn -0.4992493 0.20591442 -0.841635
vn -0.4992493 0.20591442 -0.841635
vn -0.4992493 0.20591442 -0.841635
vn -0.4992493 0.20591442 -0.841635
vn 0.9984976 -0.052293986 -0.016361648
vn 0.9984976 -0.052293986 -0.016361648
vn 0.9984976 -0.052293986 -0.016361648
vn 0.9984976 -0.052293986 -0.016361648
vn 0.96798867 -0.23954299 -0.07494733
vn 0.96798867 -0.23954299 -0.07494733
vn 0.96798867 -0.23954299 -0.07494733
vn 0.96798867 -0.23954299 -0.07494733
vn -0.48399502 0.010775937 -0.8750044
vn -0.48399502 0.010775937 -0.8750044
vn -0.48399502 0.010775937 -0.8750044
vn -0.48399502 0.010775937 -0.8750044
vn -0.48399463 -0.48986188 0.72511
vn -0.48399463 -0.48986188 0.72511
vn -0.48399463 -0.48986188 0.72511
vn -0.48399463 -0.48986188 0.72511
vn 0.4839948 -0.48986197 0.72510993
vn 0.4839948 -0.48986197 0.72510993
vn 0.4839948 -0.48986197 0.72510993
vn 0.4839948 -0.48986197 0.72510993
vn 0.48399487 0.010776096 -0.87500453
vn 0.48399487 0.010776096 -0.87500453
vn 0.48399487 0.010776096 -0.87500453
vn 0.48399487 0.010776096 -0.87500453
vn -0.96798867 -0.23954299 -0.07494716
vn -0.96798867 -0.23954299 -0.07494716
vn -0.96798867 -0.23954299 -0.07494716
vn -0.96798867 -0.23954299 -0.07494716
vn -0 -0.9543774 -0.29860288
vn -0 -0.9543774 -0.29860288
vn -0 -0.9543774 -0.29860288
vn -0 -0.9543774 -0.29860288
vn -0 -0.9543774 -0.2986032
vn -0 -0.9543774 -0.2986032
vn -0.06157098 0.95256656 0.29803684
vn -0.06157098 0.95256656 0.29803684
vn -0.06157098 0.95256656 0.29803684
vn 0.030784855 0.9684891 0.24714632
vn 0.030784855 0.9684891 0.24714632
vn 0.030784855 0.9684891 0.24714632
vn 0.03078502 0.936644 0.34892747
vn 0.03078502 0.936644 0.34892747
vn 0.03078502 0.936644 0.34892747
vn -0.03078483 0.9366441 0.34892708
vn -0.03078483 0.9366441 0.34892708
vn -0.03078483 0.9366441 0.34892708
vn -0.030785447 0.968489 0.24714659
vn -0.030785447 0.968489 0.24714659
vn -0.030785447 0.968489 0.24714659
vn 0.061571475 0.95256644 0.29803693
vn 0.061571475 0.95256644 0.29803693
vn 0.061571475 0.95256644 0.29803693
vn 0.42360267 -0.7261148 0.54158854
vn 0.42360267 -0.7261148 0.54158854
vn 0.42360267 -0.7261148 0.54158854
vn 0.42360267 -0.7261148 0.54158854
vn -0.42360288 -0.7261143 0.54158896
vn -0.42360288 -0.7261143 0.54158896
vn -0.42360288 -0.7261143 0.54158896
vn -0.42360288 -0.7261143 0.54158896
vn -0.42360267 -0.28794426 -0.8588649
vn -0.42360267 -0.28794426 -0.8588649
vn -0.42360267 -0.28794426 -0.8588649
vn -0.42360267 -0.28794426 -0.8588649
vn 0.8472041 -0.5070298 -0.15863827
vn 0.8472041 -0.5070298 -0.15863827
vn 0.8472041 -0.5070298 -0.15863827
vn 0.8472041 -0.5070298 -0.15863827
vn -0.8472038 -0.50703 -0.15863855
vn -0.8472038 -0.50703 -0.15863855
vn -0.8472038 -0.50703 -0.15863855
vn -0.8472038 -0.50703 -0.15863855
vn 0.42360124 -0.2879444 -0.85886556
vn 0.42360124 -0.2879444 -0.85886556
vn 0.42360124 -0.2879444 -0.85886556
vn 0.42360124 -0.2879444 -0.85886556
vn -0.4999998 -0.2585978 0.8265152
vn -0.4999998 -0.2585978 0.8265152
vn -0.4999998 -0.2585978 0.8265152
vn -0.4999998 -0.2585978 0.8265152
vn -0.5000005 0.25859687 -0.8265151
vn -0.5000005 0.25859687 -0.8265151
vn -0.5000005 0.25859687 -0.8265151
vn -0.5000005 0.25859687 -0.8265151
vn 1 0 -2.57571E-07
vn 1 0 -2.57571E-07
vn 1 0 -2.57571E-07
vn 1 0 -2.57571E-07
vn -1 0 1.1038775E-07
vn -1 0 1.1038775E-07
vn -1 0 1.1038775E-07
vn -1 0 1.1038775E-07
vn 0.5000002 0.25859767 -0.82651496
vn 0.5000002 0.25859767 -0.82651496
vn 0.5000002 0.25859767 -0.82651496
vn 0.5000002 0.25859767 -0.82651496
vn 0.49999973 -0.2585972 0.8265155
vn 0.49999973 -0.2585972 0.8265155
vn 0.49999973 -0.2585972 0.8265155
vn 0.49999973 -0.2585972 0.8265155
vn 1 0 -2.1295335E-07
vn 1 0 -2.1295335E-07
vn 1 0 -2.1295335E-07
vn 1 0 -2.1295335E-07
vn -1 0 -1.5971501E-07
vn -1 0 -1.5971501E-07
vn -1 0 -1.5971501E-07
vn -1 0 -1.5971501E-07
vn -0 -0.7049352 0.70927167
vn -0 -0.7049352 0.70927167
vn -0 -0.7049352 0.70927167
vn -0 -0.7049352 0.70927167
vn -0 0 1
vn -0 0 1
vn -0 0 1
vn -0 0 1
vn -0 0.8875982 0.46061864
vn -0 0.8875982 0.46061864
vn -0 0.8875982 0.46061864
vn -0 0.8875982 0.46061864
vn 0.49999848 0.86602634 0
vn 0.49999848 0.86602634 0
vn 0.49999848 0.86602634 0
vn 0.49999848 0.86602634 0
vn 0.4999983 -0.8660264 0
vn 0.4999983 -0.8660264 0
vn 0.4999983 -0.8660264 0
vn 0.4999983 -0.8660264 0
vn -1 0 0
vn -1 0 0
vn -1 0 0
vn -1 0 0
vn 1 0 0
vn 1 0 0
vn 1 0 0
vn 1 0 0
vn -0.49999818 -0.8660264 0
vn -0.49999818 -0.8660264 0
vn -0.49999818 -0.8660264 0
vn -0.49999818 -0.8660264 0
vn -0.49999842 0.86602634 0
vn -0.49999842 0.86602634 0
vn -0.49999842 0.86602634 0
vn -0.49999842 0.86602634 0
vn -0 0 -1
vn -0 0 -1
vn -0 0 -1
vn -0 0 -1
vn 8.862597E-07 0.2986027 -0.95437753
vn -0 0.29860285 -0.95437753
vn 8.862597E-07 0.2986027 -0.95437753
vn -4.230171E-07 0.29860264 -0.95437753
vn -2.1856256E-07 0.2986026 -0.95437753
vn -4.230171E-07 0.29860264 -0.95437753
vn -0 0.29860285 -0.95437753
vn -1.2496812E-06 0.29860258 -0.9543776
vn -2.1856256E-07 0.2986026 -0.95437753
vn -2.1856256E-07 0.2986026 -0.95437753
vn -0 0.29860213 -0.9543777
vn -2.1856256E-07 0.2986026 -0.95437753
vn 1.8745216E-06 0.29860318 -0.9543774
vn 1 0 0
vn 1 0 0
vn 1 0 0
vn 1 0 0
vn 1 0 1.0030217E-07
vn 1 0 0
vn 1 0 0
vn 1 0 0
vn 1 0 1.0030217E-07
vn 1 0 1.0030217E-07
vn 1 0 -1.17554094E-07
vn 1 0 1.0030217E-07
vn 1 0 0
vn -8.862597E-07 -0.2986027 0.95437753
vn -8.862597E-07 -0.2986027 0.95437753
vn -0 -0.29860285 0.95437753
vn 4.0407608E-07 -0.29860264 0.95437753
vn 2.1856256E-07 -0.2986026 0.95437753
vn 4.0407608E-07 -0.29860264 0.95437753
vn -0 -0.29860285 0.95437753
vn 1.2496812E-06 -0.29860258 0.9543776
vn 2.1856256E-07 -0.2986026 0.95437753
vn 2.1856256E-07 -0.2986026 0.95437753
vn -0 -0.29860213 0.9543777
vn 2.1856256E-07 -0.2986026 0.95437753
vn -1.8745216E-06 -0.29860318 0.9543774
vn -1 0 0
vn -1 0 0
vn -1 0 0
vn -1 0 0
vn -1 0 -1.0030217E-07
vn -1 0 0
vn -1 0 0
vn -1 0 0
vn -1 0 -1.0030217E-07
vn -1 0 -1.0030217E-07
vn -1 0 1.17554094E-07
vn -1 0 -1.0030217E-07
vn -1 0 0
g torche-wall_0
f 3/3/3 2/2/2 1/1/1
f 4/4/4 3/3/3 1/1/1
f 7/7/7 6/6/6 5/5/5
f 8/8/8 7/7/7 5/5/5
f 11/11/11 10/10/10 9/9/9
f 12/12/12 11/11/11 9/9/9
f 15/15/15 14/14/14 13/13/13
f 16/16/16 15/15/15 13/13/13
f 19/19/19 18/18/18 17/17/17
f 20/20/20 19/19/19 17/17/17
f 23/23/23 22/22/22 21/21/21
f 24/24/24 23/23/23 21/21/21
f 27/27/27 26/26/26 25/25/25
f 28/28/28 27/27/27 25/25/25
f 31/31/31 30/30/30 29/29/29
f 32/32/32 31/31/31 29/29/29
f 35/35/35 34/34/34 33/33/33
f 36/36/36 35/35/35 33/33/33
f 39/39/39 38/38/38 37/37/37
f 40/40/40 39/39/39 37/37/37
f 43/43/43 42/42/42 41/41/41
f 44/44/44 43/43/43 41/41/41
f 47/47/47 46/46/46 45/45/45
f 48/48/48 47/47/47 45/45/45
f 51/51/51 50/50/50 49/49/49
f 52/52/52 51/51/51 49/49/49
f 52/52/52 49/49/49 53/53/53
f 54/54/54 52/52/52 53/53/53
g torche-wall_1
f 57/57/57 56/56/56 55/55/55
f 60/60/60 59/59/59 58/58/58
f 63/63/63 62/62/62 61/61/61
f 66/66/66 65/65/65 64/64/64
f 69/69/69 68/68/68 67/67/67
f 72/72/72 71/71/71 70/70/70
f 75/75/75 74/74/74 73/73/73
f 76/76/76 75/75/75 73/73/73
f 79/79/79 78/78/78 77/77/77
f 80/80/80 79/79/79 77/77/77
f 83/83/83 82/82/82 81/81/81
f 84/84/84 83/83/83 81/81/81
f 87/87/87 86/86/86 85/85/85
f 88/88/88 87/87/87 85/85/85
f 91/91/91 90/90/90 89/89/89
f 92/92/92 91/91/91 89/89/89
f 95/95/95 94/94/94 93/93/93
f 96/96/96 95/95/95 93/93/93
f 99/99/99 98/98/98 97/97/97
f 100/100/100 99/99/99 97/97/97
f 103/103/103 102/102/102 101/101/101
f 104/104/104 103/103/103 101/101/101
f 107/107/107 106/106/106 105/105/105
f 108/108/108 107/107/107 105/105/105
f 111/111/111 110/110/110 109/109/109
f 112/112/112 111/111/111 109/109/109
f 115/115/115 114/114/114 113/113/113
f 116/116/116 115/115/115 113/113/113
f 119/119/119 118/118/118 117/117/117
f 120/120/120 119/119/119 117/117/117
f 123/123/123 122/122/122 121/121/121
f 124/124/124 123/123/123 121/121/121
f 127/127/127 126/126/126 125/125/125
f 128/128/128 127/127/127 125/125/125
f 131/131/131 130/130/130 129/129/129
f 132/132/132 131/131/131 129/129/129
f 135/135/135 134/134/134 133/133/133
f 136/136/136 135/135/135 133/133/133
f 139/139/139 138/138/138 137/137/137
f 140/140/140 139/139/139 137/137/137
f 143/143/143 142/142/142 141/141/141
f 144/144/144 143/143/143 141/141/141
f 147/147/147 146/146/146 145/145/145
f 148/148/148 147/147/147 145/145/145
f 151/151/151 150/150/150 149/149/149
f 152/152/152 151/151/151 149/149/149
f 155/155/155 154/154/154 153/153/153
f 156/156/156 155/155/155 153/153/153
f 159/159/159 158/158/158 157/157/157
f 160/160/160 159/159/159 157/157/157
f 163/163/163 162/162/162 161/161/161
f 164/164/164 163/163/163 161/161/161
f 167/167/167 166/166/166 165/165/165
f 168/168/168 167/167/167 165/165/165
g torche-wall_2
f 171/171/171 170/170/170 169/169/169
f 169/169/169 170/170/170 172/172/172
f 170/170/170 173/173/173 172/172/172
f 172/172/172 173/173/173 174/174/174
f 170/170/170 175/175/175 173/173/173
f 176/176/176 175/175/175 170/170/170
f 175/175/175 177/177/177 173/173/173
f 173/173/173 178/178/178 174/174/174
f 173/173/173 177/177/177 178/178/178
f 178/178/178 179/179/179 174/174/174
f 177/177/177 180/180/180 178/178/178
f 180/180/180 181/181/181 178/178/178
f 184/184/184 183/183/183 182/182/182
f 184/184/184 182/182/182 185/185/185
f 186/186/186 184/184/184 185/185/185
f 186/186/186 185/185/185 187/187/187
f 188/188/188 184/184/184 186/186/186
f 188/188/188 189/189/189 184/184/184
f 190/190/190 188/188/188 186/186/186
f 191/191/191 186/186/186 187/187/187
f 190/190/190 186/186/186 191/191/191
f 192/192/192 191/191/191 187/187/187
f 193/193/193 190/190/190 191/191/191
f 194/194/194 193/193/193 191/191/191
f 197/197/197 196/196/196 195/195/195
f 197/197/197 195/195/195 198/198/198
f 199/199/199 197/197/197 198/198/198
f 199/199/199 198/198/198 200/200/200
f 201/201/201 197/197/197 199/199/199
f 201/201/201 202/202/202 197/197/197
f 203/203/203 201/201/201 199/199/199
f 204/204/204 199/199/199 200/200/200
f 203/203/203 199/199/199 204/204/204
f 205/205/205 204/204/204 200/200/200
f 206/206/206 203/203/203 204/204/204
f 207/207/207 206/206/206 204/204/204
f 210/210/210 209/209/209 208/208/208
f 208/208/208 209/209/209 211/211/211
f 209/209/209 212/212/212 211/211/211
f 211/211/211 212/212/212 213/213/213
f 209/209/209 214/214/214 212/212/212
f 215/215/215 214/214/214 209/209/209
f 214/214/214 216/216/216 212/212/212
f 212/212/212 217/217/217 213/213/213
f 212/212/212 216/216/216 217/217/217
f 217/217/217 218/218/218 213/213/213
f 216/216/216 219/219/219 217/217/217
f 219/219/219 220/220/220 217/217/217
